  0
SECTION
  2
BLOCKS
  0
ENDSEC
  0
SECTION
  2
ENTITIES
  0
LINE
  8
0
 10
5.482
 11
5.482
 20
-304.82
 21
-279.82
  0
LINE
  8
0
 10
5.482
 11
11.484
 20
-279.82
 21
-279.82
  0
LINE
  8
0
 10
11.484
 11
11.484
 20
-279.82
 21
-254.82
  0
LINE
  8
0
 10
11.484
 11
5.482
 20
-254.82
 21
-254.82
  0
LINE
  8
0
 10
5.482
 11
5.482
 20
-254.82
 21
-229.82
  0
LINE
  8
0
 10
5.482
 11
11.484
 20
-229.82
 21
-229.82
  0
LINE
  8
0
 10
11.484
 11
11.484
 20
-229.82
 21
-204.82
  0
LINE
  8
0
 10
11.484
 11
5.482
 20
-204.82
 21
-204.82
  0
LINE
  8
0
 10
5.482
 11
5.482
 20
-204.82
 21
-179.82
  0
LINE
  8
0
 10
5.482
 11
11.484
 20
-179.82
 21
-179.82
  0
LINE
  8
0
 10
11.484
 11
11.484
 20
-179.82
 21
-154.82
  0
LINE
  8
0
 10
11.484
 11
5.482
 20
-154.82
 21
-154.82
  0
LINE
  8
0
 10
5.482
 11
5.482
 20
-154.82
 21
-129.82
  0
LINE
  8
0
 10
5.482
 11
11.484
 20
-129.82
 21
-129.82
  0
LINE
  8
0
 10
11.484
 11
11.484
 20
-129.82
 21
-104.82
  0
LINE
  8
0
 10
11.484
 11
5.482
 20
-104.82
 21
-104.82
  0
LINE
  8
0
 10
5.482
 11
5.482
 20
-104.82
 21
-79.82
  0
LINE
  8
0
 10
5.482
 11
11.484
 20
-79.82
 21
-79.82
  0
LINE
  8
0
 10
11.484
 11
11.484
 20
-79.82
 21
-54.82
  0
LINE
  8
0
 10
11.484
 11
5.482
 20
-54.82
 21
-54.82
  0
LINE
  8
0
 10
5.482
 11
5.482
 20
-54.82
 21
-29.82
  0
LINE
  8
0
 10
5.482
 11
11.484
 20
-29.82
 21
-29.82
  0
LINE
  8
0
 10
11.484
 11
11.484
 20
-29.82
 21
-4.82
  0
LINE
  8
0
 10
11.484
 11
40.793
 20
-4.82
 21
-4.82
  0
LINE
  8
0
 10
40.793
 11
40.828
 20
-4.82
 21
-5.32
  0
LINE
  8
0
 10
40.828
 11
40.943
 20
-5.32
 21
-6.925
  0
LINE
  8
0
 10
40.943
 11
41.021
 20
-6.925
 21
-8.017
  0
LINE
  8
0
 10
41.021
 11
41.061
 20
-8.017
 21
-8.573
  0
LINE
  8
0
 10
41.061
 11
41.136
 20
-8.573
 21
-9.622
  0
LINE
  8
0
 10
41.136
 11
41.214
 20
-9.622
 21
-10.715
  0
LINE
  8
0
 10
41.214
 11
41.328
 20
-10.715
 21
-12.319
  0
LINE
  8
0
 10
41.328
 11
41.294
 20
-12.319
 21
-12.361
  0
LINE
  8
0
 10
41.294
 11
41.244
 20
-12.361
 21
-12.422
  0
LINE
  8
0
 10
41.244
 11
41.165
 20
-12.422
 21
-12.569
  0
LINE
  8
0
 10
41.165
 11
41.05
 20
-12.569
 21
-12.785
  0
LINE
  8
0
 10
41.05
 11
41.002
 20
-12.785
 21
-12.945
  0
LINE
  8
0
 10
41.002
 11
40.93
 20
-12.945
 21
-13.179
  0
LINE
  8
0
 10
40.93
 11
40.914
 20
-13.179
 21
-13.345
  0
LINE
  8
0
 10
40.914
 11
40.89
 20
-13.345
 21
-13.589
  0
LINE
  8
0
 10
40.89
 11
40.906
 20
-13.589
 21
-13.755
  0
LINE
  8
0
 10
40.906
 11
40.93
 20
-13.755
 21
-13.999
  0
LINE
  8
0
 10
40.93
 11
40.979
 20
-13.999
 21
-14.158
  0
LINE
  8
0
 10
40.979
 11
41.05
 20
-14.158
 21
-14.393
  0
LINE
  8
0
 10
41.05
 11
41.129
 20
-14.393
 21
-14.54
  0
LINE
  8
0
 10
41.129
 11
41.244
 20
-14.54
 21
-14.756
  0
LINE
  8
0
 10
41.244
 11
41.35
 20
-14.756
 21
-14.885
  0
LINE
  8
0
 10
41.35
 11
41.505
 20
-14.885
 21
-15.074
  0
LINE
  8
0
 10
41.505
 11
41.695
 20
-15.074
 21
-15.229
  0
LINE
  8
0
 10
41.695
 11
41.823
 20
-15.229
 21
-15.335
  0
LINE
  8
0
 10
41.823
 11
42.039
 20
-15.335
 21
-15.45
  0
LINE
  8
0
 10
42.039
 11
42.186
 20
-15.45
 21
-15.529
  0
LINE
  8
0
 10
42.186
 11
42.421
 20
-15.529
 21
-15.6
  0
LINE
  8
0
 10
42.421
 11
42.58
 20
-15.6
 21
-15.649
  0
LINE
  8
0
 10
42.58
 11
42.824
 20
-15.649
 21
-15.673
  0
LINE
  8
0
 10
42.824
 11
42.99
 20
-15.673
 21
-15.689
  0
LINE
  8
0
 10
42.99
 11
43.234
 20
-15.689
 21
-15.665
  0
LINE
  8
0
 10
43.234
 11
43.4
 20
-15.665
 21
-15.649
  0
LINE
  8
0
 10
43.4
 11
43.634
 20
-15.649
 21
-15.578
  0
LINE
  8
0
 10
43.634
 11
43.794
 20
-15.578
 21
-15.529
  0
LINE
  8
0
 10
43.794
 11
43.941
 20
-15.529
 21
-15.45
  0
LINE
  8
0
 10
43.941
 11
44.157
 20
-15.45
 21
-15.335
  0
LINE
  8
0
 10
44.157
 11
44.346
 20
-15.335
 21
-15.18
  0
LINE
  8
0
 10
44.346
 11
44.475
 20
-15.18
 21
-15.074
  0
LINE
  8
0
 10
44.475
 11
44.63
 20
-15.074
 21
-14.885
  0
LINE
  8
0
 10
44.63
 11
44.736
 20
-14.885
 21
-14.756
  0
LINE
  8
0
 10
44.736
 11
44.815
 20
-14.756
 21
-14.609
  0
LINE
  8
0
 10
44.815
 11
44.93
 20
-14.609
 21
-14.393
  0
LINE
  8
0
 10
44.93
 11
44.979
 20
-14.393
 21
-14.233
  0
LINE
  8
0
 10
44.979
 11
45.05
 20
-14.233
 21
-13.999
  0
LINE
  8
0
 10
45.05
 11
45.066
 20
-13.999
 21
-13.833
  0
LINE
  8
0
 10
45.066
 11
45.09
 20
-13.833
 21
-13.589
  0
LINE
  8
0
 10
45.09
 11
45.088
 20
-13.589
 21
-13.566
  0
LINE
  8
0
 10
45.088
 11
45.085
 20
-13.566
 21
-13.533
  0
LINE
  8
0
 10
45.085
 11
45.09
 20
-13.533
 21
-11.784
  0
LINE
  8
0
 10
45.09
 11
45.09
 20
-11.784
 21
-4.82
  0
LINE
  8
0
 10
45.09
 11
174.874
 20
-4.82
 21
-4.82
  0
LINE
  8
0
 10
174.874
 11
174.874
 20
-4.82
 21
-13.533
  0
LINE
  8
0
 10
174.874
 11
174.875
 20
-13.533
 21
-13.579
  0
LINE
  8
0
 10
174.875
 11
174.907
 20
-13.579
 21
-13.929
  0
LINE
  8
0
 10
174.907
 11
174.914
 20
-13.929
 21
-13.999
  0
LINE
  8
0
 10
174.914
 11
175.013
 20
-13.999
 21
-14.325
  0
LINE
  8
0
 10
175.013
 11
175.034
 20
-14.325
 21
-14.393
  0
LINE
  8
0
 10
175.034
 11
175.194
 20
-14.393
 21
-14.694
  0
LINE
  8
0
 10
175.194
 11
175.228
 20
-14.694
 21
-14.756
  0
LINE
  8
0
 10
175.228
 11
175.272
 20
-14.756
 21
-14.81
  0
LINE
  8
0
 10
175.272
 11
175.489
 20
-14.81
 21
-15.074
  0
LINE
  8
0
 10
175.489
 11
175.543
 20
-15.074
 21
-15.118
  0
LINE
  8
0
 10
175.543
 11
175.807
 20
-15.118
 21
-15.335
  0
LINE
  8
0
 10
175.807
 11
176.108
 20
-15.335
 21
-15.496
  0
LINE
  8
0
 10
176.108
 11
176.17
 20
-15.496
 21
-15.529
  0
LINE
  8
0
 10
176.17
 11
176.497
 20
-15.529
 21
-15.628
  0
LINE
  8
0
 10
176.497
 11
176.564
 20
-15.628
 21
-15.649
  0
LINE
  8
0
 10
176.564
 11
176.904
 20
-15.649
 21
-15.682
  0
LINE
  8
0
 10
176.904
 11
176.974
 20
-15.682
 21
-15.689
  0
LINE
  8
0
 10
176.974
 11
177.313
 20
-15.689
 21
-15.655
  0
LINE
  8
0
 10
177.313
 11
177.383
 20
-15.655
 21
-15.649
  0
LINE
  8
0
 10
177.383
 11
177.451
 20
-15.649
 21
-15.628
  0
LINE
  8
0
 10
177.451
 11
177.777
 20
-15.628
 21
-15.529
  0
LINE
  8
0
 10
177.777
 11
177.839
 20
-15.529
 21
-15.496
  0
LINE
  8
0
 10
177.839
 11
178.14
 20
-15.496
 21
-15.335
  0
LINE
  8
0
 10
178.14
 11
178.404
 20
-15.335
 21
-15.118
  0
LINE
  8
0
 10
178.404
 11
178.459
 20
-15.118
 21
-15.074
  0
LINE
  8
0
 10
178.459
 11
178.675
 20
-15.074
 21
-14.81
  0
LINE
  8
0
 10
178.675
 11
178.72
 20
-14.81
 21
-14.756
  0
LINE
  8
0
 10
178.72
 11
178.881
 20
-14.756
 21
-14.455
  0
LINE
  8
0
 10
178.881
 11
178.914
 20
-14.455
 21
-14.393
  0
LINE
  8
0
 10
178.914
 11
179.013
 20
-14.393
 21
-14.066
  0
LINE
  8
0
 10
179.013
 11
179.033
 20
-14.066
 21
-13.999
  0
LINE
  8
0
 10
179.033
 11
179.067
 20
-13.999
 21
-13.659
  0
LINE
  8
0
 10
179.067
 11
179.074
 20
-13.659
 21
-13.589
  0
LINE
  8
0
 10
179.074
 11
179.04
 20
-13.589
 21
-13.249
  0
LINE
  8
0
 10
179.04
 11
179.033
 20
-13.249
 21
-13.179
  0
LINE
  8
0
 10
179.033
 11
178.934
 20
-13.179
 21
-12.853
  0
LINE
  8
0
 10
178.934
 11
178.914
 20
-12.853
 21
-12.785
  0
LINE
  8
0
 10
178.914
 11
178.753
 20
-12.785
 21
-12.484
  0
LINE
  8
0
 10
178.753
 11
178.72
 20
-12.484
 21
-12.422
  0
LINE
  8
0
 10
178.72
 11
178.65
 20
-12.422
 21
-12.337
  0
LINE
  8
0
 10
178.65
 11
178.635
 20
-12.337
 21
-12.319
  0
LINE
  8
0
 10
178.635
 11
178.795
 20
-12.319
 21
-10.083
  0
LINE
  8
0
 10
178.795
 11
178.828
 20
-10.083
 21
-9.622
  0
LINE
  8
0
 10
178.828
 11
178.988
 20
-9.622
 21
-7.386
  0
LINE
  8
0
 10
178.988
 11
179.021
 20
-7.386
 21
-6.925
  0
LINE
  8
0
 10
179.021
 11
179.054
 20
-6.925
 21
-6.464
  0
LINE
  8
0
 10
179.054
 11
179.171
 20
-6.464
 21
-4.82
  0
LINE
  8
0
 10
179.171
 11
214.482
 20
-4.82
 21
-4.82
  0
LINE
  8
0
 10
214.482
 11
214.482
 20
-4.82
 21
-29.82
  0
LINE
  8
0
 10
214.482
 11
208.48
 20
-29.82
 21
-29.82
  0
LINE
  8
0
 10
208.48
 11
208.48
 20
-29.82
 21
-54.82
  0
LINE
  8
0
 10
208.48
 11
214.482
 20
-54.82
 21
-54.82
  0
LINE
  8
0
 10
214.482
 11
214.482
 20
-54.82
 21
-79.82
  0
LINE
  8
0
 10
214.482
 11
208.48
 20
-79.82
 21
-79.82
  0
LINE
  8
0
 10
208.48
 11
208.48
 20
-79.82
 21
-104.82
  0
LINE
  8
0
 10
208.48
 11
214.482
 20
-104.82
 21
-104.82
  0
LINE
  8
0
 10
214.482
 11
214.482
 20
-104.82
 21
-129.82
  0
LINE
  8
0
 10
214.482
 11
208.48
 20
-129.82
 21
-129.82
  0
LINE
  8
0
 10
208.48
 11
208.48
 20
-129.82
 21
-154.82
  0
LINE
  8
0
 10
208.48
 11
214.482
 20
-154.82
 21
-154.82
  0
LINE
  8
0
 10
214.482
 11
214.482
 20
-154.82
 21
-179.82
  0
LINE
  8
0
 10
214.482
 11
208.48
 20
-179.82
 21
-179.82
  0
LINE
  8
0
 10
208.48
 11
208.48
 20
-179.82
 21
-204.82
  0
LINE
  8
0
 10
208.48
 11
214.482
 20
-204.82
 21
-204.82
  0
LINE
  8
0
 10
214.482
 11
214.482
 20
-204.82
 21
-229.82
  0
LINE
  8
0
 10
214.482
 11
208.48
 20
-229.82
 21
-229.82
  0
LINE
  8
0
 10
208.48
 11
208.48
 20
-229.82
 21
-254.82
  0
LINE
  8
0
 10
208.48
 11
214.482
 20
-254.82
 21
-254.82
  0
LINE
  8
0
 10
214.482
 11
214.482
 20
-254.82
 21
-279.82
  0
LINE
  8
0
 10
214.482
 11
208.48
 20
-279.82
 21
-279.82
  0
LINE
  8
0
 10
208.48
 11
208.48
 20
-279.82
 21
-304.82
  0
LINE
  8
0
 10
208.48
 11
179.064
 20
-304.82
 21
-304.82
  0
LINE
  8
0
 10
179.064
 11
179.024
 20
-304.82
 21
-304.253
  0
LINE
  8
0
 10
179.024
 11
178.946
 20
-304.253
 21
-303.16
  0
LINE
  8
0
 10
178.946
 11
178.831
 20
-303.16
 21
-301.556
  0
LINE
  8
0
 10
178.831
 11
178.795
 20
-301.556
 21
-301.053
  0
LINE
  8
0
 10
178.795
 11
178.753
 20
-301.053
 21
-300.463
  0
LINE
  8
0
 10
178.753
 11
178.638
 20
-300.463
 21
-298.859
  0
LINE
  8
0
 10
178.638
 11
178.672
 20
-298.859
 21
-298.817
  0
LINE
  8
0
 10
178.672
 11
178.723
 20
-298.817
 21
-298.756
  0
LINE
  8
0
 10
178.723
 11
178.801
 20
-298.756
 21
-298.609
  0
LINE
  8
0
 10
178.801
 11
178.917
 20
-298.609
 21
-298.393
  0
LINE
  8
0
 10
178.917
 11
178.965
 20
-298.393
 21
-298.233
  0
LINE
  8
0
 10
178.965
 11
179.036
 20
-298.233
 21
-297.999
  0
LINE
  8
0
 10
179.036
 11
179.053
 20
-297.999
 21
-297.833
  0
LINE
  8
0
 10
179.053
 11
179.077
 20
-297.833
 21
-297.589
  0
LINE
  8
0
 10
179.077
 11
179.06
 20
-297.589
 21
-297.423
  0
LINE
  8
0
 10
179.06
 11
179.036
 20
-297.423
 21
-297.179
  0
LINE
  8
0
 10
179.036
 11
178.988
 20
-297.179
 21
-297.02
  0
LINE
  8
0
 10
178.988
 11
178.917
 20
-297.02
 21
-296.785
  0
LINE
  8
0
 10
178.917
 11
178.838
 20
-296.785
 21
-296.638
  0
LINE
  8
0
 10
178.838
 11
178.723
 20
-296.638
 21
-296.422
  0
LINE
  8
0
 10
178.723
 11
178.617
 20
-296.422
 21
-296.293
  0
LINE
  8
0
 10
178.617
 11
178.461
 20
-296.293
 21
-296.104
  0
LINE
  8
0
 10
178.461
 11
178.272
 20
-296.104
 21
-295.949
  0
LINE
  8
0
 10
178.272
 11
178.143
 20
-295.949
 21
-295.843
  0
LINE
  8
0
 10
178.143
 11
177.927
 20
-295.843
 21
-295.728
  0
LINE
  8
0
 10
177.927
 11
177.78
 20
-295.728
 21
-295.649
  0
LINE
  8
0
 10
177.78
 11
177.546
 20
-295.649
 21
-295.578
  0
LINE
  8
0
 10
177.546
 11
177.386
 20
-295.578
 21
-295.529
  0
LINE
  8
0
 10
177.386
 11
177.143
 20
-295.529
 21
-295.505
  0
LINE
  8
0
 10
177.143
 11
176.977
 20
-295.505
 21
-295.489
  0
LINE
  8
0
 10
176.977
 11
176.733
 20
-295.489
 21
-295.513
  0
LINE
  8
0
 10
176.733
 11
176.567
 20
-295.513
 21
-295.529
  0
LINE
  8
0
 10
176.567
 11
176.332
 20
-295.529
 21
-295.6
  0
LINE
  8
0
 10
176.332
 11
176.173
 20
-295.6
 21
-295.649
  0
LINE
  8
0
 10
176.173
 11
176.026
 20
-295.649
 21
-295.728
  0
LINE
  8
0
 10
176.026
 11
175.81
 20
-295.728
 21
-295.843
  0
LINE
  8
0
 10
175.81
 11
175.621
 20
-295.843
 21
-295.998
  0
LINE
  8
0
 10
175.621
 11
175.492
 20
-295.998
 21
-296.104
  0
LINE
  8
0
 10
175.492
 11
175.336
 20
-296.104
 21
-296.293
  0
LINE
  8
0
 10
175.336
 11
175.23
 20
-296.293
 21
-296.422
  0
LINE
  8
0
 10
175.23
 11
175.152
 20
-296.422
 21
-296.569
  0
LINE
  8
0
 10
175.152
 11
175.036
 20
-296.569
 21
-296.785
  0
LINE
  8
0
 10
175.036
 11
174.988
 20
-296.785
 21
-296.945
  0
LINE
  8
0
 10
174.988
 11
174.917
 20
-296.945
 21
-297.179
  0
LINE
  8
0
 10
174.917
 11
174.901
 20
-297.179
 21
-297.345
  0
LINE
  8
0
 10
174.901
 11
174.877
 20
-297.345
 21
-297.589
  0
LINE
  8
0
 10
174.877
 11
174.879
 20
-297.589
 21
-297.612
  0
LINE
  8
0
 10
174.879
 11
174.877
 20
-297.612
 21
-297.645
  0
LINE
  8
0
 10
174.877
 11
174.877
 20
-297.645
 21
-304.82
  0
LINE
  8
0
 10
174.877
 11
45.087
 20
-304.82
 21
-304.82
  0
LINE
  8
0
 10
45.087
 11
45.087
 20
-304.82
 21
-300.082
  0
LINE
  8
0
 10
45.087
 11
45.082
 20
-300.082
 21
-297.645
  0
LINE
  8
0
 10
45.082
 11
45.087
 20
-297.645
 21
-297.589
  0
LINE
  8
0
 10
45.087
 11
45.054
 20
-297.589
 21
-297.249
  0
LINE
  8
0
 10
45.054
 11
45.047
 20
-297.249
 21
-297.179
  0
LINE
  8
0
 10
45.047
 11
44.948
 20
-297.179
 21
-296.853
  0
LINE
  8
0
 10
44.948
 11
44.928
 20
-296.853
 21
-296.785
  0
LINE
  8
0
 10
44.928
 11
44.767
 20
-296.785
 21
-296.484
  0
LINE
  8
0
 10
44.767
 11
44.734
 20
-296.484
 21
-296.422
  0
LINE
  8
0
 10
44.734
 11
44.689
 20
-296.422
 21
-296.368
  0
LINE
  8
0
 10
44.689
 11
44.472
 20
-296.368
 21
-296.104
  0
LINE
  8
0
 10
44.472
 11
44.418
 20
-296.104
 21
-296.06
  0
LINE
  8
0
 10
44.418
 11
44.154
 20
-296.06
 21
-295.843
  0
LINE
  8
0
 10
44.154
 11
43.853
 20
-295.843
 21
-295.682
  0
LINE
  8
0
 10
43.853
 11
43.791
 20
-295.682
 21
-295.649
  0
LINE
  8
0
 10
43.791
 11
43.465
 20
-295.649
 21
-295.55
  0
LINE
  8
0
 10
43.465
 11
43.397
 20
-295.55
 21
-295.529
  0
LINE
  8
0
 10
43.397
 11
43.057
 20
-295.529
 21
-295.496
  0
LINE
  8
0
 10
43.057
 11
42.987
 20
-295.496
 21
-295.489
  0
LINE
  8
0
 10
42.987
 11
42.648
 20
-295.489
 21
-295.523
  0
LINE
  8
0
 10
42.648
 11
42.578
 20
-295.523
 21
-295.529
  0
LINE
  8
0
 10
42.578
 11
42.51
 20
-295.529
 21
-295.55
  0
LINE
  8
0
 10
42.51
 11
42.184
 20
-295.55
 21
-295.649
  0
LINE
  8
0
 10
42.184
 11
42.122
 20
-295.649
 21
-295.682
  0
LINE
  8
0
 10
42.122
 11
41.821
 20
-295.682
 21
-295.843
  0
LINE
  8
0
 10
41.821
 11
41.557
 20
-295.843
 21
-296.06
  0
LINE
  8
0
 10
41.557
 11
41.503
 20
-296.06
 21
-296.104
  0
LINE
  8
0
 10
41.503
 11
41.286
 20
-296.104
 21
-296.368
  0
LINE
  8
0
 10
41.286
 11
41.241
 20
-296.368
 21
-296.422
  0
LINE
  8
0
 10
41.241
 11
41.081
 20
-296.422
 21
-296.723
  0
LINE
  8
0
 10
41.081
 11
41.047
 20
-296.723
 21
-296.785
  0
LINE
  8
0
 10
41.047
 11
40.948
 20
-296.785
 21
-297.112
  0
LINE
  8
0
 10
40.948
 11
40.928
 20
-297.112
 21
-297.179
  0
LINE
  8
0
 10
40.928
 11
40.894
 20
-297.179
 21
-297.519
  0
LINE
  8
0
 10
40.894
 11
40.887
 20
-297.519
 21
-297.589
  0
LINE
  8
0
 10
40.887
 11
40.921
 20
-297.589
 21
-297.929
  0
LINE
  8
0
 10
40.921
 11
40.928
 20
-297.929
 21
-297.999
  0
LINE
  8
0
 10
40.928
 11
41.027
 20
-297.999
 21
-298.325
  0
LINE
  8
0
 10
41.027
 11
41.047
 20
-298.325
 21
-298.393
  0
LINE
  8
0
 10
41.047
 11
41.208
 20
-298.393
 21
-298.694
  0
LINE
  8
0
 10
41.208
 11
41.241
 20
-298.694
 21
-298.756
  0
LINE
  8
0
 10
41.241
 11
41.311
 20
-298.756
 21
-298.841
  0
LINE
  8
0
 10
41.311
 11
41.326
 20
-298.841
 21
-298.859
  0
LINE
  8
0
 10
41.326
 11
41.166
 20
-298.859
 21
-301.095
  0
LINE
  8
0
 10
41.166
 11
41.133
 20
-301.095
 21
-301.556
  0
LINE
  8
0
 10
41.133
 11
40.973
 20
-301.556
 21
-303.792
  0
LINE
  8
0
 10
40.973
 11
40.94
 20
-303.792
 21
-304.253
  0
LINE
  8
0
 10
40.94
 11
40.908
 20
-304.253
 21
-304.714
  0
LINE
  8
0
 10
40.908
 11
40.9
 20
-304.714
 21
-304.82
  0
LINE
  8
0
 10
40.9
 11
5.482
 20
-304.82
 21
-304.82
  0
LINE
  8
0
 10
16.982
 11
17.073
 20
-75.384
 21
-74.455
  0
LINE
  8
0
 10
17.073
 11
17.174
 20
-74.455
 21
-73.433
  0
LINE
  8
0
 10
17.174
 11
17.399
 20
-73.433
 21
-72.693
  0
LINE
  8
0
 10
17.399
 11
17.743
 20
-72.693
 21
-71.557
  0
LINE
  8
0
 10
17.743
 11
18.667
 20
-71.557
 21
-69.828
  0
LINE
  8
0
 10
18.667
 11
19.911
 20
-69.828
 21
-68.313
  0
LINE
  8
0
 10
19.911
 11
21.426
 20
-68.313
 21
-67.069
  0
LINE
  8
0
 10
21.426
 11
23.155
 20
-67.069
 21
-66.145
  0
LINE
  8
0
 10
23.155
 11
25.031
 20
-66.145
 21
-65.576
  0
LINE
  8
0
 10
25.031
 11
25.475
 20
-65.576
 21
-65.532
  0
LINE
  8
0
 10
25.475
 11
26.982
 20
-65.532
 21
-65.384
  0
LINE
  8
0
 10
26.982
 11
28.933
 20
-65.384
 21
-65.576
  0
LINE
  8
0
 10
28.933
 11
30.809
 20
-65.576
 21
-66.145
  0
LINE
  8
0
 10
30.809
 11
32.538
 20
-66.145
 21
-67.069
  0
LINE
  8
0
 10
32.538
 11
34.053
 20
-67.069
 21
-68.313
  0
LINE
  8
0
 10
34.053
 11
35.297
 20
-68.313
 21
-69.828
  0
LINE
  8
0
 10
35.297
 11
36.221
 20
-69.828
 21
-71.557
  0
LINE
  8
0
 10
36.221
 11
36.782
 20
-71.557
 21
-73.406
  0
LINE
  8
0
 10
36.782
 11
36.79
 20
-73.406
 21
-73.433
  0
LINE
  8
0
 10
36.79
 11
36.982
 20
-73.433
 21
-75.384
  0
LINE
  8
0
 10
36.982
 11
36.79
 20
-75.384
 21
-77.335
  0
LINE
  8
0
 10
36.79
 11
36.221
 20
-77.335
 21
-79.211
  0
LINE
  8
0
 10
36.221
 11
35.297
 20
-79.211
 21
-80.94
  0
LINE
  8
0
 10
35.297
 11
34.053
 20
-80.94
 21
-82.455
  0
LINE
  8
0
 10
34.053
 11
32.538
 20
-82.455
 21
-83.699
  0
LINE
  8
0
 10
32.538
 11
30.809
 20
-83.699
 21
-84.623
  0
LINE
  8
0
 10
30.809
 11
30.096
 20
-84.623
 21
-84.839
  0
LINE
  8
0
 10
30.096
 11
28.933
 20
-84.839
 21
-85.192
  0
LINE
  8
0
 10
28.933
 11
26.982
 20
-85.192
 21
-85.384
  0
LINE
  8
0
 10
26.982
 11
26.438
 20
-85.384
 21
-85.33
  0
LINE
  8
0
 10
26.438
 11
26.241
 20
-85.33
 21
-85.311
  0
LINE
  8
0
 10
26.241
 11
25.031
 20
-85.311
 21
-85.192
  0
LINE
  8
0
 10
25.031
 11
23.155
 20
-85.192
 21
-84.623
  0
LINE
  8
0
 10
23.155
 11
21.426
 20
-84.623
 21
-83.699
  0
LINE
  8
0
 10
21.426
 11
19.911
 20
-83.699
 21
-82.455
  0
LINE
  8
0
 10
19.911
 11
19.588
 20
-82.455
 21
-82.062
  0
LINE
  8
0
 10
19.588
 11
18.667
 20
-82.062
 21
-80.94
  0
LINE
  8
0
 10
18.667
 11
17.743
 20
-80.94
 21
-79.211
  0
LINE
  8
0
 10
17.743
 11
17.174
 20
-79.211
 21
-77.335
  0
LINE
  8
0
 10
17.174
 11
16.982
 20
-77.335
 21
-75.384
  0
LINE
  8
0
 10
16.982
 11
17.174
 20
-45.384
 21
-43.433
  0
LINE
  8
0
 10
17.174
 11
17.39
 20
-43.433
 21
-42.72
  0
LINE
  8
0
 10
17.39
 11
17.743
 20
-42.72
 21
-41.557
  0
LINE
  8
0
 10
17.743
 11
18.667
 20
-41.557
 21
-39.828
  0
LINE
  8
0
 10
18.667
 11
19.911
 20
-39.828
 21
-38.313
  0
LINE
  8
0
 10
19.911
 11
21.426
 20
-38.313
 21
-37.069
  0
LINE
  8
0
 10
21.426
 11
23.155
 20
-37.069
 21
-36.145
  0
LINE
  8
0
 10
23.155
 11
25.031
 20
-36.145
 21
-35.576
  0
LINE
  8
0
 10
25.031
 11
26.534
 20
-35.576
 21
-35.428
  0
LINE
  8
0
 10
26.534
 11
26.646
 20
-35.428
 21
-35.417
  0
LINE
  8
0
 10
26.646
 11
26.801
 20
-35.417
 21
-35.402
  0
LINE
  8
0
 10
26.801
 11
26.908
 20
-35.402
 21
-35.391
  0
LINE
  8
0
 10
26.908
 11
26.982
 20
-35.391
 21
-35.384
  0
LINE
  8
0
 10
26.982
 11
27.039
 20
-35.384
 21
-35.39
  0
LINE
  8
0
 10
27.039
 11
27.122
 20
-35.39
 21
-35.398
  0
LINE
  8
0
 10
27.122
 11
27.225
 20
-35.398
 21
-35.408
  0
LINE
  8
0
 10
27.225
 11
28.933
 20
-35.408
 21
-35.576
  0
LINE
  8
0
 10
28.933
 11
30.809
 20
-35.576
 21
-36.145
  0
LINE
  8
0
 10
30.809
 11
32.538
 20
-36.145
 21
-37.069
  0
LINE
  8
0
 10
32.538
 11
32.611
 20
-37.069
 21
-37.13
  0
LINE
  8
0
 10
32.611
 11
34.053
 20
-37.13
 21
-38.313
  0
LINE
  8
0
 10
34.053
 11
34.831
 20
-38.313
 21
-39.261
  0
LINE
  8
0
 10
34.831
 11
35.297
 20
-39.261
 21
-39.828
  0
LINE
  8
0
 10
35.297
 11
36.221
 20
-39.828
 21
-41.557
  0
LINE
  8
0
 10
36.221
 11
36.79
 20
-41.557
 21
-43.433
  0
LINE
  8
0
 10
36.79
 11
36.982
 20
-43.433
 21
-45.384
  0
LINE
  8
0
 10
36.982
 11
36.909
 20
-45.384
 21
-46.125
  0
LINE
  8
0
 10
36.909
 11
36.79
 20
-46.125
 21
-47.335
  0
LINE
  8
0
 10
36.79
 11
36.221
 20
-47.335
 21
-49.211
  0
LINE
  8
0
 10
36.221
 11
35.297
 20
-49.211
 21
-50.94
  0
LINE
  8
0
 10
35.297
 11
34.053
 20
-50.94
 21
-52.455
  0
LINE
  8
0
 10
34.053
 11
32.538
 20
-52.455
 21
-53.699
  0
LINE
  8
0
 10
32.538
 11
31.085
 20
-53.699
 21
-54.475
  0
LINE
  8
0
 10
31.085
 11
30.809
 20
-54.475
 21
-54.623
  0
LINE
  8
0
 10
30.809
 11
29.185
 20
-54.623
 21
-55.115
  0
LINE
  8
0
 10
29.185
 11
28.933
 20
-55.115
 21
-55.192
  0
LINE
  8
0
 10
28.933
 11
26.982
 20
-55.192
 21
-55.384
  0
LINE
  8
0
 10
26.982
 11
25.031
 20
-55.384
 21
-55.192
  0
LINE
  8
0
 10
25.031
 11
24.819
 20
-55.192
 21
-55.128
  0
LINE
  8
0
 10
24.819
 11
23.85
 20
-55.128
 21
-54.833
  0
LINE
  8
0
 10
23.85
 11
23.155
 20
-54.833
 21
-54.623
  0
LINE
  8
0
 10
23.155
 11
21.426
 20
-54.623
 21
-53.699
  0
LINE
  8
0
 10
21.426
 11
19.911
 20
-53.699
 21
-52.455
  0
LINE
  8
0
 10
19.911
 11
18.667
 20
-52.455
 21
-50.94
  0
LINE
  8
0
 10
18.667
 11
18.316
 20
-50.94
 21
-50.283
  0
LINE
  8
0
 10
18.316
 11
17.743
 20
-50.283
 21
-49.211
  0
LINE
  8
0
 10
17.743
 11
17.277
 20
-49.211
 21
-47.675
  0
LINE
  8
0
 10
17.277
 11
17.266
 20
-47.675
 21
-47.638
  0
LINE
  8
0
 10
17.266
 11
17.257
 20
-47.638
 21
-47.609
  0
LINE
  8
0
 10
17.257
 11
17.244
 20
-47.609
 21
-47.564
  0
LINE
  8
0
 10
17.244
 11
17.234
 20
-47.564
 21
-47.531
  0
LINE
  8
0
 10
17.234
 11
17.219
 20
-47.531
 21
-47.481
  0
LINE
  8
0
 10
17.219
 11
17.208
 20
-47.481
 21
-47.445
  0
LINE
  8
0
 10
17.208
 11
17.174
 20
-47.445
 21
-47.335
  0
LINE
  8
0
 10
17.174
 11
17.08
 20
-47.335
 21
-46.384
  0
LINE
  8
0
 10
17.08
 11
16.982
 20
-46.384
 21
-45.384
  0
LINE
  8
0
 10
17.982
 11
18.193
 20
-267.32
 21
-265.174
  0
LINE
  8
0
 10
18.193
 11
18.819
 20
-265.174
 21
-263.11
  0
LINE
  8
0
 10
18.819
 11
19.836
 20
-263.11
 21
-261.209
  0
LINE
  8
0
 10
19.836
 11
21.204
 20
-261.209
 21
-259.542
  0
LINE
  8
0
 10
21.204
 11
22.871
 20
-259.542
 21
-258.174
  0
LINE
  8
0
 10
22.871
 11
23.557
 20
-258.174
 21
-257.807
  0
LINE
  8
0
 10
23.557
 11
23.57
 20
-257.807
 21
-257.8
  0
LINE
  8
0
 10
23.57
 11
24.772
 20
-257.8
 21
-257.157
  0
LINE
  8
0
 10
24.772
 11
26.836
 20
-257.157
 21
-256.531
  0
LINE
  8
0
 10
26.836
 11
28.982
 20
-256.531
 21
-256.32
  0
LINE
  8
0
 10
28.982
 11
31.128
 20
-256.32
 21
-256.531
  0
LINE
  8
0
 10
31.128
 11
33.191
 20
-256.531
 21
-257.157
  0
LINE
  8
0
 10
33.191
 11
35.093
 20
-257.157
 21
-258.174
  0
LINE
  8
0
 10
35.093
 11
36.76
 20
-258.174
 21
-259.542
  0
LINE
  8
0
 10
36.76
 11
38.128
 20
-259.542
 21
-261.209
  0
LINE
  8
0
 10
38.128
 11
38.24
 20
-261.209
 21
-261.418
  0
LINE
  8
0
 10
38.24
 11
38.253
 20
-261.418
 21
-261.442
  0
LINE
  8
0
 10
38.253
 11
39.145
 20
-261.442
 21
-263.11
  0
LINE
  8
0
 10
39.145
 11
39.771
 20
-263.11
 21
-265.174
  0
LINE
  8
0
 10
39.771
 11
39.982
 20
-265.174
 21
-267.32
  0
LINE
  8
0
 10
39.982
 11
39.771
 20
-267.32
 21
-269.466
  0
LINE
  8
0
 10
39.771
 11
39.145
 20
-269.466
 21
-271.53
  0
LINE
  8
0
 10
39.145
 11
38.128
 20
-271.53
 21
-273.431
  0
LINE
  8
0
 10
38.128
 11
36.76
 20
-273.431
 21
-275.098
  0
LINE
  8
0
 10
36.76
 11
35.093
 20
-275.098
 21
-276.466
  0
LINE
  8
0
 10
35.093
 11
33.191
 20
-276.466
 21
-277.483
  0
LINE
  8
0
 10
33.191
 11
31.128
 20
-277.483
 21
-278.109
  0
LINE
  8
0
 10
31.128
 11
28.982
 20
-278.109
 21
-278.32
  0
LINE
  8
0
 10
28.982
 11
26.836
 20
-278.32
 21
-278.109
  0
LINE
  8
0
 10
26.836
 11
24.772
 20
-278.109
 21
-277.483
  0
LINE
  8
0
 10
24.772
 11
22.871
 20
-277.483
 21
-276.466
  0
LINE
  8
0
 10
22.871
 11
21.204
 20
-276.466
 21
-275.098
  0
LINE
  8
0
 10
21.204
 11
19.836
 20
-275.098
 21
-273.431
  0
LINE
  8
0
 10
19.836
 11
18.819
 20
-273.431
 21
-271.529
  0
LINE
  8
0
 10
18.819
 11
18.193
 20
-271.529
 21
-269.466
  0
LINE
  8
0
 10
18.193
 11
17.982
 20
-269.466
 21
-267.32
  0
LINE
  8
0
 10
19.074
 11
19.082
 20
-225.574
 21
-221.454
  0
LINE
  8
0
 10
19.082
 11
19.095
 20
-221.454
 21
-215.274
  0
LINE
  8
0
 10
19.095
 11
19.106
 20
-215.274
 21
-209.094
  0
LINE
  8
0
 10
19.106
 11
19.107
 20
-209.094
 21
-209.004
  0
LINE
  8
0
 10
19.107
 11
19.114
 20
-209.004
 21
-204.974
  0
LINE
  8
0
 10
19.114
 11
19.157
 20
-204.974
 21
-204.82
  0
LINE
  8
0
 10
19.157
 11
19.161
 20
-204.82
 21
-204.804
  0
LINE
  8
0
 10
19.161
 11
19.193
 20
-204.804
 21
-204.69
  0
LINE
  8
0
 10
19.193
 11
19.24
 20
-204.69
 21
-204.52
  0
LINE
  8
0
 10
19.24
 11
19.271
 20
-204.52
 21
-204.406
  0
LINE
  8
0
 10
19.271
 11
19.351
 20
-204.406
 21
-204.255
  0
LINE
  8
0
 10
19.351
 11
19.404
 20
-204.255
 21
-204.154
  0
LINE
  8
0
 10
19.404
 11
19.483
 20
-204.154
 21
-204.004
  0
LINE
  8
0
 10
19.483
 11
19.537
 20
-204.004
 21
-203.904
  0
LINE
  8
0
 10
19.537
 11
19.643
 20
-203.904
 21
-203.785
  0
LINE
  8
0
 10
19.643
 11
19.716
 20
-203.785
 21
-203.702
  0
LINE
  8
0
 10
19.716
 11
19.822
 20
-203.702
 21
-203.581
  0
LINE
  8
0
 10
19.822
 11
19.893
 20
-203.581
 21
-203.5
  0
LINE
  8
0
 10
19.893
 11
20.021
 20
-203.5
 21
-203.416
  0
LINE
  8
0
 10
20.021
 11
20.106
 20
-203.416
 21
-203.36
  0
LINE
  8
0
 10
20.106
 11
20.235
 20
-203.36
 21
-203.276
  0
LINE
  8
0
 10
20.235
 11
20.321
 20
-203.276
 21
-203.22
  0
LINE
  8
0
 10
20.321
 11
20.414
 20
-203.22
 21
-203.193
  0
LINE
  8
0
 10
20.414
 11
20.554
 20
-203.193
 21
-203.152
  0
LINE
  8
0
 10
20.554
 11
20.694
 20
-203.152
 21
-203.11
  0
LINE
  8
0
 10
20.694
 11
20.788
 20
-203.11
 21
-203.082
  0
LINE
  8
0
 10
20.788
 11
20.884
 20
-203.082
 21
-203.085
  0
LINE
  8
0
 10
20.884
 11
21.029
 20
-203.085
 21
-203.088
  0
LINE
  8
0
 10
21.029
 11
21.125
 20
-203.088
 21
-203.091
  0
LINE
  8
0
 10
21.125
 11
21.269
 20
-203.091
 21
-203.094
  0
LINE
  8
0
 10
21.269
 11
21.362
 20
-203.094
 21
-203.126
  0
LINE
  8
0
 10
21.362
 11
21.501
 20
-203.126
 21
-203.174
  0
LINE
  8
0
 10
21.501
 11
21.594
 20
-203.174
 21
-203.206
  0
LINE
  8
0
 10
21.594
 11
21.733
 20
-203.206
 21
-203.254
  0
LINE
  8
0
 10
21.733
 11
21.817
 20
-203.254
 21
-203.314
  0
LINE
  8
0
 10
21.817
 11
21.941
 20
-203.314
 21
-203.404
  0
LINE
  8
0
 10
21.941
 11
22.025
 20
-203.404
 21
-203.464
  0
LINE
  8
0
 10
22.025
 11
22.047
 20
-203.464
 21
-203.479
  0
LINE
  8
0
 10
22.047
 11
22.151
 20
-203.479
 21
-203.554
  0
LINE
  8
0
 10
22.151
 11
22.254
 20
-203.554
 21
-203.68
  0
LINE
  8
0
 10
22.254
 11
22.322
 20
-203.68
 21
-203.764
  0
LINE
  8
0
 10
22.322
 11
22.426
 20
-203.764
 21
-203.89
  0
LINE
  8
0
 10
22.426
 11
22.495
 20
-203.89
 21
-203.974
  0
LINE
  8
0
 10
22.495
 11
22.545
 20
-203.974
 21
-204.077
  0
LINE
  8
0
 10
22.545
 11
22.62
 20
-204.077
 21
-204.23
  0
LINE
  8
0
 10
22.62
 11
22.67
 20
-204.23
 21
-204.333
  0
LINE
  8
0
 10
22.67
 11
22.745
 20
-204.333
 21
-204.488
  0
LINE
  8
0
 10
22.745
 11
22.773
 20
-204.488
 21
-204.603
  0
LINE
  8
0
 10
22.773
 11
22.815
 20
-204.603
 21
-204.776
  0
LINE
  8
0
 10
22.815
 11
22.826
 20
-204.776
 21
-204.82
  0
LINE
  8
0
 10
22.826
 11
22.843
 20
-204.82
 21
-204.891
  0
LINE
  8
0
 10
22.843
 11
22.885
 20
-204.891
 21
-205.064
  0
LINE
  8
0
 10
22.885
 11
22.889
 20
-205.064
 21
-209.184
  0
LINE
  8
0
 10
22.889
 11
22.891
 20
-209.184
 21
-211.08
  0
LINE
  8
0
 10
22.891
 11
22.895
 20
-211.08
 21
-215.364
  0
LINE
  8
0
 10
22.895
 11
22.902
 20
-215.364
 21
-221.544
  0
LINE
  8
0
 10
22.902
 11
22.906
 20
-221.544
 21
-225.664
  0
LINE
  8
0
 10
22.906
 11
22.886
 20
-225.664
 21
-225.782
  0
LINE
  8
0
 10
22.886
 11
22.856
 20
-225.782
 21
-225.958
  0
LINE
  8
0
 10
22.856
 11
22.837
 20
-225.958
 21
-226.077
  0
LINE
  8
0
 10
22.837
 11
22.807
 20
-226.077
 21
-226.254
  0
LINE
  8
0
 10
22.807
 11
22.765
 20
-226.254
 21
-226.361
  0
LINE
  8
0
 10
22.765
 11
22.701
 20
-226.361
 21
-226.522
  0
LINE
  8
0
 10
22.701
 11
22.658
 20
-226.522
 21
-226.63
  0
LINE
  8
0
 10
22.658
 11
22.594
 20
-226.63
 21
-226.792
  0
LINE
  8
0
 10
22.594
 11
22.531
 20
-226.792
 21
-226.883
  0
LINE
  8
0
 10
22.531
 11
22.437
 20
-226.883
 21
-227.02
  0
LINE
  8
0
 10
22.437
 11
22.375
 20
-227.02
 21
-227.111
  0
LINE
  8
0
 10
22.375
 11
22.281
 20
-227.111
 21
-227.248
  0
LINE
  8
0
 10
22.281
 11
22.202
 20
-227.248
 21
-227.318
  0
LINE
  8
0
 10
22.202
 11
22.084
 20
-227.318
 21
-227.422
  0
LINE
  8
0
 10
22.084
 11
22.004
 20
-227.422
 21
-227.491
  0
LINE
  8
0
 10
22.004
 11
21.885
 20
-227.491
 21
-227.594
  0
LINE
  8
0
 10
21.885
 11
21.75
 20
-227.594
 21
-227.657
  0
LINE
  8
0
 10
21.75
 11
21.66
 20
-227.657
 21
-227.698
  0
LINE
  8
0
 10
21.66
 11
21.524
 20
-227.698
 21
-227.762
  0
LINE
  8
0
 10
21.524
 11
21.434
 20
-227.762
 21
-227.804
  0
LINE
  8
0
 10
21.434
 11
21.291
 20
-227.804
 21
-227.823
  0
LINE
  8
0
 10
21.291
 11
21.196
 20
-227.823
 21
-227.836
  0
LINE
  8
0
 10
21.196
 11
21.052
 20
-227.836
 21
-227.855
  0
LINE
  8
0
 10
21.052
 11
20.956
 20
-227.855
 21
-227.868
  0
LINE
  8
0
 10
20.956
 11
20.861
 20
-227.868
 21
-227.851
  0
LINE
  8
0
 10
20.861
 11
20.719
 20
-227.851
 21
-227.824
  0
LINE
  8
0
 10
20.719
 11
20.576
 20
-227.824
 21
-227.799
  0
LINE
  8
0
 10
20.576
 11
20.481
 20
-227.799
 21
-227.782
  0
LINE
  8
0
 10
20.481
 11
20.347
 20
-227.782
 21
-227.713
  0
LINE
  8
0
 10
20.347
 11
20.258
 20
-227.713
 21
-227.666
  0
LINE
  8
0
 10
20.258
 11
20.125
 20
-227.666
 21
-227.597
  0
LINE
  8
0
 10
20.125
 11
20.036
 20
-227.597
 21
-227.55
  0
LINE
  8
0
 10
20.036
 11
19.921
 20
-227.55
 21
-227.441
  0
LINE
  8
0
 10
19.921
 11
19.844
 20
-227.441
 21
-227.368
  0
LINE
  8
0
 10
19.844
 11
19.767
 20
-227.368
 21
-227.295
  0
LINE
  8
0
 10
19.767
 11
19.652
 20
-227.295
 21
-227.186
  0
LINE
  8
0
 10
19.652
 11
19.562
 20
-227.186
 21
-227.046
  0
LINE
  8
0
 10
19.562
 11
19.503
 20
-227.046
 21
-226.952
  0
LINE
  8
0
 10
19.503
 11
19.413
 20
-226.952
 21
-226.811
  0
LINE
  8
0
 10
19.413
 11
19.353
 20
-226.811
 21
-226.716
  0
LINE
  8
0
 10
19.353
 11
19.293
 20
-226.716
 21
-226.552
  0
LINE
  8
0
 10
19.293
 11
19.253
 20
-226.552
 21
-226.442
  0
LINE
  8
0
 10
19.253
 11
19.195
 20
-226.442
 21
-226.277
  0
LINE
  8
0
 10
19.195
 11
19.156
 20
-226.277
 21
-226.166
  0
LINE
  8
0
 10
19.156
 11
19.132
 20
-226.166
 21
-225.989
  0
LINE
  8
0
 10
19.132
 11
19.116
 20
-225.989
 21
-225.87
  0
LINE
  8
0
 10
19.116
 11
19.091
 20
-225.87
 21
-225.693
  0
LINE
  8
0
 10
19.091
 11
19.074
 20
-225.693
 21
-225.574
  0
LINE
  8
0
 10
19.076
 11
19.081
 20
-194.654
 21
-190.534
  0
LINE
  8
0
 10
19.081
 11
19.089
 20
-190.534
 21
-184.354
  0
LINE
  8
0
 10
19.089
 11
19.095
 20
-184.354
 21
-179.82
  0
LINE
  8
0
 10
19.095
 11
19.097
 20
-179.82
 21
-178.174
  0
LINE
  8
0
 10
19.097
 11
19.103
 20
-178.174
 21
-174.054
  0
LINE
  8
0
 10
19.103
 11
19.146
 20
-174.054
 21
-173.883
  0
LINE
  8
0
 10
19.146
 11
19.175
 20
-173.883
 21
-173.768
  0
LINE
  8
0
 10
19.175
 11
19.219
 20
-173.768
 21
-173.595
  0
LINE
  8
0
 10
19.219
 11
19.249
 20
-173.595
 21
-173.48
  0
LINE
  8
0
 10
19.249
 11
19.3
 20
-173.48
 21
-173.379
  0
LINE
  8
0
 10
19.3
 11
19.377
 20
-173.379
 21
-173.226
  0
LINE
  8
0
 10
19.377
 11
19.453
 20
-173.226
 21
-173.073
  0
LINE
  8
0
 10
19.453
 11
19.505
 20
-173.073
 21
-172.97
  0
LINE
  8
0
 10
19.505
 11
19.608
 20
-172.97
 21
-172.845
  0
LINE
  8
0
 10
19.608
 11
19.677
 20
-172.845
 21
-172.762
  0
LINE
  8
0
 10
19.677
 11
19.782
 20
-172.762
 21
-172.639
  0
LINE
  8
0
 10
19.782
 11
19.852
 20
-172.639
 21
-172.556
  0
LINE
  8
0
 10
19.852
 11
19.936
 20
-172.556
 21
-172.497
  0
LINE
  8
0
 10
19.936
 11
20.063
 20
-172.497
 21
-172.408
  0
LINE
  8
0
 10
20.063
 11
20.189
 20
-172.408
 21
-172.321
  0
LINE
  8
0
 10
20.189
 11
20.273
 20
-172.321
 21
-172.262
  0
LINE
  8
0
 10
20.273
 11
20.412
 20
-172.262
 21
-172.217
  0
LINE
  8
0
 10
20.412
 11
20.505
 20
-172.217
 21
-172.186
  0
LINE
  8
0
 10
20.505
 11
20.645
 20
-172.186
 21
-172.141
  0
LINE
  8
0
 10
20.645
 11
20.738
 20
-172.141
 21
-172.11
  0
LINE
  8
0
 10
20.738
 11
20.834
 20
-172.11
 21
-172.109
  0
LINE
  8
0
 10
20.834
 11
20.978
 20
-172.109
 21
-172.108
  0
LINE
  8
0
 10
20.978
 11
21.075
 20
-172.108
 21
-172.107
  0
LINE
  8
0
 10
21.075
 11
21.22
 20
-172.107
 21
-172.106
  0
LINE
  8
0
 10
21.22
 11
21.313
 20
-172.106
 21
-172.135
  0
LINE
  8
0
 10
21.313
 11
21.453
 20
-172.135
 21
-172.178
  0
LINE
  8
0
 10
21.453
 11
21.547
 20
-172.178
 21
-172.207
  0
LINE
  8
0
 10
21.547
 11
21.687
 20
-172.207
 21
-172.25
  0
LINE
  8
0
 10
21.687
 11
21.771
 20
-172.25
 21
-172.308
  0
LINE
  8
0
 10
21.771
 11
21.898
 20
-172.308
 21
-172.394
  0
LINE
  8
0
 10
21.898
 11
21.983
 20
-172.394
 21
-172.452
  0
LINE
  8
0
 10
21.983
 11
22.109
 20
-172.452
 21
-172.538
  0
LINE
  8
0
 10
22.109
 11
22.215
 20
-172.538
 21
-172.661
  0
LINE
  8
0
 10
22.215
 11
22.285
 20
-172.661
 21
-172.742
  0
LINE
  8
0
 10
22.285
 11
22.392
 20
-172.742
 21
-172.865
  0
LINE
  8
0
 10
22.392
 11
22.463
 20
-172.865
 21
-172.946
  0
LINE
  8
0
 10
22.463
 11
22.541
 20
-172.946
 21
-173.099
  0
LINE
  8
0
 10
22.541
 11
22.593
 20
-173.099
 21
-173.2
  0
LINE
  8
0
 10
22.593
 11
22.67
 20
-173.2
 21
-173.351
  0
LINE
  8
0
 10
22.67
 11
22.722
 20
-173.351
 21
-173.452
  0
LINE
  8
0
 10
22.722
 11
22.753
 20
-173.452
 21
-173.567
  0
LINE
  8
0
 10
22.753
 11
22.799
 20
-173.567
 21
-173.738
  0
LINE
  8
0
 10
22.799
 11
22.829
 20
-173.738
 21
-173.853
  0
LINE
  8
0
 10
22.829
 11
22.874
 20
-173.853
 21
-174.024
  0
LINE
  8
0
 10
22.874
 11
22.881
 20
-174.024
 21
-178.144
  0
LINE
  8
0
 10
22.881
 11
22.884
 20
-178.144
 21
-179.82
  0
LINE
  8
0
 10
22.884
 11
22.892
 20
-179.82
 21
-184.324
  0
LINE
  8
0
 10
22.892
 11
22.898
 20
-184.324
 21
-188.444
  0
LINE
  8
0
 10
22.898
 11
22.908
 20
-188.444
 21
-194.624
  0
LINE
  8
0
 10
22.908
 11
22.89
 20
-194.624
 21
-194.742
  0
LINE
  8
0
 10
22.89
 11
22.865
 20
-194.742
 21
-194.918
  0
LINE
  8
0
 10
22.865
 11
22.847
 20
-194.918
 21
-195.037
  0
LINE
  8
0
 10
22.847
 11
22.821
 20
-195.037
 21
-195.214
  0
LINE
  8
0
 10
22.821
 11
22.781
 20
-195.214
 21
-195.324
  0
LINE
  8
0
 10
22.781
 11
22.721
 20
-195.324
 21
-195.488
  0
LINE
  8
0
 10
22.721
 11
22.68
 20
-195.488
 21
-195.597
  0
LINE
  8
0
 10
22.68
 11
22.618
 20
-195.597
 21
-195.76
  0
LINE
  8
0
 10
22.618
 11
22.557
 20
-195.76
 21
-195.854
  0
LINE
  8
0
 10
22.557
 11
22.466
 20
-195.854
 21
-195.994
  0
LINE
  8
0
 10
22.466
 11
22.375
 20
-195.994
 21
-196.133
  0
LINE
  8
0
 10
22.375
 11
22.314
 20
-196.133
 21
-196.226
  0
LINE
  8
0
 10
22.314
 11
22.237
 20
-196.226
 21
-196.298
  0
LINE
  8
0
 10
22.237
 11
22.121
 20
-196.298
 21
-196.406
  0
LINE
  8
0
 10
22.121
 11
22.043
 20
-196.406
 21
-196.477
  0
LINE
  8
0
 10
22.043
 11
21.927
 20
-196.477
 21
-196.584
  0
LINE
  8
0
 10
21.927
 11
21.794
 20
-196.584
 21
-196.651
  0
LINE
  8
0
 10
21.794
 11
21.705
 20
-196.651
 21
-196.696
  0
LINE
  8
0
 10
21.705
 11
21.615
 20
-196.696
 21
-196.741
  0
LINE
  8
0
 10
21.615
 11
21.481
 20
-196.741
 21
-196.808
  0
LINE
  8
0
 10
21.481
 11
21.338
 20
-196.808
 21
-196.832
  0
LINE
  8
0
 10
21.338
 11
21.242
 20
-196.832
 21
-196.848
  0
LINE
  8
0
 10
21.242
 11
21.099
 20
-196.848
 21
-196.872
  0
LINE
  8
0
 10
21.099
 11
21.004
 20
-196.872
 21
-196.888
  0
LINE
  8
0
 10
21.004
 11
20.861
 20
-196.888
 21
-196.867
  0
LINE
  8
0
 10
20.861
 11
20.765
 20
-196.867
 21
-196.852
  0
LINE
  8
0
 10
20.765
 11
20.621
 20
-196.852
 21
-196.831
  0
LINE
  8
0
 10
20.621
 11
20.525
 20
-196.831
 21
-196.816
  0
LINE
  8
0
 10
20.525
 11
20.391
 20
-196.816
 21
-196.751
  0
LINE
  8
0
 10
20.391
 11
20.301
 20
-196.751
 21
-196.708
  0
LINE
  8
0
 10
20.301
 11
20.167
 20
-196.708
 21
-196.642
  0
LINE
  8
0
 10
20.167
 11
20.077
 20
-196.642
 21
-196.598
  0
LINE
  8
0
 10
20.077
 11
19.96
 20
-196.598
 21
-196.494
  0
LINE
  8
0
 10
19.96
 11
19.882
 20
-196.494
 21
-196.424
  0
LINE
  8
0
 10
19.882
 11
19.764
 20
-196.424
 21
-196.319
  0
LINE
  8
0
 10
19.764
 11
19.685
 20
-196.319
 21
-196.248
  0
LINE
  8
0
 10
19.685
 11
19.593
 20
-196.248
 21
-196.11
  0
LINE
  8
0
 10
19.593
 11
19.532
 20
-196.11
 21
-196.018
  0
LINE
  8
0
 10
19.532
 11
19.439
 20
-196.018
 21
-195.88
  0
LINE
  8
0
 10
19.439
 11
19.377
 20
-195.88
 21
-195.788
  0
LINE
  8
0
 10
19.377
 11
19.314
 20
-195.788
 21
-195.625
  0
LINE
  8
0
 10
19.314
 11
19.273
 20
-195.625
 21
-195.516
  0
LINE
  8
0
 10
19.273
 11
19.21
 20
-195.516
 21
-195.353
  0
LINE
  8
0
 10
19.21
 11
19.169
 20
-195.353
 21
-195.244
  0
LINE
  8
0
 10
19.169
 11
19.141
 20
-195.244
 21
-195.068
  0
LINE
  8
0
 10
19.141
 11
19.122
 20
-195.068
 21
-194.95
  0
LINE
  8
0
 10
19.122
 11
19.094
 20
-194.95
 21
-194.773
  0
LINE
  8
0
 10
19.094
 11
19.076
 20
-194.773
 21
-194.654
  0
LINE
  8
0
 10
25.471
 11
25.477
 20
-211.689
 21
-204.82
  0
LINE
  8
0
 10
25.477
 11
25.477
 20
-204.82
 21
-204.589
  0
LINE
  8
0
 10
25.477
 11
25.478
 20
-204.589
 21
-203.044
  0
LINE
  8
0
 10
25.478
 11
25.481
 20
-203.044
 21
-199.856
  0
LINE
  8
0
 10
25.481
 11
25.487
 20
-199.856
 21
-195.123
  0
LINE
  8
0
 10
25.487
 11
25.494
 20
-195.123
 21
-188.022
  0
LINE
  8
0
 10
25.494
 11
25.628
 20
-188.022
 21
-187.386
  0
LINE
  8
0
 10
25.628
 11
25.718
 20
-187.386
 21
-186.962
  0
LINE
  8
0
 10
25.718
 11
25.851
 20
-186.962
 21
-186.325
  0
LINE
  8
0
 10
25.851
 11
25.939
 20
-186.325
 21
-185.9
  0
LINE
  8
0
 10
25.939
 11
26.195
 20
-185.9
 21
-185.303
  0
LINE
  8
0
 10
26.195
 11
26.365
 20
-185.303
 21
-184.905
  0
LINE
  8
0
 10
26.365
 11
26.621
 20
-184.905
 21
-184.307
  0
LINE
  8
0
 10
26.621
 11
26.791
 20
-184.307
 21
-183.909
  0
LINE
  8
0
 10
26.791
 11
27.158
 20
-183.909
 21
-183.373
  0
LINE
  8
0
 10
27.158
 11
27.404
 20
-183.373
 21
-183.015
  0
LINE
  8
0
 10
27.404
 11
28.014
 20
-183.015
 21
-182.12
  0
LINE
  8
0
 10
28.014
 11
28.479
 20
-182.12
 21
-181.665
  0
LINE
  8
0
 10
28.479
 11
28.788
 20
-181.665
 21
-181.361
  0
LINE
  8
0
 10
28.788
 11
29.254
 20
-181.361
 21
-180.907
  0
LINE
  8
0
 10
29.254
 11
29.564
 20
-180.907
 21
-180.605
  0
LINE
  8
0
 10
29.564
 11
30.109
 20
-180.605
 21
-180.249
  0
LINE
  8
0
 10
30.109
 11
30.472
 20
-180.249
 21
-180.011
  0
LINE
  8
0
 10
30.472
 11
30.765
 20
-180.011
 21
-179.82
  0
LINE
  8
0
 10
30.765
 11
30.835
 20
-179.82
 21
-179.775
  0
LINE
  8
0
 10
30.835
 11
31.379
 20
-179.775
 21
-179.42
  0
LINE
  8
0
 10
31.379
 11
31.983
 20
-179.42
 21
-179.178
  0
LINE
  8
0
 10
31.983
 11
32.385
 20
-179.178
 21
-179.016
  0
LINE
  8
0
 10
32.385
 11
32.988
 20
-179.016
 21
-178.773
  0
LINE
  8
0
 10
32.988
 11
33.389
 20
-178.773
 21
-178.612
  0
LINE
  8
0
 10
33.389
 11
33.816
 20
-178.612
 21
-178.532
  0
LINE
  8
0
 10
33.816
 11
34.456
 20
-178.532
 21
-178.412
  0
LINE
  8
0
 10
34.456
 11
35.094
 20
-178.412
 21
-178.293
  0
LINE
  8
0
 10
35.094
 11
35.52
 20
-178.293
 21
-178.214
  0
LINE
  8
0
 10
35.52
 11
35.953
 20
-178.214
 21
-178.218
  0
LINE
  8
0
 10
35.953
 11
36.603
 20
-178.218
 21
-178.225
  0
LINE
  8
0
 10
36.603
 11
37.037
 20
-178.225
 21
-178.229
  0
LINE
  8
0
 10
37.037
 11
37.687
 20
-178.229
 21
-178.235
  0
LINE
  8
0
 10
37.687
 11
38.323
 20
-178.235
 21
-178.37
  0
LINE
  8
0
 10
38.323
 11
39.171
 20
-178.37
 21
-178.548
  0
LINE
  8
0
 10
39.171
 11
39.807
 20
-178.548
 21
-178.683
  0
LINE
  8
0
 10
39.807
 11
40.206
 20
-178.683
 21
-178.853
  0
LINE
  8
0
 10
40.206
 11
40.804
 20
-178.853
 21
-179.108
  0
LINE
  8
0
 10
40.804
 11
41.203
 20
-179.108
 21
-179.279
  0
LINE
  8
0
 10
41.203
 11
41.8
 20
-179.279
 21
-179.534
  0
LINE
  8
0
 10
41.8
 11
42.158
 20
-179.534
 21
-179.778
  0
LINE
  8
0
 10
42.158
 11
42.219
 20
-179.778
 21
-179.82
  0
LINE
  8
0
 10
42.219
 11
42.694
 20
-179.82
 21
-180.145
  0
LINE
  8
0
 10
42.694
 11
43.231
 20
-180.145
 21
-180.512
  0
LINE
  8
0
 10
43.231
 11
43.589
 20
-180.512
 21
-180.757
  0
LINE
  8
0
 10
43.589
 11
43.891
 20
-180.757
 21
-181.067
  0
LINE
  8
0
 10
43.891
 11
44.346
 20
-181.067
 21
-181.531
  0
LINE
  8
0
 10
44.346
 11
44.649
 20
-181.531
 21
-181.841
  0
LINE
  8
0
 10
44.649
 11
45.104
 20
-181.841
 21
-182.305
  0
LINE
  8
0
 10
45.104
 11
45.341
 20
-182.305
 21
-182.668
  0
LINE
  8
0
 10
45.341
 11
45.696
 20
-182.668
 21
-183.213
  0
LINE
  8
0
 10
45.696
 11
45.933
 20
-183.213
 21
-183.576
  0
LINE
  8
0
 10
45.933
 11
46.289
 20
-183.576
 21
-184.12
  0
LINE
  8
0
 10
46.289
 11
46.53
 20
-184.12
 21
-184.724
  0
LINE
  8
0
 10
46.53
 11
46.691
 20
-184.724
 21
-185.126
  0
LINE
  8
0
 10
46.691
 11
46.853
 20
-185.126
 21
-185.529
  0
LINE
  8
0
 10
46.853
 11
47.095
 20
-185.529
 21
-186.132
  0
LINE
  8
0
 10
47.095
 11
47.175
 20
-186.132
 21
-186.558
  0
LINE
  8
0
 10
47.175
 11
47.295
 20
-186.558
 21
-187.197
  0
LINE
  8
0
 10
47.295
 11
47.375
 20
-187.197
 21
-187.622
  0
LINE
  8
0
 10
47.375
 11
47.495
 20
-187.622
 21
-188.261
  0
LINE
  8
0
 10
47.495
 11
47.489
 20
-188.261
 21
-195.361
  0
LINE
  8
0
 10
47.489
 11
47.485
 20
-195.361
 21
-200.094
  0
LINE
  8
0
 10
47.485
 11
47.484
 20
-200.094
 21
-200.251
  0
LINE
  8
0
 10
47.484
 11
47.479
 20
-200.251
 21
-204.82
  0
LINE
  8
0
 10
47.479
 11
47.472
 20
-204.82
 21
-211.928
  0
LINE
  8
0
 10
47.472
 11
47.382
 20
-211.928
 21
-212.353
  0
LINE
  8
0
 10
47.382
 11
47.248
 20
-212.353
 21
-212.99
  0
LINE
  8
0
 10
47.248
 11
47.159
 20
-212.99
 21
-213.414
  0
LINE
  8
0
 10
47.159
 11
47.027
 20
-213.414
 21
-214.05
  0
LINE
  8
0
 10
47.027
 11
46.856
 20
-214.05
 21
-214.448
  0
LINE
  8
0
 10
46.856
 11
46.601
 20
-214.448
 21
-215.046
  0
LINE
  8
0
 10
46.601
 11
46.345
 20
-215.046
 21
-215.644
  0
LINE
  8
0
 10
46.345
 11
46.175
 20
-215.644
 21
-216.043
  0
LINE
  8
0
 10
46.175
 11
45.93
 20
-216.043
 21
-216.401
  0
LINE
  8
0
 10
45.93
 11
45.562
 20
-216.401
 21
-216.938
  0
LINE
  8
0
 10
45.562
 11
45.318
 20
-216.938
 21
-217.295
  0
LINE
  8
0
 10
45.318
 11
44.952
 20
-217.295
 21
-217.832
  0
LINE
  8
0
 10
44.952
 11
44.486
 20
-217.832
 21
-218.286
  0
LINE
  8
0
 10
44.486
 11
43.866
 20
-218.286
 21
-218.892
  0
LINE
  8
0
 10
43.866
 11
43.402
 20
-218.892
 21
-219.348
  0
LINE
  8
0
 10
43.402
 11
42.857
 20
-219.348
 21
-219.702
  0
LINE
  8
0
 10
42.857
 11
42.494
 20
-219.702
 21
-219.939
  0
LINE
  8
0
 10
42.494
 11
42.131
 20
-219.939
 21
-220.175
  0
LINE
  8
0
 10
42.131
 11
41.587
 20
-220.175
 21
-220.53
  0
LINE
  8
0
 10
41.587
 11
41.185
 20
-220.53
 21
-220.692
  0
LINE
  8
0
 10
41.185
 11
40.734
 20
-220.692
 21
-220.873
  0
LINE
  8
0
 10
40.734
 11
40.714
 20
-220.873
 21
-220.881
  0
LINE
  8
0
 10
40.714
 11
40.581
 20
-220.881
 21
-220.934
  0
LINE
  8
0
 10
40.581
 11
39.978
 20
-220.934
 21
-221.177
  0
LINE
  8
0
 10
39.978
 11
39.577
 20
-221.177
 21
-221.339
  0
LINE
  8
0
 10
39.577
 11
38.937
 20
-221.339
 21
-221.459
  0
LINE
  8
0
 10
38.937
 11
38.51
 20
-221.459
 21
-221.539
  0
LINE
  8
0
 10
38.51
 11
37.872
 20
-221.539
 21
-221.659
  0
LINE
  8
0
 10
37.872
 11
37.446
 20
-221.659
 21
-221.738
  0
LINE
  8
0
 10
37.446
 11
36.796
 20
-221.738
 21
-221.731
  0
LINE
  8
0
 10
36.796
 11
36.363
 20
-221.731
 21
-221.726
  0
LINE
  8
0
 10
36.363
 11
35.712
 20
-221.726
 21
-221.719
  0
LINE
  8
0
 10
35.712
 11
35.279
 20
-221.719
 21
-221.715
  0
LINE
  8
0
 10
35.279
 11
34.855
 20
-221.715
 21
-221.625
  0
LINE
  8
0
 10
34.855
 11
34.219
 20
-221.625
 21
-221.491
  0
LINE
  8
0
 10
34.219
 11
33.583
 20
-221.491
 21
-221.357
  0
LINE
  8
0
 10
33.583
 11
33.159
 20
-221.357
 21
-221.268
  0
LINE
  8
0
 10
33.159
 11
32.56
 20
-221.268
 21
-221.012
  0
LINE
  8
0
 10
32.56
 11
32.161
 20
-221.012
 21
-220.842
  0
LINE
  8
0
 10
32.161
 11
31.564
 20
-220.842
 21
-220.587
  0
LINE
  8
0
 10
31.564
 11
31.166
 20
-220.587
 21
-220.416
  0
LINE
  8
0
 10
31.166
 11
30.629
 20
-220.416
 21
-220.05
  0
LINE
  8
0
 10
30.629
 11
30.272
 20
-220.05
 21
-219.806
  0
LINE
  8
0
 10
30.272
 11
29.914
 20
-219.806
 21
-219.561
  0
LINE
  8
0
 10
29.914
 11
29.377
 20
-219.561
 21
-219.193
  0
LINE
  8
0
 10
29.377
 11
28.923
 20
-219.193
 21
-218.728
  0
LINE
  8
0
 10
28.923
 11
28.62
 20
-218.728
 21
-218.419
  0
LINE
  8
0
 10
28.62
 11
28.165
 20
-218.419
 21
-217.954
  0
LINE
  8
0
 10
28.165
 11
27.861
 20
-217.954
 21
-217.645
  0
LINE
  8
0
 10
27.861
 11
27.507
 20
-217.645
 21
-217.1
  0
LINE
  8
0
 10
27.507
 11
27.27
 20
-217.1
 21
-216.738
  0
LINE
  8
0
 10
27.27
 11
26.915
 20
-216.738
 21
-216.193
  0
LINE
  8
0
 10
26.915
 11
26.679
 20
-216.193
 21
-215.83
  0
LINE
  8
0
 10
26.679
 11
26.436
 20
-215.83
 21
-215.227
  0
LINE
  8
0
 10
26.436
 11
26.275
 20
-215.227
 21
-214.824
  0
LINE
  8
0
 10
26.275
 11
26.113
 20
-214.824
 21
-214.422
  0
LINE
  8
0
 10
26.113
 11
25.871
 20
-214.422
 21
-213.818
  0
LINE
  8
0
 10
25.871
 11
25.751
 20
-213.818
 21
-213.179
  0
LINE
  8
0
 10
25.751
 11
25.671
 20
-213.179
 21
-212.754
  0
LINE
  8
0
 10
25.671
 11
25.64
 20
-212.754
 21
-212.589
  0
LINE
  8
0
 10
25.64
 11
25.551
 20
-212.589
 21
-212.115
  0
LINE
  8
0
 10
25.551
 11
25.471
 20
-212.115
 21
-211.689
  0
LINE
  8
0
 10
50.054
 11
50.066
 20
-225.58
 21
-219.4
  0
LINE
  8
0
 10
50.066
 11
50.074
 20
-219.4
 21
-215.28
  0
LINE
  8
0
 10
50.074
 11
50.085
 20
-215.28
 21
-209.1
  0
LINE
  8
0
 10
50.085
 11
50.093
 20
-209.1
 21
-204.98
  0
LINE
  8
0
 10
50.093
 11
50.139
 20
-204.98
 21
-204.81
  0
LINE
  8
0
 10
50.139
 11
50.17
 20
-204.81
 21
-204.696
  0
LINE
  8
0
 10
50.17
 11
50.217
 20
-204.696
 21
-204.525
  0
LINE
  8
0
 10
50.217
 11
50.248
 20
-204.525
 21
-204.41
  0
LINE
  8
0
 10
50.248
 11
50.327
 20
-204.41
 21
-204.26
  0
LINE
  8
0
 10
50.327
 11
50.379
 20
-204.26
 21
-204.16
  0
LINE
  8
0
 10
50.379
 11
50.459
 20
-204.16
 21
-204.009
  0
LINE
  8
0
 10
50.459
 11
50.512
 20
-204.009
 21
-203.908
  0
LINE
  8
0
 10
50.512
 11
50.618
 20
-203.908
 21
-203.787
  0
LINE
  8
0
 10
50.618
 11
50.69
 20
-203.787
 21
-203.706
  0
LINE
  8
0
 10
50.69
 11
50.796
 20
-203.706
 21
-203.584
  0
LINE
  8
0
 10
50.796
 11
50.867
 20
-203.584
 21
-203.502
  0
LINE
  8
0
 10
50.867
 11
50.952
 20
-203.502
 21
-203.446
  0
LINE
  8
0
 10
50.952
 11
51.08
 20
-203.446
 21
-203.362
  0
LINE
  8
0
 10
51.08
 11
51.208
 20
-203.362
 21
-203.277
  0
LINE
  8
0
 10
51.208
 11
51.293
 20
-203.277
 21
-203.22
  0
LINE
  8
0
 10
51.293
 11
51.433
 20
-203.22
 21
-203.178
  0
LINE
  8
0
 10
51.433
 11
51.526
 20
-203.178
 21
-203.15
  0
LINE
  8
0
 10
51.526
 11
51.62
 20
-203.15
 21
-203.122
  0
LINE
  8
0
 10
51.62
 11
51.762
 20
-203.122
 21
-203.08
  0
LINE
  8
0
 10
51.762
 11
51.858
 20
-203.08
 21
-203.082
  0
LINE
  8
0
 10
51.858
 11
52.002
 20
-203.082
 21
-203.084
  0
LINE
  8
0
 10
52.002
 11
52.098
 20
-203.084
 21
-203.087
  0
LINE
  8
0
 10
52.098
 11
52.242
 20
-203.087
 21
-203.09
  0
LINE
  8
0
 10
52.242
 11
52.334
 20
-203.09
 21
-203.121
  0
LINE
  8
0
 10
52.334
 11
52.474
 20
-203.121
 21
-203.168
  0
LINE
  8
0
 10
52.474
 11
52.566
 20
-203.168
 21
-203.2
  0
LINE
  8
0
 10
52.566
 11
52.706
 20
-203.2
 21
-203.248
  0
LINE
  8
0
 10
52.706
 11
52.789
 20
-203.248
 21
-203.307
  0
LINE
  8
0
 10
52.789
 11
52.915
 20
-203.307
 21
-203.396
  0
LINE
  8
0
 10
52.915
 11
52.999
 20
-203.396
 21
-203.456
  0
LINE
  8
0
 10
52.999
 11
53.125
 20
-203.456
 21
-203.546
  0
LINE
  8
0
 10
53.125
 11
53.194
 20
-203.546
 21
-203.629
  0
LINE
  8
0
 10
53.194
 11
53.298
 20
-203.629
 21
-203.754
  0
LINE
  8
0
 10
53.298
 11
53.367
 20
-203.754
 21
-203.838
  0
LINE
  8
0
 10
53.367
 11
53.47
 20
-203.838
 21
-203.964
  0
LINE
  8
0
 10
53.47
 11
53.521
 20
-203.964
 21
-204.067
  0
LINE
  8
0
 10
53.521
 11
53.597
 20
-204.067
 21
-204.22
  0
LINE
  8
0
 10
53.597
 11
53.647
 20
-204.22
 21
-204.323
  0
LINE
  8
0
 10
53.647
 11
53.722
 20
-204.323
 21
-204.476
  0
LINE
  8
0
 10
53.722
 11
53.75
 20
-204.476
 21
-204.591
  0
LINE
  8
0
 10
53.75
 11
53.794
 20
-204.591
 21
-204.764
  0
LINE
  8
0
 10
53.794
 11
53.807
 20
-204.764
 21
-204.82
  0
LINE
  8
0
 10
53.807
 11
53.822
 20
-204.82
 21
-204.879
  0
LINE
  8
0
 10
53.822
 11
53.864
 20
-204.879
 21
-205.052
  0
LINE
  8
0
 10
53.864
 11
53.871
 20
-205.052
 21
-211.232
  0
LINE
  8
0
 10
53.871
 11
53.875
 20
-211.232
 21
-215.352
  0
LINE
  8
0
 10
53.875
 11
53.88
 20
-215.352
 21
-219.472
  0
LINE
  8
0
 10
53.88
 11
53.886
 20
-219.472
 21
-225.652
  0
LINE
  8
0
 10
53.886
 11
53.867
 20
-225.652
 21
-225.77
  0
LINE
  8
0
 10
53.867
 11
53.838
 20
-225.77
 21
-225.946
  0
LINE
  8
0
 10
53.838
 11
53.818
 20
-225.946
 21
-226.065
  0
LINE
  8
0
 10
53.818
 11
53.789
 20
-226.065
 21
-226.242
  0
LINE
  8
0
 10
53.789
 11
53.746
 20
-226.242
 21
-226.35
  0
LINE
  8
0
 10
53.746
 11
53.641
 20
-226.35
 21
-226.62
  0
LINE
  8
0
 10
53.641
 11
53.578
 20
-226.62
 21
-226.782
  0
LINE
  8
0
 10
53.578
 11
53.484
 20
-226.782
 21
-226.919
  0
LINE
  8
0
 10
53.484
 11
53.422
 20
-226.919
 21
-227.01
  0
LINE
  8
0
 10
53.422
 11
53.36
 20
-227.01
 21
-227.102
  0
LINE
  8
0
 10
53.36
 11
53.266
 20
-227.102
 21
-227.24
  0
LINE
  8
0
 10
53.266
 11
53.187
 20
-227.24
 21
-227.309
  0
LINE
  8
0
 10
53.187
 11
53.069
 20
-227.309
 21
-227.412
  0
LINE
  8
0
 10
53.069
 11
52.951
 20
-227.412
 21
-227.517
  0
LINE
  8
0
 10
52.951
 11
52.908
 20
-227.517
 21
-227.555
  0
LINE
  8
0
 10
52.908
 11
52.889
 20
-227.555
 21
-227.571
  0
LINE
  8
0
 10
52.889
 11
52.872
 20
-227.571
 21
-227.586
  0
LINE
  8
0
 10
52.872
 11
52.737
 20
-227.586
 21
-227.65
  0
LINE
  8
0
 10
52.737
 11
52.646
 20
-227.65
 21
-227.692
  0
LINE
  8
0
 10
52.646
 11
52.557
 20
-227.692
 21
-227.735
  0
LINE
  8
0
 10
52.557
 11
52.422
 20
-227.735
 21
-227.798
  0
LINE
  8
0
 10
52.422
 11
52.278
 20
-227.798
 21
-227.819
  0
LINE
  8
0
 10
52.278
 11
52.182
 20
-227.819
 21
-227.832
  0
LINE
  8
0
 10
52.182
 11
52.039
 20
-227.832
 21
-227.853
  0
LINE
  8
0
 10
52.039
 11
51.944
 20
-227.853
 21
-227.866
  0
LINE
  8
0
 10
51.944
 11
51.801
 20
-227.866
 21
-227.84
  0
LINE
  8
0
 10
51.801
 11
51.706
 20
-227.84
 21
-227.822
  0
LINE
  8
0
 10
51.706
 11
51.562
 20
-227.822
 21
-227.797
  0
LINE
  8
0
 10
51.562
 11
51.467
 20
-227.797
 21
-227.78
  0
LINE
  8
0
 10
51.467
 11
51.334
 20
-227.78
 21
-227.712
  0
LINE
  8
0
 10
51.334
 11
51.245
 20
-227.712
 21
-227.666
  0
LINE
  8
0
 10
51.245
 11
51.111
 20
-227.666
 21
-227.597
  0
LINE
  8
0
 10
51.111
 11
51.022
 20
-227.597
 21
-227.55
  0
LINE
  8
0
 10
51.022
 11
50.907
 20
-227.55
 21
-227.442
  0
LINE
  8
0
 10
50.907
 11
50.83
 20
-227.442
 21
-227.37
  0
LINE
  8
0
 10
50.83
 11
50.714
 20
-227.37
 21
-227.262
  0
LINE
  8
0
 10
50.714
 11
50.637
 20
-227.262
 21
-227.19
  0
LINE
  8
0
 10
50.637
 11
50.577
 20
-227.19
 21
-227.097
  0
LINE
  8
0
 10
50.577
 11
50.486
 20
-227.097
 21
-226.956
  0
LINE
  8
0
 10
50.486
 11
50.396
 20
-226.956
 21
-226.815
  0
LINE
  8
0
 10
50.396
 11
50.336
 20
-226.815
 21
-226.72
  0
LINE
  8
0
 10
50.336
 11
50.276
 20
-226.72
 21
-226.556
  0
LINE
  8
0
 10
50.276
 11
50.237
 20
-226.556
 21
-226.446
  0
LINE
  8
0
 10
50.237
 11
50.177
 20
-226.446
 21
-226.282
  0
LINE
  8
0
 10
50.177
 11
50.138
 20
-226.282
 21
-226.172
  0
LINE
  8
0
 10
50.138
 11
50.12
 20
-226.172
 21
-226.05
  0
LINE
  8
0
 10
50.12
 11
50.116
 20
-226.05
 21
-226.023
  0
LINE
  8
0
 10
50.116
 11
50.096
 20
-226.023
 21
-225.876
  0
LINE
  8
0
 10
50.096
 11
50.071
 20
-225.876
 21
-225.699
  0
LINE
  8
0
 10
50.071
 11
50.054
 20
-225.699
 21
-225.58
  0
LINE
  8
0
 10
50.058
 11
50.065
 20
-194.668
 21
-188.487
  0
LINE
  8
0
 10
50.065
 11
50.07
 20
-188.487
 21
-184.366
  0
LINE
  8
0
 10
50.07
 11
50.075
 20
-184.366
 21
-179.82
  0
LINE
  8
0
 10
50.075
 11
50.077
 20
-179.82
 21
-178.186
  0
LINE
  8
0
 10
50.077
 11
50.082
 20
-178.186
 21
-174.066
  0
LINE
  8
0
 10
50.082
 11
50.11
 20
-174.066
 21
-173.952
  0
LINE
  8
0
 10
50.11
 11
50.154
 20
-173.952
 21
-173.78
  0
LINE
  8
0
 10
50.154
 11
50.197
 20
-173.78
 21
-173.607
  0
LINE
  8
0
 10
50.197
 11
50.226
 20
-173.607
 21
-173.492
  0
LINE
  8
0
 10
50.226
 11
50.301
 20
-173.492
 21
-173.339
  0
LINE
  8
0
 10
50.301
 11
50.352
 20
-173.339
 21
-173.236
  0
LINE
  8
0
 10
50.352
 11
50.428
 20
-173.236
 21
-173.083
  0
LINE
  8
0
 10
50.428
 11
50.478
 20
-173.083
 21
-172.98
  0
LINE
  8
0
 10
50.478
 11
50.582
 20
-172.98
 21
-172.854
  0
LINE
  8
0
 10
50.582
 11
50.651
 20
-172.854
 21
-172.77
  0
LINE
  8
0
 10
50.651
 11
50.755
 20
-172.77
 21
-172.645
  0
LINE
  8
0
 10
50.755
 11
50.824
 20
-172.645
 21
-172.562
  0
LINE
  8
0
 10
50.824
 11
50.95
 20
-172.562
 21
-172.473
  0
LINE
  8
0
 10
50.95
 11
51.034
 20
-172.473
 21
-172.414
  0
LINE
  8
0
 10
51.034
 11
51.117
 20
-172.414
 21
-172.355
  0
LINE
  8
0
 10
51.117
 11
51.243
 20
-172.355
 21
-172.266
  0
LINE
  8
0
 10
51.243
 11
51.382
 20
-172.266
 21
-172.218
  0
LINE
  8
0
 10
51.382
 11
51.475
 20
-172.218
 21
-172.186
  0
LINE
  8
0
 10
51.475
 11
51.614
 20
-172.186
 21
-172.139
  0
LINE
  8
0
 10
51.614
 11
51.707
 20
-172.139
 21
-172.108
  0
LINE
  8
0
 10
51.707
 11
51.804
 20
-172.108
 21
-172.107
  0
LINE
  8
0
 10
51.804
 11
51.949
 20
-172.107
 21
-172.104
  0
LINE
  8
0
 10
51.949
 11
52.045
 20
-172.104
 21
-172.103
  0
LINE
  8
0
 10
52.045
 11
52.189
 20
-172.103
 21
-172.1
  0
LINE
  8
0
 10
52.189
 11
52.282
 20
-172.1
 21
-172.129
  0
LINE
  8
0
 10
52.282
 11
52.422
 20
-172.129
 21
-172.172
  0
LINE
  8
0
 10
52.422
 11
52.516
 20
-172.172
 21
-172.2
  0
LINE
  8
0
 10
52.516
 11
52.656
 20
-172.2
 21
-172.242
  0
LINE
  8
0
 10
52.656
 11
52.741
 20
-172.242
 21
-172.299
  0
LINE
  8
0
 10
52.741
 11
52.869
 20
-172.299
 21
-172.384
  0
LINE
  8
0
 10
52.869
 11
52.954
 20
-172.384
 21
-172.441
  0
LINE
  8
0
 10
52.954
 11
53.082
 20
-172.441
 21
-172.526
  0
LINE
  8
0
 10
53.082
 11
53.153
 20
-172.526
 21
-172.607
  0
LINE
  8
0
 10
53.153
 11
53.259
 20
-172.607
 21
-172.728
  0
LINE
  8
0
 10
53.259
 11
53.33
 20
-172.728
 21
-172.81
  0
LINE
  8
0
 10
53.33
 11
53.437
 20
-172.81
 21
-172.932
  0
LINE
  8
0
 10
53.437
 11
53.489
 20
-172.932
 21
-173.033
  0
LINE
  8
0
 10
53.489
 11
53.568
 20
-173.033
 21
-173.184
  0
LINE
  8
0
 10
53.568
 11
53.62
 20
-173.184
 21
-173.285
  0
LINE
  8
0
 10
53.62
 11
53.699
 20
-173.285
 21
-173.436
  0
LINE
  8
0
 10
53.699
 11
53.776
 20
-173.436
 21
-173.72
  0
LINE
  8
0
 10
53.776
 11
53.807
 20
-173.72
 21
-173.835
  0
LINE
  8
0
 10
53.807
 11
53.854
 20
-173.835
 21
-174.006
  0
LINE
  8
0
 10
53.854
 11
53.864
 20
-174.006
 21
-179.82
  0
LINE
  8
0
 10
53.864
 11
53.865
 20
-179.82
 21
-180.186
  0
LINE
  8
0
 10
53.865
 11
53.872
 20
-180.186
 21
-184.306
  0
LINE
  8
0
 10
53.872
 11
53.883
 20
-184.306
 21
-190.486
  0
LINE
  8
0
 10
53.883
 11
53.89
 20
-190.486
 21
-194.606
  0
LINE
  8
0
 10
53.89
 11
53.873
 20
-194.606
 21
-194.725
  0
LINE
  8
0
 10
53.873
 11
53.848
 20
-194.725
 21
-194.902
  0
LINE
  8
0
 10
53.848
 11
53.831
 20
-194.902
 21
-195.021
  0
LINE
  8
0
 10
53.831
 11
53.806
 20
-195.021
 21
-195.198
  0
LINE
  8
0
 10
53.806
 11
53.767
 20
-195.198
 21
-195.308
  0
LINE
  8
0
 10
53.767
 11
53.707
 20
-195.308
 21
-195.472
  0
LINE
  8
0
 10
53.707
 11
53.647
 20
-195.472
 21
-195.637
  0
LINE
  8
0
 10
53.647
 11
53.606
 20
-195.637
 21
-195.746
  0
LINE
  8
0
 10
53.606
 11
53.546
 20
-195.746
 21
-195.84
  0
LINE
  8
0
 10
53.546
 11
53.456
 20
-195.84
 21
-195.98
  0
LINE
  8
0
 10
53.456
 11
53.396
 20
-195.98
 21
-196.074
  0
LINE
  8
0
 10
53.396
 11
53.306
 20
-196.074
 21
-196.214
  0
LINE
  8
0
 10
53.306
 11
53.228
 20
-196.214
 21
-196.286
  0
LINE
  8
0
 10
53.228
 11
53.112
 20
-196.286
 21
-196.394
  0
LINE
  8
0
 10
53.112
 11
52.997
 20
-196.394
 21
-196.502
  0
LINE
  8
0
 10
52.997
 11
52.92
 20
-196.502
 21
-196.574
  0
LINE
  8
0
 10
52.92
 11
52.786
 20
-196.574
 21
-196.643
  0
LINE
  8
0
 10
52.786
 11
52.696
 20
-196.643
 21
-196.688
  0
LINE
  8
0
 10
52.696
 11
52.563
 20
-196.688
 21
-196.757
  0
LINE
  8
0
 10
52.563
 11
52.474
 20
-196.757
 21
-196.802
  0
LINE
  8
0
 10
52.474
 11
52.331
 20
-196.802
 21
-196.827
  0
LINE
  8
0
 10
52.331
 11
52.235
 20
-196.827
 21
-196.844
  0
LINE
  8
0
 10
52.235
 11
52.092
 20
-196.844
 21
-196.869
  0
LINE
  8
0
 10
52.092
 11
51.997
 20
-196.869
 21
-196.886
  0
LINE
  8
0
 10
51.997
 11
51.854
 20
-196.886
 21
-196.866
  0
LINE
  8
0
 10
51.854
 11
51.758
 20
-196.866
 21
-196.852
  0
LINE
  8
0
 10
51.758
 11
51.615
 20
-196.852
 21
-196.832
  0
LINE
  8
0
 10
51.615
 11
51.52
 20
-196.832
 21
-196.818
  0
LINE
  8
0
 10
51.52
 11
51.385
 20
-196.818
 21
-196.753
  0
LINE
  8
0
 10
51.385
 11
51.294
 20
-196.753
 21
-196.71
  0
LINE
  8
0
 10
51.294
 11
51.159
 20
-196.71
 21
-196.647
  0
LINE
  8
0
 10
51.159
 11
51.069
 20
-196.647
 21
-196.604
  0
LINE
  8
0
 10
51.069
 11
50.952
 20
-196.604
 21
-196.5
  0
LINE
  8
0
 10
50.952
 11
50.874
 20
-196.5
 21
-196.43
  0
LINE
  8
0
 10
50.874
 11
50.755
 20
-196.43
 21
-196.326
  0
LINE
  8
0
 10
50.755
 11
50.677
 20
-196.326
 21
-196.256
  0
LINE
  8
0
 10
50.677
 11
50.584
 20
-196.256
 21
-196.118
  0
LINE
  8
0
 10
50.584
 11
50.522
 20
-196.118
 21
-196.026
  0
LINE
  8
0
 10
50.522
 11
50.459
 20
-196.026
 21
-195.935
  0
LINE
  8
0
 10
50.459
 11
50.365
 20
-195.935
 21
-195.798
  0
LINE
  8
0
 10
50.365
 11
50.301
 20
-195.798
 21
-195.636
  0
LINE
  8
0
 10
50.301
 11
50.259
 20
-195.636
 21
-195.528
  0
LINE
  8
0
 10
50.259
 11
50.197
 20
-195.528
 21
-195.365
  0
LINE
  8
0
 10
50.197
 11
50.155
 20
-195.365
 21
-195.256
  0
LINE
  8
0
 10
50.155
 11
50.125
 20
-195.256
 21
-195.08
  0
LINE
  8
0
 10
50.125
 11
50.106
 20
-195.08
 21
-194.962
  0
LINE
  8
0
 10
50.106
 11
50.077
 20
-194.962
 21
-194.786
  0
LINE
  8
0
 10
50.077
 11
50.058
 20
-194.786
 21
-194.668
  0
LINE
  8
0
 10
76.97
 11
76.976
 20
-34.602
 21
-34.112
  0
LINE
  8
0
 10
76.976
 11
77.077
 20
-34.112
 21
-33.632
  0
LINE
  8
0
 10
77.077
 11
77.269
 20
-33.632
 21
-33.181
  0
LINE
  8
0
 10
77.269
 11
77.546
 20
-33.181
 21
-32.777
  0
LINE
  8
0
 10
77.546
 11
77.896
 20
-32.777
 21
-32.434
  0
LINE
  8
0
 10
77.896
 11
78.307
 20
-32.434
 21
-32.166
  0
LINE
  8
0
 10
78.307
 11
78.761
 20
-32.166
 21
-31.984
  0
LINE
  8
0
 10
78.761
 11
79.243
 20
-31.984
 21
-31.893
  0
LINE
  8
0
 10
79.243
 11
79.733
 20
-31.893
 21
-31.899
  0
LINE
  8
0
 10
79.733
 11
80.213
 20
-31.899
 21
-32
  0
LINE
  8
0
 10
80.213
 11
80.663
 20
-32
 21
-32.192
  0
LINE
  8
0
 10
80.663
 11
81.068
 20
-32.192
 21
-32.469
  0
LINE
  8
0
 10
81.068
 11
81.411
 20
-32.469
 21
-32.819
  0
LINE
  8
0
 10
81.411
 11
81.678
 20
-32.819
 21
-33.23
  0
LINE
  8
0
 10
81.678
 11
81.861
 20
-33.23
 21
-33.684
  0
LINE
  8
0
 10
81.861
 11
81.951
 20
-33.684
 21
-34.166
  0
LINE
  8
0
 10
81.951
 11
81.946
 20
-34.166
 21
-34.656
  0
LINE
  8
0
 10
81.946
 11
81.845
 20
-34.656
 21
-35.136
  0
LINE
  8
0
 10
81.845
 11
81.653
 20
-35.136
 21
-35.586
  0
LINE
  8
0
 10
81.653
 11
81.376
 20
-35.586
 21
-35.991
  0
LINE
  8
0
 10
81.376
 11
81.026
 20
-35.991
 21
-36.334
  0
LINE
  8
0
 10
81.026
 11
80.615
 20
-36.334
 21
-36.601
  0
LINE
  8
0
 10
80.615
 11
80.161
 20
-36.601
 21
-36.784
  0
LINE
  8
0
 10
80.161
 11
79.679
 20
-36.784
 21
-36.874
  0
LINE
  8
0
 10
79.679
 11
79.189
 20
-36.874
 21
-36.869
  0
LINE
  8
0
 10
79.189
 11
78.709
 20
-36.869
 21
-36.768
  0
LINE
  8
0
 10
78.709
 11
78.258
 20
-36.768
 21
-36.576
  0
LINE
  8
0
 10
78.258
 11
77.854
 20
-36.576
 21
-36.299
  0
LINE
  8
0
 10
77.854
 11
77.511
 20
-36.299
 21
-35.949
  0
LINE
  8
0
 10
77.511
 11
77.243
 20
-35.949
 21
-35.538
  0
LINE
  8
0
 10
77.243
 11
77.061
 20
-35.538
 21
-35.084
  0
LINE
  8
0
 10
77.061
 11
76.97
 20
-35.084
 21
-34.602
  0
LINE
  8
0
 10
76.97
 11
76.976
 20
-22.602
 21
-22.112
  0
LINE
  8
0
 10
76.976
 11
77.077
 20
-22.112
 21
-21.632
  0
LINE
  8
0
 10
77.077
 11
77.269
 20
-21.632
 21
-21.181
  0
LINE
  8
0
 10
77.269
 11
77.546
 20
-21.181
 21
-20.777
  0
LINE
  8
0
 10
77.546
 11
77.896
 20
-20.777
 21
-20.434
  0
LINE
  8
0
 10
77.896
 11
78.307
 20
-20.434
 21
-20.166
  0
LINE
  8
0
 10
78.307
 11
78.761
 20
-20.166
 21
-19.984
  0
LINE
  8
0
 10
78.761
 11
79.243
 20
-19.984
 21
-19.893
  0
LINE
  8
0
 10
79.243
 11
79.733
 20
-19.893
 21
-19.899
  0
LINE
  8
0
 10
79.733
 11
80.213
 20
-19.899
 21
-20
  0
LINE
  8
0
 10
80.213
 11
80.663
 20
-20
 21
-20.192
  0
LINE
  8
0
 10
80.663
 11
81.068
 20
-20.192
 21
-20.469
  0
LINE
  8
0
 10
81.068
 11
81.411
 20
-20.469
 21
-20.819
  0
LINE
  8
0
 10
81.411
 11
81.678
 20
-20.819
 21
-21.23
  0
LINE
  8
0
 10
81.678
 11
81.861
 20
-21.23
 21
-21.684
  0
LINE
  8
0
 10
81.861
 11
81.951
 20
-21.684
 21
-22.166
  0
LINE
  8
0
 10
81.951
 11
81.946
 20
-22.166
 21
-22.656
  0
LINE
  8
0
 10
81.946
 11
81.845
 20
-22.656
 21
-23.136
  0
LINE
  8
0
 10
81.845
 11
81.653
 20
-23.136
 21
-23.586
  0
LINE
  8
0
 10
81.653
 11
81.376
 20
-23.586
 21
-23.991
  0
LINE
  8
0
 10
81.376
 11
81.026
 20
-23.991
 21
-24.334
  0
LINE
  8
0
 10
81.026
 11
80.863
 20
-24.334
 21
-24.44
  0
LINE
  8
0
 10
80.863
 11
80.753
 20
-24.44
 21
-24.512
  0
LINE
  8
0
 10
80.753
 11
80.615
 20
-24.512
 21
-24.601
  0
LINE
  8
0
 10
80.615
 11
80.161
 20
-24.601
 21
-24.784
  0
LINE
  8
0
 10
80.161
 11
79.679
 20
-24.784
 21
-24.874
  0
LINE
  8
0
 10
79.679
 11
79.189
 20
-24.874
 21
-24.869
  0
LINE
  8
0
 10
79.189
 11
78.709
 20
-24.869
 21
-24.768
  0
LINE
  8
0
 10
78.709
 11
78.258
 20
-24.768
 21
-24.576
  0
LINE
  8
0
 10
78.258
 11
77.854
 20
-24.576
 21
-24.299
  0
LINE
  8
0
 10
77.854
 11
77.511
 20
-24.299
 21
-23.949
  0
LINE
  8
0
 10
77.511
 11
77.352
 20
-23.949
 21
-23.705
  0
LINE
  8
0
 10
77.352
 11
77.274
 20
-23.705
 21
-23.586
  0
LINE
  8
0
 10
77.274
 11
77.243
 20
-23.586
 21
-23.538
  0
LINE
  8
0
 10
77.243
 11
77.061
 20
-23.538
 21
-23.084
  0
LINE
  8
0
 10
77.061
 11
76.97
 20
-23.084
 21
-22.602
  0
LINE
  8
0
 10
83.491
 11
83.497
 20
-254.517
 21
-254.027
  0
LINE
  8
0
 10
83.497
 11
83.598
 20
-254.027
 21
-253.547
  0
LINE
  8
0
 10
83.598
 11
83.79
 20
-253.547
 21
-253.096
  0
LINE
  8
0
 10
83.79
 11
84.067
 20
-253.096
 21
-252.692
  0
LINE
  8
0
 10
84.067
 11
84.417
 20
-252.692
 21
-252.349
  0
LINE
  8
0
 10
84.417
 11
84.828
 20
-252.349
 21
-252.081
  0
LINE
  8
0
 10
84.828
 11
85.282
 20
-252.081
 21
-251.899
  0
LINE
  8
0
 10
85.282
 11
85.764
 20
-251.899
 21
-251.808
  0
LINE
  8
0
 10
85.764
 11
91.254
 20
-251.808
 21
-251.814
  0
LINE
  8
0
 10
91.254
 11
91.734
 20
-251.814
 21
-251.915
  0
LINE
  8
0
 10
91.734
 11
92.184
 20
-251.915
 21
-252.107
  0
LINE
  8
0
 10
92.184
 11
92.589
 20
-252.107
 21
-252.384
  0
LINE
  8
0
 10
92.589
 11
92.932
 20
-252.384
 21
-252.734
  0
LINE
  8
0
 10
92.932
 11
93.2
 20
-252.734
 21
-253.145
  0
LINE
  8
0
 10
93.2
 11
93.382
 20
-253.145
 21
-253.599
  0
LINE
  8
0
 10
93.382
 11
93.472
 20
-253.599
 21
-254.081
  0
LINE
  8
0
 10
93.472
 11
93.467
 20
-254.081
 21
-254.571
  0
LINE
  8
0
 10
93.467
 11
93.366
 20
-254.571
 21
-255.051
  0
LINE
  8
0
 10
93.366
 11
93.174
 20
-255.051
 21
-255.501
  0
LINE
  8
0
 10
93.174
 11
92.897
 20
-255.501
 21
-255.906
  0
LINE
  8
0
 10
92.897
 11
92.547
 20
-255.906
 21
-256.249
  0
LINE
  8
0
 10
92.547
 11
92.136
 20
-256.249
 21
-256.516
  0
LINE
  8
0
 10
92.136
 11
91.682
 20
-256.516
 21
-256.699
  0
LINE
  8
0
 10
91.682
 11
91.2
 20
-256.699
 21
-256.789
  0
LINE
  8
0
 10
91.2
 11
91.046
 20
-256.789
 21
-256.789
  0
LINE
  8
0
 10
91.046
 11
85.71
 20
-256.789
 21
-256.784
  0
LINE
  8
0
 10
85.71
 11
85.23
 20
-256.784
 21
-256.683
  0
LINE
  8
0
 10
85.23
 11
84.78
 20
-256.683
 21
-256.491
  0
LINE
  8
0
 10
84.78
 11
84.375
 20
-256.491
 21
-256.214
  0
LINE
  8
0
 10
84.375
 11
84.032
 20
-256.214
 21
-255.864
  0
LINE
  8
0
 10
84.032
 11
83.764
 20
-255.864
 21
-255.453
  0
LINE
  8
0
 10
83.764
 11
83.582
 20
-255.453
 21
-254.999
  0
LINE
  8
0
 10
83.582
 11
83.491
 20
-254.999
 21
-254.517
  0
LINE
  8
0
 10
83.491
 11
83.497
 20
-242.517
 21
-242.027
  0
LINE
  8
0
 10
83.497
 11
83.598
 20
-242.027
 21
-241.547
  0
LINE
  8
0
 10
83.598
 11
83.79
 20
-241.547
 21
-241.096
  0
LINE
  8
0
 10
83.79
 11
84.067
 20
-241.096
 21
-240.692
  0
LINE
  8
0
 10
84.067
 11
84.417
 20
-240.692
 21
-240.349
  0
LINE
  8
0
 10
84.417
 11
84.828
 20
-240.349
 21
-240.081
  0
LINE
  8
0
 10
84.828
 11
85.282
 20
-240.081
 21
-239.899
  0
LINE
  8
0
 10
85.282
 11
85.764
 20
-239.899
 21
-239.808
  0
LINE
  8
0
 10
85.764
 11
91.171
 20
-239.808
 21
-239.814
  0
LINE
  8
0
 10
91.171
 11
91.254
 20
-239.814
 21
-239.814
  0
LINE
  8
0
 10
91.254
 11
91.734
 20
-239.814
 21
-239.915
  0
LINE
  8
0
 10
91.734
 11
92.184
 20
-239.915
 21
-240.107
  0
LINE
  8
0
 10
92.184
 11
92.589
 20
-240.107
 21
-240.384
  0
LINE
  8
0
 10
92.589
 11
92.932
 20
-240.384
 21
-240.734
  0
LINE
  8
0
 10
92.932
 11
93.2
 20
-240.734
 21
-241.145
  0
LINE
  8
0
 10
93.2
 11
93.382
 20
-241.145
 21
-241.599
  0
LINE
  8
0
 10
93.382
 11
93.472
 20
-241.599
 21
-242.081
  0
LINE
  8
0
 10
93.472
 11
93.467
 20
-242.081
 21
-242.571
  0
LINE
  8
0
 10
93.467
 11
93.366
 20
-242.571
 21
-243.051
  0
LINE
  8
0
 10
93.366
 11
93.174
 20
-243.051
 21
-243.501
  0
LINE
  8
0
 10
93.174
 11
92.897
 20
-243.501
 21
-243.906
  0
LINE
  8
0
 10
92.897
 11
92.547
 20
-243.906
 21
-244.249
  0
LINE
  8
0
 10
92.547
 11
92.136
 20
-244.249
 21
-244.516
  0
LINE
  8
0
 10
92.136
 11
91.682
 20
-244.516
 21
-244.699
  0
LINE
  8
0
 10
91.682
 11
91.2
 20
-244.699
 21
-244.789
  0
LINE
  8
0
 10
91.2
 11
85.71
 20
-244.789
 21
-244.784
  0
LINE
  8
0
 10
85.71
 11
85.23
 20
-244.784
 21
-244.683
  0
LINE
  8
0
 10
85.23
 11
84.78
 20
-244.683
 21
-244.491
  0
LINE
  8
0
 10
84.78
 11
84.375
 20
-244.491
 21
-244.214
  0
LINE
  8
0
 10
84.375
 11
84.032
 20
-244.214
 21
-243.864
  0
LINE
  8
0
 10
84.032
 11
83.764
 20
-243.864
 21
-243.453
  0
LINE
  8
0
 10
83.764
 11
83.582
 20
-243.453
 21
-242.999
  0
LINE
  8
0
 10
83.582
 11
83.491
 20
-242.999
 21
-242.517
  0
LINE
  8
0
 10
90.483
 11
90.484
 20
-100.51
 21
-96.796
  0
LINE
  8
0
 10
90.484
 11
90.485
 20
-96.796
 21
-94.794
  0
LINE
  8
0
 10
90.485
 11
90.488
 20
-94.794
 21
-89.013
  0
LINE
  8
0
 10
90.488
 11
90.521
 20
-89.013
 21
-88.858
  0
LINE
  8
0
 10
90.521
 11
90.589
 20
-88.858
 21
-88.533
  0
LINE
  8
0
 10
90.589
 11
90.651
 20
-88.533
 21
-88.387
  0
LINE
  8
0
 10
90.651
 11
90.782
 20
-88.387
 21
-88.082
  0
LINE
  8
0
 10
90.782
 11
90.871
 20
-88.082
 21
-87.951
  0
LINE
  8
0
 10
90.871
 11
91.058
 20
-87.951
 21
-87.677
  0
LINE
  8
0
 10
91.058
 11
91.172
 20
-87.677
 21
-87.566
  0
LINE
  8
0
 10
91.172
 11
91.409
 20
-87.566
 21
-87.334
  0
LINE
  8
0
 10
91.409
 11
91.542
 20
-87.334
 21
-87.248
  0
LINE
  8
0
 10
91.542
 11
91.82
 20
-87.248
 21
-87.066
  0
LINE
  8
0
 10
91.82
 11
91.967
 20
-87.066
 21
-87.007
  0
LINE
  8
0
 10
91.967
 11
92.275
 20
-87.007
 21
-86.884
  0
LINE
  8
0
 10
92.275
 11
92.43
 20
-86.884
 21
-86.854
  0
LINE
  8
0
 10
92.43
 11
92.757
 20
-86.854
 21
-86.793
  0
LINE
  8
0
 10
92.757
 11
92.915
 20
-86.793
 21
-86.795
  0
LINE
  8
0
 10
92.915
 11
93.247
 20
-86.795
 21
-86.799
  0
LINE
  8
0
 10
93.247
 11
93.402
 20
-86.799
 21
-86.831
  0
LINE
  8
0
 10
93.402
 11
93.727
 20
-86.831
 21
-86.899
  0
LINE
  8
0
 10
93.727
 11
93.873
 20
-86.899
 21
-86.962
  0
LINE
  8
0
 10
93.873
 11
94.178
 20
-86.962
 21
-87.092
  0
LINE
  8
0
 10
94.178
 11
94.309
 20
-87.092
 21
-87.182
  0
LINE
  8
0
 10
94.309
 11
94.583
 20
-87.182
 21
-87.369
  0
LINE
  8
0
 10
94.583
 11
94.693
 20
-87.369
 21
-87.482
  0
LINE
  8
0
 10
94.693
 11
94.926
 20
-87.482
 21
-87.719
  0
LINE
  8
0
 10
94.926
 11
95.012
 20
-87.719
 21
-87.852
  0
LINE
  8
0
 10
95.012
 11
95.194
 20
-87.852
 21
-88.13
  0
LINE
  8
0
 10
95.194
 11
95.253
 20
-88.13
 21
-88.277
  0
LINE
  8
0
 10
95.253
 11
95.376
 20
-88.277
 21
-88.585
  0
LINE
  8
0
 10
95.376
 11
95.405
 20
-88.585
 21
-88.741
  0
LINE
  8
0
 10
95.405
 11
95.467
 20
-88.741
 21
-89.067
  0
LINE
  8
0
 10
95.467
 11
95.465
 20
-89.067
 21
-92.782
  0
LINE
  8
0
 10
95.465
 11
95.464
 20
-92.782
 21
-94.162
  0
LINE
  8
0
 10
95.464
 11
95.461
 20
-94.162
 21
-100.564
  0
LINE
  8
0
 10
95.461
 11
95.429
 20
-100.564
 21
-100.719
  0
LINE
  8
0
 10
95.429
 11
95.36
 20
-100.719
 21
-101.044
  0
LINE
  8
0
 10
95.36
 11
95.298
 20
-101.044
 21
-101.19
  0
LINE
  8
0
 10
95.298
 11
95.168
 20
-101.19
 21
-101.495
  0
LINE
  8
0
 10
95.168
 11
95.078
 20
-101.495
 21
-101.626
  0
LINE
  8
0
 10
95.078
 11
94.891
 20
-101.626
 21
-101.9
  0
LINE
  8
0
 10
94.891
 11
94.778
 20
-101.9
 21
-102.011
  0
LINE
  8
0
 10
94.778
 11
94.54
 20
-102.011
 21
-102.243
  0
LINE
  8
0
 10
94.54
 11
94.408
 20
-102.243
 21
-102.329
  0
LINE
  8
0
 10
94.408
 11
94.13
 20
-102.329
 21
-102.511
  0
LINE
  8
0
 10
94.13
 11
93.983
 20
-102.511
 21
-102.57
  0
LINE
  8
0
 10
93.983
 11
93.675
 20
-102.57
 21
-102.694
  0
LINE
  8
0
 10
93.675
 11
93.519
 20
-102.694
 21
-102.723
  0
LINE
  8
0
 10
93.519
 11
93.193
 20
-102.723
 21
-102.784
  0
LINE
  8
0
 10
93.193
 11
93.034
 20
-102.784
 21
-102.782
  0
LINE
  8
0
 10
93.034
 11
92.702
 20
-102.782
 21
-102.779
  0
LINE
  8
0
 10
92.702
 11
92.547
 20
-102.779
 21
-102.746
  0
LINE
  8
0
 10
92.547
 11
92.222
 20
-102.746
 21
-102.678
  0
LINE
  8
0
 10
92.222
 11
92.077
 20
-102.678
 21
-102.615
  0
LINE
  8
0
 10
92.077
 11
91.771
 20
-102.615
 21
-102.485
  0
LINE
  8
0
 10
91.771
 11
91.641
 20
-102.485
 21
-102.396
  0
LINE
  8
0
 10
91.641
 11
91.367
 20
-102.396
 21
-102.208
  0
LINE
  8
0
 10
91.367
 11
91.256
 20
-102.208
 21
-102.095
  0
LINE
  8
0
 10
91.256
 11
91.024
 20
-102.095
 21
-101.858
  0
LINE
  8
0
 10
91.024
 11
90.937
 20
-101.858
 21
-101.725
  0
LINE
  8
0
 10
90.937
 11
90.756
 20
-101.725
 21
-101.447
  0
LINE
  8
0
 10
90.756
 11
90.697
 20
-101.447
 21
-101.3
  0
LINE
  8
0
 10
90.697
 11
90.573
 20
-101.3
 21
-100.992
  0
LINE
  8
0
 10
90.573
 11
90.544
 20
-100.992
 21
-100.836
  0
LINE
  8
0
 10
90.544
 11
90.483
 20
-100.836
 21
-100.51
  0
LINE
  8
0
 10
94.485
 11
94.514
 20
-67.054
 21
-66.898
  0
LINE
  8
0
 10
94.514
 11
94.576
 20
-66.898
 21
-66.572
  0
LINE
  8
0
 10
94.576
 11
94.635
 20
-66.572
 21
-66.425
  0
LINE
  8
0
 10
94.635
 11
94.758
 20
-66.425
 21
-66.117
  0
LINE
  8
0
 10
94.758
 11
94.845
 20
-66.117
 21
-65.984
  0
LINE
  8
0
 10
94.845
 11
95.026
 20
-65.984
 21
-65.706
  0
LINE
  8
0
 10
95.026
 11
95.137
 20
-65.706
 21
-65.593
  0
LINE
  8
0
 10
95.137
 11
95.369
 20
-65.593
 21
-65.356
  0
LINE
  8
0
 10
95.369
 11
95.5
 20
-65.356
 21
-65.266
  0
LINE
  8
0
 10
95.5
 11
95.774
 20
-65.266
 21
-65.079
  0
LINE
  8
0
 10
95.774
 11
95.92
 20
-65.079
 21
-65.016
  0
LINE
  8
0
 10
95.92
 11
96.225
 20
-65.016
 21
-64.886
  0
LINE
  8
0
 10
96.225
 11
96.38
 20
-64.886
 21
-64.853
  0
LINE
  8
0
 10
96.38
 11
96.705
 20
-64.853
 21
-64.785
  0
LINE
  8
0
 10
96.705
 11
96.863
 20
-64.785
 21
-64.783
  0
LINE
  8
0
 10
96.863
 11
97.195
 20
-64.783
 21
-64.78
  0
LINE
  8
0
 10
97.195
 11
97.351
 20
-64.78
 21
-64.809
  0
LINE
  8
0
 10
97.351
 11
97.677
 20
-64.809
 21
-64.87
  0
LINE
  8
0
 10
97.677
 11
97.824
 20
-64.87
 21
-64.929
  0
LINE
  8
0
 10
97.824
 11
98.132
 20
-64.929
 21
-65.053
  0
LINE
  8
0
 10
98.132
 11
98.265
 20
-65.053
 21
-65.139
  0
LINE
  8
0
 10
98.265
 11
98.543
 20
-65.139
 21
-65.321
  0
LINE
  8
0
 10
98.543
 11
98.656
 20
-65.321
 21
-65.432
  0
LINE
  8
0
 10
98.656
 11
98.893
 20
-65.432
 21
-65.664
  0
LINE
  8
0
 10
98.893
 11
98.983
 20
-65.664
 21
-65.795
  0
LINE
  8
0
 10
98.983
 11
99.17
 20
-65.795
 21
-66.069
  0
LINE
  8
0
 10
99.17
 11
99.232
 20
-66.069
 21
-66.214
  0
LINE
  8
0
 10
99.232
 11
99.363
 20
-66.214
 21
-66.52
  0
LINE
  8
0
 10
99.363
 11
99.395
 20
-66.52
 21
-66.675
  0
LINE
  8
0
 10
99.395
 11
99.464
 20
-66.675
 21
-66.999
  0
LINE
  8
0
 10
99.464
 11
99.465
 20
-66.999
 21
-70.714
  0
LINE
  8
0
 10
99.465
 11
99.469
 20
-70.714
 21
-78.497
  0
LINE
  8
0
 10
99.469
 11
99.44
 20
-78.497
 21
-78.652
  0
LINE
  8
0
 10
99.44
 11
99.379
 20
-78.652
 21
-78.979
  0
LINE
  8
0
 10
99.379
 11
99.32
 20
-78.979
 21
-79.126
  0
LINE
  8
0
 10
99.32
 11
99.196
 20
-79.126
 21
-79.434
  0
LINE
  8
0
 10
99.196
 11
99.109
 20
-79.434
 21
-79.566
  0
LINE
  8
0
 10
99.109
 11
98.928
 20
-79.566
 21
-79.844
  0
LINE
  8
0
 10
98.928
 11
98.817
 20
-79.844
 21
-79.958
  0
LINE
  8
0
 10
98.817
 11
98.585
 20
-79.958
 21
-80.195
  0
LINE
  8
0
 10
98.585
 11
98.454
 20
-80.195
 21
-80.284
  0
LINE
  8
0
 10
98.454
 11
98.18
 20
-80.284
 21
-80.472
  0
LINE
  8
0
 10
98.18
 11
98.035
 20
-80.472
 21
-80.534
  0
LINE
  8
0
 10
98.035
 11
97.729
 20
-80.534
 21
-80.664
  0
LINE
  8
0
 10
97.729
 11
97.574
 20
-80.664
 21
-80.697
  0
LINE
  8
0
 10
97.574
 11
97.249
 20
-80.697
 21
-80.765
  0
LINE
  8
0
 10
97.249
 11
97.091
 20
-80.765
 21
-80.767
  0
LINE
  8
0
 10
97.091
 11
96.759
 20
-80.767
 21
-80.771
  0
LINE
  8
0
 10
96.759
 11
96.603
 20
-80.771
 21
-80.741
  0
LINE
  8
0
 10
96.603
 11
96.277
 20
-80.741
 21
-80.68
  0
LINE
  8
0
 10
96.277
 11
96.13
 20
-80.68
 21
-80.621
  0
LINE
  8
0
 10
96.13
 11
95.822
 20
-80.621
 21
-80.497
  0
LINE
  8
0
 10
95.822
 11
95.689
 20
-80.497
 21
-80.411
  0
LINE
  8
0
 10
95.689
 11
95.411
 20
-80.411
 21
-80.229
  0
LINE
  8
0
 10
95.411
 11
95.298
 20
-80.229
 21
-80.119
  0
LINE
  8
0
 10
95.298
 11
95.061
 20
-80.119
 21
-79.886
  0
LINE
  8
0
 10
95.061
 11
94.971
 20
-79.886
 21
-79.756
  0
LINE
  8
0
 10
94.971
 11
94.784
 20
-79.756
 21
-79.482
  0
LINE
  8
0
 10
94.784
 11
94.722
 20
-79.482
 21
-79.336
  0
LINE
  8
0
 10
94.722
 11
94.591
 20
-79.336
 21
-79.031
  0
LINE
  8
0
 10
94.591
 11
94.559
 20
-79.031
 21
-78.876
  0
LINE
  8
0
 10
94.559
 11
94.49
 20
-78.876
 21
-78.551
  0
LINE
  8
0
 10
94.49
 11
94.489
 20
-78.551
 21
-74.836
  0
LINE
  8
0
 10
94.489
 11
94.485
 20
-74.836
 21
-67.054
  0
LINE
  8
0
 10
110.495
 11
110.507
 20
-67.054
 21
-66.989
  0
LINE
  8
0
 10
110.507
 11
110.585
 20
-66.989
 21
-66.572
  0
LINE
  8
0
 10
110.585
 11
110.61
 20
-66.572
 21
-66.51
  0
LINE
  8
0
 10
110.61
 11
110.768
 20
-66.51
 21
-66.117
  0
LINE
  8
0
 10
110.768
 11
110.804
 20
-66.117
 21
-66.061
  0
LINE
  8
0
 10
110.804
 11
111.036
 20
-66.061
 21
-65.706
  0
LINE
  8
0
 10
111.036
 11
111.082
 20
-65.706
 21
-65.659
  0
LINE
  8
0
 10
111.082
 11
111.379
 20
-65.659
 21
-65.356
  0
LINE
  8
0
 10
111.379
 11
111.434
 20
-65.356
 21
-65.318
  0
LINE
  8
0
 10
111.434
 11
111.784
 20
-65.318
 21
-65.079
  0
LINE
  8
0
 10
111.784
 11
111.845
 20
-65.079
 21
-65.053
  0
LINE
  8
0
 10
111.845
 11
112.235
 20
-65.053
 21
-64.886
  0
LINE
  8
0
 10
112.235
 11
112.3
 20
-64.886
 21
-64.872
  0
LINE
  8
0
 10
112.3
 11
112.715
 20
-64.872
 21
-64.785
  0
LINE
  8
0
 10
112.715
 11
112.781
 20
-64.785
 21
-64.784
  0
LINE
  8
0
 10
112.781
 11
113.205
 20
-64.784
 21
-64.78
  0
LINE
  8
0
 10
113.205
 11
113.27
 20
-64.78
 21
-64.792
  0
LINE
  8
0
 10
113.27
 11
113.687
 20
-64.792
 21
-64.87
  0
LINE
  8
0
 10
113.687
 11
113.748
 20
-64.87
 21
-64.895
  0
LINE
  8
0
 10
113.748
 11
114.142
 20
-64.895
 21
-65.053
  0
LINE
  8
0
 10
114.142
 11
114.198
 20
-65.053
 21
-65.089
  0
LINE
  8
0
 10
114.198
 11
114.553
 20
-65.089
 21
-65.321
  0
LINE
  8
0
 10
114.553
 11
114.6
 20
-65.321
 21
-65.367
  0
LINE
  8
0
 10
114.6
 11
114.903
 20
-65.367
 21
-65.664
  0
LINE
  8
0
 10
114.903
 11
114.941
 20
-65.664
 21
-65.719
  0
LINE
  8
0
 10
114.941
 11
115.18
 20
-65.719
 21
-66.069
  0
LINE
  8
0
 10
115.18
 11
115.206
 20
-66.069
 21
-66.13
  0
LINE
  8
0
 10
115.206
 11
115.373
 20
-66.13
 21
-66.52
  0
LINE
  8
0
 10
115.373
 11
115.386
 20
-66.52
 21
-66.585
  0
LINE
  8
0
 10
115.386
 11
115.474
 20
-66.585
 21
-66.999
  0
LINE
  8
0
 10
115.474
 11
115.474
 20
-66.999
 21
-67.172
  0
LINE
  8
0
 10
115.474
 11
115.478
 20
-67.172
 21
-76.94
  0
LINE
  8
0
 10
115.478
 11
115.479
 20
-76.94
 21
-77.751
  0
LINE
  8
0
 10
115.479
 11
115.479
 20
-77.751
 21
-78.497
  0
LINE
  8
0
 10
115.479
 11
115.467
 20
-78.497
 21
-78.562
  0
LINE
  8
0
 10
115.467
 11
115.388
 20
-78.562
 21
-78.979
  0
LINE
  8
0
 10
115.388
 11
115.364
 20
-78.979
 21
-79.04
  0
LINE
  8
0
 10
115.364
 11
115.206
 20
-79.04
 21
-79.434
  0
LINE
  8
0
 10
115.206
 11
115.169
 20
-79.434
 21
-79.489
  0
LINE
  8
0
 10
115.169
 11
114.938
 20
-79.489
 21
-79.844
  0
LINE
  8
0
 10
114.938
 11
114.891
 20
-79.844
 21
-79.892
  0
LINE
  8
0
 10
114.891
 11
114.595
 20
-79.892
 21
-80.195
  0
LINE
  8
0
 10
114.595
 11
114.54
 20
-80.195
 21
-80.232
  0
LINE
  8
0
 10
114.54
 11
114.19
 20
-80.232
 21
-80.472
  0
LINE
  8
0
 10
114.19
 11
114.129
 20
-80.472
 21
-80.498
  0
LINE
  8
0
 10
114.129
 11
113.739
 20
-80.498
 21
-80.664
  0
LINE
  8
0
 10
113.739
 11
113.674
 20
-80.664
 21
-80.678
  0
LINE
  8
0
 10
113.674
 11
113.259
 20
-80.678
 21
-80.765
  0
LINE
  8
0
 10
113.259
 11
113.193
 20
-80.765
 21
-80.766
  0
LINE
  8
0
 10
113.193
 11
112.769
 20
-80.766
 21
-80.771
  0
LINE
  8
0
 10
112.769
 11
112.704
 20
-80.771
 21
-80.758
  0
LINE
  8
0
 10
112.704
 11
112.287
 20
-80.758
 21
-80.68
  0
LINE
  8
0
 10
112.287
 11
112.225
 20
-80.68
 21
-80.655
  0
LINE
  8
0
 10
112.225
 11
111.832
 20
-80.655
 21
-80.497
  0
LINE
  8
0
 10
111.832
 11
111.776
 20
-80.497
 21
-80.461
  0
LINE
  8
0
 10
111.776
 11
111.421
 20
-80.461
 21
-80.229
  0
LINE
  8
0
 10
111.421
 11
111.374
 20
-80.229
 21
-80.183
  0
LINE
  8
0
 10
111.374
 11
111.071
 20
-80.183
 21
-79.886
  0
LINE
  8
0
 10
111.071
 11
111.033
 20
-79.886
 21
-79.832
  0
LINE
  8
0
 10
111.033
 11
110.794
 20
-79.832
 21
-79.482
  0
LINE
  8
0
 10
110.794
 11
110.768
 20
-79.482
 21
-79.421
  0
LINE
  8
0
 10
110.768
 11
110.601
 20
-79.421
 21
-79.031
  0
LINE
  8
0
 10
110.601
 11
110.587
 20
-79.031
 21
-78.966
  0
LINE
  8
0
 10
110.587
 11
110.5
 20
-78.966
 21
-78.551
  0
LINE
  8
0
 10
110.5
 11
110.5
 20
-78.551
 21
-76.994
  0
LINE
  8
0
 10
110.5
 11
110.495
 20
-76.994
 21
-67.054
  0
LINE
  8
0
 10
114.497
 11
114.497
 20
-100.51
 21
-100.404
  0
LINE
  8
0
 10
114.497
 11
114.498
 20
-100.404
 21
-98.953
  0
LINE
  8
0
 10
114.498
 11
114.501
 20
-98.953
 21
-91.746
  0
LINE
  8
0
 10
114.501
 11
114.503
 20
-91.746
 21
-89.013
  0
LINE
  8
0
 10
114.503
 11
114.516
 20
-89.013
 21
-88.948
  0
LINE
  8
0
 10
114.516
 11
114.604
 20
-88.948
 21
-88.533
  0
LINE
  8
0
 10
114.604
 11
114.63
 20
-88.533
 21
-88.472
  0
LINE
  8
0
 10
114.63
 11
114.796
 20
-88.472
 21
-88.082
  0
LINE
  8
0
 10
114.796
 11
114.834
 20
-88.082
 21
-88.027
  0
LINE
  8
0
 10
114.834
 11
115.073
 20
-88.027
 21
-87.677
  0
LINE
  8
0
 10
115.073
 11
115.12
 20
-87.677
 21
-87.631
  0
LINE
  8
0
 10
115.12
 11
115.424
 20
-87.631
 21
-87.334
  0
LINE
  8
0
 10
115.424
 11
115.479
 20
-87.334
 21
-87.298
  0
LINE
  8
0
 10
115.479
 11
115.834
 20
-87.298
 21
-87.066
  0
LINE
  8
0
 10
115.834
 11
115.896
 20
-87.066
 21
-87.042
  0
LINE
  8
0
 10
115.896
 11
116.289
 20
-87.042
 21
-86.884
  0
LINE
  8
0
 10
116.289
 11
116.355
 20
-86.884
 21
-86.871
  0
LINE
  8
0
 10
116.355
 11
116.771
 20
-86.871
 21
-86.793
  0
LINE
  8
0
 10
116.771
 11
116.838
 20
-86.793
 21
-86.794
  0
LINE
  8
0
 10
116.838
 11
117.262
 20
-86.794
 21
-86.799
  0
LINE
  8
0
 10
117.262
 11
117.327
 20
-86.799
 21
-86.812
  0
LINE
  8
0
 10
117.327
 11
117.742
 20
-86.812
 21
-86.899
  0
LINE
  8
0
 10
117.742
 11
117.803
 20
-86.899
 21
-86.926
  0
LINE
  8
0
 10
117.803
 11
118.193
 20
-86.926
 21
-87.092
  0
LINE
  8
0
 10
118.193
 11
118.247
 20
-87.092
 21
-87.13
  0
LINE
  8
0
 10
118.247
 11
118.597
 20
-87.13
 21
-87.369
  0
LINE
  8
0
 10
118.597
 11
118.644
 20
-87.369
 21
-87.416
  0
LINE
  8
0
 10
118.644
 11
118.94
 20
-87.416
 21
-87.719
  0
LINE
  8
0
 10
118.94
 11
118.977
 20
-87.719
 21
-87.775
  0
LINE
  8
0
 10
118.977
 11
119.208
 20
-87.775
 21
-88.13
  0
LINE
  8
0
 10
119.208
 11
119.233
 20
-88.13
 21
-88.192
  0
LINE
  8
0
 10
119.233
 11
119.391
 20
-88.192
 21
-88.585
  0
LINE
  8
0
 10
119.391
 11
119.403
 20
-88.585
 21
-88.651
  0
LINE
  8
0
 10
119.403
 11
119.481
 20
-88.651
 21
-89.067
  0
LINE
  8
0
 10
119.481
 11
119.48
 20
-89.067
 21
-91.115
  0
LINE
  8
0
 10
119.48
 11
119.477
 20
-91.115
 21
-99.008
  0
LINE
  8
0
 10
119.477
 11
119.476
 20
-99.008
 21
-100.45
  0
LINE
  8
0
 10
119.476
 11
119.476
 20
-100.45
 21
-100.564
  0
LINE
  8
0
 10
119.476
 11
119.462
 20
-100.564
 21
-100.629
  0
LINE
  8
0
 10
119.462
 11
119.375
 20
-100.629
 21
-101.044
  0
LINE
  8
0
 10
119.375
 11
119.209
 20
-101.044
 21
-101.434
  0
LINE
  8
0
 10
119.209
 11
119.182
 20
-101.434
 21
-101.495
  0
LINE
  8
0
 10
119.182
 11
118.943
 20
-101.495
 21
-101.845
  0
LINE
  8
0
 10
118.943
 11
118.906
 20
-101.845
 21
-101.9
  0
LINE
  8
0
 10
118.906
 11
118.603
 20
-101.9
 21
-102.196
  0
LINE
  8
0
 10
118.603
 11
118.555
 20
-102.196
 21
-102.243
  0
LINE
  8
0
 10
118.555
 11
118.2
 20
-102.243
 21
-102.475
  0
LINE
  8
0
 10
118.2
 11
118.144
 20
-102.475
 21
-102.511
  0
LINE
  8
0
 10
118.144
 11
117.751
 20
-102.511
 21
-102.669
  0
LINE
  8
0
 10
117.751
 11
117.689
 20
-102.669
 21
-102.694
  0
LINE
  8
0
 10
117.689
 11
117.624
 20
-102.694
 21
-102.706
  0
LINE
  8
0
 10
117.624
 11
117.207
 20
-102.706
 21
-102.784
  0
LINE
  8
0
 10
117.207
 11
117.141
 20
-102.784
 21
-102.783
  0
LINE
  8
0
 10
117.141
 11
116.717
 20
-102.783
 21
-102.779
  0
LINE
  8
0
 10
116.717
 11
116.652
 20
-102.779
 21
-102.765
  0
LINE
  8
0
 10
116.652
 11
116.237
 20
-102.765
 21
-102.678
  0
LINE
  8
0
 10
116.237
 11
116.176
 20
-102.678
 21
-102.652
  0
LINE
  8
0
 10
116.176
 11
115.786
 20
-102.652
 21
-102.485
  0
LINE
  8
0
 10
115.786
 11
115.731
 20
-102.485
 21
-102.448
  0
LINE
  8
0
 10
115.731
 11
115.381
 20
-102.448
 21
-102.208
  0
LINE
  8
0
 10
115.381
 11
115.335
 20
-102.208
 21
-102.161
  0
LINE
  8
0
 10
115.335
 11
115.038
 20
-102.161
 21
-101.858
  0
LINE
  8
0
 10
115.038
 11
115.002
 20
-101.858
 21
-101.802
  0
LINE
  8
0
 10
115.002
 11
114.77
 20
-101.802
 21
-101.447
  0
LINE
  8
0
 10
114.77
 11
114.746
 20
-101.447
 21
-101.385
  0
LINE
  8
0
 10
114.746
 11
114.588
 20
-101.385
 21
-100.992
  0
LINE
  8
0
 10
114.588
 11
114.575
 20
-100.992
 21
-100.927
  0
LINE
  8
0
 10
114.575
 11
114.497
 20
-100.927
 21
-100.51
  0
LINE
  8
0
 10
116.491
 11
116.582
 20
-254.081
 21
-253.599
  0
LINE
  8
0
 10
116.582
 11
116.764
 20
-253.599
 21
-253.145
  0
LINE
  8
0
 10
116.764
 11
117.032
 20
-253.145
 21
-252.734
  0
LINE
  8
0
 10
117.032
 11
117.375
 20
-252.734
 21
-252.384
  0
LINE
  8
0
 10
117.375
 11
117.78
 20
-252.384
 21
-252.107
  0
LINE
  8
0
 10
117.78
 11
118.23
 20
-252.107
 21
-251.915
  0
LINE
  8
0
 10
118.23
 11
118.71
 20
-251.915
 21
-251.814
  0
LINE
  8
0
 10
118.71
 11
124.2
 20
-251.814
 21
-251.808
  0
LINE
  8
0
 10
124.2
 11
124.682
 20
-251.808
 21
-251.899
  0
LINE
  8
0
 10
124.682
 11
125.136
 20
-251.899
 21
-252.081
  0
LINE
  8
0
 10
125.136
 11
125.547
 20
-252.081
 21
-252.349
  0
LINE
  8
0
 10
125.547
 11
125.897
 20
-252.349
 21
-252.692
  0
LINE
  8
0
 10
125.897
 11
126.174
 20
-252.692
 21
-253.096
  0
LINE
  8
0
 10
126.174
 11
126.366
 20
-253.096
 21
-253.547
  0
LINE
  8
0
 10
126.366
 11
126.467
 20
-253.547
 21
-254.027
  0
LINE
  8
0
 10
126.467
 11
126.472
 20
-254.027
 21
-254.517
  0
LINE
  8
0
 10
126.472
 11
126.382
 20
-254.517
 21
-254.999
  0
LINE
  8
0
 10
126.382
 11
126.2
 20
-254.999
 21
-255.453
  0
LINE
  8
0
 10
126.2
 11
125.932
 20
-255.453
 21
-255.864
  0
LINE
  8
0
 10
125.932
 11
125.589
 20
-255.864
 21
-256.214
  0
LINE
  8
0
 10
125.589
 11
125.184
 20
-256.214
 21
-256.491
  0
LINE
  8
0
 10
125.184
 11
124.734
 20
-256.491
 21
-256.683
  0
LINE
  8
0
 10
124.734
 11
124.254
 20
-256.683
 21
-256.784
  0
LINE
  8
0
 10
124.254
 11
118.764
 20
-256.784
 21
-256.789
  0
LINE
  8
0
 10
118.764
 11
118.282
 20
-256.789
 21
-256.699
  0
LINE
  8
0
 10
118.282
 11
117.828
 20
-256.699
 21
-256.516
  0
LINE
  8
0
 10
117.828
 11
117.417
 20
-256.516
 21
-256.249
  0
LINE
  8
0
 10
117.417
 11
117.067
 20
-256.249
 21
-255.906
  0
LINE
  8
0
 10
117.067
 11
116.79
 20
-255.906
 21
-255.501
  0
LINE
  8
0
 10
116.79
 11
116.598
 20
-255.501
 21
-255.051
  0
LINE
  8
0
 10
116.598
 11
116.497
 20
-255.051
 21
-254.571
  0
LINE
  8
0
 10
116.497
 11
116.491
 20
-254.571
 21
-254.081
  0
LINE
  8
0
 10
116.491
 11
116.582
 20
-242.081
 21
-241.599
  0
LINE
  8
0
 10
116.582
 11
116.764
 20
-241.599
 21
-241.145
  0
LINE
  8
0
 10
116.764
 11
117.032
 20
-241.145
 21
-240.734
  0
LINE
  8
0
 10
117.032
 11
117.375
 20
-240.734
 21
-240.384
  0
LINE
  8
0
 10
117.375
 11
117.78
 20
-240.384
 21
-240.107
  0
LINE
  8
0
 10
117.78
 11
118.23
 20
-240.107
 21
-239.915
  0
LINE
  8
0
 10
118.23
 11
118.71
 20
-239.915
 21
-239.814
  0
LINE
  8
0
 10
118.71
 11
118.734
 20
-239.814
 21
-239.814
  0
LINE
  8
0
 10
118.734
 11
124.2
 20
-239.814
 21
-239.808
  0
LINE
  8
0
 10
124.2
 11
124.682
 20
-239.808
 21
-239.899
  0
LINE
  8
0
 10
124.682
 11
125.136
 20
-239.899
 21
-240.081
  0
LINE
  8
0
 10
125.136
 11
125.547
 20
-240.081
 21
-240.349
  0
LINE
  8
0
 10
125.547
 11
125.897
 20
-240.349
 21
-240.692
  0
LINE
  8
0
 10
125.897
 11
126.174
 20
-240.692
 21
-241.096
  0
LINE
  8
0
 10
126.174
 11
126.366
 20
-241.096
 21
-241.547
  0
LINE
  8
0
 10
126.366
 11
126.467
 20
-241.547
 21
-242.027
  0
LINE
  8
0
 10
126.467
 11
126.472
 20
-242.027
 21
-242.517
  0
LINE
  8
0
 10
126.472
 11
126.382
 20
-242.517
 21
-242.999
  0
LINE
  8
0
 10
126.382
 11
126.2
 20
-242.999
 21
-243.453
  0
LINE
  8
0
 10
126.2
 11
125.932
 20
-243.453
 21
-243.864
  0
LINE
  8
0
 10
125.932
 11
125.58
 20
-243.864
 21
-244.22
  0
LINE
  8
0
 10
125.58
 11
125.184
 20
-244.22
 21
-244.491
  0
LINE
  8
0
 10
125.184
 11
124.734
 20
-244.491
 21
-244.683
  0
LINE
  8
0
 10
124.734
 11
124.254
 20
-244.683
 21
-244.784
  0
LINE
  8
0
 10
124.254
 11
118.764
 20
-244.784
 21
-244.789
  0
LINE
  8
0
 10
118.764
 11
118.282
 20
-244.789
 21
-244.699
  0
LINE
  8
0
 10
118.282
 11
117.828
 20
-244.699
 21
-244.516
  0
LINE
  8
0
 10
117.828
 11
117.417
 20
-244.516
 21
-244.249
  0
LINE
  8
0
 10
117.417
 11
117.067
 20
-244.249
 21
-243.906
  0
LINE
  8
0
 10
117.067
 11
116.79
 20
-243.906
 21
-243.501
  0
LINE
  8
0
 10
116.79
 11
116.598
 20
-243.501
 21
-243.051
  0
LINE
  8
0
 10
116.598
 11
116.497
 20
-243.051
 21
-242.571
  0
LINE
  8
0
 10
116.497
 11
116.491
 20
-242.571
 21
-242.081
  0
LINE
  8
0
 10
127.97
 11
128.061
 20
-34.166
 21
-33.684
  0
LINE
  8
0
 10
128.061
 11
128.243
 20
-33.684
 21
-33.23
  0
LINE
  8
0
 10
128.243
 11
128.511
 20
-33.23
 21
-32.819
  0
LINE
  8
0
 10
128.511
 11
128.854
 20
-32.819
 21
-32.469
  0
LINE
  8
0
 10
128.854
 11
129.258
 20
-32.469
 21
-32.192
  0
LINE
  8
0
 10
129.258
 11
129.709
 20
-32.192
 21
-32
  0
LINE
  8
0
 10
129.709
 11
130.189
 20
-32
 21
-31.899
  0
LINE
  8
0
 10
130.189
 11
130.679
 20
-31.899
 21
-31.893
  0
LINE
  8
0
 10
130.679
 11
131.161
 20
-31.893
 21
-31.984
  0
LINE
  8
0
 10
131.161
 11
131.615
 20
-31.984
 21
-32.166
  0
LINE
  8
0
 10
131.615
 11
132.026
 20
-32.166
 21
-32.434
  0
LINE
  8
0
 10
132.026
 11
132.376
 20
-32.434
 21
-32.777
  0
LINE
  8
0
 10
132.376
 11
132.653
 20
-32.777
 21
-33.181
  0
LINE
  8
0
 10
132.653
 11
132.845
 20
-33.181
 21
-33.632
  0
LINE
  8
0
 10
132.845
 11
132.946
 20
-33.632
 21
-34.112
  0
LINE
  8
0
 10
132.946
 11
132.951
 20
-34.112
 21
-34.602
  0
LINE
  8
0
 10
132.951
 11
132.861
 20
-34.602
 21
-35.084
  0
LINE
  8
0
 10
132.861
 11
132.678
 20
-35.084
 21
-35.538
  0
LINE
  8
0
 10
132.678
 11
132.411
 20
-35.538
 21
-35.949
  0
LINE
  8
0
 10
132.411
 11
132.068
 20
-35.949
 21
-36.299
  0
LINE
  8
0
 10
132.068
 11
131.709
 20
-36.299
 21
-36.544
  0
LINE
  8
0
 10
131.709
 11
131.663
 20
-36.544
 21
-36.576
  0
LINE
  8
0
 10
131.663
 11
131.638
 20
-36.576
 21
-36.586
  0
LINE
  8
0
 10
131.638
 11
131.213
 20
-36.586
 21
-36.768
  0
LINE
  8
0
 10
131.213
 11
130.733
 20
-36.768
 21
-36.869
  0
LINE
  8
0
 10
130.733
 11
130.243
 20
-36.869
 21
-36.874
  0
LINE
  8
0
 10
130.243
 11
129.761
 20
-36.874
 21
-36.784
  0
LINE
  8
0
 10
129.761
 11
129.307
 20
-36.784
 21
-36.601
  0
LINE
  8
0
 10
129.307
 11
128.911
 20
-36.601
 21
-36.343
  0
LINE
  8
0
 10
128.911
 11
128.896
 20
-36.343
 21
-36.334
  0
LINE
  8
0
 10
128.896
 11
128.546
 20
-36.334
 21
-35.991
  0
LINE
  8
0
 10
128.546
 11
128.433
 20
-35.991
 21
-35.826
  0
LINE
  8
0
 10
128.433
 11
128.383
 20
-35.826
 21
-35.752
  0
LINE
  8
0
 10
128.383
 11
128.269
 20
-35.752
 21
-35.586
  0
LINE
  8
0
 10
128.269
 11
128.077
 20
-35.586
 21
-35.136
  0
LINE
  8
0
 10
128.077
 11
127.976
 20
-35.136
 21
-34.656
  0
LINE
  8
0
 10
127.976
 11
127.97
 20
-34.656
 21
-34.166
  0
LINE
  8
0
 10
127.97
 11
128.061
 20
-22.166
 21
-21.684
  0
LINE
  8
0
 10
128.061
 11
128.243
 20
-21.684
 21
-21.23
  0
LINE
  8
0
 10
128.243
 11
128.511
 20
-21.23
 21
-20.819
  0
LINE
  8
0
 10
128.511
 11
128.854
 20
-20.819
 21
-20.469
  0
LINE
  8
0
 10
128.854
 11
129.258
 20
-20.469
 21
-20.192
  0
LINE
  8
0
 10
129.258
 11
129.709
 20
-20.192
 21
-20
  0
LINE
  8
0
 10
129.709
 11
130.189
 20
-20
 21
-19.899
  0
LINE
  8
0
 10
130.189
 11
130.679
 20
-19.899
 21
-19.893
  0
LINE
  8
0
 10
130.679
 11
131.161
 20
-19.893
 21
-19.984
  0
LINE
  8
0
 10
131.161
 11
131.615
 20
-19.984
 21
-20.166
  0
LINE
  8
0
 10
131.615
 11
132.026
 20
-20.166
 21
-20.434
  0
LINE
  8
0
 10
132.026
 11
132.376
 20
-20.434
 21
-20.777
  0
LINE
  8
0
 10
132.376
 11
132.653
 20
-20.777
 21
-21.181
  0
LINE
  8
0
 10
132.653
 11
132.845
 20
-21.181
 21
-21.632
  0
LINE
  8
0
 10
132.845
 11
132.946
 20
-21.632
 21
-22.112
  0
LINE
  8
0
 10
132.946
 11
132.951
 20
-22.112
 21
-22.602
  0
LINE
  8
0
 10
132.951
 11
132.861
 20
-22.602
 21
-23.084
  0
LINE
  8
0
 10
132.861
 11
132.782
 20
-23.084
 21
-23.28
  0
LINE
  8
0
 10
132.782
 11
132.678
 20
-23.28
 21
-23.538
  0
LINE
  8
0
 10
132.678
 11
132.411
 20
-23.538
 21
-23.949
  0
LINE
  8
0
 10
132.411
 11
132.068
 20
-23.949
 21
-24.299
  0
LINE
  8
0
 10
132.068
 11
131.663
 20
-24.299
 21
-24.576
  0
LINE
  8
0
 10
131.663
 11
131.213
 20
-24.576
 21
-24.768
  0
LINE
  8
0
 10
131.213
 11
130.733
 20
-24.768
 21
-24.869
  0
LINE
  8
0
 10
130.733
 11
130.243
 20
-24.869
 21
-24.874
  0
LINE
  8
0
 10
130.243
 11
129.761
 20
-24.874
 21
-24.784
  0
LINE
  8
0
 10
129.761
 11
129.307
 20
-24.784
 21
-24.601
  0
LINE
  8
0
 10
129.307
 11
128.896
 20
-24.601
 21
-24.334
  0
LINE
  8
0
 10
128.896
 11
128.546
 20
-24.334
 21
-23.991
  0
LINE
  8
0
 10
128.546
 11
128.269
 20
-23.991
 21
-23.586
  0
LINE
  8
0
 10
128.269
 11
128.077
 20
-23.586
 21
-23.136
  0
LINE
  8
0
 10
128.077
 11
128.02
 20
-23.136
 21
-22.868
  0
LINE
  8
0
 10
128.02
 11
127.976
 20
-22.868
 21
-22.656
  0
LINE
  8
0
 10
127.976
 11
127.97
 20
-22.656
 21
-22.166
  0
LINE
  8
0
 10
179.982
 11
180.193
 20
-267.32
 21
-265.174
  0
LINE
  8
0
 10
180.193
 11
180.819
 20
-265.174
 21
-263.11
  0
LINE
  8
0
 10
180.819
 11
181.836
 20
-263.11
 21
-261.209
  0
LINE
  8
0
 10
181.836
 11
183.204
 20
-261.209
 21
-259.542
  0
LINE
  8
0
 10
183.204
 11
184.871
 20
-259.542
 21
-258.174
  0
LINE
  8
0
 10
184.871
 11
186.772
 20
-258.174
 21
-257.157
  0
LINE
  8
0
 10
186.772
 11
188.836
 20
-257.157
 21
-256.531
  0
LINE
  8
0
 10
188.836
 11
190.433
 20
-256.531
 21
-256.374
  0
LINE
  8
0
 10
190.433
 11
190.982
 20
-256.374
 21
-256.32
  0
LINE
  8
0
 10
190.982
 11
193.128
 20
-256.32
 21
-256.531
  0
LINE
  8
0
 10
193.128
 11
195.192
 20
-256.531
 21
-257.157
  0
LINE
  8
0
 10
195.192
 11
195.253
 20
-257.157
 21
-257.19
  0
LINE
  8
0
 10
195.253
 11
197.093
 20
-257.19
 21
-258.174
  0
LINE
  8
0
 10
197.093
 11
198.76
 20
-258.174
 21
-259.542
  0
LINE
  8
0
 10
198.76
 11
200.128
 20
-259.542
 21
-261.209
  0
LINE
  8
0
 10
200.128
 11
201.145
 20
-261.209
 21
-263.11
  0
LINE
  8
0
 10
201.145
 11
201.387
 20
-263.11
 21
-263.911
  0
LINE
  8
0
 10
201.387
 11
201.402
 20
-263.911
 21
-263.958
  0
LINE
  8
0
 10
201.402
 11
201.413
 20
-263.958
 21
-263.995
  0
LINE
  8
0
 10
201.413
 11
201.43
 20
-263.995
 21
-264.05
  0
LINE
  8
0
 10
201.43
 11
201.442
 20
-264.05
 21
-264.092
  0
LINE
  8
0
 10
201.442
 11
201.461
 20
-264.092
 21
-264.154
  0
LINE
  8
0
 10
201.461
 11
201.475
 20
-264.154
 21
-264.199
  0
LINE
  8
0
 10
201.475
 11
201.771
 20
-264.199
 21
-265.174
  0
LINE
  8
0
 10
201.771
 11
201.982
 20
-265.174
 21
-267.32
  0
LINE
  8
0
 10
201.982
 11
201.771
 20
-267.32
 21
-269.466
  0
LINE
  8
0
 10
201.771
 11
201.145
 20
-269.466
 21
-271.53
  0
LINE
  8
0
 10
201.145
 11
200.128
 20
-271.53
 21
-273.431
  0
LINE
  8
0
 10
200.128
 11
198.76
 20
-273.431
 21
-275.098
  0
LINE
  8
0
 10
198.76
 11
197.093
 20
-275.098
 21
-276.466
  0
LINE
  8
0
 10
197.093
 11
195.191
 20
-276.466
 21
-277.483
  0
LINE
  8
0
 10
195.191
 11
193.128
 20
-277.483
 21
-278.109
  0
LINE
  8
0
 10
193.128
 11
190.982
 20
-278.109
 21
-278.32
  0
LINE
  8
0
 10
190.982
 11
190.932
 20
-278.32
 21
-278.315
  0
LINE
  8
0
 10
190.932
 11
190.822
 20
-278.315
 21
-278.304
  0
LINE
  8
0
 10
190.822
 11
190.668
 20
-278.304
 21
-278.289
  0
LINE
  8
0
 10
190.668
 11
190.562
 20
-278.289
 21
-278.279
  0
LINE
  8
0
 10
190.562
 11
190.422
 20
-278.279
 21
-278.265
  0
LINE
  8
0
 10
190.422
 11
190.326
 20
-278.265
 21
-278.255
  0
LINE
  8
0
 10
190.326
 11
190.206
 20
-278.255
 21
-278.244
  0
LINE
  8
0
 10
190.206
 11
188.836
 20
-278.244
 21
-278.109
  0
LINE
  8
0
 10
188.836
 11
186.772
 20
-278.109
 21
-277.483
  0
LINE
  8
0
 10
186.772
 11
185.719
 20
-277.483
 21
-276.919
  0
LINE
  8
0
 10
185.719
 11
184.871
 20
-276.919
 21
-276.466
  0
LINE
  8
0
 10
184.871
 11
183.728
 20
-276.466
 21
-275.529
  0
LINE
  8
0
 10
183.728
 11
183.204
 20
-275.529
 21
-275.098
  0
LINE
  8
0
 10
183.204
 11
181.836
 20
-275.098
 21
-273.431
  0
LINE
  8
0
 10
181.836
 11
180.819
 20
-273.431
 21
-271.53
  0
LINE
  8
0
 10
180.819
 11
180.193
 20
-271.53
 21
-269.466
  0
LINE
  8
0
 10
180.193
 11
179.982
 20
-269.466
 21
-267.32
  0
LINE
  8
0
 10
189.232
 11
189.304
 20
-150.82
 21
-150.088
  0
LINE
  8
0
 10
189.304
 11
189.517
 20
-150.088
 21
-149.385
  0
LINE
  8
0
 10
189.517
 11
189.864
 20
-149.385
 21
-148.737
  0
LINE
  8
0
 10
189.864
 11
190.33
 20
-148.737
 21
-148.168
  0
LINE
  8
0
 10
190.33
 11
190.899
 20
-148.168
 21
-147.702
  0
LINE
  8
0
 10
190.899
 11
191.547
 20
-147.702
 21
-147.355
  0
LINE
  8
0
 10
191.547
 11
192.25
 20
-147.355
 21
-147.142
  0
LINE
  8
0
 10
192.25
 11
192.982
 20
-147.142
 21
-147.07
  0
LINE
  8
0
 10
192.982
 11
193.714
 20
-147.07
 21
-147.142
  0
LINE
  8
0
 10
193.714
 11
194.417
 20
-147.142
 21
-147.355
  0
LINE
  8
0
 10
194.417
 11
195.065
 20
-147.355
 21
-147.702
  0
LINE
  8
0
 10
195.065
 11
195.634
 20
-147.702
 21
-148.168
  0
LINE
  8
0
 10
195.634
 11
196.1
 20
-148.168
 21
-148.737
  0
LINE
  8
0
 10
196.1
 11
196.447
 20
-148.737
 21
-149.385
  0
LINE
  8
0
 10
196.447
 11
196.66
 20
-149.385
 21
-150.088
  0
LINE
  8
0
 10
196.66
 11
196.732
 20
-150.088
 21
-150.82
  0
LINE
  8
0
 10
196.732
 11
196.66
 20
-150.82
 21
-151.552
  0
LINE
  8
0
 10
196.66
 11
196.447
 20
-151.552
 21
-152.255
  0
LINE
  8
0
 10
196.447
 11
196.315
 20
-152.255
 21
-152.501
  0
LINE
  8
0
 10
196.315
 11
196.1
 20
-152.501
 21
-152.903
  0
LINE
  8
0
 10
196.1
 11
195.634
 20
-152.903
 21
-153.472
  0
LINE
  8
0
 10
195.634
 11
195.065
 20
-153.472
 21
-153.938
  0
LINE
  8
0
 10
195.065
 11
194.417
 20
-153.938
 21
-154.285
  0
LINE
  8
0
 10
194.417
 11
193.714
 20
-154.285
 21
-154.498
  0
LINE
  8
0
 10
193.714
 11
192.982
 20
-154.498
 21
-154.57
  0
LINE
  8
0
 10
192.982
 11
192.25
 20
-154.57
 21
-154.498
  0
LINE
  8
0
 10
192.25
 11
191.547
 20
-154.498
 21
-154.285
  0
LINE
  8
0
 10
191.547
 11
190.899
 20
-154.285
 21
-153.938
  0
LINE
  8
0
 10
190.899
 11
190.33
 20
-153.938
 21
-153.472
  0
LINE
  8
0
 10
190.33
 11
189.864
 20
-153.472
 21
-152.903
  0
LINE
  8
0
 10
189.864
 11
189.732
 20
-152.903
 21
-152.657
  0
LINE
  8
0
 10
189.732
 11
189.517
 20
-152.657
 21
-152.255
  0
LINE
  8
0
 10
189.517
 11
189.304
 20
-152.255
 21
-151.552
  0
LINE
  8
0
 10
189.304
 11
189.232
 20
-151.552
 21
-150.82
  0
LINE
  8
0
 10
189.232
 11
189.304
 20
-140.82
 21
-140.088
  0
LINE
  8
0
 10
189.304
 11
189.385
 20
-140.088
 21
-139.821
  0
LINE
  8
0
 10
189.385
 11
189.517
 20
-139.821
 21
-139.385
  0
LINE
  8
0
 10
189.517
 11
189.864
 20
-139.385
 21
-138.737
  0
LINE
  8
0
 10
189.864
 11
190.33
 20
-138.737
 21
-138.168
  0
LINE
  8
0
 10
190.33
 11
190.899
 20
-138.168
 21
-137.702
  0
LINE
  8
0
 10
190.899
 11
191.547
 20
-137.702
 21
-137.355
  0
LINE
  8
0
 10
191.547
 11
192.25
 20
-137.355
 21
-137.142
  0
LINE
  8
0
 10
192.25
 11
192.982
 20
-137.142
 21
-137.07
  0
LINE
  8
0
 10
192.982
 11
193.714
 20
-137.07
 21
-137.142
  0
LINE
  8
0
 10
193.714
 11
194.417
 20
-137.142
 21
-137.355
  0
LINE
  8
0
 10
194.417
 11
195.065
 20
-137.355
 21
-137.702
  0
LINE
  8
0
 10
195.065
 11
195.634
 20
-137.702
 21
-138.168
  0
LINE
  8
0
 10
195.634
 11
196.1
 20
-138.168
 21
-138.737
  0
LINE
  8
0
 10
196.1
 11
196.447
 20
-138.737
 21
-139.385
  0
LINE
  8
0
 10
196.447
 11
196.66
 20
-139.385
 21
-140.088
  0
LINE
  8
0
 10
196.66
 11
196.732
 20
-140.088
 21
-140.82
  0
LINE
  8
0
 10
196.732
 11
196.66
 20
-140.82
 21
-141.552
  0
LINE
  8
0
 10
196.66
 11
196.447
 20
-141.552
 21
-142.255
  0
LINE
  8
0
 10
196.447
 11
196.1
 20
-142.255
 21
-142.903
  0
LINE
  8
0
 10
196.1
 11
195.634
 20
-142.903
 21
-143.472
  0
LINE
  8
0
 10
195.634
 11
195.065
 20
-143.472
 21
-143.938
  0
LINE
  8
0
 10
195.065
 11
194.819
 20
-143.938
 21
-144.07
  0
LINE
  8
0
 10
194.819
 11
194.417
 20
-144.07
 21
-144.285
  0
LINE
  8
0
 10
194.417
 11
193.714
 20
-144.285
 21
-144.498
  0
LINE
  8
0
 10
193.714
 11
192.982
 20
-144.498
 21
-144.57
  0
LINE
  8
0
 10
192.982
 11
192.25
 20
-144.57
 21
-144.498
  0
LINE
  8
0
 10
192.25
 11
191.547
 20
-144.498
 21
-144.285
  0
LINE
  8
0
 10
191.547
 11
191.301
 20
-144.285
 21
-144.153
  0
LINE
  8
0
 10
191.301
 11
190.899
 20
-144.153
 21
-143.938
  0
LINE
  8
0
 10
190.899
 11
190.33
 20
-143.938
 21
-143.472
  0
LINE
  8
0
 10
190.33
 11
189.864
 20
-143.472
 21
-142.903
  0
LINE
  8
0
 10
189.864
 11
189.648
 20
-142.903
 21
-142.499
  0
LINE
  8
0
 10
189.648
 11
189.517
 20
-142.499
 21
-142.255
  0
LINE
  8
0
 10
189.517
 11
189.436
 20
-142.255
 21
-141.988
  0
LINE
  8
0
 10
189.436
 11
189.304
 20
-141.988
 21
-141.552
  0
LINE
  8
0
 10
189.304
 11
189.232
 20
-141.552
 21
-140.82
  0
ENDSEC
  0
SECTION
  2
OBJECTS
  0
DICTIONARY
  0
ENDSEC
  0
EOF
