  0
SECTION
  2
BLOCKS
  0
ENDSEC
  0
SECTION
  2
ENTITIES
  0
LINE
  8
0
 10
-20.58
 11
-20.58
 20
-19.852
 21
20.648
  0
LINE
  8
0
 10
-20.58
 11
19.92
 20
20.648
 21
20.648
  0
LINE
  8
0
 10
19.92
 11
19.92
 20
20.648
 21
-3.992
  0
LINE
  8
0
 10
19.92
 11
20.25
 20
-3.992
 21
-5.09
  0
LINE
  8
0
 10
20.25
 11
20.332
 20
-5.09
 21
-5.354
  0
LINE
  8
0
 10
20.332
 11
20.408
 20
-5.354
 21
-6.134
  0
LINE
  8
0
 10
20.408
 11
20.552
 20
-6.134
 21
-7.576
  0
LINE
  8
0
 10
20.552
 11
20.58
 20
-7.576
 21
-7.85
  0
LINE
  8
0
 10
20.58
 11
20.382
 20
-7.85
 21
-9.826
  0
LINE
  8
0
 10
20.382
 11
20.296
 20
-9.826
 21
-10.012
  0
LINE
  8
0
 10
20.296
 11
19.894
 20
-10.012
 21
-9.822
  0
LINE
  8
0
 10
19.894
 11
18.762
 20
-9.822
 21
-9.286
  0
LINE
  8
0
 10
18.762
 11
17.15
 20
-9.286
 21
-8.526
  0
LINE
  8
0
 10
17.15
 11
16.75
 20
-8.526
 21
-8.336
  0
LINE
  8
0
 10
16.75
 11
16.346
 20
-8.336
 21
-7.936
  0
LINE
  8
0
 10
16.346
 11
15.608
 20
-7.936
 21
-7.198
  0
LINE
  8
0
 10
15.608
 11
14.492
 20
-7.198
 21
-6.08
  0
LINE
  8
0
 10
14.492
 11
14.128
 20
-6.08
 21
-5.716
  0
LINE
  8
0
 10
14.128
 11
13.744
 20
-5.716
 21
-5.33
  0
LINE
  8
0
 10
13.744
 11
13.122
 20
-5.33
 21
-4.708
  0
LINE
  8
0
 10
13.122
 11
12.952
 20
-4.708
 21
-4.392
  0
LINE
  8
0
 10
12.952
 11
12.374
 20
-4.392
 21
-3.686
  0
LINE
  8
0
 10
12.374
 11
11.946
 20
-3.686
 21
-3.26
  0
LINE
  8
0
 10
11.946
 11
11.246
 20
-3.26
 21
-2.684
  0
LINE
  8
0
 10
11.246
 11
10.404
 20
-2.684
 21
-2.234
  0
LINE
  8
0
 10
10.404
 11
10.032
 20
-2.234
 21
-2.068
  0
LINE
  8
0
 10
10.032
 11
9.606
 20
-2.068
 21
-1.94
  0
LINE
  8
0
 10
9.606
 11
9.012
 20
-1.94
 21
-1.76
  0
LINE
  8
0
 10
9.012
 11
8.064
 20
-1.76
 21
-1.666
  0
LINE
  8
0
 10
8.064
 11
7.808
 20
-1.666
 21
-1.642
  0
LINE
  8
0
 10
7.808
 11
7.55
 20
-1.642
 21
-1.666
  0
LINE
  8
0
 10
7.55
 11
6.598
 20
-1.666
 21
-1.76
  0
LINE
  8
0
 10
6.598
 11
6.352
 20
-1.76
 21
-1.836
  0
LINE
  8
0
 10
6.352
 11
5.44
 20
-1.836
 21
-2.112
  0
LINE
  8
0
 10
5.44
 11
5.21
 20
-2.112
 21
-2.234
  0
LINE
  8
0
 10
5.21
 11
4.324
 20
-2.234
 21
-2.72
  0
LINE
  8
0
 10
4.324
 11
4.17
 20
-2.72
 21
-2.848
  0
LINE
  8
0
 10
4.17
 11
3.77
 20
-2.848
 21
-3.176
  0
LINE
  8
0
 10
3.77
 11
3.432
 20
-3.176
 21
-3.454
  0
LINE
  8
0
 10
3.432
 11
3.238
 20
-3.454
 21
-3.686
  0
LINE
  8
0
 10
3.238
 11
2.634
 20
-3.686
 21
-4.442
  0
LINE
  8
0
 10
2.634
 11
2.538
 20
-4.442
 21
-4.62
  0
LINE
  8
0
 10
2.538
 11
2.196
 20
-4.62
 21
-5.26
  0
LINE
  8
0
 10
2.196
 11
2.088
 20
-5.26
 21
-5.46
  0
LINE
  8
0
 10
2.088
 11
2.014
 20
-5.46
 21
-5.708
  0
LINE
  8
0
 10
2.014
 11
1.736
 20
-5.708
 21
-6.622
  0
LINE
  8
0
 10
1.736
 11
1.712
 20
-6.622
 21
-6.88
  0
LINE
  8
0
 10
1.712
 11
1.618
 20
-6.88
 21
-7.828
  0
LINE
  8
0
 10
1.618
 11
1.644
 20
-7.828
 21
-8.086
  0
LINE
  8
0
 10
1.644
 11
1.812
 20
-8.086
 21
-9.284
  0
LINE
  8
0
 10
1.812
 11
1.918
 20
-9.284
 21
-9.63
  0
LINE
  8
0
 10
1.918
 11
2.112
 20
-9.63
 21
-10.242
  0
LINE
  8
0
 10
2.112
 11
2.342
 20
-10.242
 21
-10.672
  0
LINE
  8
0
 10
2.342
 11
2.826
 20
-10.672
 21
-11.466
  0
LINE
  8
0
 10
2.826
 11
3.174
 20
-11.466
 21
-11.892
  0
LINE
  8
0
 10
3.174
 11
3.432
 20
-11.892
 21
-12.204
  0
LINE
  8
0
 10
3.432
 11
3.77
 20
-12.204
 21
-12.482
  0
LINE
  8
0
 10
3.77
 11
4.368
 20
-12.482
 21
-12.974
  0
LINE
  8
0
 10
4.368
 11
5.44
 20
-12.974
 21
-14
  0
LINE
  8
0
 10
5.44
 11
6.136
 20
-14
 21
-14.694
  0
LINE
  8
0
 10
6.136
 11
7.252
 20
-14.694
 21
-15.808
  0
LINE
  8
0
 10
7.252
 11
7.854
 20
-15.808
 21
-16.414
  0
LINE
  8
0
 10
7.854
 11
8.342
 20
-16.414
 21
-16.992
  0
LINE
  8
0
 10
8.342
 11
8.506
 20
-16.992
 21
-17.336
  0
LINE
  8
0
 10
8.506
 11
9.146
 20
-17.336
 21
-18.692
  0
LINE
  8
0
 10
9.146
 11
9.83
 20
-18.692
 21
-20.448
  0
LINE
  8
0
 10
9.83
 11
7.776
 20
-20.448
 21
-20.65
  0
LINE
  8
0
 10
7.776
 11
7.502
 20
-20.65
 21
-20.624
  0
LINE
  8
0
 10
7.502
 11
6.062
 20
-20.624
 21
-20.484
  0
LINE
  8
0
 10
6.062
 11
5.282
 20
-20.484
 21
-20.408
  0
LINE
  8
0
 10
5.282
 11
5.018
 20
-20.408
 21
-20.324
  0
LINE
  8
0
 10
5.018
 11
4.676
 20
-20.324
 21
-20.222
  0
LINE
  8
0
 10
4.676
 11
3.454
 20
-20.222
 21
-19.852
  0
LINE
  8
0
 10
3.454
 11
-20.58
 20
-19.852
 21
-19.852
  0
LINE
  8
0
 10
-3.586
 11
-3.55
 20
-15.664
 21
-14.864
  0
LINE
  8
0
 10
-3.55
 11
-3.462
 20
-14.864
 21
-14.578
  0
LINE
  8
0
 10
-3.462
 11
-3.378
 20
-14.578
 21
-14.302
  0
LINE
  8
0
 10
-3.378
 11
-3.102
 20
-14.302
 21
-13.782
  0
LINE
  8
0
 10
-3.102
 11
-2.912
 20
-13.782
 21
-13.552
  0
LINE
  8
0
 10
-2.912
 11
-2.782
 20
-13.552
 21
-13.394
  0
LINE
  8
0
 10
-2.782
 11
-2.648
 20
-13.394
 21
-13.262
  0
LINE
  8
0
 10
-2.648
 11
-2.274
 20
-13.262
 21
-12.954
  0
LINE
  8
0
 10
-2.274
 11
-1.754
 20
-12.954
 21
-12.678
  0
LINE
  8
0
 10
-1.754
 11
-1.192
 20
-12.678
 21
-12.508
  0
LINE
  8
0
 10
-1.192
 11
-0.862
 20
-12.508
 21
-12.474
  0
LINE
  8
0
 10
-0.862
 11
-0.606
 20
-12.474
 21
-12.45
  0
LINE
  8
0
 10
-0.606
 11
-0.27
 20
-12.45
 21
-12.484
  0
LINE
  8
0
 10
-0.27
 11
-0.016
 20
-12.484
 21
-12.518
  0
LINE
  8
0
 10
-0.016
 11
0.236
 20
-12.518
 21
-12.586
  0
LINE
  8
0
 10
0.236
 11
0.542
 20
-12.586
 21
-12.678
  0
LINE
  8
0
 10
0.542
 11
0.844
 20
-12.678
 21
-12.842
  0
LINE
  8
0
 10
0.844
 11
1.178
 20
-12.842
 21
-13.052
  0
LINE
  8
0
 10
1.178
 11
1.586
 20
-13.052
 21
-13.416
  0
LINE
  8
0
 10
1.586
 11
1.888
 20
-13.416
 21
-13.782
  0
LINE
  8
0
 10
1.888
 11
2.08
 20
-13.782
 21
-14.146
  0
LINE
  8
0
 10
2.08
 11
2.196
 20
-14.146
 21
-14.406
  0
LINE
  8
0
 10
2.196
 11
2.336
 20
-14.406
 21
-14.864
  0
LINE
  8
0
 10
2.336
 11
2.394
 20
-14.864
 21
-15.45
  0
LINE
  8
0
 10
2.394
 11
2.336
 20
-15.45
 21
-16.034
  0
LINE
  8
0
 10
2.336
 11
2.164
 20
-16.034
 21
-16.598
  0
LINE
  8
0
 10
2.164
 11
2.026
 20
-16.598
 21
-16.858
  0
LINE
  8
0
 10
2.026
 11
1.888
 20
-16.858
 21
-17.116
  0
LINE
  8
0
 10
1.888
 11
1.722
 20
-17.116
 21
-17.318
  0
LINE
  8
0
 10
1.722
 11
1.496
 20
-17.318
 21
-17.586
  0
LINE
  8
0
 10
1.496
 11
1.224
 20
-17.586
 21
-17.808
  0
LINE
  8
0
 10
1.224
 11
0.96
 20
-17.808
 21
-17.998
  0
LINE
  8
0
 10
0.96
 11
0.72
 20
-17.998
 21
-18.126
  0
LINE
  8
0
 10
0.72
 11
0.514
 20
-18.126
 21
-18.23
  0
LINE
  8
0
 10
0.514
 11
-0.038
 20
-18.23
 21
-18.394
  0
LINE
  8
0
 10
-0.038
 11
-0.606
 20
-18.394
 21
-18.45
  0
LINE
  8
0
 10
-0.606
 11
-0.862
 20
-18.45
 21
-18.426
  0
LINE
  8
0
 10
-0.862
 11
-1.174
 20
-18.426
 21
-18.396
  0
LINE
  8
0
 10
-1.174
 11
-1.436
 20
-18.396
 21
-18.32
  0
LINE
  8
0
 10
-1.436
 11
-1.796
 20
-18.32
 21
-18.2
  0
LINE
  8
0
 10
-1.796
 11
-2.094
 20
-18.2
 21
-18.04
  0
LINE
  8
0
 10
-2.094
 11
-2.384
 20
-18.04
 21
-17.854
  0
LINE
  8
0
 10
-2.384
 11
-2.728
 20
-17.854
 21
-17.57
  0
LINE
  8
0
 10
-2.728
 11
-2.95
 20
-17.57
 21
-17.304
  0
LINE
  8
0
 10
-2.95
 11
-3.378
 20
-17.304
 21
-16.598
  0
LINE
  8
0
 10
-3.378
 11
-3.55
 20
-16.598
 21
-16.034
  0
LINE
  8
0
 10
-3.55
 11
-3.586
 20
-16.034
 21
-15.664
  0
LINE
  8
0
 10
-3.038
 11
-3.034
 20
0.824
 21
1.214
  0
LINE
  8
0
 10
-3.034
 11
-2.984
 20
1.214
 21
1.48
  0
LINE
  8
0
 10
-2.984
 11
-2.926
 20
1.48
 21
1.68
  0
LINE
  8
0
 10
-2.926
 11
-2.794
 20
1.68
 21
1.954
  0
LINE
  8
0
 10
-2.794
 11
-2.7
 20
1.954
 21
2.118
  0
LINE
  8
0
 10
-2.7
 11
-2.572
 20
2.118
 21
2.274
  0
LINE
  8
0
 10
-2.572
 11
-2.288
 20
2.274
 21
2.544
  0
LINE
  8
0
 10
-2.288
 11
-1.96
 20
2.544
 21
2.756
  0
LINE
  8
0
 10
-1.96
 11
-1.598
 20
2.756
 21
2.898
  0
LINE
  8
0
 10
-1.598
 11
-1.214
 20
2.898
 21
2.966
  0
LINE
  8
0
 10
-1.214
 11
-0.898
 20
2.966
 21
2.966
  0
LINE
  8
0
 10
-0.898
 11
-0.514
 20
2.966
 21
2.898
  0
LINE
  8
0
 10
-0.514
 11
-0.15
 20
2.898
 21
2.756
  0
LINE
  8
0
 10
-0.15
 11
0.178
 20
2.756
 21
2.544
  0
LINE
  8
0
 10
0.178
 11
0.606
 20
2.544
 21
2.094
  0
LINE
  8
0
 10
0.606
 11
0.792
 20
2.094
 21
1.748
  0
LINE
  8
0
 10
0.792
 11
0.906
 20
1.748
 21
1.372
  0
LINE
  8
0
 10
0.906
 11
0.932
 20
1.372
 21
1.094
  0
LINE
  8
0
 10
0.932
 11
0.926
 20
1.094
 21
0.804
  0
LINE
  8
0
 10
0.926
 11
0.9
 20
0.804
 21
0.572
  0
LINE
  8
0
 10
0.9
 11
0.84
 20
0.572
 21
0.374
  0
LINE
  8
0
 10
0.84
 11
0.716
 20
0.374
 21
0.076
  0
LINE
  8
0
 10
0.716
 11
0.506
 20
0.076
 21
-0.252
  0
LINE
  8
0
 10
0.506
 11
0.386
 20
-0.252
 21
-0.398
  0
LINE
  8
0
 10
0.386
 11
0.234
 20
-0.398
 21
-0.532
  0
LINE
  8
0
 10
0.234
 11
0.078
 20
-0.532
 21
-0.66
  0
LINE
  8
0
 10
0.078
 11
-0.108
 20
-0.66
 21
-0.768
  0
LINE
  8
0
 10
-0.108
 11
-0.29
 20
-0.768
 21
-0.866
  0
LINE
  8
0
 10
-0.29
 11
-0.514
 20
-0.866
 21
-0.934
  0
LINE
  8
0
 10
-0.514
 11
-0.742
 20
-0.934
 21
-0.988
  0
LINE
  8
0
 10
-0.742
 11
-1.056
 20
-0.988
 21
-1.018
  0
LINE
  8
0
 10
-1.056
 11
-1.446
 20
-1.018
 21
-0.98
  0
LINE
  8
0
 10
-1.446
 11
-1.822
 20
-0.98
 21
-0.866
  0
LINE
  8
0
 10
-1.822
 11
-2.168
 20
-0.866
 21
-0.68
  0
LINE
  8
0
 10
-2.168
 11
-2.472
 20
-0.68
 21
-0.43
  0
LINE
  8
0
 10
-2.472
 11
-2.72
 20
-0.43
 21
-0.128
  0
LINE
  8
0
 10
-2.72
 11
-2.868
 20
-0.128
 21
0.15
  0
LINE
  8
0
 10
-2.868
 11
-2.972
 20
0.15
 21
0.44
  0
LINE
  8
0
 10
-2.972
 11
-3.038
 20
0.44
 21
0.824
  0
LINE
  8
0
 10
12.798
 11
12.846
 20
1.38
 21
1.866
  0
LINE
  8
0
 10
12.846
 11
13.008
 20
1.866
 21
2.468
  0
LINE
  8
0
 10
13.008
 11
13.156
 20
2.468
 21
2.776
  0
LINE
  8
0
 10
13.156
 11
13.3
 20
2.776
 21
3.046
  0
LINE
  8
0
 10
13.3
 11
13.536
 20
3.046
 21
3.328
  0
LINE
  8
0
 10
13.536
 11
13.654
 20
3.328
 21
3.472
  0
LINE
  8
0
 10
13.654
 11
13.838
 20
3.472
 21
3.634
  0
LINE
  8
0
 10
13.838
 11
14.054
 20
3.634
 21
3.812
  0
LINE
  8
0
 10
14.054
 11
14.34
 20
3.812
 21
3.986
  0
LINE
  8
0
 10
14.34
 11
14.622
 20
3.986
 21
4.136
  0
LINE
  8
0
 10
14.622
 11
14.86
 20
4.136
 21
4.214
  0
LINE
  8
0
 10
14.86
 11
15.142
 20
4.214
 21
4.302
  0
LINE
  8
0
 10
15.142
 11
15.402
 20
4.302
 21
4.34
  0
LINE
  8
0
 10
15.402
 11
15.704
 20
4.34
 21
4.37
  0
LINE
  8
0
 10
15.704
 11
16.014
 20
4.37
 21
4.358
  0
LINE
  8
0
 10
16.014
 11
16.27
 20
4.358
 21
4.33
  0
LINE
  8
0
 10
16.27
 11
16.602
 20
4.33
 21
4.254
  0
LINE
  8
0
 10
16.602
 11
16.928
 20
4.254
 21
4.156
  0
LINE
  8
0
 10
16.928
 11
17.202
 20
4.156
 21
4.012
  0
LINE
  8
0
 10
17.202
 11
17.46
 20
4.012
 21
3.874
  0
LINE
  8
0
 10
17.46
 11
18.014
 20
3.874
 21
3.386
  0
LINE
  8
0
 10
18.014
 11
18.26
 20
3.386
 21
3.084
  0
LINE
  8
0
 10
18.26
 11
18.428
 20
3.084
 21
2.792
  0
LINE
  8
0
 10
18.428
 11
18.576
 20
2.792
 21
2.496
  0
LINE
  8
0
 10
18.576
 11
18.74
 20
2.496
 21
1.964
  0
LINE
  8
0
 10
18.74
 11
18.764
 20
1.964
 21
1.712
  0
LINE
  8
0
 10
18.764
 11
18.796
 20
1.712
 21
1.372
  0
LINE
  8
0
 10
18.796
 11
18.762
 20
1.372
 21
1.008
  0
LINE
  8
0
 10
18.762
 11
18.7
 20
1.008
 21
0.668
  0
LINE
  8
0
 10
18.7
 11
18.568
 20
0.668
 21
0.232
  0
LINE
  8
0
 10
18.568
 11
18.366
 20
0.232
 21
-0.148
  0
LINE
  8
0
 10
18.366
 11
18.236
 20
-0.148
 21
-0.354
  0
LINE
  8
0
 10
18.236
 11
18.046
 20
-0.354
 21
-0.586
  0
LINE
  8
0
 10
18.046
 11
17.868
 20
-0.586
 21
-0.782
  0
LINE
  8
0
 10
17.868
 11
17.722
 20
-0.782
 21
-0.902
  0
LINE
  8
0
 10
17.722
 11
17.546
 20
-0.902
 21
-1.048
  0
LINE
  8
0
 10
17.546
 11
17.326
 20
-1.048
 21
-1.19
  0
LINE
  8
0
 10
17.326
 11
17.146
 20
-1.19
 21
-1.286
  0
LINE
  8
0
 10
17.146
 11
16.944
 20
-1.286
 21
-1.392
  0
LINE
  8
0
 10
16.944
 11
16.632
 20
-1.392
 21
-1.486
  0
LINE
  8
0
 10
16.632
 11
16.262
 20
-1.486
 21
-1.574
  0
LINE
  8
0
 10
16.262
 11
15.994
 20
-1.574
 21
-1.602
  0
LINE
  8
0
 10
15.994
 11
15.604
 20
-1.602
 21
-1.602
  0
LINE
  8
0
 10
15.604
 11
15.212
 20
-1.602
 21
-1.562
  0
LINE
  8
0
 10
15.212
 11
14.928
 20
-1.562
 21
-1.476
  0
LINE
  8
0
 10
14.928
 11
14.496
 20
-1.476
 21
-1.312
  0
LINE
  8
0
 10
14.496
 11
14.228
 20
-1.312
 21
-1.168
  0
LINE
  8
0
 10
14.228
 11
13.942
 20
-1.168
 21
-0.96
  0
LINE
  8
0
 10
13.942
 11
13.676
 20
-0.96
 21
-0.742
  0
LINE
  8
0
 10
13.676
 11
13.428
 20
-0.742
 21
-0.438
  0
LINE
  8
0
 10
13.428
 11
13.212
 20
-0.438
 21
-0.116
  0
LINE
  8
0
 10
13.212
 11
13.036
 20
-0.116
 21
0.21
  0
LINE
  8
0
 10
13.036
 11
12.954
 20
0.21
 21
0.468
  0
LINE
  8
0
 10
12.954
 11
12.866
 20
0.468
 21
0.758
  0
LINE
  8
0
 10
12.866
 11
12.826
 20
0.758
 21
1.09
  0
LINE
  8
0
 10
12.826
 11
12.798
 20
1.09
 21
1.38
  0
ENDSEC
  0
SECTION
  2
OBJECTS
  0
DICTIONARY
  0
ENDSEC
  0
EOF
