  0
SECTION
  2
BLOCKS
  0
ENDSEC
  0
SECTION
  2
ENTITIES
  0
LINE
  8
0
 10
-214.522
 11
-214.522
 20
4.98
 21
29.98
  0
LINE
  8
0
 10
-214.522
 11
-208.52
 20
29.98
 21
29.98
  0
LINE
  8
0
 10
-208.52
 11
-208.52
 20
29.98
 21
54.98
  0
LINE
  8
0
 10
-208.52
 11
-214.522
 20
54.98
 21
54.98
  0
LINE
  8
0
 10
-214.522
 11
-214.522
 20
54.98
 21
79.98
  0
LINE
  8
0
 10
-214.522
 11
-208.52
 20
79.98
 21
79.98
  0
LINE
  8
0
 10
-208.52
 11
-208.52
 20
79.98
 21
104.98
  0
LINE
  8
0
 10
-208.52
 11
-214.522
 20
104.98
 21
104.98
  0
LINE
  8
0
 10
-214.522
 11
-214.522
 20
104.98
 21
129.98
  0
LINE
  8
0
 10
-214.522
 11
-208.52
 20
129.98
 21
129.98
  0
LINE
  8
0
 10
-208.52
 11
-208.52
 20
129.98
 21
154.98
  0
LINE
  8
0
 10
-208.52
 11
-214.522
 20
154.98
 21
154.98
  0
LINE
  8
0
 10
-214.522
 11
-214.522
 20
154.98
 21
179.98
  0
LINE
  8
0
 10
-214.522
 11
-208.52
 20
179.98
 21
179.98
  0
LINE
  8
0
 10
-208.52
 11
-208.52
 20
179.98
 21
204.98
  0
LINE
  8
0
 10
-208.52
 11
-214.522
 20
204.98
 21
204.98
  0
LINE
  8
0
 10
-214.522
 11
-214.522
 20
204.98
 21
229.98
  0
LINE
  8
0
 10
-214.522
 11
-208.52
 20
229.98
 21
229.98
  0
LINE
  8
0
 10
-208.52
 11
-208.52
 20
229.98
 21
254.98
  0
LINE
  8
0
 10
-208.52
 11
-214.522
 20
254.98
 21
254.98
  0
LINE
  8
0
 10
-214.522
 11
-214.522
 20
254.98
 21
279.98
  0
LINE
  8
0
 10
-214.522
 11
-208.52
 20
279.98
 21
279.98
  0
LINE
  8
0
 10
-208.52
 11
-208.52
 20
279.98
 21
304.98
  0
LINE
  8
0
 10
-208.52
 11
-179.104
 20
304.98
 21
304.98
  0
LINE
  8
0
 10
-179.104
 11
-179.064
 20
304.98
 21
304.413
  0
LINE
  8
0
 10
-179.064
 11
-178.986
 20
304.413
 21
303.321
  0
LINE
  8
0
 10
-178.986
 11
-178.871
 20
303.321
 21
301.716
  0
LINE
  8
0
 10
-178.871
 11
-178.835
 20
301.716
 21
301.213
  0
LINE
  8
0
 10
-178.835
 11
-178.793
 20
301.213
 21
300.623
  0
LINE
  8
0
 10
-178.793
 11
-178.678
 20
300.623
 21
299.019
  0
LINE
  8
0
 10
-178.678
 11
-178.712
 20
299.019
 21
298.977
  0
LINE
  8
0
 10
-178.712
 11
-178.763
 20
298.977
 21
298.916
  0
LINE
  8
0
 10
-178.763
 11
-178.841
 20
298.916
 21
298.769
  0
LINE
  8
0
 10
-178.841
 11
-178.957
 20
298.769
 21
298.553
  0
LINE
  8
0
 10
-178.957
 11
-179.005
 20
298.553
 21
298.393
  0
LINE
  8
0
 10
-179.005
 11
-179.076
 20
298.393
 21
298.159
  0
LINE
  8
0
 10
-179.076
 11
-179.093
 20
298.159
 21
297.993
  0
LINE
  8
0
 10
-179.093
 11
-179.117
 20
297.993
 21
297.749
  0
LINE
  8
0
 10
-179.117
 11
-179.1
 20
297.749
 21
297.583
  0
LINE
  8
0
 10
-179.1
 11
-179.076
 20
297.583
 21
297.339
  0
LINE
  8
0
 10
-179.076
 11
-179.028
 20
297.339
 21
297.18
  0
LINE
  8
0
 10
-179.028
 11
-178.957
 20
297.18
 21
296.945
  0
LINE
  8
0
 10
-178.957
 11
-178.878
 20
296.945
 21
296.798
  0
LINE
  8
0
 10
-178.878
 11
-178.763
 20
296.798
 21
296.582
  0
LINE
  8
0
 10
-178.763
 11
-178.657
 20
296.582
 21
296.453
  0
LINE
  8
0
 10
-178.657
 11
-178.501
 20
296.453
 21
296.264
  0
LINE
  8
0
 10
-178.501
 11
-178.312
 20
296.264
 21
296.109
  0
LINE
  8
0
 10
-178.312
 11
-178.183
 20
296.109
 21
296.003
  0
LINE
  8
0
 10
-178.183
 11
-177.967
 20
296.003
 21
295.888
  0
LINE
  8
0
 10
-177.967
 11
-177.82
 20
295.888
 21
295.809
  0
LINE
  8
0
 10
-177.82
 11
-177.586
 20
295.809
 21
295.738
  0
LINE
  8
0
 10
-177.586
 11
-177.426
 20
295.738
 21
295.689
  0
LINE
  8
0
 10
-177.426
 11
-177.183
 20
295.689
 21
295.665
  0
LINE
  8
0
 10
-177.183
 11
-177.017
 20
295.665
 21
295.649
  0
LINE
  8
0
 10
-177.017
 11
-176.773
 20
295.649
 21
295.673
  0
LINE
  8
0
 10
-176.773
 11
-176.607
 20
295.673
 21
295.689
  0
LINE
  8
0
 10
-176.607
 11
-176.372
 20
295.689
 21
295.761
  0
LINE
  8
0
 10
-176.372
 11
-176.213
 20
295.761
 21
295.809
  0
LINE
  8
0
 10
-176.213
 11
-176.066
 20
295.809
 21
295.888
  0
LINE
  8
0
 10
-176.066
 11
-175.85
 20
295.888
 21
296.003
  0
LINE
  8
0
 10
-175.85
 11
-175.661
 20
296.003
 21
296.158
  0
LINE
  8
0
 10
-175.661
 11
-175.532
 20
296.158
 21
296.264
  0
LINE
  8
0
 10
-175.532
 11
-175.376
 20
296.264
 21
296.453
  0
LINE
  8
0
 10
-175.376
 11
-175.27
 20
296.453
 21
296.582
  0
LINE
  8
0
 10
-175.27
 11
-175.192
 20
296.582
 21
296.729
  0
LINE
  8
0
 10
-175.192
 11
-175.076
 20
296.729
 21
296.945
  0
LINE
  8
0
 10
-175.076
 11
-175.028
 20
296.945
 21
297.105
  0
LINE
  8
0
 10
-175.028
 11
-174.957
 20
297.105
 21
297.339
  0
LINE
  8
0
 10
-174.957
 11
-174.941
 20
297.339
 21
297.505
  0
LINE
  8
0
 10
-174.941
 11
-174.917
 20
297.505
 21
297.749
  0
LINE
  8
0
 10
-174.917
 11
-174.919
 20
297.749
 21
297.772
  0
LINE
  8
0
 10
-174.919
 11
-174.917
 20
297.772
 21
297.805
  0
LINE
  8
0
 10
-174.917
 11
-174.917
 20
297.805
 21
304.98
  0
LINE
  8
0
 10
-174.917
 11
-45.127
 20
304.98
 21
304.98
  0
LINE
  8
0
 10
-45.127
 11
-45.127
 20
304.98
 21
300.242
  0
LINE
  8
0
 10
-45.127
 11
-45.122
 20
300.242
 21
297.805
  0
LINE
  8
0
 10
-45.122
 11
-45.128
 20
297.805
 21
297.749
  0
LINE
  8
0
 10
-45.128
 11
-45.094
 20
297.749
 21
297.409
  0
LINE
  8
0
 10
-45.094
 11
-45.087
 20
297.409
 21
297.339
  0
LINE
  8
0
 10
-45.087
 11
-44.988
 20
297.339
 21
297.013
  0
LINE
  8
0
 10
-44.988
 11
-44.968
 20
297.013
 21
296.945
  0
LINE
  8
0
 10
-44.968
 11
-44.807
 20
296.945
 21
296.644
  0
LINE
  8
0
 10
-44.807
 11
-44.774
 20
296.644
 21
296.582
  0
LINE
  8
0
 10
-44.774
 11
-44.729
 20
296.582
 21
296.528
  0
LINE
  8
0
 10
-44.729
 11
-44.512
 20
296.528
 21
296.264
  0
LINE
  8
0
 10
-44.512
 11
-44.458
 20
296.264
 21
296.22
  0
LINE
  8
0
 10
-44.458
 11
-44.194
 20
296.22
 21
296.003
  0
LINE
  8
0
 10
-44.194
 11
-43.893
 20
296.003
 21
295.842
  0
LINE
  8
0
 10
-43.893
 11
-43.831
 20
295.842
 21
295.809
  0
LINE
  8
0
 10
-43.831
 11
-43.505
 20
295.809
 21
295.71
  0
LINE
  8
0
 10
-43.505
 11
-43.437
 20
295.71
 21
295.689
  0
LINE
  8
0
 10
-43.437
 11
-43.098
 20
295.689
 21
295.656
  0
LINE
  8
0
 10
-43.098
 11
-43.028
 20
295.656
 21
295.649
  0
LINE
  8
0
 10
-43.028
 11
-42.688
 20
295.649
 21
295.683
  0
LINE
  8
0
 10
-42.688
 11
-42.618
 20
295.683
 21
295.689
  0
LINE
  8
0
 10
-42.618
 11
-42.55
 20
295.689
 21
295.71
  0
LINE
  8
0
 10
-42.55
 11
-42.224
 20
295.71
 21
295.809
  0
LINE
  8
0
 10
-42.224
 11
-42.162
 20
295.809
 21
295.842
  0
LINE
  8
0
 10
-42.162
 11
-41.861
 20
295.842
 21
296.003
  0
LINE
  8
0
 10
-41.861
 11
-41.597
 20
296.003
 21
296.22
  0
LINE
  8
0
 10
-41.597
 11
-41.543
 20
296.22
 21
296.264
  0
LINE
  8
0
 10
-41.543
 11
-41.326
 20
296.264
 21
296.528
  0
LINE
  8
0
 10
-41.326
 11
-41.281
 20
296.528
 21
296.582
  0
LINE
  8
0
 10
-41.281
 11
-41.121
 20
296.582
 21
296.883
  0
LINE
  8
0
 10
-41.121
 11
-41.087
 20
296.883
 21
296.945
  0
LINE
  8
0
 10
-41.087
 11
-40.988
 20
296.945
 21
297.272
  0
LINE
  8
0
 10
-40.988
 11
-40.968
 20
297.272
 21
297.339
  0
LINE
  8
0
 10
-40.968
 11
-40.934
 20
297.339
 21
297.679
  0
LINE
  8
0
 10
-40.934
 11
-40.928
 20
297.679
 21
297.749
  0
LINE
  8
0
 10
-40.928
 11
-40.961
 20
297.749
 21
298.089
  0
LINE
  8
0
 10
-40.961
 11
-40.968
 20
298.089
 21
298.159
  0
LINE
  8
0
 10
-40.968
 11
-41.067
 20
298.159
 21
298.485
  0
LINE
  8
0
 10
-41.067
 11
-41.087
 20
298.485
 21
298.553
  0
LINE
  8
0
 10
-41.087
 11
-41.248
 20
298.553
 21
298.854
  0
LINE
  8
0
 10
-41.248
 11
-41.281
 20
298.854
 21
298.916
  0
LINE
  8
0
 10
-41.281
 11
-41.351
 20
298.916
 21
299.001
  0
LINE
  8
0
 10
-41.351
 11
-41.366
 20
299.001
 21
299.019
  0
LINE
  8
0
 10
-41.366
 11
-41.206
 20
299.019
 21
301.255
  0
LINE
  8
0
 10
-41.206
 11
-41.173
 20
301.255
 21
301.716
  0
LINE
  8
0
 10
-41.173
 11
-41.013
 20
301.716
 21
303.952
  0
LINE
  8
0
 10
-41.013
 11
-40.98
 20
303.952
 21
304.413
  0
LINE
  8
0
 10
-40.98
 11
-40.948
 20
304.413
 21
304.874
  0
LINE
  8
0
 10
-40.948
 11
-40.94
 20
304.874
 21
304.98
  0
LINE
  8
0
 10
-40.94
 11
-5.522
 20
304.98
 21
304.98
  0
LINE
  8
0
 10
-5.522
 11
-5.522
 20
304.98
 21
279.98
  0
LINE
  8
0
 10
-5.522
 11
-11.524
 20
279.98
 21
279.98
  0
LINE
  8
0
 10
-11.524
 11
-11.524
 20
279.98
 21
254.98
  0
LINE
  8
0
 10
-11.524
 11
-5.522
 20
254.98
 21
254.98
  0
LINE
  8
0
 10
-5.522
 11
-5.522
 20
254.98
 21
229.98
  0
LINE
  8
0
 10
-5.522
 11
-11.524
 20
229.98
 21
229.98
  0
LINE
  8
0
 10
-11.524
 11
-11.524
 20
229.98
 21
204.98
  0
LINE
  8
0
 10
-11.524
 11
-5.522
 20
204.98
 21
204.98
  0
LINE
  8
0
 10
-5.522
 11
-5.522
 20
204.98
 21
179.98
  0
LINE
  8
0
 10
-5.522
 11
-11.524
 20
179.98
 21
179.98
  0
LINE
  8
0
 10
-11.524
 11
-11.524
 20
179.98
 21
154.98
  0
LINE
  8
0
 10
-11.524
 11
-5.522
 20
154.98
 21
154.98
  0
LINE
  8
0
 10
-5.522
 11
-5.522
 20
154.98
 21
129.98
  0
LINE
  8
0
 10
-5.522
 11
-11.524
 20
129.98
 21
129.98
  0
LINE
  8
0
 10
-11.524
 11
-11.524
 20
129.98
 21
104.98
  0
LINE
  8
0
 10
-11.524
 11
-5.522
 20
104.98
 21
104.98
  0
LINE
  8
0
 10
-5.522
 11
-5.522
 20
104.98
 21
79.98
  0
LINE
  8
0
 10
-5.522
 11
-11.524
 20
79.98
 21
79.98
  0
LINE
  8
0
 10
-11.524
 11
-11.524
 20
79.98
 21
54.98
  0
LINE
  8
0
 10
-11.524
 11
-5.522
 20
54.98
 21
54.98
  0
LINE
  8
0
 10
-5.522
 11
-5.522
 20
54.98
 21
29.98
  0
LINE
  8
0
 10
-5.522
 11
-11.524
 20
29.98
 21
29.98
  0
LINE
  8
0
 10
-11.524
 11
-11.524
 20
29.98
 21
4.98
  0
LINE
  8
0
 10
-11.524
 11
-40.833
 20
4.98
 21
4.98
  0
LINE
  8
0
 10
-40.833
 11
-40.868
 20
4.98
 21
5.48
  0
LINE
  8
0
 10
-40.868
 11
-40.983
 20
5.48
 21
7.085
  0
LINE
  8
0
 10
-40.983
 11
-41.061
 20
7.085
 21
8.178
  0
LINE
  8
0
 10
-41.061
 11
-41.101
 20
8.178
 21
8.734
  0
LINE
  8
0
 10
-41.101
 11
-41.176
 20
8.734
 21
9.782
  0
LINE
  8
0
 10
-41.176
 11
-41.254
 20
9.782
 21
10.875
  0
LINE
  8
0
 10
-41.254
 11
-41.368
 20
10.875
 21
12.48
  0
LINE
  8
0
 10
-41.368
 11
-41.334
 20
12.48
 21
12.521
  0
LINE
  8
0
 10
-41.334
 11
-41.284
 20
12.521
 21
12.582
  0
LINE
  8
0
 10
-41.284
 11
-41.205
 20
12.582
 21
12.729
  0
LINE
  8
0
 10
-41.205
 11
-41.09
 20
12.729
 21
12.945
  0
LINE
  8
0
 10
-41.09
 11
-41.042
 20
12.945
 21
13.105
  0
LINE
  8
0
 10
-41.042
 11
-40.97
 20
13.105
 21
13.339
  0
LINE
  8
0
 10
-40.97
 11
-40.954
 20
13.339
 21
13.505
  0
LINE
  8
0
 10
-40.954
 11
-40.93
 20
13.505
 21
13.749
  0
LINE
  8
0
 10
-40.93
 11
-40.946
 20
13.749
 21
13.915
  0
LINE
  8
0
 10
-40.946
 11
-40.97
 20
13.915
 21
14.159
  0
LINE
  8
0
 10
-40.97
 11
-41.019
 20
14.159
 21
14.318
  0
LINE
  8
0
 10
-41.019
 11
-41.09
 20
14.318
 21
14.553
  0
LINE
  8
0
 10
-41.09
 11
-41.169
 20
14.553
 21
14.7
  0
LINE
  8
0
 10
-41.169
 11
-41.284
 20
14.7
 21
14.916
  0
LINE
  8
0
 10
-41.284
 11
-41.39
 20
14.916
 21
15.045
  0
LINE
  8
0
 10
-41.39
 11
-41.545
 20
15.045
 21
15.234
  0
LINE
  8
0
 10
-41.545
 11
-41.734
 20
15.234
 21
15.389
  0
LINE
  8
0
 10
-41.734
 11
-41.863
 20
15.389
 21
15.495
  0
LINE
  8
0
 10
-41.863
 11
-42.079
 20
15.495
 21
15.611
  0
LINE
  8
0
 10
-42.079
 11
-42.226
 20
15.611
 21
15.689
  0
LINE
  8
0
 10
-42.226
 11
-42.461
 20
15.689
 21
15.76
  0
LINE
  8
0
 10
-42.461
 11
-42.62
 20
15.76
 21
15.809
  0
LINE
  8
0
 10
-42.62
 11
-42.864
 20
15.809
 21
15.833
  0
LINE
  8
0
 10
-42.864
 11
-43.03
 20
15.833
 21
15.849
  0
LINE
  8
0
 10
-43.03
 11
-43.274
 20
15.849
 21
15.825
  0
LINE
  8
0
 10
-43.274
 11
-43.44
 20
15.825
 21
15.809
  0
LINE
  8
0
 10
-43.44
 11
-43.674
 20
15.809
 21
15.738
  0
LINE
  8
0
 10
-43.674
 11
-43.834
 20
15.738
 21
15.689
  0
LINE
  8
0
 10
-43.834
 11
-43.981
 20
15.689
 21
15.611
  0
LINE
  8
0
 10
-43.981
 11
-44.197
 20
15.611
 21
15.495
  0
LINE
  8
0
 10
-44.197
 11
-44.386
 20
15.495
 21
15.34
  0
LINE
  8
0
 10
-44.386
 11
-44.515
 20
15.34
 21
15.234
  0
LINE
  8
0
 10
-44.515
 11
-44.67
 20
15.234
 21
15.045
  0
LINE
  8
0
 10
-44.67
 11
-44.776
 20
15.045
 21
14.916
  0
LINE
  8
0
 10
-44.776
 11
-44.855
 20
14.916
 21
14.769
  0
LINE
  8
0
 10
-44.855
 11
-44.97
 20
14.769
 21
14.553
  0
LINE
  8
0
 10
-44.97
 11
-45.019
 20
14.553
 21
14.393
  0
LINE
  8
0
 10
-45.019
 11
-45.09
 20
14.393
 21
14.159
  0
LINE
  8
0
 10
-45.09
 11
-45.106
 20
14.159
 21
13.993
  0
LINE
  8
0
 10
-45.106
 11
-45.13
 20
13.993
 21
13.749
  0
LINE
  8
0
 10
-45.13
 11
-45.128
 20
13.749
 21
13.727
  0
LINE
  8
0
 10
-45.128
 11
-45.125
 20
13.727
 21
13.694
  0
LINE
  8
0
 10
-45.125
 11
-45.13
 20
13.694
 21
11.944
  0
LINE
  8
0
 10
-45.13
 11
-45.13
 20
11.944
 21
4.98
  0
LINE
  8
0
 10
-45.13
 11
-174.914
 20
4.98
 21
4.98
  0
LINE
  8
0
 10
-174.914
 11
-174.914
 20
4.98
 21
13.694
  0
LINE
  8
0
 10
-174.914
 11
-174.915
 20
13.694
 21
13.74
  0
LINE
  8
0
 10
-174.915
 11
-174.947
 20
13.74
 21
14.089
  0
LINE
  8
0
 10
-174.947
 11
-174.954
 20
14.089
 21
14.159
  0
LINE
  8
0
 10
-174.954
 11
-175.053
 20
14.159
 21
14.485
  0
LINE
  8
0
 10
-175.053
 11
-175.074
 20
14.485
 21
14.553
  0
LINE
  8
0
 10
-175.074
 11
-175.234
 20
14.553
 21
14.854
  0
LINE
  8
0
 10
-175.234
 11
-175.268
 20
14.854
 21
14.916
  0
LINE
  8
0
 10
-175.268
 11
-175.312
 20
14.916
 21
14.97
  0
LINE
  8
0
 10
-175.312
 11
-175.529
 20
14.97
 21
15.234
  0
LINE
  8
0
 10
-175.529
 11
-175.583
 20
15.234
 21
15.279
  0
LINE
  8
0
 10
-175.583
 11
-175.847
 20
15.279
 21
15.495
  0
LINE
  8
0
 10
-175.847
 11
-176.148
 20
15.495
 21
15.656
  0
LINE
  8
0
 10
-176.148
 11
-176.21
 20
15.656
 21
15.689
  0
LINE
  8
0
 10
-176.21
 11
-176.537
 20
15.689
 21
15.788
  0
LINE
  8
0
 10
-176.537
 11
-176.604
 20
15.788
 21
15.809
  0
LINE
  8
0
 10
-176.604
 11
-176.944
 20
15.809
 21
15.842
  0
LINE
  8
0
 10
-176.944
 11
-177.014
 20
15.842
 21
15.849
  0
LINE
  8
0
 10
-177.014
 11
-177.353
 20
15.849
 21
15.816
  0
LINE
  8
0
 10
-177.353
 11
-177.423
 20
15.816
 21
15.809
  0
LINE
  8
0
 10
-177.423
 11
-177.491
 20
15.809
 21
15.788
  0
LINE
  8
0
 10
-177.491
 11
-177.817
 20
15.788
 21
15.689
  0
LINE
  8
0
 10
-177.817
 11
-177.879
 20
15.689
 21
15.656
  0
LINE
  8
0
 10
-177.879
 11
-178.18
 20
15.656
 21
15.495
  0
LINE
  8
0
 10
-178.18
 11
-178.444
 20
15.495
 21
15.279
  0
LINE
  8
0
 10
-178.444
 11
-178.499
 20
15.279
 21
15.234
  0
LINE
  8
0
 10
-178.499
 11
-178.715
 20
15.234
 21
14.97
  0
LINE
  8
0
 10
-178.715
 11
-178.76
 20
14.97
 21
14.916
  0
LINE
  8
0
 10
-178.76
 11
-178.921
 20
14.916
 21
14.615
  0
LINE
  8
0
 10
-178.921
 11
-178.954
 20
14.615
 21
14.553
  0
LINE
  8
0
 10
-178.954
 11
-179.053
 20
14.553
 21
14.226
  0
LINE
  8
0
 10
-179.053
 11
-179.073
 20
14.226
 21
14.159
  0
LINE
  8
0
 10
-179.073
 11
-179.107
 20
14.159
 21
13.819
  0
LINE
  8
0
 10
-179.107
 11
-179.114
 20
13.819
 21
13.749
  0
LINE
  8
0
 10
-179.114
 11
-179.08
 20
13.749
 21
13.409
  0
LINE
  8
0
 10
-179.08
 11
-179.073
 20
13.409
 21
13.339
  0
LINE
  8
0
 10
-179.073
 11
-178.974
 20
13.339
 21
13.013
  0
LINE
  8
0
 10
-178.974
 11
-178.954
 20
13.013
 21
12.945
  0
LINE
  8
0
 10
-178.954
 11
-178.793
 20
12.945
 21
12.644
  0
LINE
  8
0
 10
-178.793
 11
-178.76
 20
12.644
 21
12.582
  0
LINE
  8
0
 10
-178.76
 11
-178.69
 20
12.582
 21
12.497
  0
LINE
  8
0
 10
-178.69
 11
-178.675
 20
12.497
 21
12.479
  0
LINE
  8
0
 10
-178.675
 11
-178.835
 20
12.479
 21
10.243
  0
LINE
  8
0
 10
-178.835
 11
-178.868
 20
10.243
 21
9.782
  0
LINE
  8
0
 10
-178.868
 11
-179.028
 20
9.782
 21
7.546
  0
LINE
  8
0
 10
-179.028
 11
-179.061
 20
7.546
 21
7.085
  0
LINE
  8
0
 10
-179.061
 11
-179.094
 20
7.085
 21
6.624
  0
LINE
  8
0
 10
-179.094
 11
-179.211
 20
6.624
 21
4.98
  0
LINE
  8
0
 10
-179.211
 11
-214.522
 20
4.98
 21
4.98
  0
LINE
  8
0
 10
-202.022
 11
-201.811
 20
267.48
 21
269.626
  0
LINE
  8
0
 10
-201.811
 11
-201.185
 20
269.626
 21
271.69
  0
LINE
  8
0
 10
-201.185
 11
-200.168
 20
271.69
 21
273.591
  0
LINE
  8
0
 10
-200.168
 11
-198.8
 20
273.591
 21
275.258
  0
LINE
  8
0
 10
-198.8
 11
-197.133
 20
275.258
 21
276.626
  0
LINE
  8
0
 10
-197.133
 11
-195.232
 20
276.626
 21
277.643
  0
LINE
  8
0
 10
-195.232
 11
-193.168
 20
277.643
 21
278.269
  0
LINE
  8
0
 10
-193.168
 11
-191.022
 20
278.269
 21
278.48
  0
LINE
  8
0
 10
-191.022
 11
-190.862
 20
278.48
 21
278.464
  0
LINE
  8
0
 10
-190.862
 11
-190.708
 20
278.464
 21
278.449
  0
LINE
  8
0
 10
-190.708
 11
-190.602
 20
278.449
 21
278.439
  0
LINE
  8
0
 10
-190.602
 11
-190.462
 20
278.439
 21
278.425
  0
LINE
  8
0
 10
-190.462
 11
-190.366
 20
278.425
 21
278.415
  0
LINE
  8
0
 10
-190.366
 11
-188.876
 20
278.415
 21
278.269
  0
LINE
  8
0
 10
-188.876
 11
-186.812
 20
278.269
 21
277.643
  0
LINE
  8
0
 10
-186.812
 11
-185.891
 20
277.643
 21
277.15
  0
LINE
  8
0
 10
-185.891
 11
-184.911
 20
277.15
 21
276.626
  0
LINE
  8
0
 10
-184.911
 11
-183.911
 20
276.626
 21
275.806
  0
LINE
  8
0
 10
-183.911
 11
-183.244
 20
275.806
 21
275.258
  0
LINE
  8
0
 10
-183.244
 11
-181.876
 20
275.258
 21
273.591
  0
LINE
  8
0
 10
-181.876
 11
-180.859
 20
273.591
 21
271.69
  0
LINE
  8
0
 10
-180.859
 11
-180.233
 20
271.69
 21
269.626
  0
LINE
  8
0
 10
-180.233
 11
-180.022
 20
269.626
 21
267.48
  0
LINE
  8
0
 10
-180.022
 11
-180.233
 20
267.48
 21
265.334
  0
LINE
  8
0
 10
-180.233
 11
-180.859
 20
265.334
 21
263.271
  0
LINE
  8
0
 10
-180.859
 11
-181.876
 20
263.271
 21
261.369
  0
LINE
  8
0
 10
-181.876
 11
-183.244
 20
261.369
 21
259.702
  0
LINE
  8
0
 10
-183.244
 11
-184.911
 20
259.702
 21
258.334
  0
LINE
  8
0
 10
-184.911
 11
-186.812
 20
258.334
 21
257.317
  0
LINE
  8
0
 10
-186.812
 11
-188.876
 20
257.317
 21
256.691
  0
LINE
  8
0
 10
-188.876
 11
-190.612
 20
256.691
 21
256.52
  0
LINE
  8
0
 10
-190.612
 11
-191.022
 20
256.52
 21
256.48
  0
LINE
  8
0
 10
-191.022
 11
-193.168
 20
256.48
 21
256.691
  0
LINE
  8
0
 10
-193.168
 11
-195.232
 20
256.691
 21
257.317
  0
LINE
  8
0
 10
-195.232
 11
-195.37
 20
257.317
 21
257.391
  0
LINE
  8
0
 10
-195.37
 11
-197.133
 20
257.391
 21
258.334
  0
LINE
  8
0
 10
-197.133
 11
-198.8
 20
258.334
 21
259.702
  0
LINE
  8
0
 10
-198.8
 11
-200.168
 20
259.702
 21
261.369
  0
LINE
  8
0
 10
-200.168
 11
-201.185
 20
261.369
 21
263.271
  0
LINE
  8
0
 10
-201.185
 11
-201.442
 20
263.271
 21
264.118
  0
LINE
  8
0
 10
-201.442
 11
-201.453
 20
264.118
 21
264.155
  0
LINE
  8
0
 10
-201.453
 11
-201.47
 20
264.155
 21
264.21
  0
LINE
  8
0
 10
-201.47
 11
-201.482
 20
264.21
 21
264.252
  0
LINE
  8
0
 10
-201.482
 11
-201.501
 20
264.252
 21
264.314
  0
LINE
  8
0
 10
-201.501
 11
-201.811
 20
264.314
 21
265.334
  0
LINE
  8
0
 10
-201.811
 11
-202.022
 20
265.334
 21
267.48
  0
LINE
  8
0
 10
-191.574
 11
-191.548
 20
80.229
 21
81.58
  0
LINE
  8
0
 10
-191.548
 11
-191.472
 20
81.58
 21
81.918
  0
LINE
  8
0
 10
-191.472
 11
-191.376
 20
81.918
 21
82.156
  0
LINE
  8
0
 10
-191.376
 11
-191.347
 20
82.156
 21
82.229
  0
LINE
  8
0
 10
-191.347
 11
-191.179
 20
82.229
 21
82.501
  0
LINE
  8
0
 10
-191.179
 11
-190.974
 20
82.501
 21
82.725
  0
LINE
  8
0
 10
-190.974
 11
-190.893
 20
82.725
 21
82.784
  0
LINE
  8
0
 10
-190.893
 11
-190.845
 20
82.784
 21
82.818
  0
LINE
  8
0
 10
-190.845
 11
-190.741
 20
82.818
 21
82.892
  0
LINE
  8
0
 10
-190.741
 11
-190.488
 20
82.892
 21
82.994
  0
LINE
  8
0
 10
-190.488
 11
-190.224
 20
82.994
 21
83.029
  0
LINE
  8
0
 10
-190.224
 11
-189.961
 20
83.029
 21
82.994
  0
LINE
  8
0
 10
-189.961
 11
-189.708
 20
82.994
 21
82.892
  0
LINE
  8
0
 10
-189.708
 11
-189.474
 20
82.892
 21
82.725
  0
LINE
  8
0
 10
-189.474
 11
-189.27
 20
82.725
 21
82.501
  0
LINE
  8
0
 10
-189.27
 11
-189.225
 20
82.501
 21
82.429
  0
LINE
  8
0
 10
-189.225
 11
-189.102
 20
82.429
 21
82.229
  0
LINE
  8
0
 10
-189.102
 11
-188.977
 20
82.229
 21
81.917
  0
LINE
  8
0
 10
-188.977
 11
-188.9
 20
81.917
 21
81.58
  0
LINE
  8
0
 10
-188.9
 11
-188.874
 20
81.58
 21
80.229
  0
LINE
  8
0
 10
-188.874
 11
-188.9
 20
80.229
 21
79.878
  0
LINE
  8
0
 10
-188.9
 11
-188.977
 20
79.878
 21
79.54
  0
LINE
  8
0
 10
-188.977
 11
-189.102
 20
79.54
 21
79.229
  0
LINE
  8
0
 10
-189.102
 11
-189.27
 20
79.229
 21
78.956
  0
LINE
  8
0
 10
-189.27
 11
-189.474
 20
78.956
 21
78.732
  0
LINE
  8
0
 10
-189.474
 11
-189.708
 20
78.732
 21
78.566
  0
LINE
  8
0
 10
-189.708
 11
-189.961
 20
78.566
 21
78.463
  0
LINE
  8
0
 10
-189.961
 11
-190.224
 20
78.463
 21
78.429
  0
LINE
  8
0
 10
-190.224
 11
-190.488
 20
78.429
 21
78.463
  0
LINE
  8
0
 10
-190.488
 11
-190.741
 20
78.463
 21
78.566
  0
LINE
  8
0
 10
-190.741
 11
-190.974
 20
78.566
 21
78.732
  0
LINE
  8
0
 10
-190.974
 11
-191.179
 20
78.732
 21
78.956
  0
LINE
  8
0
 10
-191.179
 11
-191.347
 20
78.956
 21
79.229
  0
LINE
  8
0
 10
-191.347
 11
-191.472
 20
79.229
 21
79.54
  0
LINE
  8
0
 10
-191.472
 11
-191.548
 20
79.54
 21
79.878
  0
LINE
  8
0
 10
-191.548
 11
-191.574
 20
79.878
 21
80.229
  0
LINE
  8
0
 10
-191.574
 11
-191.548
 20
111.379
 21
112.73
  0
LINE
  8
0
 10
-191.548
 11
-191.472
 20
112.73
 21
113.068
  0
LINE
  8
0
 10
-191.472
 11
-191.347
 20
113.068
 21
113.379
  0
LINE
  8
0
 10
-191.347
 11
-191.179
 20
113.379
 21
113.651
  0
LINE
  8
0
 10
-191.179
 11
-190.974
 20
113.651
 21
113.875
  0
LINE
  8
0
 10
-190.974
 11
-190.741
 20
113.875
 21
114.042
  0
LINE
  8
0
 10
-190.741
 11
-190.488
 20
114.042
 21
114.144
  0
LINE
  8
0
 10
-190.488
 11
-190.448
 20
114.144
 21
114.149
  0
LINE
  8
0
 10
-190.448
 11
-190.224
 20
114.149
 21
114.179
  0
LINE
  8
0
 10
-190.224
 11
-189.961
 20
114.179
 21
114.144
  0
LINE
  8
0
 10
-189.961
 11
-189.708
 20
114.144
 21
114.042
  0
LINE
  8
0
 10
-189.708
 11
-189.474
 20
114.042
 21
113.875
  0
LINE
  8
0
 10
-189.474
 11
-189.27
 20
113.875
 21
113.651
  0
LINE
  8
0
 10
-189.27
 11
-189.102
 20
113.651
 21
113.379
  0
LINE
  8
0
 10
-189.102
 11
-188.977
 20
113.379
 21
113.068
  0
LINE
  8
0
 10
-188.977
 11
-188.951
 20
113.068
 21
112.954
  0
LINE
  8
0
 10
-188.951
 11
-188.9
 20
112.954
 21
112.73
  0
LINE
  8
0
 10
-188.9
 11
-188.874
 20
112.73
 21
111.379
  0
LINE
  8
0
 10
-188.874
 11
-188.9
 20
111.379
 21
111.028
  0
LINE
  8
0
 10
-188.9
 11
-188.977
 20
111.028
 21
110.69
  0
LINE
  8
0
 10
-188.977
 11
-189.102
 20
110.69
 21
110.379
  0
LINE
  8
0
 10
-189.102
 11
-189.27
 20
110.379
 21
110.106
  0
LINE
  8
0
 10
-189.27
 11
-189.474
 20
110.106
 21
109.882
  0
LINE
  8
0
 10
-189.474
 11
-189.708
 20
109.882
 21
109.716
  0
LINE
  8
0
 10
-189.708
 11
-189.961
 20
109.716
 21
109.613
  0
LINE
  8
0
 10
-189.961
 11
-190.224
 20
109.613
 21
109.579
  0
LINE
  8
0
 10
-190.224
 11
-190.488
 20
109.579
 21
109.613
  0
LINE
  8
0
 10
-190.488
 11
-190.741
 20
109.613
 21
109.716
  0
LINE
  8
0
 10
-190.741
 11
-190.974
 20
109.716
 21
109.882
  0
LINE
  8
0
 10
-190.974
 11
-191.179
 20
109.882
 21
110.106
  0
LINE
  8
0
 10
-191.179
 11
-191.347
 20
110.106
 21
110.379
  0
LINE
  8
0
 10
-191.347
 11
-191.472
 20
110.379
 21
110.69
  0
LINE
  8
0
 10
-191.472
 11
-191.548
 20
110.69
 21
111.028
  0
LINE
  8
0
 10
-191.548
 11
-191.574
 20
111.028
 21
111.379
  0
LINE
  8
0
 10
-188.524
 11
-188.524
 20
83.829
 21
108.579
  0
LINE
  8
0
 10
-188.524
 11
-116.774
 20
108.579
 21
108.579
  0
LINE
  8
0
 10
-116.774
 11
-116.774
 20
108.579
 21
83.829
  0
LINE
  8
0
 10
-116.774
 11
-188.524
 20
83.829
 21
83.829
  0
LINE
  8
0
 10
-182.022
 11
-182.022
 20
141.577
 21
245.577
  0
LINE
  8
0
 10
-182.022
 11
-181.796
 20
245.577
 21
248.183
  0
LINE
  8
0
 10
-181.796
 11
-181.118
 20
248.183
 21
250.709
  0
LINE
  8
0
 10
-181.118
 11
-180.014
 20
250.709
 21
253.077
  0
LINE
  8
0
 10
-180.014
 11
-178.514
 20
253.077
 21
255.219
  0
LINE
  8
0
 10
-178.514
 11
-176.664
 20
255.219
 21
257.069
  0
LINE
  8
0
 10
-176.664
 11
-175.385
 20
257.069
 21
257.964
  0
LINE
  8
0
 10
-175.385
 11
-174.522
 20
257.964
 21
258.569
  0
LINE
  8
0
 10
-174.522
 11
-174.131
 20
258.569
 21
258.751
  0
LINE
  8
0
 10
-174.131
 11
-173.672
 20
258.751
 21
258.965
  0
LINE
  8
0
 10
-173.672
 11
-172.154
 20
258.965
 21
259.673
  0
LINE
  8
0
 10
-172.154
 11
-169.628
 20
259.673
 21
260.351
  0
LINE
  8
0
 10
-169.628
 11
-167.022
 20
260.351
 21
260.577
  0
LINE
  8
0
 10
-167.022
 11
-53.024
 20
260.577
 21
260.577
  0
LINE
  8
0
 10
-53.024
 11
-50.418
 20
260.577
 21
260.351
  0
LINE
  8
0
 10
-50.418
 11
-49.06
 20
260.351
 21
259.986
  0
LINE
  8
0
 10
-49.06
 11
-47.892
 20
259.986
 21
259.673
  0
LINE
  8
0
 10
-47.892
 11
-46.377
 20
259.673
 21
258.966
  0
LINE
  8
0
 10
-46.377
 11
-45.526
 20
258.966
 21
258.569
  0
LINE
  8
0
 10
-45.526
 11
-45.239
 20
258.569
 21
258.368
  0
LINE
  8
0
 10
-45.239
 11
-43.382
 20
258.368
 21
257.069
  0
LINE
  8
0
 10
-43.382
 11
-41.532
 20
257.069
 21
255.219
  0
LINE
  8
0
 10
-41.532
 11
-40.032
 20
255.219
 21
253.077
  0
LINE
  8
0
 10
-40.032
 11
-39.847
 20
253.077
 21
252.681
  0
LINE
  8
0
 10
-39.847
 11
-38.928
 20
252.681
 21
250.709
  0
LINE
  8
0
 10
-38.928
 11
-38.25
 20
250.709
 21
248.183
  0
LINE
  8
0
 10
-38.25
 11
-38.024
 20
248.183
 21
245.577
  0
LINE
  8
0
 10
-38.024
 11
-38.024
 20
245.577
 21
141.577
  0
LINE
  8
0
 10
-38.024
 11
-38.25
 20
141.577
 21
138.973
  0
LINE
  8
0
 10
-38.25
 11
-38.928
 20
138.973
 21
136.447
  0
LINE
  8
0
 10
-38.928
 11
-40.032
 20
136.447
 21
134.079
  0
LINE
  8
0
 10
-40.032
 11
-41.532
 20
134.079
 21
131.937
  0
LINE
  8
0
 10
-41.532
 11
-43.382
 20
131.937
 21
130.087
  0
LINE
  8
0
 10
-43.382
 11
-43.534
 20
130.087
 21
129.98
  0
LINE
  8
0
 10
-43.534
 11
-45.526
 20
129.98
 21
128.587
  0
LINE
  8
0
 10
-45.526
 11
-46.377
 20
128.587
 21
128.19
  0
LINE
  8
0
 10
-46.377
 11
-47.892
 20
128.19
 21
127.483
  0
LINE
  8
0
 10
-47.892
 11
-48.67
 20
127.483
 21
127.274
  0
LINE
  8
0
 10
-48.67
 11
-50.418
 20
127.274
 21
126.805
  0
LINE
  8
0
 10
-50.418
 11
-53.024
 20
126.805
 21
126.579
  0
LINE
  8
0
 10
-53.024
 11
-167.022
 20
126.579
 21
126.579
  0
LINE
  8
0
 10
-167.022
 11
-169.628
 20
126.579
 21
126.805
  0
LINE
  8
0
 10
-169.628
 11
-172.154
 20
126.805
 21
127.483
  0
LINE
  8
0
 10
-172.154
 11
-173.672
 20
127.483
 21
128.19
  0
LINE
  8
0
 10
-173.672
 11
-174.522
 20
128.19
 21
128.587
  0
LINE
  8
0
 10
-174.522
 11
-176.512
 20
128.587
 21
129.98
  0
LINE
  8
0
 10
-176.512
 11
-176.664
 20
129.98
 21
130.087
  0
LINE
  8
0
 10
-176.664
 11
-178.514
 20
130.087
 21
131.937
  0
LINE
  8
0
 10
-178.514
 11
-179.705
 20
131.937
 21
133.637
  0
LINE
  8
0
 10
-179.705
 11
-180.014
 20
133.637
 21
134.079
  0
LINE
  8
0
 10
-180.014
 11
-181.118
 20
134.079
 21
136.447
  0
LINE
  8
0
 10
-181.118
 11
-181.796
 20
136.447
 21
138.973
  0
LINE
  8
0
 10
-181.796
 11
-182.022
 20
138.973
 21
141.577
  0
LINE
  8
0
 10
-156.399
 11
-156.327
 20
56.704
 21
57.435
  0
LINE
  8
0
 10
-156.327
 11
-156.114
 20
57.435
 21
58.139
  0
LINE
  8
0
 10
-156.114
 11
-155.767
 20
58.139
 21
58.787
  0
LINE
  8
0
 10
-155.767
 11
-155.666
 20
58.787
 21
58.911
  0
LINE
  8
0
 10
-155.666
 11
-155.34
 20
58.911
 21
59.308
  0
LINE
  8
0
 10
-155.34
 11
-155.324
 20
59.308
 21
59.327
  0
LINE
  8
0
 10
-155.324
 11
-155.301
 20
59.327
 21
59.355
  0
LINE
  8
0
 10
-155.301
 11
-154.733
 20
59.355
 21
59.822
  0
LINE
  8
0
 10
-154.733
 11
-154.084
 20
59.822
 21
60.168
  0
LINE
  8
0
 10
-154.084
 11
-153.381
 20
60.168
 21
60.382
  0
LINE
  8
0
 10
-153.381
 11
-152.649
 20
60.382
 21
60.454
  0
LINE
  8
0
 10
-152.649
 11
-151.918
 20
60.454
 21
60.382
  0
LINE
  8
0
 10
-151.918
 11
-151.214
 20
60.382
 21
60.168
  0
LINE
  8
0
 10
-151.214
 11
-150.566
 20
60.168
 21
59.822
  0
LINE
  8
0
 10
-150.566
 11
-149.998
 20
59.822
 21
59.355
  0
LINE
  8
0
 10
-149.998
 11
-149.531
 20
59.355
 21
58.787
  0
LINE
  8
0
 10
-149.531
 11
-149.185
 20
58.787
 21
58.139
  0
LINE
  8
0
 10
-149.185
 11
-148.971
 20
58.139
 21
57.435
  0
LINE
  8
0
 10
-148.971
 11
-148.913
 20
57.435
 21
56.838
  0
LINE
  8
0
 10
-148.913
 11
-148.91
 20
56.838
 21
56.808
  0
LINE
  8
0
 10
-148.91
 11
-148.899
 20
56.808
 21
56.704
  0
LINE
  8
0
 10
-148.899
 11
-148.971
 20
56.704
 21
55.972
  0
LINE
  8
0
 10
-148.971
 11
-149.185
 20
55.972
 21
55.269
  0
LINE
  8
0
 10
-149.185
 11
-149.531
 20
55.269
 21
54.62
  0
LINE
  8
0
 10
-149.531
 11
-149.59
 20
54.62
 21
54.549
  0
LINE
  8
0
 10
-149.59
 11
-149.998
 20
54.549
 21
54.052
  0
LINE
  8
0
 10
-149.998
 11
-150.566
 20
54.052
 21
53.586
  0
LINE
  8
0
 10
-150.566
 11
-151.214
 20
53.586
 21
53.239
  0
LINE
  8
0
 10
-151.214
 11
-151.918
 20
53.239
 21
53.026
  0
LINE
  8
0
 10
-151.918
 11
-152.649
 20
53.026
 21
52.954
  0
LINE
  8
0
 10
-152.649
 11
-153.381
 20
52.954
 21
53.026
  0
LINE
  8
0
 10
-153.381
 11
-154.084
 20
53.026
 21
53.239
  0
LINE
  8
0
 10
-154.084
 11
-154.733
 20
53.239
 21
53.586
  0
LINE
  8
0
 10
-154.733
 11
-155.301
 20
53.586
 21
54.052
  0
LINE
  8
0
 10
-155.301
 11
-155.767
 20
54.052
 21
54.62
  0
LINE
  8
0
 10
-155.767
 11
-156.114
 20
54.62
 21
55.269
  0
LINE
  8
0
 10
-156.114
 11
-156.327
 20
55.269
 21
55.972
  0
LINE
  8
0
 10
-156.327
 11
-156.399
 20
55.972
 21
56.704
  0
LINE
  8
0
 10
-116.424
 11
-116.398
 20
80.229
 21
81.58
  0
LINE
  8
0
 10
-116.398
 11
-116.322
 20
81.58
 21
81.918
  0
LINE
  8
0
 10
-116.322
 11
-116.197
 20
81.918
 21
82.229
  0
LINE
  8
0
 10
-116.197
 11
-116.029
 20
82.229
 21
82.501
  0
LINE
  8
0
 10
-116.029
 11
-115.824
 20
82.501
 21
82.725
  0
LINE
  8
0
 10
-115.824
 11
-115.591
 20
82.725
 21
82.892
  0
LINE
  8
0
 10
-115.591
 11
-115.338
 20
82.892
 21
82.994
  0
LINE
  8
0
 10
-115.338
 11
-115.074
 20
82.994
 21
83.029
  0
LINE
  8
0
 10
-115.074
 11
-114.811
 20
83.029
 21
82.994
  0
LINE
  8
0
 10
-114.811
 11
-114.558
 20
82.994
 21
82.892
  0
LINE
  8
0
 10
-114.558
 11
-114.324
 20
82.892
 21
82.725
  0
LINE
  8
0
 10
-114.324
 11
-114.12
 20
82.725
 21
82.501
  0
LINE
  8
0
 10
-114.12
 11
-113.952
 20
82.501
 21
82.229
  0
LINE
  8
0
 10
-113.952
 11
-113.827
 20
82.229
 21
81.918
  0
LINE
  8
0
 10
-113.827
 11
-113.75
 20
81.918
 21
81.58
  0
LINE
  8
0
 10
-113.75
 11
-113.724
 20
81.58
 21
80.229
  0
LINE
  8
0
 10
-113.724
 11
-113.75
 20
80.229
 21
79.878
  0
LINE
  8
0
 10
-113.75
 11
-113.827
 20
79.878
 21
79.54
  0
LINE
  8
0
 10
-113.827
 11
-113.952
 20
79.54
 21
79.229
  0
LINE
  8
0
 10
-113.952
 11
-114.12
 20
79.229
 21
78.956
  0
LINE
  8
0
 10
-114.12
 11
-114.324
 20
78.956
 21
78.732
  0
LINE
  8
0
 10
-114.324
 11
-114.558
 20
78.732
 21
78.566
  0
LINE
  8
0
 10
-114.558
 11
-114.811
 20
78.566
 21
78.463
  0
LINE
  8
0
 10
-114.811
 11
-115.074
 20
78.463
 21
78.429
  0
LINE
  8
0
 10
-115.074
 11
-115.338
 20
78.429
 21
78.463
  0
LINE
  8
0
 10
-115.338
 11
-115.591
 20
78.463
 21
78.566
  0
LINE
  8
0
 10
-115.591
 11
-115.824
 20
78.566
 21
78.732
  0
LINE
  8
0
 10
-115.824
 11
-116.029
 20
78.732
 21
78.956
  0
LINE
  8
0
 10
-116.029
 11
-116.197
 20
78.956
 21
79.229
  0
LINE
  8
0
 10
-116.197
 11
-116.322
 20
79.229
 21
79.54
  0
LINE
  8
0
 10
-116.322
 11
-116.398
 20
79.54
 21
79.878
  0
LINE
  8
0
 10
-116.398
 11
-116.424
 20
79.878
 21
80.229
  0
LINE
  8
0
 10
-116.424
 11
-116.398
 20
111.379
 21
112.73
  0
LINE
  8
0
 10
-116.398
 11
-116.322
 20
112.73
 21
113.068
  0
LINE
  8
0
 10
-116.322
 11
-116.197
 20
113.068
 21
113.379
  0
LINE
  8
0
 10
-116.197
 11
-116.029
 20
113.379
 21
113.652
  0
LINE
  8
0
 10
-116.029
 11
-115.824
 20
113.652
 21
113.875
  0
LINE
  8
0
 10
-115.824
 11
-115.591
 20
113.875
 21
114.042
  0
LINE
  8
0
 10
-115.591
 11
-115.338
 20
114.042
 21
114.144
  0
LINE
  8
0
 10
-115.338
 11
-115.074
 20
114.144
 21
114.179
  0
LINE
  8
0
 10
-115.074
 11
-114.811
 20
114.179
 21
114.144
  0
LINE
  8
0
 10
-114.811
 11
-114.558
 20
114.144
 21
114.042
  0
LINE
  8
0
 10
-114.558
 11
-114.324
 20
114.042
 21
113.875
  0
LINE
  8
0
 10
-114.324
 11
-114.12
 20
113.875
 21
113.652
  0
LINE
  8
0
 10
-114.12
 11
-113.952
 20
113.652
 21
113.379
  0
LINE
  8
0
 10
-113.952
 11
-113.827
 20
113.379
 21
113.068
  0
LINE
  8
0
 10
-113.827
 11
-113.75
 20
113.068
 21
112.73
  0
LINE
  8
0
 10
-113.75
 11
-113.724
 20
112.73
 21
111.379
  0
LINE
  8
0
 10
-113.724
 11
-113.75
 20
111.379
 21
111.028
  0
LINE
  8
0
 10
-113.75
 11
-113.827
 20
111.028
 21
110.69
  0
LINE
  8
0
 10
-113.827
 11
-113.952
 20
110.69
 21
110.379
  0
LINE
  8
0
 10
-113.952
 11
-114.12
 20
110.379
 21
110.106
  0
LINE
  8
0
 10
-114.12
 11
-114.324
 20
110.106
 21
109.882
  0
LINE
  8
0
 10
-114.324
 11
-114.558
 20
109.882
 21
109.716
  0
LINE
  8
0
 10
-114.558
 11
-114.811
 20
109.716
 21
109.613
  0
LINE
  8
0
 10
-114.811
 11
-115.074
 20
109.613
 21
109.579
  0
LINE
  8
0
 10
-115.074
 11
-115.338
 20
109.579
 21
109.613
  0
LINE
  8
0
 10
-115.338
 11
-115.591
 20
109.613
 21
109.716
  0
LINE
  8
0
 10
-115.591
 11
-115.824
 20
109.716
 21
109.882
  0
LINE
  8
0
 10
-115.824
 11
-116.029
 20
109.882
 21
110.106
  0
LINE
  8
0
 10
-116.029
 11
-116.197
 20
110.106
 21
110.379
  0
LINE
  8
0
 10
-116.197
 11
-116.322
 20
110.379
 21
110.69
  0
LINE
  8
0
 10
-116.322
 11
-116.398
 20
110.69
 21
111.028
  0
LINE
  8
0
 10
-116.398
 11
-116.424
 20
111.028
 21
111.379
  0
LINE
  8
0
 10
-40.022
 11
-39.811
 20
267.48
 21
269.626
  0
LINE
  8
0
 10
-39.811
 11
-39.185
 20
269.626
 21
271.69
  0
LINE
  8
0
 10
-39.185
 11
-38.168
 20
271.69
 21
273.591
  0
LINE
  8
0
 10
-38.168
 11
-36.8
 20
273.591
 21
275.258
  0
LINE
  8
0
 10
-36.8
 11
-35.133
 20
275.258
 21
276.626
  0
LINE
  8
0
 10
-35.133
 11
-33.231
 20
276.626
 21
277.643
  0
LINE
  8
0
 10
-33.231
 11
-31.168
 20
277.643
 21
278.269
  0
LINE
  8
0
 10
-31.168
 11
-29.022
 20
278.269
 21
278.48
  0
LINE
  8
0
 10
-29.022
 11
-26.876
 20
278.48
 21
278.269
  0
LINE
  8
0
 10
-26.876
 11
-24.812
 20
278.269
 21
277.643
  0
LINE
  8
0
 10
-24.812
 11
-22.911
 20
277.643
 21
276.626
  0
LINE
  8
0
 10
-22.911
 11
-21.244
 20
276.626
 21
275.258
  0
LINE
  8
0
 10
-21.244
 11
-19.876
 20
275.258
 21
273.591
  0
LINE
  8
0
 10
-19.876
 11
-18.859
 20
273.591
 21
271.69
  0
LINE
  8
0
 10
-18.859
 11
-18.233
 20
271.69
 21
269.626
  0
LINE
  8
0
 10
-18.233
 11
-18.022
 20
269.626
 21
267.48
  0
LINE
  8
0
 10
-18.022
 11
-18.233
 20
267.48
 21
265.334
  0
LINE
  8
0
 10
-18.233
 11
-18.859
 20
265.334
 21
263.271
  0
LINE
  8
0
 10
-18.859
 11
-19.876
 20
263.271
 21
261.369
  0
LINE
  8
0
 10
-19.876
 11
-21.244
 20
261.369
 21
259.702
  0
LINE
  8
0
 10
-21.244
 11
-22.911
 20
259.702
 21
258.334
  0
LINE
  8
0
 10
-22.911
 11
-23.597
 20
258.334
 21
257.967
  0
LINE
  8
0
 10
-23.597
 11
-23.61
 20
257.967
 21
257.96
  0
LINE
  8
0
 10
-23.61
 11
-24.812
 20
257.96
 21
257.317
  0
LINE
  8
0
 10
-24.812
 11
-26.876
 20
257.317
 21
256.691
  0
LINE
  8
0
 10
-26.876
 11
-29.022
 20
256.691
 21
256.48
  0
LINE
  8
0
 10
-29.022
 11
-31.168
 20
256.48
 21
256.691
  0
LINE
  8
0
 10
-31.168
 11
-33.232
 20
256.691
 21
257.317
  0
LINE
  8
0
 10
-33.232
 11
-35.133
 20
257.317
 21
258.334
  0
LINE
  8
0
 10
-35.133
 11
-36.8
 20
258.334
 21
259.702
  0
LINE
  8
0
 10
-36.8
 11
-38.168
 20
259.702
 21
261.369
  0
LINE
  8
0
 10
-38.168
 11
-38.28
 20
261.369
 21
261.578
  0
LINE
  8
0
 10
-38.28
 11
-38.293
 20
261.578
 21
261.602
  0
LINE
  8
0
 10
-38.293
 11
-39.185
 20
261.602
 21
263.271
  0
LINE
  8
0
 10
-39.185
 11
-39.811
 20
263.271
 21
265.334
  0
LINE
  8
0
 10
-39.811
 11
-40.022
 20
265.334
 21
267.48
  0
LINE
  8
0
 10
-29.272
 11
-29.229
 20
146.98
 21
147.419
  0
LINE
  8
0
 10
-29.229
 11
-29.101
 20
147.419
 21
147.841
  0
LINE
  8
0
 10
-29.101
 11
-28.893
 20
147.841
 21
148.23
  0
LINE
  8
0
 10
-28.893
 11
-28.613
 20
148.23
 21
148.571
  0
LINE
  8
0
 10
-28.613
 11
-28.272
 20
148.571
 21
148.851
  0
LINE
  8
0
 10
-28.272
 11
-27.883
 20
148.851
 21
149.059
  0
LINE
  8
0
 10
-27.883
 11
-27.461
 20
149.059
 21
149.187
  0
LINE
  8
0
 10
-27.461
 11
-27.022
 20
149.187
 21
149.23
  0
LINE
  8
0
 10
-27.022
 11
-26.583
 20
149.23
 21
149.187
  0
LINE
  8
0
 10
-26.583
 11
-26.161
 20
149.187
 21
149.059
  0
LINE
  8
0
 10
-26.161
 11
-25.772
 20
149.059
 21
148.851
  0
LINE
  8
0
 10
-25.772
 11
-25.431
 20
148.851
 21
148.571
  0
LINE
  8
0
 10
-25.431
 11
-25.151
 20
148.571
 21
148.23
  0
LINE
  8
0
 10
-25.151
 11
-24.943
 20
148.23
 21
147.841
  0
LINE
  8
0
 10
-24.943
 11
-24.815
 20
147.841
 21
147.419
  0
LINE
  8
0
 10
-24.815
 11
-24.772
 20
147.419
 21
146.98
  0
LINE
  8
0
 10
-24.772
 11
-24.815
 20
146.98
 21
146.541
  0
LINE
  8
0
 10
-24.815
 11
-24.943
 20
146.541
 21
146.119
  0
LINE
  8
0
 10
-24.943
 11
-25.151
 20
146.119
 21
145.73
  0
LINE
  8
0
 10
-25.151
 11
-25.431
 20
145.73
 21
145.389
  0
LINE
  8
0
 10
-25.431
 11
-25.772
 20
145.389
 21
145.109
  0
LINE
  8
0
 10
-25.772
 11
-26.161
 20
145.109
 21
144.901
  0
LINE
  8
0
 10
-26.161
 11
-26.583
 20
144.901
 21
144.773
  0
LINE
  8
0
 10
-26.583
 11
-27.022
 20
144.773
 21
144.73
  0
LINE
  8
0
 10
-27.022
 11
-27.461
 20
144.73
 21
144.773
  0
LINE
  8
0
 10
-27.461
 11
-27.883
 20
144.773
 21
144.901
  0
LINE
  8
0
 10
-27.883
 11
-28.272
 20
144.901
 21
145.109
  0
LINE
  8
0
 10
-28.272
 11
-28.613
 20
145.109
 21
145.389
  0
LINE
  8
0
 10
-28.613
 11
-28.893
 20
145.389
 21
145.73
  0
LINE
  8
0
 10
-28.893
 11
-29.101
 20
145.73
 21
146.119
  0
LINE
  8
0
 10
-29.101
 11
-29.182
 20
146.119
 21
146.386
  0
LINE
  8
0
 10
-29.182
 11
-29.199
 20
146.386
 21
146.443
  0
LINE
  8
0
 10
-29.199
 11
-29.229
 20
146.443
 21
146.541
  0
LINE
  8
0
 10
-29.229
 11
-29.272
 20
146.541
 21
146.98
  0
ENDSEC
  0
SECTION
  2
OBJECTS
  0
DICTIONARY
  0
ENDSEC
  0
EOF
