  0
SECTION
  2
BLOCKS
  0
ENDSEC
  0
SECTION
  2
ENTITIES
  0
LINE
  8
0
 10
-214.522
 11
-214.522
 20
-305.02
 21
-280.02
  0
LINE
  8
0
 10
-214.522
 11
-208.52
 20
-280.02
 21
-280.02
  0
LINE
  8
0
 10
-208.52
 11
-208.52
 20
-280.02
 21
-255.02
  0
LINE
  8
0
 10
-208.52
 11
-214.522
 20
-255.02
 21
-255.02
  0
LINE
  8
0
 10
-214.522
 11
-214.522
 20
-255.02
 21
-230.02
  0
LINE
  8
0
 10
-214.522
 11
-208.52
 20
-230.02
 21
-230.02
  0
LINE
  8
0
 10
-208.52
 11
-208.52
 20
-230.02
 21
-205.02
  0
LINE
  8
0
 10
-208.52
 11
-214.522
 20
-205.02
 21
-205.02
  0
LINE
  8
0
 10
-214.522
 11
-214.522
 20
-205.02
 21
-180.02
  0
LINE
  8
0
 10
-214.522
 11
-208.52
 20
-180.02
 21
-180.02
  0
LINE
  8
0
 10
-208.52
 11
-208.52
 20
-180.02
 21
-155.02
  0
LINE
  8
0
 10
-208.52
 11
-214.522
 20
-155.02
 21
-155.02
  0
LINE
  8
0
 10
-214.522
 11
-214.522
 20
-155.02
 21
-130.02
  0
LINE
  8
0
 10
-214.522
 11
-208.52
 20
-130.02
 21
-130.02
  0
LINE
  8
0
 10
-208.52
 11
-208.52
 20
-130.02
 21
-105.02
  0
LINE
  8
0
 10
-208.52
 11
-214.522
 20
-105.02
 21
-105.02
  0
LINE
  8
0
 10
-214.522
 11
-214.522
 20
-105.02
 21
-80.02
  0
LINE
  8
0
 10
-214.522
 11
-208.52
 20
-80.02
 21
-80.02
  0
LINE
  8
0
 10
-208.52
 11
-208.52
 20
-80.02
 21
-55.02
  0
LINE
  8
0
 10
-208.52
 11
-214.522
 20
-55.02
 21
-55.02
  0
LINE
  8
0
 10
-214.522
 11
-214.522
 20
-55.02
 21
-30.02
  0
LINE
  8
0
 10
-214.522
 11
-208.52
 20
-30.02
 21
-30.02
  0
LINE
  8
0
 10
-208.52
 11
-208.52
 20
-30.02
 21
-5.02
  0
LINE
  8
0
 10
-208.52
 11
-179.211
 20
-5.02
 21
-5.02
  0
LINE
  8
0
 10
-179.211
 11
-179.176
 20
-5.02
 21
-5.52
  0
LINE
  8
0
 10
-179.176
 11
-179.061
 20
-5.52
 21
-7.125
  0
LINE
  8
0
 10
-179.061
 11
-178.983
 20
-7.125
 21
-8.218
  0
LINE
  8
0
 10
-178.983
 11
-178.943
 20
-8.218
 21
-8.773
  0
LINE
  8
0
 10
-178.943
 11
-178.868
 20
-8.773
 21
-9.822
  0
LINE
  8
0
 10
-178.868
 11
-178.79
 20
-9.822
 21
-10.915
  0
LINE
  8
0
 10
-178.79
 11
-178.676
 20
-10.915
 21
-12.52
  0
LINE
  8
0
 10
-178.676
 11
-178.71
 20
-12.52
 21
-12.561
  0
LINE
  8
0
 10
-178.71
 11
-178.76
 20
-12.561
 21
-12.622
  0
LINE
  8
0
 10
-178.76
 11
-178.839
 20
-12.622
 21
-12.769
  0
LINE
  8
0
 10
-178.839
 11
-178.954
 20
-12.769
 21
-12.985
  0
LINE
  8
0
 10
-178.954
 11
-179.002
 20
-12.985
 21
-13.145
  0
LINE
  8
0
 10
-179.002
 11
-179.074
 20
-13.145
 21
-13.379
  0
LINE
  8
0
 10
-179.074
 11
-179.09
 20
-13.379
 21
-13.545
  0
LINE
  8
0
 10
-179.09
 11
-179.114
 20
-13.545
 21
-13.789
  0
LINE
  8
0
 10
-179.114
 11
-179.098
 20
-13.789
 21
-13.955
  0
LINE
  8
0
 10
-179.098
 11
-179.074
 20
-13.955
 21
-14.199
  0
LINE
  8
0
 10
-179.074
 11
-179.025
 20
-14.199
 21
-14.358
  0
LINE
  8
0
 10
-179.025
 11
-178.954
 20
-14.358
 21
-14.593
  0
LINE
  8
0
 10
-178.954
 11
-178.875
 20
-14.593
 21
-14.74
  0
LINE
  8
0
 10
-178.875
 11
-178.76
 20
-14.74
 21
-14.956
  0
LINE
  8
0
 10
-178.76
 11
-178.654
 20
-14.956
 21
-15.085
  0
LINE
  8
0
 10
-178.654
 11
-178.499
 20
-15.085
 21
-15.274
  0
LINE
  8
0
 10
-178.499
 11
-178.31
 20
-15.274
 21
-15.429
  0
LINE
  8
0
 10
-178.31
 11
-178.181
 20
-15.429
 21
-15.535
  0
LINE
  8
0
 10
-178.181
 11
-177.965
 20
-15.535
 21
-15.651
  0
LINE
  8
0
 10
-177.965
 11
-177.818
 20
-15.651
 21
-15.729
  0
LINE
  8
0
 10
-177.818
 11
-177.583
 20
-15.729
 21
-15.8
  0
LINE
  8
0
 10
-177.583
 11
-177.424
 20
-15.8
 21
-15.849
  0
LINE
  8
0
 10
-177.424
 11
-177.18
 20
-15.849
 21
-15.873
  0
LINE
  8
0
 10
-177.18
 11
-177.014
 20
-15.873
 21
-15.889
  0
LINE
  8
0
 10
-177.014
 11
-176.77
 20
-15.889
 21
-15.865
  0
LINE
  8
0
 10
-176.77
 11
-176.604
 20
-15.865
 21
-15.849
  0
LINE
  8
0
 10
-176.604
 11
-176.37
 20
-15.849
 21
-15.778
  0
LINE
  8
0
 10
-176.37
 11
-176.21
 20
-15.778
 21
-15.729
  0
LINE
  8
0
 10
-176.21
 11
-176.063
 20
-15.729
 21
-15.651
  0
LINE
  8
0
 10
-176.063
 11
-175.847
 20
-15.651
 21
-15.535
  0
LINE
  8
0
 10
-175.847
 11
-175.658
 20
-15.535
 21
-15.38
  0
LINE
  8
0
 10
-175.658
 11
-175.529
 20
-15.38
 21
-15.274
  0
LINE
  8
0
 10
-175.529
 11
-175.374
 20
-15.274
 21
-15.085
  0
LINE
  8
0
 10
-175.374
 11
-175.268
 20
-15.085
 21
-14.956
  0
LINE
  8
0
 10
-175.268
 11
-175.189
 20
-14.956
 21
-14.809
  0
LINE
  8
0
 10
-175.189
 11
-175.074
 20
-14.809
 21
-14.593
  0
LINE
  8
0
 10
-175.074
 11
-175.025
 20
-14.593
 21
-14.433
  0
LINE
  8
0
 10
-175.025
 11
-174.954
 20
-14.433
 21
-14.199
  0
LINE
  8
0
 10
-174.954
 11
-174.938
 20
-14.199
 21
-14.033
  0
LINE
  8
0
 10
-174.938
 11
-174.914
 20
-14.033
 21
-13.789
  0
LINE
  8
0
 10
-174.914
 11
-174.916
 20
-13.789
 21
-13.767
  0
LINE
  8
0
 10
-174.916
 11
-174.919
 20
-13.767
 21
-13.734
  0
LINE
  8
0
 10
-174.919
 11
-174.914
 20
-13.734
 21
-11.984
  0
LINE
  8
0
 10
-174.914
 11
-174.914
 20
-11.984
 21
-5.02
  0
LINE
  8
0
 10
-174.914
 11
-45.13
 20
-5.02
 21
-5.02
  0
LINE
  8
0
 10
-45.13
 11
-45.13
 20
-5.02
 21
-13.734
  0
LINE
  8
0
 10
-45.13
 11
-45.129
 20
-13.734
 21
-13.78
  0
LINE
  8
0
 10
-45.129
 11
-45.097
 20
-13.78
 21
-14.129
  0
LINE
  8
0
 10
-45.097
 11
-45.09
 20
-14.129
 21
-14.199
  0
LINE
  8
0
 10
-45.09
 11
-44.991
 20
-14.199
 21
-14.525
  0
LINE
  8
0
 10
-44.991
 11
-44.97
 20
-14.525
 21
-14.593
  0
LINE
  8
0
 10
-44.97
 11
-44.81
 20
-14.593
 21
-14.894
  0
LINE
  8
0
 10
-44.81
 11
-44.776
 20
-14.894
 21
-14.956
  0
LINE
  8
0
 10
-44.776
 11
-44.732
 20
-14.956
 21
-15.01
  0
LINE
  8
0
 10
-44.732
 11
-44.515
 20
-15.01
 21
-15.274
  0
LINE
  8
0
 10
-44.515
 11
-44.461
 20
-15.274
 21
-15.319
  0
LINE
  8
0
 10
-44.461
 11
-44.197
 20
-15.319
 21
-15.535
  0
LINE
  8
0
 10
-44.197
 11
-43.896
 20
-15.535
 21
-15.696
  0
LINE
  8
0
 10
-43.896
 11
-43.834
 20
-15.696
 21
-15.729
  0
LINE
  8
0
 10
-43.834
 11
-43.507
 20
-15.729
 21
-15.828
  0
LINE
  8
0
 10
-43.507
 11
-43.44
 20
-15.828
 21
-15.849
  0
LINE
  8
0
 10
-43.44
 11
-43.1
 20
-15.849
 21
-15.882
  0
LINE
  8
0
 10
-43.1
 11
-43.03
 20
-15.882
 21
-15.889
  0
LINE
  8
0
 10
-43.03
 11
-42.691
 20
-15.889
 21
-15.856
  0
LINE
  8
0
 10
-42.691
 11
-42.621
 20
-15.856
 21
-15.849
  0
LINE
  8
0
 10
-42.621
 11
-42.553
 20
-15.849
 21
-15.828
  0
LINE
  8
0
 10
-42.553
 11
-42.227
 20
-15.828
 21
-15.729
  0
LINE
  8
0
 10
-42.227
 11
-42.165
 20
-15.729
 21
-15.696
  0
LINE
  8
0
 10
-42.165
 11
-41.864
 20
-15.696
 21
-15.535
  0
LINE
  8
0
 10
-41.864
 11
-41.6
 20
-15.535
 21
-15.319
  0
LINE
  8
0
 10
-41.6
 11
-41.545
 20
-15.319
 21
-15.274
  0
LINE
  8
0
 10
-41.545
 11
-41.329
 20
-15.274
 21
-15.01
  0
LINE
  8
0
 10
-41.329
 11
-41.284
 20
-15.01
 21
-14.956
  0
LINE
  8
0
 10
-41.284
 11
-41.123
 20
-14.956
 21
-14.655
  0
LINE
  8
0
 10
-41.123
 11
-41.09
 20
-14.655
 21
-14.593
  0
LINE
  8
0
 10
-41.09
 11
-40.991
 20
-14.593
 21
-14.266
  0
LINE
  8
0
 10
-40.991
 11
-40.971
 20
-14.266
 21
-14.199
  0
LINE
  8
0
 10
-40.971
 11
-40.937
 20
-14.199
 21
-13.859
  0
LINE
  8
0
 10
-40.937
 11
-40.93
 20
-13.859
 21
-13.789
  0
LINE
  8
0
 10
-40.93
 11
-40.964
 20
-13.789
 21
-13.449
  0
LINE
  8
0
 10
-40.964
 11
-40.971
 20
-13.449
 21
-13.379
  0
LINE
  8
0
 10
-40.971
 11
-41.07
 20
-13.379
 21
-13.053
  0
LINE
  8
0
 10
-41.07
 11
-41.09
 20
-13.053
 21
-12.985
  0
LINE
  8
0
 10
-41.09
 11
-41.251
 20
-12.985
 21
-12.684
  0
LINE
  8
0
 10
-41.251
 11
-41.284
 20
-12.684
 21
-12.622
  0
LINE
  8
0
 10
-41.284
 11
-41.354
 20
-12.622
 21
-12.537
  0
LINE
  8
0
 10
-41.354
 11
-41.369
 20
-12.537
 21
-12.519
  0
LINE
  8
0
 10
-41.369
 11
-41.209
 20
-12.519
 21
-10.283
  0
LINE
  8
0
 10
-41.209
 11
-41.176
 20
-10.283
 21
-9.822
  0
LINE
  8
0
 10
-41.176
 11
-41.016
 20
-9.822
 21
-7.586
  0
LINE
  8
0
 10
-41.016
 11
-40.983
 20
-7.586
 21
-7.125
  0
LINE
  8
0
 10
-40.983
 11
-40.95
 20
-7.125
 21
-6.664
  0
LINE
  8
0
 10
-40.95
 11
-40.833
 20
-6.664
 21
-5.02
  0
LINE
  8
0
 10
-40.833
 11
-5.522
 20
-5.02
 21
-5.02
  0
LINE
  8
0
 10
-5.522
 11
-5.522
 20
-5.02
 21
-30.02
  0
LINE
  8
0
 10
-5.522
 11
-11.524
 20
-30.02
 21
-30.02
  0
LINE
  8
0
 10
-11.524
 11
-11.524
 20
-30.02
 21
-55.02
  0
LINE
  8
0
 10
-11.524
 11
-5.522
 20
-55.02
 21
-55.02
  0
LINE
  8
0
 10
-5.522
 11
-5.522
 20
-55.02
 21
-80.02
  0
LINE
  8
0
 10
-5.522
 11
-11.524
 20
-80.02
 21
-80.02
  0
LINE
  8
0
 10
-11.524
 11
-11.524
 20
-80.02
 21
-105.02
  0
LINE
  8
0
 10
-11.524
 11
-5.522
 20
-105.02
 21
-105.02
  0
LINE
  8
0
 10
-5.522
 11
-5.522
 20
-105.02
 21
-130.02
  0
LINE
  8
0
 10
-5.522
 11
-11.524
 20
-130.02
 21
-130.02
  0
LINE
  8
0
 10
-11.524
 11
-11.524
 20
-130.02
 21
-155.02
  0
LINE
  8
0
 10
-11.524
 11
-5.522
 20
-155.02
 21
-155.02
  0
LINE
  8
0
 10
-5.522
 11
-5.522
 20
-155.02
 21
-180.02
  0
LINE
  8
0
 10
-5.522
 11
-11.524
 20
-180.02
 21
-180.02
  0
LINE
  8
0
 10
-11.524
 11
-11.524
 20
-180.02
 21
-205.02
  0
LINE
  8
0
 10
-11.524
 11
-5.522
 20
-205.02
 21
-205.02
  0
LINE
  8
0
 10
-5.522
 11
-5.522
 20
-205.02
 21
-230.02
  0
LINE
  8
0
 10
-5.522
 11
-11.524
 20
-230.02
 21
-230.02
  0
LINE
  8
0
 10
-11.524
 11
-11.524
 20
-230.02
 21
-255.02
  0
LINE
  8
0
 10
-11.524
 11
-5.522
 20
-255.02
 21
-255.02
  0
LINE
  8
0
 10
-5.522
 11
-5.522
 20
-255.02
 21
-280.02
  0
LINE
  8
0
 10
-5.522
 11
-11.524
 20
-280.02
 21
-280.02
  0
LINE
  8
0
 10
-11.524
 11
-11.524
 20
-280.02
 21
-305.02
  0
LINE
  8
0
 10
-11.524
 11
-40.94
 20
-305.02
 21
-305.02
  0
LINE
  8
0
 10
-40.94
 11
-40.98
 20
-305.02
 21
-304.453
  0
LINE
  8
0
 10
-40.98
 11
-41.059
 20
-304.453
 21
-303.361
  0
LINE
  8
0
 10
-41.059
 11
-41.173
 20
-303.361
 21
-301.756
  0
LINE
  8
0
 10
-41.173
 11
-41.209
 20
-301.756
 21
-301.253
  0
LINE
  8
0
 10
-41.209
 11
-41.251
 20
-301.253
 21
-300.663
  0
LINE
  8
0
 10
-41.251
 11
-41.366
 20
-300.663
 21
-299.059
  0
LINE
  8
0
 10
-41.366
 11
-41.332
 20
-299.059
 21
-299.017
  0
LINE
  8
0
 10
-41.332
 11
-41.281
 20
-299.017
 21
-298.956
  0
LINE
  8
0
 10
-41.281
 11
-41.203
 20
-298.956
 21
-298.809
  0
LINE
  8
0
 10
-41.203
 11
-41.087
 20
-298.809
 21
-298.593
  0
LINE
  8
0
 10
-41.087
 11
-41.039
 20
-298.593
 21
-298.433
  0
LINE
  8
0
 10
-41.039
 11
-40.968
 20
-298.433
 21
-298.199
  0
LINE
  8
0
 10
-40.968
 11
-40.952
 20
-298.199
 21
-298.033
  0
LINE
  8
0
 10
-40.952
 11
-40.927
 20
-298.033
 21
-297.789
  0
LINE
  8
0
 10
-40.927
 11
-40.944
 20
-297.789
 21
-297.623
  0
LINE
  8
0
 10
-40.944
 11
-40.968
 20
-297.623
 21
-297.379
  0
LINE
  8
0
 10
-40.968
 11
-41.016
 20
-297.379
 21
-297.22
  0
LINE
  8
0
 10
-41.016
 11
-41.087
 20
-297.22
 21
-296.985
  0
LINE
  8
0
 10
-41.087
 11
-41.166
 20
-296.985
 21
-296.838
  0
LINE
  8
0
 10
-41.166
 11
-41.281
 20
-296.838
 21
-296.622
  0
LINE
  8
0
 10
-41.281
 11
-41.387
 20
-296.622
 21
-296.494
  0
LINE
  8
0
 10
-41.387
 11
-41.543
 20
-296.494
 21
-296.304
  0
LINE
  8
0
 10
-41.543
 11
-41.732
 20
-296.304
 21
-296.149
  0
LINE
  8
0
 10
-41.732
 11
-41.861
 20
-296.149
 21
-296.043
  0
LINE
  8
0
 10
-41.861
 11
-42.077
 20
-296.043
 21
-295.928
  0
LINE
  8
0
 10
-42.077
 11
-42.224
 20
-295.928
 21
-295.849
  0
LINE
  8
0
 10
-42.224
 11
-42.458
 20
-295.849
 21
-295.778
  0
LINE
  8
0
 10
-42.458
 11
-42.618
 20
-295.778
 21
-295.729
  0
LINE
  8
0
 10
-42.618
 11
-42.862
 20
-295.729
 21
-295.705
  0
LINE
  8
0
 10
-42.862
 11
-43.027
 20
-295.705
 21
-295.689
  0
LINE
  8
0
 10
-43.027
 11
-43.271
 20
-295.689
 21
-295.713
  0
LINE
  8
0
 10
-43.271
 11
-43.437
 20
-295.713
 21
-295.729
  0
LINE
  8
0
 10
-43.437
 11
-43.672
 20
-295.729
 21
-295.801
  0
LINE
  8
0
 10
-43.672
 11
-43.831
 20
-295.801
 21
-295.849
  0
LINE
  8
0
 10
-43.831
 11
-43.978
 20
-295.849
 21
-295.928
  0
LINE
  8
0
 10
-43.978
 11
-44.194
 20
-295.928
 21
-296.043
  0
LINE
  8
0
 10
-44.194
 11
-44.384
 20
-296.043
 21
-296.198
  0
LINE
  8
0
 10
-44.384
 11
-44.512
 20
-296.198
 21
-296.304
  0
LINE
  8
0
 10
-44.512
 11
-44.668
 20
-296.304
 21
-296.494
  0
LINE
  8
0
 10
-44.668
 11
-44.774
 20
-296.494
 21
-296.622
  0
LINE
  8
0
 10
-44.774
 11
-44.852
 20
-296.622
 21
-296.769
  0
LINE
  8
0
 10
-44.852
 11
-44.968
 20
-296.769
 21
-296.985
  0
LINE
  8
0
 10
-44.968
 11
-45.016
 20
-296.985
 21
-297.145
  0
LINE
  8
0
 10
-45.016
 11
-45.087
 20
-297.145
 21
-297.379
  0
LINE
  8
0
 10
-45.087
 11
-45.103
 20
-297.379
 21
-297.545
  0
LINE
  8
0
 10
-45.103
 11
-45.127
 20
-297.545
 21
-297.789
  0
LINE
  8
0
 10
-45.127
 11
-45.125
 20
-297.789
 21
-297.812
  0
LINE
  8
0
 10
-45.125
 11
-45.127
 20
-297.812
 21
-297.845
  0
LINE
  8
0
 10
-45.127
 11
-45.127
 20
-297.845
 21
-305.02
  0
LINE
  8
0
 10
-45.127
 11
-174.917
 20
-305.02
 21
-305.02
  0
LINE
  8
0
 10
-174.917
 11
-174.917
 20
-305.02
 21
-300.282
  0
LINE
  8
0
 10
-174.917
 11
-174.922
 20
-300.282
 21
-297.845
  0
LINE
  8
0
 10
-174.922
 11
-174.917
 20
-297.845
 21
-297.789
  0
LINE
  8
0
 10
-174.917
 11
-174.95
 20
-297.789
 21
-297.449
  0
LINE
  8
0
 10
-174.95
 11
-174.957
 20
-297.449
 21
-297.379
  0
LINE
  8
0
 10
-174.957
 11
-175.056
 20
-297.379
 21
-297.053
  0
LINE
  8
0
 10
-175.056
 11
-175.076
 20
-297.053
 21
-296.985
  0
LINE
  8
0
 10
-175.076
 11
-175.237
 20
-296.985
 21
-296.684
  0
LINE
  8
0
 10
-175.237
 11
-175.27
 20
-296.684
 21
-296.622
  0
LINE
  8
0
 10
-175.27
 11
-175.315
 20
-296.622
 21
-296.568
  0
LINE
  8
0
 10
-175.315
 11
-175.532
 20
-296.568
 21
-296.304
  0
LINE
  8
0
 10
-175.532
 11
-175.586
 20
-296.304
 21
-296.26
  0
LINE
  8
0
 10
-175.586
 11
-175.85
 20
-296.26
 21
-296.043
  0
LINE
  8
0
 10
-175.85
 11
-176.151
 20
-296.043
 21
-295.882
  0
LINE
  8
0
 10
-176.151
 11
-176.213
 20
-295.882
 21
-295.849
  0
LINE
  8
0
 10
-176.213
 11
-176.54
 20
-295.849
 21
-295.75
  0
LINE
  8
0
 10
-176.54
 11
-176.607
 20
-295.75
 21
-295.729
  0
LINE
  8
0
 10
-176.607
 11
-176.947
 20
-295.729
 21
-295.696
  0
LINE
  8
0
 10
-176.947
 11
-177.017
 20
-295.696
 21
-295.689
  0
LINE
  8
0
 10
-177.017
 11
-177.356
 20
-295.689
 21
-295.723
  0
LINE
  8
0
 10
-177.356
 11
-177.426
 20
-295.723
 21
-295.729
  0
LINE
  8
0
 10
-177.426
 11
-177.494
 20
-295.729
 21
-295.75
  0
LINE
  8
0
 10
-177.494
 11
-177.82
 20
-295.75
 21
-295.849
  0
LINE
  8
0
 10
-177.82
 11
-177.882
 20
-295.849
 21
-295.882
  0
LINE
  8
0
 10
-177.882
 11
-178.183
 20
-295.882
 21
-296.043
  0
LINE
  8
0
 10
-178.183
 11
-178.447
 20
-296.043
 21
-296.26
  0
LINE
  8
0
 10
-178.447
 11
-178.501
 20
-296.26
 21
-296.304
  0
LINE
  8
0
 10
-178.501
 11
-178.718
 20
-296.304
 21
-296.568
  0
LINE
  8
0
 10
-178.718
 11
-178.763
 20
-296.568
 21
-296.622
  0
LINE
  8
0
 10
-178.763
 11
-178.924
 20
-296.622
 21
-296.923
  0
LINE
  8
0
 10
-178.924
 11
-178.957
 20
-296.923
 21
-296.985
  0
LINE
  8
0
 10
-178.957
 11
-179.056
 20
-296.985
 21
-297.312
  0
LINE
  8
0
 10
-179.056
 11
-179.076
 20
-297.312
 21
-297.379
  0
LINE
  8
0
 10
-179.076
 11
-179.11
 20
-297.379
 21
-297.719
  0
LINE
  8
0
 10
-179.11
 11
-179.117
 20
-297.719
 21
-297.789
  0
LINE
  8
0
 10
-179.117
 11
-179.083
 20
-297.789
 21
-298.129
  0
LINE
  8
0
 10
-179.083
 11
-179.076
 20
-298.129
 21
-298.199
  0
LINE
  8
0
 10
-179.076
 11
-178.977
 20
-298.199
 21
-298.525
  0
LINE
  8
0
 10
-178.977
 11
-178.957
 20
-298.525
 21
-298.593
  0
LINE
  8
0
 10
-178.957
 11
-178.796
 20
-298.593
 21
-298.894
  0
LINE
  8
0
 10
-178.796
 11
-178.763
 20
-298.894
 21
-298.956
  0
LINE
  8
0
 10
-178.763
 11
-178.693
 20
-298.956
 21
-299.041
  0
LINE
  8
0
 10
-178.693
 11
-178.678
 20
-299.041
 21
-299.059
  0
LINE
  8
0
 10
-178.678
 11
-178.838
 20
-299.059
 21
-301.295
  0
LINE
  8
0
 10
-178.838
 11
-178.871
 20
-301.295
 21
-301.756
  0
LINE
  8
0
 10
-178.871
 11
-179.031
 20
-301.756
 21
-303.992
  0
LINE
  8
0
 10
-179.031
 11
-179.064
 20
-303.992
 21
-304.453
  0
LINE
  8
0
 10
-179.064
 11
-179.097
 20
-304.453
 21
-304.914
  0
LINE
  8
0
 10
-179.097
 11
-179.104
 20
-304.914
 21
-305.02
  0
LINE
  8
0
 10
-179.104
 11
-214.522
 20
-305.02
 21
-305.02
  0
LINE
  8
0
 10
-202.022
 11
-201.92
 20
-287.52
 21
-286.483
  0
LINE
  8
0
 10
-201.92
 11
-201.918
 20
-286.483
 21
-286.461
  0
LINE
  8
0
 10
-201.918
 11
-201.907
 20
-286.461
 21
-286.351
  0
LINE
  8
0
 10
-201.907
 11
-201.904
 20
-286.351
 21
-286.326
  0
LINE
  8
0
 10
-201.904
 11
-201.893
 20
-286.326
 21
-286.205
  0
LINE
  8
0
 10
-201.893
 11
-201.89
 20
-286.205
 21
-286.179
  0
LINE
  8
0
 10
-201.89
 11
-201.877
 20
-286.179
 21
-286.052
  0
LINE
  8
0
 10
-201.877
 11
-201.875
 20
-286.052
 21
-286.025
  0
LINE
  8
0
 10
-201.875
 11
-201.862
 20
-286.025
 21
-285.898
  0
LINE
  8
0
 10
-201.862
 11
-201.86
 20
-285.898
 21
-285.872
  0
LINE
  8
0
 10
-201.86
 11
-201.848
 20
-285.872
 21
-285.75
  0
LINE
  8
0
 10
-201.848
 11
-201.845
 20
-285.75
 21
-285.727
  0
LINE
  8
0
 10
-201.845
 11
-201.834
 20
-285.727
 21
-285.614
  0
LINE
  8
0
 10
-201.834
 11
-201.825
 20
-285.614
 21
-285.517
  0
LINE
  8
0
 10
-201.825
 11
-201.823
 20
-285.517
 21
-285.497
  0
LINE
  8
0
 10
-201.823
 11
-201.815
 20
-285.497
 21
-285.418
  0
LINE
  8
0
 10
-201.815
 11
-201.812
 20
-285.418
 21
-285.39
  0
LINE
  8
0
 10
-201.812
 11
-201.811
 20
-285.39
 21
-285.374
  0
LINE
  8
0
 10
-201.811
 11
-201.797
 20
-285.374
 21
-285.329
  0
LINE
  8
0
 10
-201.797
 11
-201.783
 20
-285.329
 21
-285.284
  0
LINE
  8
0
 10
-201.783
 11
-201.185
 20
-285.284
 21
-283.311
  0
LINE
  8
0
 10
-201.185
 11
-200.168
 20
-283.311
 21
-281.409
  0
LINE
  8
0
 10
-200.168
 11
-200.124
 20
-281.409
 21
-281.355
  0
LINE
  8
0
 10
-200.124
 11
-199.72
 20
-281.355
 21
-280.862
  0
LINE
  8
0
 10
-199.72
 11
-198.8
 20
-280.862
 21
-279.742
  0
LINE
  8
0
 10
-198.8
 11
-197.133
 20
-279.742
 21
-278.374
  0
LINE
  8
0
 10
-197.133
 11
-195.232
 20
-278.374
 21
-277.357
  0
LINE
  8
0
 10
-195.232
 11
-193.168
 20
-277.357
 21
-276.731
  0
LINE
  8
0
 10
-193.168
 11
-191.022
 20
-276.731
 21
-276.52
  0
LINE
  8
0
 10
-191.022
 11
-188.876
 20
-276.52
 21
-276.731
  0
LINE
  8
0
 10
-188.876
 11
-186.812
 20
-276.731
 21
-277.357
  0
LINE
  8
0
 10
-186.812
 11
-184.911
 20
-277.357
 21
-278.374
  0
LINE
  8
0
 10
-184.911
 11
-183.244
 20
-278.374
 21
-279.742
  0
LINE
  8
0
 10
-183.244
 11
-181.876
 20
-279.742
 21
-281.409
  0
LINE
  8
0
 10
-181.876
 11
-181.221
 20
-281.409
 21
-282.633
  0
LINE
  8
0
 10
-181.221
 11
-180.961
 20
-282.633
 21
-283.12
  0
LINE
  8
0
 10
-180.961
 11
-180.954
 20
-283.12
 21
-283.133
  0
LINE
  8
0
 10
-180.954
 11
-180.859
 20
-283.133
 21
-283.311
  0
LINE
  8
0
 10
-180.859
 11
-180.233
 20
-283.311
 21
-285.374
  0
LINE
  8
0
 10
-180.233
 11
-180.022
 20
-285.374
 21
-287.52
  0
LINE
  8
0
 10
-180.022
 11
-180.233
 20
-287.52
 21
-289.666
  0
LINE
  8
0
 10
-180.233
 11
-180.859
 20
-289.666
 21
-291.73
  0
LINE
  8
0
 10
-180.859
 11
-181.822
 20
-291.73
 21
-293.531
  0
LINE
  8
0
 10
-181.822
 11
-181.836
 20
-293.531
 21
-293.556
  0
LINE
  8
0
 10
-181.836
 11
-181.881
 20
-293.556
 21
-293.637
  0
LINE
  8
0
 10
-181.881
 11
-181.893
 20
-293.637
 21
-293.652
  0
LINE
  8
0
 10
-181.893
 11
-181.987
 20
-293.652
 21
-293.766
  0
LINE
  8
0
 10
-181.987
 11
-182.006
 20
-293.766
 21
-293.79
  0
LINE
  8
0
 10
-182.006
 11
-182.032
 20
-293.79
 21
-293.822
  0
LINE
  8
0
 10
-182.032
 11
-182.16
 20
-293.822
 21
-293.977
  0
LINE
  8
0
 10
-182.16
 11
-182.192
 20
-293.977
 21
-294.016
  0
LINE
  8
0
 10
-182.192
 11
-182.348
 20
-294.016
 21
-294.207
  0
LINE
  8
0
 10
-182.348
 11
-182.526
 20
-294.207
 21
-294.423
  0
LINE
  8
0
 10
-182.526
 11
-182.563
 20
-294.423
 21
-294.468
  0
LINE
  8
0
 10
-182.563
 11
-182.755
 20
-294.468
 21
-294.702
  0
LINE
  8
0
 10
-182.755
 11
-182.794
 20
-294.702
 21
-294.751
  0
LINE
  8
0
 10
-182.794
 11
-182.992
 20
-294.751
 21
-294.991
  0
LINE
  8
0
 10
-182.992
 11
-183.033
 20
-294.991
 21
-295.041
  0
LINE
  8
0
 10
-183.033
 11
-183.227
 20
-295.041
 21
-295.278
  0
LINE
  8
0
 10
-183.227
 11
-183.244
 20
-295.278
 21
-295.298
  0
LINE
  8
0
 10
-183.244
 11
-183.275
 20
-295.298
 21
-295.323
  0
LINE
  8
0
 10
-183.275
 11
-183.512
 20
-295.323
 21
-295.519
  0
LINE
  8
0
 10
-183.512
 11
-183.561
 20
-295.519
 21
-295.559
  0
LINE
  8
0
 10
-183.561
 11
-183.773
 20
-295.559
 21
-295.732
  0
LINE
  8
0
 10
-183.773
 11
-183.816
 20
-295.732
 21
-295.768
  0
LINE
  8
0
 10
-183.816
 11
-184.911
 20
-295.768
 21
-296.666
  0
LINE
  8
0
 10
-184.911
 11
-186.813
 20
-296.666
 21
-297.683
  0
LINE
  8
0
 10
-186.813
 11
-188.876
 20
-297.683
 21
-298.309
  0
LINE
  8
0
 10
-188.876
 11
-191.022
 20
-298.309
 21
-298.52
  0
LINE
  8
0
 10
-191.022
 11
-193.168
 20
-298.52
 21
-298.309
  0
LINE
  8
0
 10
-193.168
 11
-195.232
 20
-298.309
 21
-297.683
  0
LINE
  8
0
 10
-195.232
 11
-197.133
 20
-297.683
 21
-296.666
  0
LINE
  8
0
 10
-197.133
 11
-198.8
 20
-296.666
 21
-295.298
  0
LINE
  8
0
 10
-198.8
 11
-200.168
 20
-295.298
 21
-293.631
  0
LINE
  8
0
 10
-200.168
 11
-201.185
 20
-293.631
 21
-291.73
  0
LINE
  8
0
 10
-201.185
 11
-201.811
 20
-291.73
 21
-289.666
  0
LINE
  8
0
 10
-201.811
 11
-202.022
 20
-289.666
 21
-287.52
  0
LINE
  8
0
 10
-182.02
 11
-182.02
 20
-255.617
 21
-141.617
  0
LINE
  8
0
 10
-182.02
 11
-181.878
 20
-141.617
 21
-139.997
  0
LINE
  8
0
 10
-181.878
 11
-181.794
 20
-139.997
 21
-139.013
  0
LINE
  8
0
 10
-181.794
 11
-181.78
 20
-139.013
 21
-138.965
  0
LINE
  8
0
 10
-181.78
 11
-181.746
 20
-138.965
 21
-138.837
  0
LINE
  8
0
 10
-181.746
 11
-181.73
 20
-138.837
 21
-138.779
  0
LINE
  8
0
 10
-181.73
 11
-181.568
 20
-138.779
 21
-138.173
  0
LINE
  8
0
 10
-181.568
 11
-181.488
 20
-138.173
 21
-137.875
  0
LINE
  8
0
 10
-181.488
 11
-181.294
 20
-137.875
 21
-137.153
  0
LINE
  8
0
 10
-181.294
 11
-181.254
 20
-137.153
 21
-137.007
  0
LINE
  8
0
 10
-181.254
 11
-181.156
 20
-137.007
 21
-136.637
  0
LINE
  8
0
 10
-181.156
 11
-181.136
 20
-136.637
 21
-136.567
  0
LINE
  8
0
 10
-181.136
 11
-181.13
 20
-136.567
 21
-136.543
  0
LINE
  8
0
 10
-181.13
 11
-181.116
 20
-136.543
 21
-136.487
  0
LINE
  8
0
 10
-181.116
 11
-180.012
 20
-136.487
 21
-134.119
  0
LINE
  8
0
 10
-180.012
 11
-179.454
 20
-134.119
 21
-133.323
  0
LINE
  8
0
 10
-179.454
 11
-178.512
 20
-133.323
 21
-131.977
  0
LINE
  8
0
 10
-178.512
 11
-176.662
 20
-131.977
 21
-130.127
  0
LINE
  8
0
 10
-176.662
 11
-176.51
 20
-130.127
 21
-130.02
  0
LINE
  8
0
 10
-176.51
 11
-174.734
 20
-130.02
 21
-128.777
  0
LINE
  8
0
 10
-174.734
 11
-174.518
 20
-128.777
 21
-128.627
  0
LINE
  8
0
 10
-174.518
 11
-173.667
 20
-128.627
 21
-128.23
  0
LINE
  8
0
 10
-173.667
 11
-172.152
 20
-128.23
 21
-127.523
  0
LINE
  8
0
 10
-172.152
 11
-172.054
 20
-127.523
 21
-127.496
  0
LINE
  8
0
 10
-172.054
 11
-169.626
 20
-127.496
 21
-126.845
  0
LINE
  8
0
 10
-169.626
 11
-167.02
 20
-126.845
 21
-126.619
  0
LINE
  8
0
 10
-167.02
 11
-80.518
 20
-126.619
 21
-126.619
  0
LINE
  8
0
 10
-80.518
 11
-78.935
 20
-126.619
 21
-126.756
  0
LINE
  8
0
 10
-78.935
 11
-77.916
 20
-126.756
 21
-126.845
  0
LINE
  8
0
 10
-77.916
 11
-77.777
 20
-126.845
 21
-126.882
  0
LINE
  8
0
 10
-77.777
 11
-75.39
 20
-126.882
 21
-127.521
  0
LINE
  8
0
 10
-75.39
 11
-73.022
 20
-127.521
 21
-128.627
  0
LINE
  8
0
 10
-73.022
 11
-71.032
 20
-128.627
 21
-130.02
  0
LINE
  8
0
 10
-71.032
 11
-70.88
 20
-130.02
 21
-130.127
  0
LINE
  8
0
 10
-70.88
 11
-69.028
 20
-130.127
 21
-131.977
  0
LINE
  8
0
 10
-69.028
 11
-67.528
 20
-131.977
 21
-134.119
  0
LINE
  8
0
 10
-67.528
 11
-66.522
 20
-134.119
 21
-136.281
  0
LINE
  8
0
 10
-66.522
 11
-66.426
 20
-136.281
 21
-136.487
  0
LINE
  8
0
 10
-66.426
 11
-66.296
 20
-136.487
 21
-136.971
  0
LINE
  8
0
 10
-66.296
 11
-65.748
 20
-136.971
 21
-139.013
  0
LINE
  8
0
 10
-65.748
 11
-65.522
 20
-139.013
 21
-141.619
  0
LINE
  8
0
 10
-65.522
 11
-65.522
 20
-141.619
 21
-255.617
  0
LINE
  8
0
 10
-65.522
 11
-65.748
 20
-255.617
 21
-258.223
  0
LINE
  8
0
 10
-65.748
 11
-65.77
 20
-258.223
 21
-258.304
  0
LINE
  8
0
 10
-65.77
 11
-66.426
 20
-258.304
 21
-260.749
  0
LINE
  8
0
 10
-66.426
 11
-67.528
 20
-260.749
 21
-263.117
  0
LINE
  8
0
 10
-67.528
 11
-69.028
 20
-263.117
 21
-265.259
  0
LINE
  8
0
 10
-69.028
 11
-69.366
 20
-265.259
 21
-265.596
  0
LINE
  8
0
 10
-69.366
 11
-70.88
 20
-265.596
 21
-267.109
  0
LINE
  8
0
 10
-70.88
 11
-73.022
 20
-267.109
 21
-268.609
  0
LINE
  8
0
 10
-73.022
 11
-75.39
 20
-268.609
 21
-269.713
  0
LINE
  8
0
 10
-75.39
 11
-77.916
 20
-269.713
 21
-270.391
  0
LINE
  8
0
 10
-77.916
 11
-78.235
 20
-270.391
 21
-270.418
  0
LINE
  8
0
 10
-78.235
 11
-79.079
 20
-270.418
 21
-270.492
  0
LINE
  8
0
 10
-79.079
 11
-80.522
 20
-270.492
 21
-270.617
  0
LINE
  8
0
 10
-80.522
 11
-167.006
 20
-270.617
 21
-270.617
  0
LINE
  8
0
 10
-167.006
 11
-167.022
 20
-270.617
 21
-270.615
  0
LINE
  8
0
 10
-167.022
 11
-169.626
 20
-270.615
 21
-270.391
  0
LINE
  8
0
 10
-169.626
 11
-172.152
 20
-270.391
 21
-269.713
  0
LINE
  8
0
 10
-172.152
 11
-173.03
 20
-269.713
 21
-269.303
  0
LINE
  8
0
 10
-173.03
 11
-174.518
 20
-269.303
 21
-268.609
  0
LINE
  8
0
 10
-174.518
 11
-174.734
 20
-268.609
 21
-268.457
  0
LINE
  8
0
 10
-174.734
 11
-176.662
 20
-268.457
 21
-267.109
  0
LINE
  8
0
 10
-176.662
 11
-178.512
 20
-267.109
 21
-265.259
  0
LINE
  8
0
 10
-178.512
 11
-179.454
 20
-265.259
 21
-263.911
  0
LINE
  8
0
 10
-179.454
 11
-180.012
 20
-263.911
 21
-263.117
  0
LINE
  8
0
 10
-180.012
 11
-180.561
 20
-263.117
 21
-261.937
  0
LINE
  8
0
 10
-180.561
 11
-180.573
 20
-261.937
 21
-261.912
  0
LINE
  8
0
 10
-180.573
 11
-181.116
 20
-261.912
 21
-260.749
  0
LINE
  8
0
 10
-181.116
 11
-181.13
 20
-260.749
 21
-260.691
  0
LINE
  8
0
 10
-181.13
 11
-181.234
 20
-260.691
 21
-260.301
  0
LINE
  8
0
 10
-181.234
 11
-181.272
 20
-260.301
 21
-260.167
  0
LINE
  8
0
 10
-181.272
 11
-181.476
 20
-260.167
 21
-259.399
  0
LINE
  8
0
 10
-181.476
 11
-181.55
 20
-259.399
 21
-259.123
  0
LINE
  8
0
 10
-181.55
 11
-181.702
 20
-259.123
 21
-258.561
  0
LINE
  8
0
 10
-181.702
 11
-181.71
 20
-258.561
 21
-258.531
  0
LINE
  8
0
 10
-181.71
 11
-181.73
 20
-258.531
 21
-258.455
  0
LINE
  8
0
 10
-181.73
 11
-181.754
 20
-258.455
 21
-258.367
  0
LINE
  8
0
 10
-181.754
 11
-181.794
 20
-258.367
 21
-258.223
  0
LINE
  8
0
 10
-181.794
 11
-181.866
 20
-258.223
 21
-257.389
  0
LINE
  8
0
 10
-181.866
 11
-182.02
 20
-257.389
 21
-255.617
  0
LINE
  8
0
 10
-158.771
 11
-158.728
 20
-77.27
 21
-76.831
  0
LINE
  8
0
 10
-158.728
 11
-158.6
 20
-76.831
 21
-76.409
  0
LINE
  8
0
 10
-158.6
 11
-158.392
 20
-76.409
 21
-76.02
  0
LINE
  8
0
 10
-158.392
 11
-158.112
 20
-76.02
 21
-75.679
  0
LINE
  8
0
 10
-158.112
 11
-157.771
 20
-75.679
 21
-75.399
  0
LINE
  8
0
 10
-157.771
 11
-157.382
 20
-75.399
 21
-75.191
  0
LINE
  8
0
 10
-157.382
 11
-156.96
 20
-75.191
 21
-75.063
  0
LINE
  8
0
 10
-156.96
 11
-156.521
 20
-75.063
 21
-75.02
  0
LINE
  8
0
 10
-156.521
 11
-156.082
 20
-75.02
 21
-75.063
  0
LINE
  8
0
 10
-156.082
 11
-155.66
 20
-75.063
 21
-75.191
  0
LINE
  8
0
 10
-155.66
 11
-155.271
 20
-75.191
 21
-75.399
  0
LINE
  8
0
 10
-155.271
 11
-154.93
 20
-75.399
 21
-75.679
  0
LINE
  8
0
 10
-154.93
 11
-154.65
 20
-75.679
 21
-76.02
  0
LINE
  8
0
 10
-154.65
 11
-154.442
 20
-76.02
 21
-76.409
  0
LINE
  8
0
 10
-154.442
 11
-154.314
 20
-76.409
 21
-76.831
  0
LINE
  8
0
 10
-154.314
 11
-154.271
 20
-76.831
 21
-77.27
  0
LINE
  8
0
 10
-154.271
 11
-154.314
 20
-77.27
 21
-77.709
  0
LINE
  8
0
 10
-154.314
 11
-154.442
 20
-77.709
 21
-78.131
  0
LINE
  8
0
 10
-154.442
 11
-154.65
 20
-78.131
 21
-78.52
  0
LINE
  8
0
 10
-154.65
 11
-154.93
 20
-78.52
 21
-78.861
  0
LINE
  8
0
 10
-154.93
 11
-155.271
 20
-78.861
 21
-79.141
  0
LINE
  8
0
 10
-155.271
 11
-155.66
 20
-79.141
 21
-79.349
  0
LINE
  8
0
 10
-155.66
 11
-156.082
 20
-79.349
 21
-79.477
  0
LINE
  8
0
 10
-156.082
 11
-156.521
 20
-79.477
 21
-79.52
  0
LINE
  8
0
 10
-156.521
 11
-156.96
 20
-79.52
 21
-79.477
  0
LINE
  8
0
 10
-156.96
 11
-157.382
 20
-79.477
 21
-79.349
  0
LINE
  8
0
 10
-157.382
 11
-157.771
 20
-79.349
 21
-79.141
  0
LINE
  8
0
 10
-157.771
 11
-158.112
 20
-79.141
 21
-78.861
  0
LINE
  8
0
 10
-158.112
 11
-158.392
 20
-78.861
 21
-78.52
  0
LINE
  8
0
 10
-158.392
 11
-158.6
 20
-78.52
 21
-78.131
  0
LINE
  8
0
 10
-158.6
 11
-158.728
 20
-78.131
 21
-77.709
  0
LINE
  8
0
 10
-158.728
 11
-158.771
 20
-77.709
 21
-77.27
  0
LINE
  8
0
 10
-158.771
 11
-158.728
 20
-34.17
 21
-33.731
  0
LINE
  8
0
 10
-158.728
 11
-158.6
 20
-33.731
 21
-33.309
  0
LINE
  8
0
 10
-158.6
 11
-158.541
 20
-33.309
 21
-33.199
  0
LINE
  8
0
 10
-158.541
 11
-158.392
 20
-33.199
 21
-32.92
  0
LINE
  8
0
 10
-158.392
 11
-158.112
 20
-32.92
 21
-32.579
  0
LINE
  8
0
 10
-158.112
 11
-157.771
 20
-32.579
 21
-32.299
  0
LINE
  8
0
 10
-157.771
 11
-157.382
 20
-32.299
 21
-32.091
  0
LINE
  8
0
 10
-157.382
 11
-156.96
 20
-32.091
 21
-31.963
  0
LINE
  8
0
 10
-156.96
 11
-156.521
 20
-31.963
 21
-31.92
  0
LINE
  8
0
 10
-156.521
 11
-156.082
 20
-31.92
 21
-31.963
  0
LINE
  8
0
 10
-156.082
 11
-155.66
 20
-31.963
 21
-32.091
  0
LINE
  8
0
 10
-155.66
 11
-155.271
 20
-32.091
 21
-32.299
  0
LINE
  8
0
 10
-155.271
 11
-154.93
 20
-32.299
 21
-32.579
  0
LINE
  8
0
 10
-154.93
 11
-154.65
 20
-32.579
 21
-32.92
  0
LINE
  8
0
 10
-154.65
 11
-154.442
 20
-32.92
 21
-33.309
  0
LINE
  8
0
 10
-154.442
 11
-154.314
 20
-33.309
 21
-33.731
  0
LINE
  8
0
 10
-154.314
 11
-154.271
 20
-33.731
 21
-34.17
  0
LINE
  8
0
 10
-154.271
 11
-154.314
 20
-34.17
 21
-34.609
  0
LINE
  8
0
 10
-154.314
 11
-154.442
 20
-34.609
 21
-35.031
  0
LINE
  8
0
 10
-154.442
 11
-154.65
 20
-35.031
 21
-35.42
  0
LINE
  8
0
 10
-154.65
 11
-154.93
 20
-35.42
 21
-35.761
  0
LINE
  8
0
 10
-154.93
 11
-155.115
 20
-35.761
 21
-35.913
  0
LINE
  8
0
 10
-155.115
 11
-155.271
 20
-35.913
 21
-36.041
  0
LINE
  8
0
 10
-155.271
 11
-155.66
 20
-36.041
 21
-36.249
  0
LINE
  8
0
 10
-155.66
 11
-156.082
 20
-36.249
 21
-36.377
  0
LINE
  8
0
 10
-156.082
 11
-156.521
 20
-36.377
 21
-36.42
  0
LINE
  8
0
 10
-156.521
 11
-156.96
 20
-36.42
 21
-36.377
  0
LINE
  8
0
 10
-156.96
 11
-157.382
 20
-36.377
 21
-36.249
  0
LINE
  8
0
 10
-157.382
 11
-157.771
 20
-36.249
 21
-36.041
  0
LINE
  8
0
 10
-157.771
 11
-158.112
 20
-36.041
 21
-35.761
  0
LINE
  8
0
 10
-158.112
 11
-158.392
 20
-35.761
 21
-35.42
  0
LINE
  8
0
 10
-158.392
 11
-158.6
 20
-35.42
 21
-35.031
  0
LINE
  8
0
 10
-158.6
 11
-158.728
 20
-35.031
 21
-34.609
  0
LINE
  8
0
 10
-158.728
 11
-158.771
 20
-34.609
 21
-34.17
  0
LINE
  8
0
 10
-152.271
 11
-152.228
 20
-29.02
 21
-28.581
  0
LINE
  8
0
 10
-152.228
 11
-152.1
 20
-28.581
 21
-28.159
  0
LINE
  8
0
 10
-152.1
 11
-151.892
 20
-28.159
 21
-27.77
  0
LINE
  8
0
 10
-151.892
 11
-151.612
 20
-27.77
 21
-27.429
  0
LINE
  8
0
 10
-151.612
 11
-151.271
 20
-27.429
 21
-27.149
  0
LINE
  8
0
 10
-151.271
 11
-150.882
 20
-27.149
 21
-26.941
  0
LINE
  8
0
 10
-150.882
 11
-150.46
 20
-26.941
 21
-26.813
  0
LINE
  8
0
 10
-150.46
 11
-150.021
 20
-26.813
 21
-26.77
  0
LINE
  8
0
 10
-150.021
 11
-149.582
 20
-26.77
 21
-26.813
  0
LINE
  8
0
 10
-149.582
 11
-149.16
 20
-26.813
 21
-26.941
  0
LINE
  8
0
 10
-149.16
 11
-148.771
 20
-26.941
 21
-27.149
  0
LINE
  8
0
 10
-148.771
 11
-148.43
 20
-27.149
 21
-27.429
  0
LINE
  8
0
 10
-148.43
 11
-148.15
 20
-27.429
 21
-27.77
  0
LINE
  8
0
 10
-148.15
 11
-147.942
 20
-27.77
 21
-28.159
  0
LINE
  8
0
 10
-147.942
 11
-147.814
 20
-28.159
 21
-28.581
  0
LINE
  8
0
 10
-147.814
 11
-147.771
 20
-28.581
 21
-29.02
  0
LINE
  8
0
 10
-147.771
 11
-147.814
 20
-29.02
 21
-29.459
  0
LINE
  8
0
 10
-147.814
 11
-147.942
 20
-29.459
 21
-29.881
  0
LINE
  8
0
 10
-147.942
 11
-148.15
 20
-29.881
 21
-30.27
  0
LINE
  8
0
 10
-148.15
 11
-148.43
 20
-30.27
 21
-30.611
  0
LINE
  8
0
 10
-148.43
 11
-148.771
 20
-30.611
 21
-30.891
  0
LINE
  8
0
 10
-148.771
 11
-149.16
 20
-30.891
 21
-31.099
  0
LINE
  8
0
 10
-149.16
 11
-149.582
 20
-31.099
 21
-31.227
  0
LINE
  8
0
 10
-149.582
 11
-150.021
 20
-31.227
 21
-31.27
  0
LINE
  8
0
 10
-150.021
 11
-150.46
 20
-31.27
 21
-31.227
  0
LINE
  8
0
 10
-150.46
 11
-150.882
 20
-31.227
 21
-31.099
  0
LINE
  8
0
 10
-150.882
 11
-151.271
 20
-31.099
 21
-30.891
  0
LINE
  8
0
 10
-151.271
 11
-151.612
 20
-30.891
 21
-30.611
  0
LINE
  8
0
 10
-151.612
 11
-151.892
 20
-30.611
 21
-30.27
  0
LINE
  8
0
 10
-151.892
 11
-152.1
 20
-30.27
 21
-29.881
  0
LINE
  8
0
 10
-152.1
 11
-152.228
 20
-29.881
 21
-29.459
  0
LINE
  8
0
 10
-152.228
 11
-152.271
 20
-29.459
 21
-29.02
  0
LINE
  8
0
 10
-77.271
 11
-77.228
 20
-77.27
 21
-76.831
  0
LINE
  8
0
 10
-77.228
 11
-77.1
 20
-76.831
 21
-76.409
  0
LINE
  8
0
 10
-77.1
 11
-76.892
 20
-76.409
 21
-76.02
  0
LINE
  8
0
 10
-76.892
 11
-76.612
 20
-76.02
 21
-75.679
  0
LINE
  8
0
 10
-76.612
 11
-76.271
 20
-75.679
 21
-75.399
  0
LINE
  8
0
 10
-76.271
 11
-76.138
 20
-75.399
 21
-75.328
  0
LINE
  8
0
 10
-76.138
 11
-75.882
 20
-75.328
 21
-75.191
  0
LINE
  8
0
 10
-75.882
 11
-75.46
 20
-75.191
 21
-75.063
  0
LINE
  8
0
 10
-75.46
 11
-75.021
 20
-75.063
 21
-75.02
  0
LINE
  8
0
 10
-75.021
 11
-74.582
 20
-75.02
 21
-75.063
  0
LINE
  8
0
 10
-74.582
 11
-74.16
 20
-75.063
 21
-75.191
  0
LINE
  8
0
 10
-74.16
 11
-73.771
 20
-75.191
 21
-75.399
  0
LINE
  8
0
 10
-73.771
 11
-73.43
 20
-75.399
 21
-75.679
  0
LINE
  8
0
 10
-73.43
 11
-73.15
 20
-75.679
 21
-76.02
  0
LINE
  8
0
 10
-73.15
 11
-72.942
 20
-76.02
 21
-76.409
  0
LINE
  8
0
 10
-72.942
 11
-72.814
 20
-76.409
 21
-76.831
  0
LINE
  8
0
 10
-72.814
 11
-72.771
 20
-76.831
 21
-77.27
  0
LINE
  8
0
 10
-72.771
 11
-72.814
 20
-77.27
 21
-77.709
  0
LINE
  8
0
 10
-72.814
 11
-72.906
 20
-77.709
 21
-78.013
  0
LINE
  8
0
 10
-72.906
 11
-72.942
 20
-78.013
 21
-78.131
  0
LINE
  8
0
 10
-72.942
 11
-73.15
 20
-78.131
 21
-78.52
  0
LINE
  8
0
 10
-73.15
 11
-73.43
 20
-78.52
 21
-78.861
  0
LINE
  8
0
 10
-73.43
 11
-73.771
 20
-78.861
 21
-79.141
  0
LINE
  8
0
 10
-73.771
 11
-74.16
 20
-79.141
 21
-79.349
  0
LINE
  8
0
 10
-74.16
 11
-74.582
 20
-79.349
 21
-79.477
  0
LINE
  8
0
 10
-74.582
 11
-75.021
 20
-79.477
 21
-79.52
  0
LINE
  8
0
 10
-75.021
 11
-75.46
 20
-79.52
 21
-79.477
  0
LINE
  8
0
 10
-75.46
 11
-75.882
 20
-79.477
 21
-79.349
  0
LINE
  8
0
 10
-75.882
 11
-76.271
 20
-79.349
 21
-79.141
  0
LINE
  8
0
 10
-76.271
 11
-76.612
 20
-79.141
 21
-78.861
  0
LINE
  8
0
 10
-76.612
 11
-76.892
 20
-78.861
 21
-78.52
  0
LINE
  8
0
 10
-76.892
 11
-77.1
 20
-78.52
 21
-78.131
  0
LINE
  8
0
 10
-77.1
 11
-77.228
 20
-78.131
 21
-77.709
  0
LINE
  8
0
 10
-77.228
 11
-77.271
 20
-77.709
 21
-77.27
  0
LINE
  8
0
 10
-77.271
 11
-77.228
 20
-29.02
 21
-28.581
  0
LINE
  8
0
 10
-77.228
 11
-77.1
 20
-28.581
 21
-28.159
  0
LINE
  8
0
 10
-77.1
 11
-76.892
 20
-28.159
 21
-27.77
  0
LINE
  8
0
 10
-76.892
 11
-76.612
 20
-27.77
 21
-27.429
  0
LINE
  8
0
 10
-76.612
 11
-76.271
 20
-27.429
 21
-27.149
  0
LINE
  8
0
 10
-76.271
 11
-75.882
 20
-27.149
 21
-26.941
  0
LINE
  8
0
 10
-75.882
 11
-75.46
 20
-26.941
 21
-26.813
  0
LINE
  8
0
 10
-75.46
 11
-75.021
 20
-26.813
 21
-26.77
  0
LINE
  8
0
 10
-75.021
 11
-74.582
 20
-26.77
 21
-26.813
  0
LINE
  8
0
 10
-74.582
 11
-74.16
 20
-26.813
 21
-26.941
  0
LINE
  8
0
 10
-74.16
 11
-73.771
 20
-26.941
 21
-27.149
  0
LINE
  8
0
 10
-73.771
 11
-73.43
 20
-27.149
 21
-27.429
  0
LINE
  8
0
 10
-73.43
 11
-73.15
 20
-27.429
 21
-27.77
  0
LINE
  8
0
 10
-73.15
 11
-72.942
 20
-27.77
 21
-28.159
  0
LINE
  8
0
 10
-72.942
 11
-72.814
 20
-28.159
 21
-28.581
  0
LINE
  8
0
 10
-72.814
 11
-72.771
 20
-28.581
 21
-29.02
  0
LINE
  8
0
 10
-72.771
 11
-72.814
 20
-29.02
 21
-29.459
  0
LINE
  8
0
 10
-72.814
 11
-72.942
 20
-29.459
 21
-29.881
  0
LINE
  8
0
 10
-72.942
 11
-73.15
 20
-29.881
 21
-30.27
  0
LINE
  8
0
 10
-73.15
 11
-73.43
 20
-30.27
 21
-30.611
  0
LINE
  8
0
 10
-73.43
 11
-73.771
 20
-30.611
 21
-30.891
  0
LINE
  8
0
 10
-73.771
 11
-74.16
 20
-30.891
 21
-31.099
  0
LINE
  8
0
 10
-74.16
 11
-74.582
 20
-31.099
 21
-31.227
  0
LINE
  8
0
 10
-74.582
 11
-75.021
 20
-31.227
 21
-31.27
  0
LINE
  8
0
 10
-75.021
 11
-75.46
 20
-31.27
 21
-31.227
  0
LINE
  8
0
 10
-75.46
 11
-75.882
 20
-31.227
 21
-31.099
  0
LINE
  8
0
 10
-75.882
 11
-76.271
 20
-31.099
 21
-30.891
  0
LINE
  8
0
 10
-76.271
 11
-76.612
 20
-30.891
 21
-30.611
  0
LINE
  8
0
 10
-76.612
 11
-76.892
 20
-30.611
 21
-30.27
  0
LINE
  8
0
 10
-76.892
 11
-77.1
 20
-30.27
 21
-29.881
  0
LINE
  8
0
 10
-77.1
 11
-77.228
 20
-29.881
 21
-29.459
  0
LINE
  8
0
 10
-77.228
 11
-77.271
 20
-29.459
 21
-29.02
  0
LINE
  8
0
 10
-66.271
 11
-66.228
 20
-77.27
 21
-76.831
  0
LINE
  8
0
 10
-66.228
 11
-66.1
 20
-76.831
 21
-76.409
  0
LINE
  8
0
 10
-66.1
 11
-65.892
 20
-76.409
 21
-76.02
  0
LINE
  8
0
 10
-65.892
 11
-65.612
 20
-76.02
 21
-75.679
  0
LINE
  8
0
 10
-65.612
 11
-65.271
 20
-75.679
 21
-75.399
  0
LINE
  8
0
 10
-65.271
 11
-64.882
 20
-75.399
 21
-75.191
  0
LINE
  8
0
 10
-64.882
 11
-64.46
 20
-75.191
 21
-75.063
  0
LINE
  8
0
 10
-64.46
 11
-64.021
 20
-75.063
 21
-75.02
  0
LINE
  8
0
 10
-64.021
 11
-63.582
 20
-75.02
 21
-75.063
  0
LINE
  8
0
 10
-63.582
 11
-63.16
 20
-75.063
 21
-75.191
  0
LINE
  8
0
 10
-63.16
 11
-62.771
 20
-75.191
 21
-75.399
  0
LINE
  8
0
 10
-62.771
 11
-62.43
 20
-75.399
 21
-75.679
  0
LINE
  8
0
 10
-62.43
 11
-62.15
 20
-75.679
 21
-76.02
  0
LINE
  8
0
 10
-62.15
 11
-61.942
 20
-76.02
 21
-76.409
  0
LINE
  8
0
 10
-61.942
 11
-61.814
 20
-76.409
 21
-76.831
  0
LINE
  8
0
 10
-61.814
 11
-61.771
 20
-76.831
 21
-77.27
  0
LINE
  8
0
 10
-61.771
 11
-61.814
 20
-77.27
 21
-77.709
  0
LINE
  8
0
 10
-61.814
 11
-61.942
 20
-77.709
 21
-78.131
  0
LINE
  8
0
 10
-61.942
 11
-62.15
 20
-78.131
 21
-78.52
  0
LINE
  8
0
 10
-62.15
 11
-62.43
 20
-78.52
 21
-78.861
  0
LINE
  8
0
 10
-62.43
 11
-62.771
 20
-78.861
 21
-79.141
  0
LINE
  8
0
 10
-62.771
 11
-63.16
 20
-79.141
 21
-79.349
  0
LINE
  8
0
 10
-63.16
 11
-63.582
 20
-79.349
 21
-79.477
  0
LINE
  8
0
 10
-63.582
 11
-64.021
 20
-79.477
 21
-79.52
  0
LINE
  8
0
 10
-64.021
 11
-64.46
 20
-79.52
 21
-79.477
  0
LINE
  8
0
 10
-64.46
 11
-64.882
 20
-79.477
 21
-79.349
  0
LINE
  8
0
 10
-64.882
 11
-65.271
 20
-79.349
 21
-79.141
  0
LINE
  8
0
 10
-65.271
 11
-65.612
 20
-79.141
 21
-78.861
  0
LINE
  8
0
 10
-65.612
 11
-65.892
 20
-78.861
 21
-78.52
  0
LINE
  8
0
 10
-65.892
 11
-66.1
 20
-78.52
 21
-78.131
  0
LINE
  8
0
 10
-66.1
 11
-66.228
 20
-78.131
 21
-77.709
  0
LINE
  8
0
 10
-66.228
 11
-66.271
 20
-77.709
 21
-77.27
  0
LINE
  8
0
 10
-66.271
 11
-66.228
 20
-34.17
 21
-33.731
  0
LINE
  8
0
 10
-66.228
 11
-66.1
 20
-33.731
 21
-33.309
  0
LINE
  8
0
 10
-66.1
 11
-65.892
 20
-33.309
 21
-32.92
  0
LINE
  8
0
 10
-65.892
 11
-65.612
 20
-32.92
 21
-32.579
  0
LINE
  8
0
 10
-65.612
 11
-65.271
 20
-32.579
 21
-32.299
  0
LINE
  8
0
 10
-65.271
 11
-64.882
 20
-32.299
 21
-32.091
  0
LINE
  8
0
 10
-64.882
 11
-64.558
 20
-32.091
 21
-31.993
  0
LINE
  8
0
 10
-64.558
 11
-64.46
 20
-31.993
 21
-31.963
  0
LINE
  8
0
 10
-64.46
 11
-64.021
 20
-31.963
 21
-31.92
  0
LINE
  8
0
 10
-64.021
 11
-63.582
 20
-31.92
 21
-31.963
  0
LINE
  8
0
 10
-63.582
 11
-63.16
 20
-31.963
 21
-32.091
  0
LINE
  8
0
 10
-63.16
 11
-62.771
 20
-32.091
 21
-32.299
  0
LINE
  8
0
 10
-62.771
 11
-62.43
 20
-32.299
 21
-32.579
  0
LINE
  8
0
 10
-62.43
 11
-62.15
 20
-32.579
 21
-32.92
  0
LINE
  8
0
 10
-62.15
 11
-62.067
 20
-32.92
 21
-33.075
  0
LINE
  8
0
 10
-62.067
 11
-62.004
 20
-33.075
 21
-33.193
  0
LINE
  8
0
 10
-62.004
 11
-61.991
 20
-33.193
 21
-33.218
  0
LINE
  8
0
 10
-61.991
 11
-61.942
 20
-33.218
 21
-33.309
  0
LINE
  8
0
 10
-61.942
 11
-61.814
 20
-33.309
 21
-33.731
  0
LINE
  8
0
 10
-61.814
 11
-61.771
 20
-33.731
 21
-34.17
  0
LINE
  8
0
 10
-61.771
 11
-61.813
 20
-34.17
 21
-34.595
  0
LINE
  8
0
 10
-61.813
 11
-61.942
 20
-34.595
 21
-35.031
  0
LINE
  8
0
 10
-61.942
 11
-62.15
 20
-35.031
 21
-35.42
  0
LINE
  8
0
 10
-62.15
 11
-62.43
 20
-35.42
 21
-35.761
  0
LINE
  8
0
 10
-62.43
 11
-62.771
 20
-35.761
 21
-36.041
  0
LINE
  8
0
 10
-62.771
 11
-63.16
 20
-36.041
 21
-36.249
  0
LINE
  8
0
 10
-63.16
 11
-63.582
 20
-36.249
 21
-36.377
  0
LINE
  8
0
 10
-63.582
 11
-64.021
 20
-36.377
 21
-36.42
  0
LINE
  8
0
 10
-64.021
 11
-64.46
 20
-36.42
 21
-36.377
  0
LINE
  8
0
 10
-64.46
 11
-64.882
 20
-36.377
 21
-36.249
  0
LINE
  8
0
 10
-64.882
 11
-65.271
 20
-36.249
 21
-36.041
  0
LINE
  8
0
 10
-65.271
 11
-65.612
 20
-36.041
 21
-35.761
  0
LINE
  8
0
 10
-65.612
 11
-65.892
 20
-35.761
 21
-35.42
  0
LINE
  8
0
 10
-65.892
 11
-66.1
 20
-35.42
 21
-35.031
  0
LINE
  8
0
 10
-66.1
 11
-66.228
 20
-35.031
 21
-34.609
  0
LINE
  8
0
 10
-66.228
 11
-66.271
 20
-34.609
 21
-34.17
  0
LINE
  8
0
 10
-40.022
 11
-39.956
 20
-287.52
 21
-286.849
  0
LINE
  8
0
 10
-39.956
 11
-39.811
 20
-286.849
 21
-285.374
  0
LINE
  8
0
 10
-39.811
 11
-39.185
 20
-285.374
 21
-283.311
  0
LINE
  8
0
 10
-39.185
 11
-38.168
 20
-283.311
 21
-281.409
  0
LINE
  8
0
 10
-38.168
 11
-37.99
 20
-281.409
 21
-281.192
  0
LINE
  8
0
 10
-37.99
 11
-36.8
 20
-281.192
 21
-279.742
  0
LINE
  8
0
 10
-36.8
 11
-35.133
 20
-279.742
 21
-278.374
  0
LINE
  8
0
 10
-35.133
 11
-34.579
 20
-278.374
 21
-278.077
  0
LINE
  8
0
 10
-34.579
 11
-33.232
 20
-278.077
 21
-277.357
  0
LINE
  8
0
 10
-33.232
 11
-31.168
 20
-277.357
 21
-276.731
  0
LINE
  8
0
 10
-31.168
 11
-29.022
 20
-276.731
 21
-276.52
  0
LINE
  8
0
 10
-29.022
 11
-28.238
 20
-276.52
 21
-276.597
  0
LINE
  8
0
 10
-28.238
 11
-28.15
 20
-276.597
 21
-276.606
  0
LINE
  8
0
 10
-28.15
 11
-28.021
 20
-276.606
 21
-276.619
  0
LINE
  8
0
 10
-28.021
 11
-27.924
 20
-276.619
 21
-276.628
  0
LINE
  8
0
 10
-27.924
 11
-27.782
 20
-276.628
 21
-276.642
  0
LINE
  8
0
 10
-27.782
 11
-26.876
 20
-276.642
 21
-276.731
  0
LINE
  8
0
 10
-26.876
 11
-24.813
 20
-276.731
 21
-277.357
  0
LINE
  8
0
 10
-24.813
 11
-22.911
 20
-277.357
 21
-278.374
  0
LINE
  8
0
 10
-22.911
 11
-21.244
 20
-278.374
 21
-279.742
  0
LINE
  8
0
 10
-21.244
 11
-19.876
 20
-279.742
 21
-281.409
  0
LINE
  8
0
 10
-19.876
 11
-18.859
 20
-281.409
 21
-283.311
  0
LINE
  8
0
 10
-18.859
 11
-18.73
 20
-283.311
 21
-283.736
  0
LINE
  8
0
 10
-18.73
 11
-18.721
 20
-283.736
 21
-283.767
  0
LINE
  8
0
 10
-18.721
 11
-18.707
 20
-283.767
 21
-283.814
  0
LINE
  8
0
 10
-18.707
 11
-18.696
 20
-283.814
 21
-283.849
  0
LINE
  8
0
 10
-18.696
 11
-18.68
 20
-283.849
 21
-283.902
  0
LINE
  8
0
 10
-18.68
 11
-18.663
 20
-283.902
 21
-283.958
  0
LINE
  8
0
 10
-18.663
 11
-18.651
 20
-283.958
 21
-283.996
  0
LINE
  8
0
 10
-18.651
 11
-18.634
 20
-283.996
 21
-284.054
  0
LINE
  8
0
 10
-18.634
 11
-18.622
 20
-284.054
 21
-284.093
  0
LINE
  8
0
 10
-18.622
 11
-18.605
 20
-284.093
 21
-284.15
  0
LINE
  8
0
 10
-18.605
 11
-18.593
 20
-284.15
 21
-284.188
  0
LINE
  8
0
 10
-18.593
 11
-18.577
 20
-284.188
 21
-284.24
  0
LINE
  8
0
 10
-18.577
 11
-18.567
 20
-284.24
 21
-284.276
  0
LINE
  8
0
 10
-18.567
 11
-18.552
 20
-284.276
 21
-284.322
  0
LINE
  8
0
 10
-18.552
 11
-18.543
 20
-284.322
 21
-284.354
  0
LINE
  8
0
 10
-18.543
 11
-18.233
 20
-284.354
 21
-285.374
  0
LINE
  8
0
 10
-18.233
 11
-18.022
 20
-285.374
 21
-287.52
  0
LINE
  8
0
 10
-18.022
 11
-18.233
 20
-287.52
 21
-289.666
  0
LINE
  8
0
 10
-18.233
 11
-18.859
 20
-289.666
 21
-291.73
  0
LINE
  8
0
 10
-18.859
 11
-19.876
 20
-291.73
 21
-293.631
  0
LINE
  8
0
 10
-19.876
 11
-21.244
 20
-293.631
 21
-295.298
  0
LINE
  8
0
 10
-21.244
 11
-22.911
 20
-295.298
 21
-296.666
  0
LINE
  8
0
 10
-22.911
 11
-24.813
 20
-296.666
 21
-297.683
  0
LINE
  8
0
 10
-24.813
 11
-26.876
 20
-297.683
 21
-298.309
  0
LINE
  8
0
 10
-26.876
 11
-29.022
 20
-298.309
 21
-298.52
  0
LINE
  8
0
 10
-29.022
 11
-31.168
 20
-298.52
 21
-298.309
  0
LINE
  8
0
 10
-31.168
 11
-33.232
 20
-298.309
 21
-297.683
  0
LINE
  8
0
 10
-33.232
 11
-35.133
 20
-297.683
 21
-296.666
  0
LINE
  8
0
 10
-35.133
 11
-36.573
 20
-296.666
 21
-295.485
  0
LINE
  8
0
 10
-36.573
 11
-36.665
 20
-295.485
 21
-295.409
  0
LINE
  8
0
 10
-36.665
 11
-36.802
 20
-295.409
 21
-295.296
  0
LINE
  8
0
 10
-36.802
 11
-36.885
 20
-295.296
 21
-295.195
  0
LINE
  8
0
 10
-36.885
 11
-37.008
 20
-295.195
 21
-295.045
  0
LINE
  8
0
 10
-37.008
 11
-37.098
 20
-295.045
 21
-294.935
  0
LINE
  8
0
 10
-37.098
 11
-37.231
 20
-294.935
 21
-294.773
  0
LINE
  8
0
 10
-37.231
 11
-37.325
 20
-294.773
 21
-294.659
  0
LINE
  8
0
 10
-37.325
 11
-37.462
 20
-294.659
 21
-294.492
  0
LINE
  8
0
 10
-37.462
 11
-37.554
 20
-294.492
 21
-294.379
  0
LINE
  8
0
 10
-37.554
 11
-37.69
 20
-294.379
 21
-294.214
  0
LINE
  8
0
 10
-37.69
 11
-37.817
 20
-294.214
 21
-294.059
  0
LINE
  8
0
 10
-37.817
 11
-37.904
 20
-294.059
 21
-293.953
  0
LINE
  8
0
 10
-37.904
 11
-38.018
 20
-293.953
 21
-293.814
  0
LINE
  8
0
 10
-38.018
 11
-38.095
 20
-293.814
 21
-293.72
  0
LINE
  8
0
 10
-38.095
 11
-38.168
 20
-293.72
 21
-293.631
  0
LINE
  8
0
 10
-38.168
 11
-39.161
 20
-293.631
 21
-291.775
  0
LINE
  8
0
 10
-39.161
 11
-39.185
 20
-291.775
 21
-291.73
  0
LINE
  8
0
 10
-39.185
 11
-39.242
 20
-291.73
 21
-291.54
  0
LINE
  8
0
 10
-39.242
 11
-39.292
 20
-291.54
 21
-291.375
  0
LINE
  8
0
 10
-39.292
 11
-39.358
 20
-291.375
 21
-291.157
  0
LINE
  8
0
 10
-39.358
 11
-39.403
 20
-291.157
 21
-291.01
  0
LINE
  8
0
 10
-39.403
 11
-39.811
 20
-291.01
 21
-289.666
  0
LINE
  8
0
 10
-39.811
 11
-39.866
 20
-289.666
 21
-289.1
  0
LINE
  8
0
 10
-39.866
 11
-40.022
 20
-289.1
 21
-287.52
  0
ENDSEC
  0
SECTION
  2
OBJECTS
  0
DICTIONARY
  0
ENDSEC
  0
EOF
