  0
SECTION
  2
BLOCKS
  0
ENDSEC
  0
SECTION
  2
ENTITIES
  0
LINE
  8
0
 10
17.998
 11
18.209
 20
287.48
 21
289.626
  0
LINE
  8
0
 10
18.209
 11
18.835
 20
289.626
 21
291.689
  0
LINE
  8
0
 10
18.835
 11
19.852
 20
291.689
 21
293.591
  0
LINE
  8
0
 10
19.852
 11
21.22
 20
293.591
 21
295.258
  0
LINE
  8
0
 10
21.22
 11
22.887
 20
295.258
 21
296.626
  0
LINE
  8
0
 10
22.887
 11
24.789
 20
296.626
 21
297.643
  0
LINE
  8
0
 10
24.789
 11
26.852
 20
297.643
 21
298.269
  0
LINE
  8
0
 10
26.852
 11
28.998
 20
298.269
 21
298.48
  0
LINE
  8
0
 10
28.998
 11
31.144
 20
298.48
 21
298.269
  0
LINE
  8
0
 10
31.144
 11
33.208
 20
298.269
 21
297.643
  0
LINE
  8
0
 10
33.208
 11
35.109
 20
297.643
 21
296.626
  0
LINE
  8
0
 10
35.109
 11
36.549
 20
296.626
 21
295.445
  0
LINE
  8
0
 10
36.549
 11
36.641
 20
295.445
 21
295.369
  0
LINE
  8
0
 10
36.641
 11
36.778
 20
295.369
 21
295.256
  0
LINE
  8
0
 10
36.778
 11
36.861
 20
295.256
 21
295.155
  0
LINE
  8
0
 10
36.861
 11
36.984
 20
295.155
 21
295.005
  0
LINE
  8
0
 10
36.984
 11
37.074
 20
295.005
 21
294.895
  0
LINE
  8
0
 10
37.074
 11
37.207
 20
294.895
 21
294.733
  0
LINE
  8
0
 10
37.207
 11
37.301
 20
294.733
 21
294.619
  0
LINE
  8
0
 10
37.301
 11
37.438
 20
294.619
 21
294.452
  0
LINE
  8
0
 10
37.438
 11
37.53
 20
294.452
 21
294.339
  0
LINE
  8
0
 10
37.53
 11
37.666
 20
294.339
 21
294.174
  0
LINE
  8
0
 10
37.666
 11
37.793
 20
294.174
 21
294.019
  0
LINE
  8
0
 10
37.793
 11
37.88
 20
294.019
 21
293.913
  0
LINE
  8
0
 10
37.88
 11
37.994
 20
293.913
 21
293.774
  0
LINE
  8
0
 10
37.994
 11
38.071
 20
293.774
 21
293.68
  0
LINE
  8
0
 10
38.071
 11
38.144
 20
293.68
 21
293.591
  0
LINE
  8
0
 10
38.144
 11
39.137
 20
293.591
 21
291.735
  0
LINE
  8
0
 10
39.137
 11
39.161
 20
291.735
 21
291.689
  0
LINE
  8
0
 10
39.161
 11
39.218
 20
291.689
 21
291.5
  0
LINE
  8
0
 10
39.218
 11
39.268
 20
291.5
 21
291.335
  0
LINE
  8
0
 10
39.268
 11
39.334
 20
291.335
 21
291.117
  0
LINE
  8
0
 10
39.334
 11
39.379
 20
291.117
 21
290.97
  0
LINE
  8
0
 10
39.379
 11
39.787
 20
290.97
 21
289.626
  0
LINE
  8
0
 10
39.787
 11
39.842
 20
289.626
 21
289.06
  0
LINE
  8
0
 10
39.842
 11
39.998
 20
289.06
 21
287.48
  0
LINE
  8
0
 10
39.998
 11
39.932
 20
287.48
 21
286.809
  0
LINE
  8
0
 10
39.932
 11
39.787
 20
286.809
 21
285.334
  0
LINE
  8
0
 10
39.787
 11
39.161
 20
285.334
 21
283.27
  0
LINE
  8
0
 10
39.161
 11
38.144
 20
283.27
 21
281.369
  0
LINE
  8
0
 10
38.144
 11
37.966
 20
281.369
 21
281.152
  0
LINE
  8
0
 10
37.966
 11
36.776
 20
281.152
 21
279.702
  0
LINE
  8
0
 10
36.776
 11
35.109
 20
279.702
 21
278.334
  0
LINE
  8
0
 10
35.109
 11
34.555
 20
278.334
 21
278.037
  0
LINE
  8
0
 10
34.555
 11
33.208
 20
278.037
 21
277.317
  0
LINE
  8
0
 10
33.208
 11
31.144
 20
277.317
 21
276.691
  0
LINE
  8
0
 10
31.144
 11
28.998
 20
276.691
 21
276.48
  0
LINE
  8
0
 10
28.998
 11
28.214
 20
276.48
 21
276.557
  0
LINE
  8
0
 10
28.214
 11
28.126
 20
276.557
 21
276.566
  0
LINE
  8
0
 10
28.126
 11
27.997
 20
276.566
 21
276.579
  0
LINE
  8
0
 10
27.997
 11
27.9
 20
276.579
 21
276.588
  0
LINE
  8
0
 10
27.9
 11
27.758
 20
276.588
 21
276.602
  0
LINE
  8
0
 10
27.758
 11
26.852
 20
276.602
 21
276.691
  0
LINE
  8
0
 10
26.852
 11
24.789
 20
276.691
 21
277.317
  0
LINE
  8
0
 10
24.789
 11
22.887
 20
277.317
 21
278.334
  0
LINE
  8
0
 10
22.887
 11
21.22
 20
278.334
 21
279.702
  0
LINE
  8
0
 10
21.22
 11
19.852
 20
279.702
 21
281.369
  0
LINE
  8
0
 10
19.852
 11
18.835
 20
281.369
 21
283.27
  0
LINE
  8
0
 10
18.835
 11
18.706
 20
283.27
 21
283.696
  0
LINE
  8
0
 10
18.706
 11
18.697
 20
283.696
 21
283.727
  0
LINE
  8
0
 10
18.697
 11
18.683
 20
283.727
 21
283.774
  0
LINE
  8
0
 10
18.683
 11
18.672
 20
283.774
 21
283.809
  0
LINE
  8
0
 10
18.672
 11
18.656
 20
283.809
 21
283.862
  0
LINE
  8
0
 10
18.656
 11
18.639
 20
283.862
 21
283.918
  0
LINE
  8
0
 10
18.639
 11
18.627
 20
283.918
 21
283.956
  0
LINE
  8
0
 10
18.627
 11
18.61
 20
283.956
 21
284.014
  0
LINE
  8
0
 10
18.61
 11
18.598
 20
284.014
 21
284.053
  0
LINE
  8
0
 10
18.598
 11
18.581
 20
284.053
 21
284.109
  0
LINE
  8
0
 10
18.581
 11
18.569
 20
284.109
 21
284.148
  0
LINE
  8
0
 10
18.569
 11
18.553
 20
284.148
 21
284.2
  0
LINE
  8
0
 10
18.553
 11
18.543
 20
284.2
 21
284.236
  0
LINE
  8
0
 10
18.543
 11
18.528
 20
284.236
 21
284.282
  0
LINE
  8
0
 10
18.528
 11
18.519
 20
284.282
 21
284.313
  0
LINE
  8
0
 10
18.519
 11
18.209
 20
284.313
 21
285.334
  0
LINE
  8
0
 10
18.209
 11
17.998
 20
285.334
 21
287.48
  0
LINE
  8
0
 10
38
 11
38
 20
141.579
 21
255.577
  0
LINE
  8
0
 10
38
 11
38.226
 20
255.577
 21
258.183
  0
LINE
  8
0
 10
38.226
 11
38.248
 20
258.183
 21
258.264
  0
LINE
  8
0
 10
38.248
 11
38.904
 20
258.264
 21
260.709
  0
LINE
  8
0
 10
38.904
 11
40.008
 20
260.709
 21
263.077
  0
LINE
  8
0
 10
40.008
 11
40.256
 20
263.077
 21
263.43
  0
LINE
  8
0
 10
40.256
 11
41.508
 20
263.43
 21
265.219
  0
LINE
  8
0
 10
41.508
 11
43.358
 20
265.219
 21
267.069
  0
LINE
  8
0
 10
43.358
 11
45.502
 20
267.069
 21
268.569
  0
LINE
  8
0
 10
45.502
 11
46.353
 20
268.569
 21
268.966
  0
LINE
  8
0
 10
46.353
 11
47.868
 20
268.966
 21
269.673
  0
LINE
  8
0
 10
47.868
 11
50.394
 20
269.673
 21
270.351
  0
LINE
  8
0
 10
50.394
 11
53
 20
270.351
 21
270.577
  0
LINE
  8
0
 10
53
 11
139.498
 20
270.577
 21
270.577
  0
LINE
  8
0
 10
139.498
 11
141.081
 20
270.577
 21
270.439
  0
LINE
  8
0
 10
141.081
 11
142.104
 20
270.439
 21
270.351
  0
LINE
  8
0
 10
142.104
 11
144.63
 20
270.351
 21
269.673
  0
LINE
  8
0
 10
144.63
 11
145.138
 20
269.673
 21
269.435
  0
LINE
  8
0
 10
145.138
 11
146.422
 20
269.435
 21
268.837
  0
LINE
  8
0
 10
146.422
 11
146.946
 20
268.837
 21
268.593
  0
LINE
  8
0
 10
146.946
 11
146.998
 20
268.593
 21
268.569
  0
LINE
  8
0
 10
146.998
 11
147.03
 20
268.569
 21
268.545
  0
LINE
  8
0
 10
147.03
 11
147.044
 20
268.545
 21
268.535
  0
LINE
  8
0
 10
147.044
 11
147.12
 20
268.535
 21
268.483
  0
LINE
  8
0
 10
147.12
 11
147.154
 20
268.483
 21
268.459
  0
LINE
  8
0
 10
147.154
 11
147.308
 20
268.459
 21
268.351
  0
LINE
  8
0
 10
147.308
 11
147.586
 20
268.351
 21
268.157
  0
LINE
  8
0
 10
147.586
 11
148.418
 20
268.157
 21
267.575
  0
LINE
  8
0
 10
148.418
 11
149.14
 20
267.575
 21
267.069
  0
LINE
  8
0
 10
149.14
 11
150.08
 20
267.069
 21
266.129
  0
LINE
  8
0
 10
150.08
 11
150.992
 20
266.129
 21
265.219
  0
LINE
  8
0
 10
150.992
 11
151.03
 20
265.219
 21
265.163
  0
LINE
  8
0
 10
151.03
 11
152.492
 20
265.163
 21
263.077
  0
LINE
  8
0
 10
152.492
 11
153.166
 20
263.077
 21
261.627
  0
LINE
  8
0
 10
153.166
 11
153.594
 20
261.627
 21
260.709
  0
LINE
  8
0
 10
153.594
 11
154.068
 20
260.709
 21
258.945
  0
LINE
  8
0
 10
154.068
 11
154.272
 20
258.945
 21
258.183
  0
LINE
  8
0
 10
154.272
 11
154.498
 20
258.183
 21
255.575
  0
LINE
  8
0
 10
154.498
 11
154.498
 20
255.575
 21
141.579
  0
LINE
  8
0
 10
154.498
 11
154.272
 20
141.579
 21
138.973
  0
LINE
  8
0
 10
154.272
 11
153.594
 20
138.973
 21
136.447
  0
LINE
  8
0
 10
153.594
 11
153.478
 20
136.447
 21
136.195
  0
LINE
  8
0
 10
153.478
 11
152.492
 20
136.195
 21
134.079
  0
LINE
  8
0
 10
152.492
 11
151.884
 20
134.079
 21
133.213
  0
LINE
  8
0
 10
151.884
 11
150.992
 20
133.213
 21
131.937
  0
LINE
  8
0
 10
150.992
 11
150.808
 20
131.937
 21
131.753
  0
LINE
  8
0
 10
150.808
 11
149.532
 20
131.753
 21
130.477
  0
LINE
  8
0
 10
149.532
 11
149.14
 20
130.477
 21
130.087
  0
LINE
  8
0
 10
149.14
 11
148.988
 20
130.087
 21
129.98
  0
LINE
  8
0
 10
148.988
 11
148.582
 20
129.98
 21
129.695
  0
LINE
  8
0
 10
148.582
 11
148.128
 20
129.695
 21
129.377
  0
LINE
  8
0
 10
148.128
 11
147.886
 20
129.377
 21
129.207
  0
LINE
  8
0
 10
147.886
 11
147.762
 20
129.207
 21
129.121
  0
LINE
  8
0
 10
147.762
 11
147.642
 20
129.121
 21
129.037
  0
LINE
  8
0
 10
147.642
 11
147.586
 20
129.037
 21
128.997
  0
LINE
  8
0
 10
147.586
 11
147.428
 20
128.997
 21
128.887
  0
LINE
  8
0
 10
147.428
 11
147.102
 20
128.887
 21
128.657
  0
LINE
  8
0
 10
147.102
 11
146.998
 20
128.657
 21
128.587
  0
LINE
  8
0
 10
146.998
 11
146.796
 20
128.587
 21
128.491
  0
LINE
  8
0
 10
146.796
 11
146.606
 20
128.491
 21
128.403
  0
LINE
  8
0
 10
146.606
 11
146.542
 20
128.403
 21
128.373
  0
LINE
  8
0
 10
146.542
 11
146.448
 20
128.373
 21
128.329
  0
LINE
  8
0
 10
146.448
 11
146.422
 20
128.329
 21
128.317
  0
LINE
  8
0
 10
146.422
 11
145.138
 20
128.317
 21
127.719
  0
LINE
  8
0
 10
145.138
 11
144.63
 20
127.719
 21
127.481
  0
LINE
  8
0
 10
144.63
 11
142.104
 20
127.481
 21
126.805
  0
LINE
  8
0
 10
142.104
 11
141.783
 20
126.805
 21
126.777
  0
LINE
  8
0
 10
141.783
 11
141.439
 20
126.777
 21
126.747
  0
LINE
  8
0
 10
141.439
 11
139.502
 20
126.747
 21
126.579
  0
LINE
  8
0
 10
139.502
 11
52.998
 20
126.579
 21
126.579
  0
LINE
  8
0
 10
52.998
 11
50.394
 20
126.579
 21
126.805
  0
LINE
  8
0
 10
50.394
 11
47.868
 20
126.805
 21
127.483
  0
LINE
  8
0
 10
47.868
 11
46.99
 20
127.483
 21
127.892
  0
LINE
  8
0
 10
46.99
 11
45.502
 20
127.892
 21
128.587
  0
LINE
  8
0
 10
45.502
 11
43.511
 20
128.587
 21
129.98
  0
LINE
  8
0
 10
43.511
 11
43.358
 20
129.98
 21
130.087
  0
LINE
  8
0
 10
43.358
 11
41.508
 20
130.087
 21
131.937
  0
LINE
  8
0
 10
41.508
 11
40.317
 20
131.937
 21
133.637
  0
LINE
  8
0
 10
40.317
 11
40.008
 20
133.637
 21
134.079
  0
LINE
  8
0
 10
40.008
 11
38.904
 20
134.079
 21
136.447
  0
LINE
  8
0
 10
38.904
 11
38.226
 20
136.447
 21
138.973
  0
LINE
  8
0
 10
38.226
 11
38
 20
138.973
 21
141.579
  0
LINE
  8
0
 10
87.498
 11
87.861
 20
90.932
 21
91.808
  0
LINE
  8
0
 10
87.861
 11
88.008
 20
91.808
 21
92.164
  0
LINE
  8
0
 10
88.008
 11
88.23
 20
92.164
 21
92.7
  0
LINE
  8
0
 10
88.23
 11
89.106
 20
92.7
 21
93.063
  0
LINE
  8
0
 10
89.106
 11
89.998
 20
93.063
 21
93.432
  0
LINE
  8
0
 10
89.998
 11
90.874
 20
93.432
 21
93.07
  0
LINE
  8
0
 10
90.874
 11
91.766
 20
93.07
 21
92.7
  0
LINE
  8
0
 10
91.766
 11
92.129
 20
92.7
 21
91.825
  0
LINE
  8
0
 10
92.129
 11
92.498
 20
91.825
 21
90.932
  0
LINE
  8
0
 10
92.498
 11
92.204
 20
90.932
 21
90.222
  0
LINE
  8
0
 10
92.204
 11
92.129
 20
90.222
 21
90.04
  0
LINE
  8
0
 10
92.129
 11
91.766
 20
90.04
 21
89.165
  0
LINE
  8
0
 10
91.766
 11
91.525
 20
89.165
 21
89.065
  0
LINE
  8
0
 10
91.525
 11
90.874
 20
89.065
 21
88.795
  0
LINE
  8
0
 10
90.874
 11
89.998
 20
88.795
 21
88.432
  0
LINE
  8
0
 10
89.998
 11
89.493
 20
88.432
 21
88.642
  0
LINE
  8
0
 10
89.493
 11
89.123
 20
88.642
 21
88.795
  0
LINE
  8
0
 10
89.123
 11
88.23
 20
88.795
 21
89.165
  0
LINE
  8
0
 10
88.23
 11
88.013
 20
89.165
 21
89.69
  0
LINE
  8
0
 10
88.013
 11
87.868
 20
89.69
 21
90.04
  0
LINE
  8
0
 10
87.868
 11
87.498
 20
90.04
 21
90.932
  0
LINE
  8
0
 10
87.498
 11
87.861
 20
115.932
 21
116.808
  0
LINE
  8
0
 10
87.861
 11
88.23
 20
116.808
 21
117.7
  0
LINE
  8
0
 10
88.23
 11
88.45
 20
117.7
 21
117.791
  0
LINE
  8
0
 10
88.45
 11
89.106
 20
117.791
 21
118.063
  0
LINE
  8
0
 10
89.106
 11
89.998
 20
118.063
 21
118.432
  0
LINE
  8
0
 10
89.998
 11
90.874
 20
118.432
 21
118.07
  0
LINE
  8
0
 10
90.874
 11
91.766
 20
118.07
 21
117.7
  0
LINE
  8
0
 10
91.766
 11
92.129
 20
117.7
 21
116.825
  0
LINE
  8
0
 10
92.129
 11
92.498
 20
116.825
 21
115.932
  0
LINE
  8
0
 10
92.498
 11
92.189
 20
115.932
 21
115.186
  0
LINE
  8
0
 10
92.189
 11
92.129
 20
115.186
 21
115.04
  0
LINE
  8
0
 10
92.129
 11
91.766
 20
115.04
 21
114.165
  0
LINE
  8
0
 10
91.766
 11
90.874
 20
114.165
 21
113.795
  0
LINE
  8
0
 10
90.874
 11
89.998
 20
113.795
 21
113.432
  0
LINE
  8
0
 10
89.998
 11
89.106
 20
113.432
 21
113.802
  0
LINE
  8
0
 10
89.106
 11
88.23
 20
113.802
 21
114.165
  0
LINE
  8
0
 10
88.23
 11
87.861
 20
114.165
 21
115.057
  0
LINE
  8
0
 10
87.861
 11
87.498
 20
115.057
 21
115.932
  0
LINE
  8
0
 10
127.498
 11
127.861
 20
90.932
 21
91.808
  0
LINE
  8
0
 10
127.861
 11
128.23
 20
91.808
 21
92.7
  0
LINE
  8
0
 10
128.23
 11
129.106
 20
92.7
 21
93.063
  0
LINE
  8
0
 10
129.106
 11
129.998
 20
93.063
 21
93.432
  0
LINE
  8
0
 10
129.998
 11
130.874
 20
93.432
 21
93.07
  0
LINE
  8
0
 10
130.874
 11
131.766
 20
93.07
 21
92.7
  0
LINE
  8
0
 10
131.766
 11
132.129
 20
92.7
 21
91.825
  0
LINE
  8
0
 10
132.129
 11
132.498
 20
91.825
 21
90.932
  0
LINE
  8
0
 10
132.498
 11
132.129
 20
90.932
 21
90.04
  0
LINE
  8
0
 10
132.129
 11
131.766
 20
90.04
 21
89.165
  0
LINE
  8
0
 10
131.766
 11
130.874
 20
89.165
 21
88.795
  0
LINE
  8
0
 10
130.874
 11
129.998
 20
88.795
 21
88.432
  0
LINE
  8
0
 10
129.998
 11
129.106
 20
88.432
 21
88.802
  0
LINE
  8
0
 10
129.106
 11
128.23
 20
88.802
 21
89.165
  0
LINE
  8
0
 10
128.23
 11
127.861
 20
89.165
 21
90.057
  0
LINE
  8
0
 10
127.861
 11
127.498
 20
90.057
 21
90.932
  0
LINE
  8
0
 10
127.498
 11
127.861
 20
115.932
 21
116.808
  0
LINE
  8
0
 10
127.861
 11
128.23
 20
116.808
 21
117.7
  0
LINE
  8
0
 10
128.23
 11
129.106
 20
117.7
 21
118.063
  0
LINE
  8
0
 10
129.106
 11
129.998
 20
118.063
 21
118.432
  0
LINE
  8
0
 10
129.998
 11
130.874
 20
118.432
 21
118.07
  0
LINE
  8
0
 10
130.874
 11
131.766
 20
118.07
 21
117.7
  0
LINE
  8
0
 10
131.766
 11
132.129
 20
117.7
 21
116.825
  0
LINE
  8
0
 10
132.129
 11
132.498
 20
116.825
 21
115.932
  0
LINE
  8
0
 10
132.498
 11
132.129
 20
115.932
 21
115.04
  0
LINE
  8
0
 10
132.129
 11
131.983
 20
115.04
 21
114.69
  0
LINE
  8
0
 10
131.983
 11
131.766
 20
114.69
 21
114.165
  0
LINE
  8
0
 10
131.766
 11
130.874
 20
114.165
 21
113.795
  0
LINE
  8
0
 10
130.874
 11
129.998
 20
113.795
 21
113.432
  0
LINE
  8
0
 10
129.998
 11
129.106
 20
113.432
 21
113.802
  0
LINE
  8
0
 10
129.106
 11
128.23
 20
113.802
 21
114.165
  0
LINE
  8
0
 10
128.23
 11
127.861
 20
114.165
 21
115.057
  0
LINE
  8
0
 10
127.861
 11
127.792
 20
115.057
 21
115.222
  0
LINE
  8
0
 10
127.792
 11
127.498
 20
115.222
 21
115.932
  0
LINE
  8
0
 10
5.498
 11
5.498
 20
4.98
 21
29.98
  0
LINE
  8
0
 10
5.498
 11
11.5
 20
29.98
 21
29.98
  0
LINE
  8
0
 10
11.5
 11
11.5
 20
29.98
 21
54.98
  0
LINE
  8
0
 10
11.5
 11
5.498
 20
54.98
 21
54.98
  0
LINE
  8
0
 10
5.498
 11
5.498
 20
54.98
 21
79.98
  0
LINE
  8
0
 10
5.498
 11
11.5
 20
79.98
 21
79.98
  0
LINE
  8
0
 10
11.5
 11
11.5
 20
79.98
 21
104.98
  0
LINE
  8
0
 10
11.5
 11
5.498
 20
104.98
 21
104.98
  0
LINE
  8
0
 10
5.498
 11
5.498
 20
104.98
 21
129.98
  0
LINE
  8
0
 10
5.498
 11
11.5
 20
129.98
 21
129.98
  0
LINE
  8
0
 10
11.5
 11
11.5
 20
129.98
 21
154.98
  0
LINE
  8
0
 10
11.5
 11
5.498
 20
154.98
 21
154.98
  0
LINE
  8
0
 10
5.498
 11
5.498
 20
154.98
 21
179.98
  0
LINE
  8
0
 10
5.498
 11
11.5
 20
179.98
 21
179.98
  0
LINE
  8
0
 10
11.5
 11
11.5
 20
179.98
 21
204.98
  0
LINE
  8
0
 10
11.5
 11
5.498
 20
204.98
 21
204.98
  0
LINE
  8
0
 10
5.498
 11
5.498
 20
204.98
 21
229.98
  0
LINE
  8
0
 10
5.498
 11
11.5
 20
229.98
 21
229.98
  0
LINE
  8
0
 10
11.5
 11
11.5
 20
229.98
 21
254.98
  0
LINE
  8
0
 10
11.5
 11
5.498
 20
254.98
 21
254.98
  0
LINE
  8
0
 10
5.498
 11
5.498
 20
254.98
 21
279.98
  0
LINE
  8
0
 10
5.498
 11
11.5
 20
279.98
 21
279.98
  0
LINE
  8
0
 10
11.5
 11
11.5
 20
279.98
 21
304.98
  0
LINE
  8
0
 10
11.5
 11
40.916
 20
304.98
 21
304.98
  0
LINE
  8
0
 10
40.916
 11
40.956
 20
304.98
 21
304.413
  0
LINE
  8
0
 10
40.956
 11
41.035
 20
304.413
 21
303.321
  0
LINE
  8
0
 10
41.035
 11
41.149
 20
303.321
 21
301.716
  0
LINE
  8
0
 10
41.149
 11
41.185
 20
301.716
 21
301.213
  0
LINE
  8
0
 10
41.185
 11
41.227
 20
301.213
 21
300.623
  0
LINE
  8
0
 10
41.227
 11
41.342
 20
300.623
 21
299.019
  0
LINE
  8
0
 10
41.342
 11
41.308
 20
299.019
 21
298.977
  0
LINE
  8
0
 10
41.308
 11
41.257
 20
298.977
 21
298.916
  0
LINE
  8
0
 10
41.257
 11
41.179
 20
298.916
 21
298.769
  0
LINE
  8
0
 10
41.179
 11
41.063
 20
298.769
 21
298.553
  0
LINE
  8
0
 10
41.063
 11
41.015
 20
298.553
 21
298.393
  0
LINE
  8
0
 10
41.015
 11
40.944
 20
298.393
 21
298.159
  0
LINE
  8
0
 10
40.944
 11
40.928
 20
298.159
 21
297.993
  0
LINE
  8
0
 10
40.928
 11
40.904
 20
297.993
 21
297.749
  0
LINE
  8
0
 10
40.904
 11
40.92
 20
297.749
 21
297.583
  0
LINE
  8
0
 10
40.92
 11
40.944
 20
297.583
 21
297.339
  0
LINE
  8
0
 10
40.944
 11
40.992
 20
297.339
 21
297.18
  0
LINE
  8
0
 10
40.992
 11
41.063
 20
297.18
 21
296.945
  0
LINE
  8
0
 10
41.063
 11
41.142
 20
296.945
 21
296.798
  0
LINE
  8
0
 10
41.142
 11
41.257
 20
296.798
 21
296.582
  0
LINE
  8
0
 10
41.257
 11
41.363
 20
296.582
 21
296.453
  0
LINE
  8
0
 10
41.363
 11
41.519
 20
296.453
 21
296.264
  0
LINE
  8
0
 10
41.519
 11
41.708
 20
296.264
 21
296.109
  0
LINE
  8
0
 10
41.708
 11
41.837
 20
296.109
 21
296.003
  0
LINE
  8
0
 10
41.837
 11
42.053
 20
296.003
 21
295.888
  0
LINE
  8
0
 10
42.053
 11
42.2
 20
295.888
 21
295.809
  0
LINE
  8
0
 10
42.2
 11
42.434
 20
295.809
 21
295.738
  0
LINE
  8
0
 10
42.434
 11
42.594
 20
295.738
 21
295.689
  0
LINE
  8
0
 10
42.594
 11
42.838
 20
295.689
 21
295.665
  0
LINE
  8
0
 10
42.838
 11
43.004
 20
295.665
 21
295.649
  0
LINE
  8
0
 10
43.004
 11
43.247
 20
295.649
 21
295.673
  0
LINE
  8
0
 10
43.247
 11
43.413
 20
295.673
 21
295.689
  0
LINE
  8
0
 10
43.413
 11
43.648
 20
295.689
 21
295.76
  0
LINE
  8
0
 10
43.648
 11
43.807
 20
295.76
 21
295.809
  0
LINE
  8
0
 10
43.807
 11
43.954
 20
295.809
 21
295.888
  0
LINE
  8
0
 10
43.954
 11
44.17
 20
295.888
 21
296.003
  0
LINE
  8
0
 10
44.17
 11
44.36
 20
296.003
 21
296.158
  0
LINE
  8
0
 10
44.36
 11
44.488
 20
296.158
 21
296.264
  0
LINE
  8
0
 10
44.488
 11
44.644
 20
296.264
 21
296.453
  0
LINE
  8
0
 10
44.644
 11
44.75
 20
296.453
 21
296.582
  0
LINE
  8
0
 10
44.75
 11
44.828
 20
296.582
 21
296.729
  0
LINE
  8
0
 10
44.828
 11
44.944
 20
296.729
 21
296.945
  0
LINE
  8
0
 10
44.944
 11
44.992
 20
296.945
 21
297.105
  0
LINE
  8
0
 10
44.992
 11
45.063
 20
297.105
 21
297.339
  0
LINE
  8
0
 10
45.063
 11
45.079
 20
297.339
 21
297.505
  0
LINE
  8
0
 10
45.079
 11
45.104
 20
297.505
 21
297.749
  0
LINE
  8
0
 10
45.104
 11
45.101
 20
297.749
 21
297.772
  0
LINE
  8
0
 10
45.101
 11
45.104
 20
297.772
 21
297.805
  0
LINE
  8
0
 10
45.104
 11
45.104
 20
297.805
 21
302.494
  0
LINE
  8
0
 10
45.104
 11
45.103
 20
302.494
 21
303.685
  0
LINE
  8
0
 10
45.103
 11
45.103
 20
303.685
 21
304.98
  0
LINE
  8
0
 10
45.103
 11
174.893
 20
304.98
 21
304.98
  0
LINE
  8
0
 10
174.893
 11
174.893
 20
304.98
 21
300.242
  0
LINE
  8
0
 10
174.893
 11
174.898
 20
300.242
 21
297.805
  0
LINE
  8
0
 10
174.898
 11
174.893
 20
297.805
 21
297.749
  0
LINE
  8
0
 10
174.893
 11
174.926
 20
297.749
 21
297.409
  0
LINE
  8
0
 10
174.926
 11
174.933
 20
297.409
 21
297.339
  0
LINE
  8
0
 10
174.933
 11
175.032
 20
297.339
 21
297.013
  0
LINE
  8
0
 10
175.032
 11
175.052
 20
297.013
 21
296.945
  0
LINE
  8
0
 10
175.052
 11
175.213
 20
296.945
 21
296.644
  0
LINE
  8
0
 10
175.213
 11
175.246
 20
296.644
 21
296.582
  0
LINE
  8
0
 10
175.246
 11
175.291
 20
296.582
 21
296.528
  0
LINE
  8
0
 10
175.291
 11
175.508
 20
296.528
 21
296.264
  0
LINE
  8
0
 10
175.508
 11
175.562
 20
296.264
 21
296.22
  0
LINE
  8
0
 10
175.562
 11
175.826
 20
296.22
 21
296.003
  0
LINE
  8
0
 10
175.826
 11
176.127
 20
296.003
 21
295.842
  0
LINE
  8
0
 10
176.127
 11
176.189
 20
295.842
 21
295.809
  0
LINE
  8
0
 10
176.189
 11
176.516
 20
295.809
 21
295.71
  0
LINE
  8
0
 10
176.516
 11
176.583
 20
295.71
 21
295.689
  0
LINE
  8
0
 10
176.583
 11
176.923
 20
295.689
 21
295.656
  0
LINE
  8
0
 10
176.923
 11
176.993
 20
295.656
 21
295.649
  0
LINE
  8
0
 10
176.993
 11
177.332
 20
295.649
 21
295.683
  0
LINE
  8
0
 10
177.332
 11
177.402
 20
295.683
 21
295.689
  0
LINE
  8
0
 10
177.402
 11
177.47
 20
295.689
 21
295.71
  0
LINE
  8
0
 10
177.47
 11
177.796
 20
295.71
 21
295.809
  0
LINE
  8
0
 10
177.796
 11
177.858
 20
295.809
 21
295.842
  0
LINE
  8
0
 10
177.858
 11
178.159
 20
295.842
 21
296.003
  0
LINE
  8
0
 10
178.159
 11
178.423
 20
296.003
 21
296.22
  0
LINE
  8
0
 10
178.423
 11
178.477
 20
296.22
 21
296.264
  0
LINE
  8
0
 10
178.477
 11
178.694
 20
296.264
 21
296.528
  0
LINE
  8
0
 10
178.694
 11
178.739
 20
296.528
 21
296.582
  0
LINE
  8
0
 10
178.739
 11
178.9
 20
296.582
 21
296.883
  0
LINE
  8
0
 10
178.9
 11
178.933
 20
296.883
 21
296.945
  0
LINE
  8
0
 10
178.933
 11
179.032
 20
296.945
 21
297.272
  0
LINE
  8
0
 10
179.032
 11
179.052
 20
297.272
 21
297.339
  0
LINE
  8
0
 10
179.052
 11
179.086
 20
297.339
 21
297.679
  0
LINE
  8
0
 10
179.086
 11
179.093
 20
297.679
 21
297.749
  0
LINE
  8
0
 10
179.093
 11
179.059
 20
297.749
 21
298.089
  0
LINE
  8
0
 10
179.059
 11
179.052
 20
298.089
 21
298.159
  0
LINE
  8
0
 10
179.052
 11
178.953
 20
298.159
 21
298.485
  0
LINE
  8
0
 10
178.953
 11
178.933
 20
298.485
 21
298.553
  0
LINE
  8
0
 10
178.933
 11
178.772
 20
298.553
 21
298.854
  0
LINE
  8
0
 10
178.772
 11
178.739
 20
298.854
 21
298.916
  0
LINE
  8
0
 10
178.739
 11
178.669
 20
298.916
 21
299.001
  0
LINE
  8
0
 10
178.669
 11
178.654
 20
299.001
 21
299.019
  0
LINE
  8
0
 10
178.654
 11
178.814
 20
299.019
 21
301.255
  0
LINE
  8
0
 10
178.814
 11
178.847
 20
301.255
 21
301.716
  0
LINE
  8
0
 10
178.847
 11
179.007
 20
301.716
 21
303.952
  0
LINE
  8
0
 10
179.007
 11
179.04
 20
303.952
 21
304.413
  0
LINE
  8
0
 10
179.04
 11
179.073
 20
304.413
 21
304.874
  0
LINE
  8
0
 10
179.073
 11
179.08
 20
304.874
 21
304.98
  0
LINE
  8
0
 10
179.08
 11
214.498
 20
304.98
 21
304.98
  0
LINE
  8
0
 10
214.498
 11
214.498
 20
304.98
 21
279.98
  0
LINE
  8
0
 10
214.498
 11
208.496
 20
279.98
 21
279.98
  0
LINE
  8
0
 10
208.496
 11
208.496
 20
279.98
 21
254.98
  0
LINE
  8
0
 10
208.496
 11
214.498
 20
254.98
 21
254.98
  0
LINE
  8
0
 10
214.498
 11
214.498
 20
254.98
 21
229.98
  0
LINE
  8
0
 10
214.498
 11
208.496
 20
229.98
 21
229.98
  0
LINE
  8
0
 10
208.496
 11
208.496
 20
229.98
 21
204.98
  0
LINE
  8
0
 10
208.496
 11
214.498
 20
204.98
 21
204.98
  0
LINE
  8
0
 10
214.498
 11
214.498
 20
204.98
 21
179.98
  0
LINE
  8
0
 10
214.498
 11
208.496
 20
179.98
 21
179.98
  0
LINE
  8
0
 10
208.496
 11
208.496
 20
179.98
 21
154.98
  0
LINE
  8
0
 10
208.496
 11
214.498
 20
154.98
 21
154.98
  0
LINE
  8
0
 10
214.498
 11
214.498
 20
154.98
 21
129.98
  0
LINE
  8
0
 10
214.498
 11
208.496
 20
129.98
 21
129.98
  0
LINE
  8
0
 10
208.496
 11
208.496
 20
129.98
 21
104.98
  0
LINE
  8
0
 10
208.496
 11
214.498
 20
104.98
 21
104.98
  0
LINE
  8
0
 10
214.498
 11
214.498
 20
104.98
 21
79.98
  0
LINE
  8
0
 10
214.498
 11
208.496
 20
79.98
 21
79.98
  0
LINE
  8
0
 10
208.496
 11
208.496
 20
79.98
 21
54.98
  0
LINE
  8
0
 10
208.496
 11
214.498
 20
54.98
 21
54.98
  0
LINE
  8
0
 10
214.498
 11
214.498
 20
54.98
 21
29.98
  0
LINE
  8
0
 10
214.498
 11
208.496
 20
29.98
 21
29.98
  0
LINE
  8
0
 10
208.496
 11
208.496
 20
29.98
 21
4.98
  0
LINE
  8
0
 10
208.496
 11
179.187
 20
4.98
 21
4.98
  0
LINE
  8
0
 10
179.187
 11
179.152
 20
4.98
 21
5.48
  0
LINE
  8
0
 10
179.152
 11
179.037
 20
5.48
 21
7.085
  0
LINE
  8
0
 10
179.037
 11
178.959
 20
7.085
 21
8.178
  0
LINE
  8
0
 10
178.959
 11
178.919
 20
8.178
 21
8.733
  0
LINE
  8
0
 10
178.919
 11
178.844
 20
8.733
 21
9.782
  0
LINE
  8
0
 10
178.844
 11
178.766
 20
9.782
 21
10.875
  0
LINE
  8
0
 10
178.766
 11
178.652
 20
10.875
 21
12.479
  0
LINE
  8
0
 10
178.652
 11
178.686
 20
12.479
 21
12.521
  0
LINE
  8
0
 10
178.686
 11
178.736
 20
12.521
 21
12.582
  0
LINE
  8
0
 10
178.736
 11
178.815
 20
12.582
 21
12.729
  0
LINE
  8
0
 10
178.815
 11
178.93
 20
12.729
 21
12.945
  0
LINE
  8
0
 10
178.93
 11
178.979
 20
12.945
 21
13.105
  0
LINE
  8
0
 10
178.979
 11
179.05
 20
13.105
 21
13.339
  0
LINE
  8
0
 10
179.05
 11
179.066
 20
13.339
 21
13.505
  0
LINE
  8
0
 10
179.066
 11
179.09
 20
13.505
 21
13.749
  0
LINE
  8
0
 10
179.09
 11
179.074
 20
13.749
 21
13.915
  0
LINE
  8
0
 10
179.074
 11
179.05
 20
13.915
 21
14.159
  0
LINE
  8
0
 10
179.05
 11
179.001
 20
14.159
 21
14.318
  0
LINE
  8
0
 10
179.001
 11
178.93
 20
14.318
 21
14.553
  0
LINE
  8
0
 10
178.93
 11
178.852
 20
14.553
 21
14.7
  0
LINE
  8
0
 10
178.852
 11
178.736
 20
14.7
 21
14.916
  0
LINE
  8
0
 10
178.736
 11
178.63
 20
14.916
 21
15.045
  0
LINE
  8
0
 10
178.63
 11
178.475
 20
15.045
 21
15.234
  0
LINE
  8
0
 10
178.475
 11
178.286
 20
15.234
 21
15.389
  0
LINE
  8
0
 10
178.286
 11
178.157
 20
15.389
 21
15.495
  0
LINE
  8
0
 10
178.157
 11
177.941
 20
15.495
 21
15.611
  0
LINE
  8
0
 10
177.941
 11
177.794
 20
15.611
 21
15.689
  0
LINE
  8
0
 10
177.794
 11
177.559
 20
15.689
 21
15.76
  0
LINE
  8
0
 10
177.559
 11
177.4
 20
15.76
 21
15.809
  0
LINE
  8
0
 10
177.4
 11
177.156
 20
15.809
 21
15.833
  0
LINE
  8
0
 10
177.156
 11
176.99
 20
15.833
 21
15.849
  0
LINE
  8
0
 10
176.99
 11
176.746
 20
15.849
 21
15.825
  0
LINE
  8
0
 10
176.746
 11
176.58
 20
15.825
 21
15.809
  0
LINE
  8
0
 10
176.58
 11
176.346
 20
15.809
 21
15.738
  0
LINE
  8
0
 10
176.346
 11
176.186
 20
15.738
 21
15.689
  0
LINE
  8
0
 10
176.186
 11
176.039
 20
15.689
 21
15.611
  0
LINE
  8
0
 10
176.039
 11
175.823
 20
15.611
 21
15.495
  0
LINE
  8
0
 10
175.823
 11
175.634
 20
15.495
 21
15.34
  0
LINE
  8
0
 10
175.634
 11
175.505
 20
15.34
 21
15.234
  0
LINE
  8
0
 10
175.505
 11
175.35
 20
15.234
 21
15.045
  0
LINE
  8
0
 10
175.35
 11
175.244
 20
15.045
 21
14.916
  0
LINE
  8
0
 10
175.244
 11
175.165
 20
14.916
 21
14.769
  0
LINE
  8
0
 10
175.165
 11
175.05
 20
14.769
 21
14.553
  0
LINE
  8
0
 10
175.05
 11
175.001
 20
14.553
 21
14.393
  0
LINE
  8
0
 10
175.001
 11
174.93
 20
14.393
 21
14.159
  0
LINE
  8
0
 10
174.93
 11
174.914
 20
14.159
 21
13.993
  0
LINE
  8
0
 10
174.914
 11
174.89
 20
13.993
 21
13.749
  0
LINE
  8
0
 10
174.89
 11
174.892
 20
13.749
 21
13.727
  0
LINE
  8
0
 10
174.892
 11
174.895
 20
13.727
 21
13.694
  0
LINE
  8
0
 10
174.895
 11
174.89
 20
13.694
 21
11.944
  0
LINE
  8
0
 10
174.89
 11
174.89
 20
11.944
 21
4.98
  0
LINE
  8
0
 10
174.89
 11
45.106
 20
4.98
 21
4.98
  0
LINE
  8
0
 10
45.106
 11
45.106
 20
4.98
 21
13.693
  0
LINE
  8
0
 10
45.106
 11
45.105
 20
13.693
 21
13.739
  0
LINE
  8
0
 10
45.105
 11
45.073
 20
13.739
 21
14.089
  0
LINE
  8
0
 10
45.073
 11
45.066
 20
14.089
 21
14.159
  0
LINE
  8
0
 10
45.066
 11
44.967
 20
14.159
 21
14.485
  0
LINE
  8
0
 10
44.967
 11
44.947
 20
14.485
 21
14.553
  0
LINE
  8
0
 10
44.947
 11
44.786
 20
14.553
 21
14.854
  0
LINE
  8
0
 10
44.786
 11
44.752
 20
14.854
 21
14.916
  0
LINE
  8
0
 10
44.752
 11
44.708
 20
14.916
 21
14.97
  0
LINE
  8
0
 10
44.708
 11
44.491
 20
14.97
 21
15.234
  0
LINE
  8
0
 10
44.491
 11
44.437
 20
15.234
 21
15.279
  0
LINE
  8
0
 10
44.437
 11
44.173
 20
15.279
 21
15.495
  0
LINE
  8
0
 10
44.173
 11
43.872
 20
15.495
 21
15.656
  0
LINE
  8
0
 10
43.872
 11
43.81
 20
15.656
 21
15.689
  0
LINE
  8
0
 10
43.81
 11
43.483
 20
15.689
 21
15.788
  0
LINE
  8
0
 10
43.483
 11
43.416
 20
15.788
 21
15.809
  0
LINE
  8
0
 10
43.416
 11
43.076
 20
15.809
 21
15.842
  0
LINE
  8
0
 10
43.076
 11
43.006
 20
15.842
 21
15.849
  0
LINE
  8
0
 10
43.006
 11
42.667
 20
15.849
 21
15.815
  0
LINE
  8
0
 10
42.667
 11
42.597
 20
15.815
 21
15.809
  0
LINE
  8
0
 10
42.597
 11
42.529
 20
15.809
 21
15.788
  0
LINE
  8
0
 10
42.529
 11
42.203
 20
15.788
 21
15.689
  0
LINE
  8
0
 10
42.203
 11
42.141
 20
15.689
 21
15.656
  0
LINE
  8
0
 10
42.141
 11
41.84
 20
15.656
 21
15.495
  0
LINE
  8
0
 10
41.84
 11
41.576
 20
15.495
 21
15.279
  0
LINE
  8
0
 10
41.576
 11
41.521
 20
15.279
 21
15.234
  0
LINE
  8
0
 10
41.521
 11
41.305
 20
15.234
 21
14.97
  0
LINE
  8
0
 10
41.305
 11
41.26
 20
14.97
 21
14.916
  0
LINE
  8
0
 10
41.26
 11
41.099
 20
14.916
 21
14.615
  0
LINE
  8
0
 10
41.099
 11
41.066
 20
14.615
 21
14.553
  0
LINE
  8
0
 10
41.066
 11
40.967
 20
14.553
 21
14.226
  0
LINE
  8
0
 10
40.967
 11
40.947
 20
14.226
 21
14.159
  0
LINE
  8
0
 10
40.947
 11
40.913
 20
14.159
 21
13.819
  0
LINE
  8
0
 10
40.913
 11
40.906
 20
13.819
 21
13.749
  0
LINE
  8
0
 10
40.906
 11
40.94
 20
13.749
 21
13.409
  0
LINE
  8
0
 10
40.94
 11
40.947
 20
13.409
 21
13.339
  0
LINE
  8
0
 10
40.947
 11
41.046
 20
13.339
 21
13.013
  0
LINE
  8
0
 10
41.046
 11
41.066
 20
13.013
 21
12.945
  0
LINE
  8
0
 10
41.066
 11
41.227
 20
12.945
 21
12.644
  0
LINE
  8
0
 10
41.227
 11
41.26
 20
12.644
 21
12.582
  0
LINE
  8
0
 10
41.26
 11
41.33
 20
12.582
 21
12.497
  0
LINE
  8
0
 10
41.33
 11
41.345
 20
12.497
 21
12.479
  0
LINE
  8
0
 10
41.345
 11
41.185
 20
12.479
 21
10.243
  0
LINE
  8
0
 10
41.185
 11
41.152
 20
10.243
 21
9.782
  0
LINE
  8
0
 10
41.152
 11
40.992
 20
9.782
 21
7.546
  0
LINE
  8
0
 10
40.992
 11
40.959
 20
7.546
 21
7.085
  0
LINE
  8
0
 10
40.959
 11
40.926
 20
7.085
 21
6.624
  0
LINE
  8
0
 10
40.926
 11
40.809
 20
6.624
 21
4.98
  0
LINE
  8
0
 10
40.809
 11
5.498
 20
4.98
 21
4.98
  0
LINE
  8
0
 10
166.09
 11
166.096
 20
245.734
 21
245.774
  0
LINE
  8
0
 10
166.096
 11
166.132
 20
245.774
 21
246.03
  0
LINE
  8
0
 10
166.132
 11
166.137
 20
246.03
 21
246.07
  0
LINE
  8
0
 10
166.137
 11
166.172
 20
246.07
 21
246.326
  0
LINE
  8
0
 10
166.172
 11
166.185
 20
246.326
 21
246.363
  0
LINE
  8
0
 10
166.185
 11
166.269
 20
246.363
 21
246.602
  0
LINE
  8
0
 10
166.269
 11
166.283
 20
246.602
 21
246.639
  0
LINE
  8
0
 10
166.283
 11
166.328
 20
246.639
 21
246.764
  0
LINE
  8
0
 10
166.328
 11
166.369
 20
246.764
 21
246.876
  0
LINE
  8
0
 10
166.369
 11
166.389
 20
246.876
 21
246.908
  0
LINE
  8
0
 10
166.389
 11
166.519
 20
246.908
 21
247.112
  0
LINE
  8
0
 10
166.519
 11
166.539
 20
247.112
 21
247.144
  0
LINE
  8
0
 10
166.539
 11
166.668
 20
247.144
 21
247.346
  0
LINE
  8
0
 10
166.668
 11
166.834
 20
247.346
 21
247.504
  0
LINE
  8
0
 10
166.834
 11
166.86
 20
247.504
 21
247.528
  0
LINE
  8
0
 10
166.86
 11
166.886
 20
247.528
 21
247.553
  0
LINE
  8
0
 10
166.886
 11
167.052
 20
247.553
 21
247.71
  0
LINE
  8
0
 10
167.052
 11
167.082
 20
247.71
 21
247.726
  0
LINE
  8
0
 10
167.082
 11
167.274
 20
247.726
 21
247.826
  0
LINE
  8
0
 10
167.274
 11
167.304
 20
247.826
 21
247.842
  0
LINE
  8
0
 10
167.304
 11
167.497
 20
247.842
 21
247.942
  0
LINE
  8
0
 10
167.497
 11
167.529
 20
247.942
 21
247.948
  0
LINE
  8
0
 10
167.529
 11
167.735
 20
247.948
 21
247.984
  0
LINE
  8
0
 10
167.735
 11
167.94
 20
247.984
 21
248.022
  0
LINE
  8
0
 10
167.94
 11
167.972
 20
248.022
 21
248.028
  0
LINE
  8
0
 10
167.972
 11
168.004
 20
248.028
 21
248.024
  0
LINE
  8
0
 10
168.004
 11
168.212
 20
248.024
 21
247.996
  0
LINE
  8
0
 10
168.212
 11
168.244
 20
247.996
 21
247.992
  0
LINE
  8
0
 10
168.244
 11
168.45
 20
247.992
 21
247.964
  0
LINE
  8
0
 10
168.45
 11
168.481
 20
247.964
 21
247.95
  0
LINE
  8
0
 10
168.481
 11
168.676
 20
247.95
 21
247.858
  0
LINE
  8
0
 10
168.676
 11
168.706
 20
247.858
 21
247.844
  0
LINE
  8
0
 10
168.706
 11
168.901
 20
247.844
 21
247.754
  0
LINE
  8
0
 10
168.901
 11
169.073
 20
247.754
 21
247.605
  0
LINE
  8
0
 10
169.073
 11
169.1
 20
247.605
 21
247.582
  0
LINE
  8
0
 10
169.1
 11
169.27
 20
247.582
 21
247.432
  0
LINE
  8
0
 10
169.27
 11
169.297
 20
247.432
 21
247.408
  0
LINE
  8
0
 10
169.297
 11
169.432
 20
247.408
 21
247.211
  0
LINE
  8
0
 10
169.432
 11
169.453
 20
247.211
 21
247.18
  0
LINE
  8
0
 10
169.453
 11
169.589
 20
247.18
 21
246.983
  0
LINE
  8
0
 10
169.589
 11
169.61
 20
246.983
 21
246.952
  0
LINE
  8
0
 10
169.61
 11
169.703
 20
246.952
 21
246.719
  0
LINE
  8
0
 10
169.703
 11
169.717
 20
246.719
 21
246.682
  0
LINE
  8
0
 10
169.717
 11
169.809
 20
246.682
 21
246.45
  0
LINE
  8
0
 10
169.809
 11
169.823
 20
246.45
 21
246.414
  0
LINE
  8
0
 10
169.823
 11
169.866
 20
246.414
 21
246.158
  0
LINE
  8
0
 10
169.866
 11
169.873
 20
246.158
 21
246.118
  0
LINE
  8
0
 10
169.873
 11
169.916
 20
246.118
 21
245.864
  0
LINE
  8
0
 10
169.916
 11
169.922
 20
245.864
 21
245.824
  0
LINE
  8
0
 10
169.922
 11
169.922
 20
245.824
 21
245.334
  0
LINE
  8
0
 10
169.922
 11
169.921
 20
245.334
 21
244.435
  0
LINE
  8
0
 10
169.921
 11
169.911
 20
244.435
 21
235.524
  0
LINE
  8
0
 10
169.911
 11
169.903
 20
235.524
 21
226.613
  0
LINE
  8
0
 10
169.903
 11
169.902
 20
226.613
 21
226.186
  0
LINE
  8
0
 10
169.902
 11
169.902
 20
226.186
 21
226.125
  0
LINE
  8
0
 10
169.902
 11
169.901
 20
226.125
 21
225.224
  0
LINE
  8
0
 10
169.901
 11
169.841
 20
225.224
 21
224.975
  0
LINE
  8
0
 10
169.841
 11
169.831
 20
224.975
 21
224.936
  0
LINE
  8
0
 10
169.831
 11
169.77
 20
224.936
 21
224.687
  0
LINE
  8
0
 10
169.77
 11
169.761
 20
224.687
 21
224.648
  0
LINE
  8
0
 10
169.761
 11
169.653
 20
224.648
 21
224.425
  0
LINE
  8
0
 10
169.653
 11
169.636
 20
224.425
 21
224.39
  0
LINE
  8
0
 10
169.636
 11
169.528
 20
224.39
 21
224.169
  0
LINE
  8
0
 10
169.528
 11
169.511
 20
224.169
 21
224.134
  0
LINE
  8
0
 10
169.511
 11
169.488
 20
224.134
 21
224.106
  0
LINE
  8
0
 10
169.488
 11
169.338
 20
224.106
 21
223.924
  0
LINE
  8
0
 10
169.338
 11
169.315
 20
223.924
 21
223.896
  0
LINE
  8
0
 10
169.315
 11
169.167
 20
223.896
 21
223.714
  0
LINE
  8
0
 10
169.167
 11
168.986
 20
223.714
 21
223.584
  0
LINE
  8
0
 10
168.986
 11
168.957
 20
223.584
 21
223.564
  0
LINE
  8
0
 10
168.957
 11
168.778
 20
223.564
 21
223.434
  0
LINE
  8
0
 10
168.778
 11
168.749
 20
223.434
 21
223.414
  0
LINE
  8
0
 10
168.749
 11
168.549
 20
223.414
 21
223.345
  0
LINE
  8
0
 10
168.549
 11
168.517
 20
223.345
 21
223.334
  0
LINE
  8
0
 10
168.517
 11
168.317
 20
223.334
 21
223.265
  0
LINE
  8
0
 10
168.317
 11
168.285
 20
223.265
 21
223.254
  0
LINE
  8
0
 10
168.285
 11
168.078
 20
223.254
 21
223.249
  0
LINE
  8
0
 10
168.078
 11
168.045
 20
223.249
 21
223.248
  0
LINE
  8
0
 10
168.045
 11
167.836
 20
223.248
 21
223.243
  0
LINE
  8
0
 10
167.836
 11
167.804
 20
223.243
 21
223.242
  0
LINE
  8
0
 10
167.804
 11
167.772
 20
223.242
 21
223.252
  0
LINE
  8
0
 10
167.772
 11
167.57
 20
223.252
 21
223.312
  0
LINE
  8
0
 10
167.57
 11
167.368
 20
223.312
 21
223.371
  0
LINE
  8
0
 10
167.368
 11
167.337
 20
223.371
 21
223.38
  0
LINE
  8
0
 10
167.337
 11
167.308
 20
223.38
 21
223.399
  0
LINE
  8
0
 10
167.308
 11
167.122
 20
223.399
 21
223.52
  0
LINE
  8
0
 10
167.122
 11
167.094
 20
223.52
 21
223.539
  0
LINE
  8
0
 10
167.094
 11
166.909
 20
223.539
 21
223.66
  0
LINE
  8
0
 10
166.909
 11
166.886
 20
223.66
 21
223.687
  0
LINE
  8
0
 10
166.886
 11
166.732
 20
223.687
 21
223.862
  0
LINE
  8
0
 10
166.732
 11
166.708
 20
223.862
 21
223.889
  0
LINE
  8
0
 10
166.708
 11
166.553
 20
223.889
 21
224.064
  0
LINE
  8
0
 10
166.553
 11
166.535
 20
224.064
 21
224.098
  0
LINE
  8
0
 10
166.535
 11
166.42
 20
224.098
 21
224.314
  0
LINE
  8
0
 10
166.42
 11
166.402
 20
224.314
 21
224.348
  0
LINE
  8
0
 10
166.402
 11
166.287
 20
224.348
 21
224.566
  0
LINE
  8
0
 10
166.287
 11
166.276
 20
224.566
 21
224.604
  0
LINE
  8
0
 10
166.276
 11
166.209
 20
224.604
 21
224.85
  0
LINE
  8
0
 10
166.209
 11
166.198
 20
224.85
 21
224.888
  0
LINE
  8
0
 10
166.198
 11
166.13
 20
224.888
 21
225.134
  0
LINE
  8
0
 10
166.13
 11
166.128
 20
225.134
 21
226.523
  0
LINE
  8
0
 10
166.128
 11
166.125
 20
226.523
 21
228.194
  0
LINE
  8
0
 10
166.125
 11
166.124
 20
228.194
 21
228.235
  0
LINE
  8
0
 10
166.124
 11
166.124
 20
228.235
 21
228.262
  0
LINE
  8
0
 10
166.124
 11
166.111
 20
228.262
 21
235.434
  0
LINE
  8
0
 10
166.111
 11
166.093
 20
235.434
 21
244.345
  0
LINE
  8
0
 10
166.093
 11
166.09
 20
244.345
 21
245.734
  0
LINE
  8
0
 10
166.092
 11
166.098
 20
214.814
 21
214.854
  0
LINE
  8
0
 10
166.098
 11
166.138
 20
214.854
 21
215.11
  0
LINE
  8
0
 10
166.138
 11
166.145
 20
215.11
 21
215.15
  0
LINE
  8
0
 10
166.145
 11
166.185
 20
215.15
 21
215.404
  0
LINE
  8
0
 10
166.185
 11
166.199
 20
215.404
 21
215.441
  0
LINE
  8
0
 10
166.199
 11
166.289
 20
215.441
 21
215.676
  0
LINE
  8
0
 10
166.289
 11
166.303
 20
215.676
 21
215.713
  0
LINE
  8
0
 10
166.303
 11
166.393
 20
215.713
 21
215.948
  0
LINE
  8
0
 10
166.393
 11
166.414
 20
215.948
 21
215.979
  0
LINE
  8
0
 10
166.414
 11
166.548
 20
215.979
 21
216.178
  0
LINE
  8
0
 10
166.548
 11
166.569
 20
216.178
 21
216.209
  0
LINE
  8
0
 10
166.569
 11
166.701
 20
216.209
 21
216.408
  0
LINE
  8
0
 10
166.701
 11
166.728
 20
216.408
 21
216.432
  0
LINE
  8
0
 10
166.728
 11
166.898
 20
216.432
 21
216.584
  0
LINE
  8
0
 10
166.898
 11
166.925
 20
216.584
 21
216.608
  0
LINE
  8
0
 10
166.925
 11
167.093
 20
216.608
 21
216.758
  0
LINE
  8
0
 10
167.093
 11
167.124
 20
216.758
 21
216.773
  0
LINE
  8
0
 10
167.124
 11
167.317
 20
216.773
 21
216.868
  0
LINE
  8
0
 10
167.317
 11
167.348
 20
216.868
 21
216.883
  0
LINE
  8
0
 10
167.348
 11
167.541
 20
216.883
 21
216.976
  0
LINE
  8
0
 10
167.541
 11
167.574
 20
216.976
 21
216.981
  0
LINE
  8
0
 10
167.574
 11
167.781
 20
216.981
 21
217.012
  0
LINE
  8
0
 10
167.781
 11
167.814
 20
217.012
 21
217.017
  0
LINE
  8
0
 10
167.814
 11
168.02
 20
217.017
 21
217.048
  0
LINE
  8
0
 10
168.02
 11
168.052
 20
217.048
 21
217.043
  0
LINE
  8
0
 10
168.052
 11
168.258
 20
217.043
 21
217.008
  0
LINE
  8
0
 10
168.258
 11
168.29
 20
217.008
 21
217.003
  0
LINE
  8
0
 10
168.29
 11
168.497
 20
217.003
 21
216.968
  0
LINE
  8
0
 10
168.497
 11
168.527
 20
216.968
 21
216.953
  0
LINE
  8
0
 10
168.527
 11
168.721
 20
216.953
 21
216.856
  0
LINE
  8
0
 10
168.721
 11
168.751
 20
216.856
 21
216.841
  0
LINE
  8
0
 10
168.751
 11
168.943
 20
216.841
 21
216.744
  0
LINE
  8
0
 10
168.943
 11
169.111
 20
216.744
 21
216.59
  0
LINE
  8
0
 10
169.111
 11
169.137
 20
216.59
 21
216.566
  0
LINE
  8
0
 10
169.137
 11
169.304
 20
216.566
 21
216.41
  0
LINE
  8
0
 10
169.304
 11
169.33
 20
216.41
 21
216.386
  0
LINE
  8
0
 10
169.33
 11
169.351
 20
216.386
 21
216.355
  0
LINE
  8
0
 10
169.351
 11
169.482
 20
216.355
 21
216.154
  0
LINE
  8
0
 10
169.482
 11
169.614
 20
216.154
 21
215.952
  0
LINE
  8
0
 10
169.614
 11
169.634
 20
215.952
 21
215.92
  0
LINE
  8
0
 10
169.634
 11
169.723
 20
215.92
 21
215.685
  0
LINE
  8
0
 10
169.723
 11
169.737
 20
215.685
 21
215.648
  0
LINE
  8
0
 10
169.737
 11
169.824
 20
215.648
 21
215.411
  0
LINE
  8
0
 10
169.824
 11
169.837
 20
215.411
 21
215.374
  0
LINE
  8
0
 10
169.837
 11
169.875
 20
215.374
 21
215.118
  0
LINE
  8
0
 10
169.875
 11
169.881
 20
215.118
 21
215.078
  0
LINE
  8
0
 10
169.881
 11
169.918
 20
215.078
 21
214.824
  0
LINE
  8
0
 10
169.918
 11
169.924
 20
214.824
 21
214.784
  0
LINE
  8
0
 10
169.924
 11
169.922
 20
214.784
 21
213.395
  0
LINE
  8
0
 10
169.922
 11
169.912
 20
213.395
 21
206.948
  0
LINE
  8
0
 10
169.912
 11
169.908
 20
206.948
 21
204.484
  0
LINE
  8
0
 10
169.908
 11
169.906
 20
204.484
 21
203.095
  0
LINE
  8
0
 10
169.906
 11
169.89
 20
203.095
 21
194.184
  0
LINE
  8
0
 10
169.89
 11
169.825
 20
194.184
 21
193.937
  0
LINE
  8
0
 10
169.825
 11
169.815
 20
193.937
 21
193.898
  0
LINE
  8
0
 10
169.815
 11
169.749
 20
193.898
 21
193.651
  0
LINE
  8
0
 10
169.749
 11
169.738
 20
193.651
 21
193.612
  0
LINE
  8
0
 10
169.738
 11
169.721
 20
193.612
 21
193.578
  0
LINE
  8
0
 10
169.721
 11
169.609
 20
193.578
 21
193.36
  0
LINE
  8
0
 10
169.609
 11
169.497
 20
193.36
 21
193.14
  0
LINE
  8
0
 10
169.497
 11
169.479
 20
193.14
 21
193.106
  0
LINE
  8
0
 10
169.479
 11
169.325
 20
193.106
 21
192.93
  0
LINE
  8
0
 10
169.325
 11
169.301
 20
192.93
 21
192.902
  0
LINE
  8
0
 10
169.301
 11
169.149
 20
192.902
 21
192.726
  0
LINE
  8
0
 10
169.149
 11
169.126
 20
192.726
 21
192.698
  0
LINE
  8
0
 10
169.126
 11
168.943
 20
192.698
 21
192.574
  0
LINE
  8
0
 10
168.943
 11
168.914
 20
192.574
 21
192.554
  0
LINE
  8
0
 10
168.914
 11
168.732
 20
192.554
 21
192.43
  0
LINE
  8
0
 10
168.732
 11
168.703
 20
192.43
 21
192.41
  0
LINE
  8
0
 10
168.703
 11
168.501
 20
192.41
 21
192.348
  0
LINE
  8
0
 10
168.501
 11
168.47
 20
192.348
 21
192.338
  0
LINE
  8
0
 10
168.47
 11
168.368
 20
192.338
 21
192.307
  0
LINE
  8
0
 10
168.368
 11
168.267
 20
192.307
 21
192.276
  0
LINE
  8
0
 10
168.267
 11
168.236
 20
192.276
 21
192.266
  0
LINE
  8
0
 10
168.236
 11
168.027
 20
192.266
 21
192.268
  0
LINE
  8
0
 10
168.027
 11
167.994
 20
192.268
 21
192.268
  0
LINE
  8
0
 10
167.994
 11
167.787
 20
192.268
 21
192.27
  0
LINE
  8
0
 10
167.787
 11
167.754
 20
192.27
 21
192.27
  0
LINE
  8
0
 10
167.754
 11
167.552
 20
192.27
 21
192.336
  0
LINE
  8
0
 10
167.552
 11
167.521
 20
192.336
 21
192.346
  0
LINE
  8
0
 10
167.521
 11
167.489
 20
192.346
 21
192.356
  0
LINE
  8
0
 10
167.489
 11
167.289
 20
192.356
 21
192.422
  0
LINE
  8
0
 10
167.289
 11
167.26
 20
192.422
 21
192.442
  0
LINE
  8
0
 10
167.26
 11
167.079
 20
192.442
 21
192.568
  0
LINE
  8
0
 10
167.079
 11
167.051
 20
192.568
 21
192.588
  0
LINE
  8
0
 10
167.051
 11
166.868
 20
192.588
 21
192.716
  0
LINE
  8
0
 10
166.868
 11
166.844
 20
192.716
 21
192.744
  0
LINE
  8
0
 10
166.844
 11
166.694
 20
192.744
 21
192.922
  0
LINE
  8
0
 10
166.694
 11
166.67
 20
192.922
 21
192.95
  0
LINE
  8
0
 10
166.67
 11
166.521
 20
192.95
 21
193.13
  0
LINE
  8
0
 10
166.521
 11
166.503
 20
193.13
 21
193.165
  0
LINE
  8
0
 10
166.503
 11
166.393
 20
193.165
 21
193.386
  0
LINE
  8
0
 10
166.393
 11
166.282
 20
193.386
 21
193.606
  0
LINE
  8
0
 10
166.282
 11
166.265
 20
193.606
 21
193.64
  0
LINE
  8
0
 10
166.265
 11
166.255
 20
193.64
 21
193.679
  0
LINE
  8
0
 10
166.255
 11
166.191
 20
193.679
 21
193.928
  0
LINE
  8
0
 10
166.191
 11
166.181
 20
193.928
 21
193.967
  0
LINE
  8
0
 10
166.181
 11
166.119
 20
193.967
 21
194.214
  0
LINE
  8
0
 10
166.119
 11
166.107
 20
194.214
 21
203.125
  0
LINE
  8
0
 10
166.107
 11
166.105
 20
203.125
 21
204.514
  0
LINE
  8
0
 10
166.105
 11
166.098
 20
204.514
 21
209.613
  0
LINE
  8
0
 10
166.098
 11
166.094
 20
209.613
 21
213.425
  0
LINE
  8
0
 10
166.094
 11
166.092
 20
213.425
 21
214.814
  0
LINE
  8
0
 10
172.487
 11
172.514
 20
231.849
 21
231.993
  0
LINE
  8
0
 10
172.514
 11
172.687
 20
231.993
 21
232.914
  0
LINE
  8
0
 10
172.687
 11
172.714
 20
232.914
 21
233.057
  0
LINE
  8
0
 10
172.714
 11
172.887
 20
233.057
 21
233.978
  0
LINE
  8
0
 10
172.887
 11
173.236
 20
233.978
 21
234.848
  0
LINE
  8
0
 10
173.236
 11
173.291
 20
234.848
 21
234.984
  0
LINE
  8
0
 10
173.291
 11
173.345
 20
234.984
 21
235.12
  0
LINE
  8
0
 10
173.345
 11
173.695
 20
235.12
 21
235.99
  0
LINE
  8
0
 10
173.695
 11
173.775
 20
235.99
 21
236.113
  0
LINE
  8
0
 10
173.775
 11
174.286
 20
236.113
 21
236.898
  0
LINE
  8
0
 10
174.286
 11
174.366
 20
236.898
 21
237.02
  0
LINE
  8
0
 10
174.366
 11
174.878
 20
237.02
 21
237.805
  0
LINE
  8
0
 10
174.878
 11
174.98
 20
237.805
 21
237.909
  0
LINE
  8
0
 10
174.98
 11
175.636
 20
237.909
 21
238.579
  0
LINE
  8
0
 10
175.636
 11
175.739
 20
238.579
 21
238.683
  0
LINE
  8
0
 10
175.739
 11
176.393
 20
238.683
 21
239.353
  0
LINE
  8
0
 10
176.393
 11
177.167
 20
239.353
 21
239.883
  0
LINE
  8
0
 10
177.167
 11
177.288
 20
239.883
 21
239.966
  0
LINE
  8
0
 10
177.288
 11
178.061
 20
239.966
 21
240.494
  0
LINE
  8
0
 10
178.061
 11
178.182
 20
240.494
 21
240.576
  0
LINE
  8
0
 10
178.182
 11
178.316
 20
240.576
 21
240.634
  0
LINE
  8
0
 10
178.316
 11
179.178
 20
240.634
 21
241.002
  0
LINE
  8
0
 10
179.178
 11
179.963
 20
241.002
 21
241.337
  0
LINE
  8
0
 10
179.963
 11
180.041
 20
241.337
 21
241.37
  0
LINE
  8
0
 10
180.041
 11
180.175
 20
241.37
 21
241.428
  0
LINE
  8
0
 10
180.175
 11
180.318
 20
241.428
 21
241.458
  0
LINE
  8
0
 10
180.318
 11
181.235
 20
241.458
 21
241.651
  0
LINE
  8
0
 10
181.235
 11
182.152
 20
241.651
 21
241.845
  0
LINE
  8
0
 10
182.152
 11
182.295
 20
241.845
 21
241.875
  0
LINE
  8
0
 10
182.295
 11
183.232
 20
241.875
 21
241.884
  0
LINE
  8
0
 10
183.232
 11
183.379
 20
241.884
 21
241.886
  0
LINE
  8
0
 10
183.379
 11
183.525
 20
241.886
 21
241.887
  0
LINE
  8
0
 10
183.525
 11
184.462
 20
241.887
 21
241.899
  0
LINE
  8
0
 10
184.462
 11
184.606
 20
241.899
 21
241.872
  0
LINE
  8
0
 10
184.606
 11
185.526
 20
241.872
 21
241.699
  0
LINE
  8
0
 10
185.526
 11
185.67
 20
241.699
 21
241.672
  0
LINE
  8
0
 10
185.67
 11
186.593
 20
241.672
 21
241.499
  0
LINE
  8
0
 10
186.593
 11
186.728
 20
241.499
 21
241.444
  0
LINE
  8
0
 10
186.728
 11
187.597
 20
241.444
 21
241.094
  0
LINE
  8
0
 10
187.597
 11
187.733
 20
241.094
 21
241.04
  0
LINE
  8
0
 10
187.733
 11
188.603
 20
241.04
 21
240.69
  0
LINE
  8
0
 10
188.603
 11
189.388
 20
240.69
 21
240.179
  0
LINE
  8
0
 10
189.388
 11
189.51
 20
240.179
 21
240.099
  0
LINE
  8
0
 10
189.51
 11
189.633
 20
240.099
 21
240.019
  0
LINE
  8
0
 10
189.633
 11
190.418
 20
240.019
 21
239.508
  0
LINE
  8
0
 10
190.418
 11
191.087
 20
239.508
 21
238.851
  0
LINE
  8
0
 10
191.087
 11
191.192
 20
238.851
 21
238.749
  0
LINE
  8
0
 10
191.192
 11
191.296
 20
238.749
 21
238.647
  0
LINE
  8
0
 10
191.296
 11
191.968
 20
238.647
 21
237.992
  0
LINE
  8
0
 10
191.968
 11
192.496
 20
237.992
 21
237.218
  0
LINE
  8
0
 10
192.496
 11
192.578
 20
237.218
 21
237.098
  0
LINE
  8
0
 10
192.578
 11
193.109
 20
237.098
 21
236.324
  0
LINE
  8
0
 10
193.109
 11
193.191
 20
236.324
 21
236.203
  0
LINE
  8
0
 10
193.191
 11
193.259
 20
236.203
 21
236.045
  0
LINE
  8
0
 10
193.259
 11
193.56
 20
236.045
 21
235.34
  0
LINE
  8
0
 10
193.56
 11
193.617
 20
235.34
 21
235.206
  0
LINE
  8
0
 10
193.617
 11
193.985
 20
235.206
 21
234.344
  0
LINE
  8
0
 10
193.985
 11
194.043
 20
234.344
 21
234.21
  0
LINE
  8
0
 10
194.043
 11
194.234
 20
234.21
 21
233.293
  0
LINE
  8
0
 10
194.234
 11
194.264
 20
233.293
 21
233.15
  0
LINE
  8
0
 10
194.264
 11
194.458
 20
233.15
 21
232.231
  0
LINE
  8
0
 10
194.458
 11
194.488
 20
232.231
 21
232.088
  0
LINE
  8
0
 10
194.488
 11
194.499
 20
232.088
 21
221.85
  0
LINE
  8
0
 10
194.499
 11
194.501
 20
221.85
 21
220.255
  0
LINE
  8
0
 10
194.501
 11
194.502
 20
220.255
 21
218.659
  0
LINE
  8
0
 10
194.502
 11
194.508
 20
218.659
 21
212.666
  0
LINE
  8
0
 10
194.508
 11
194.508
 20
212.666
 21
212.644
  0
LINE
  8
0
 10
194.508
 11
194.511
 20
212.644
 21
208.421
  0
LINE
  8
0
 10
194.511
 11
194.338
 20
208.421
 21
207.5
  0
LINE
  8
0
 10
194.338
 11
194.311
 20
207.5
 21
207.357
  0
LINE
  8
0
 10
194.311
 11
194.138
 20
207.357
 21
206.436
  0
LINE
  8
0
 10
194.138
 11
194.111
 20
206.436
 21
206.292
  0
LINE
  8
0
 10
194.111
 11
193.762
 20
206.292
 21
205.422
  0
LINE
  8
0
 10
193.762
 11
193.707
 20
205.422
 21
205.286
  0
LINE
  8
0
 10
193.707
 11
193.653
 20
205.286
 21
205.15
  0
LINE
  8
0
 10
193.653
 11
193.305
 20
205.15
 21
204.28
  0
LINE
  8
0
 10
193.305
 11
192.792
 20
204.28
 21
203.495
  0
LINE
  8
0
 10
192.792
 11
192.712
 20
203.495
 21
203.373
  0
LINE
  8
0
 10
192.712
 11
192.2
 20
203.373
 21
202.588
  0
LINE
  8
0
 10
192.2
 11
192.121
 20
202.588
 21
202.465
  0
LINE
  8
0
 10
192.121
 11
191.464
 20
202.465
 21
201.796
  0
LINE
  8
0
 10
191.464
 11
191.362
 20
201.796
 21
201.691
  0
LINE
  8
0
 10
191.362
 11
190.707
 20
201.691
 21
201.022
  0
LINE
  8
0
 10
190.707
 11
190.605
 20
201.022
 21
200.917
  0
LINE
  8
0
 10
190.605
 11
190.484
 20
200.917
 21
200.835
  0
LINE
  8
0
 10
190.484
 11
189.71
 20
200.835
 21
200.305
  0
LINE
  8
0
 10
189.71
 11
188.937
 20
200.305
 21
199.776
  0
LINE
  8
0
 10
188.937
 11
188.816
 20
199.776
 21
199.694
  0
LINE
  8
0
 10
188.816
 11
188.682
 20
199.694
 21
199.637
  0
LINE
  8
0
 10
188.682
 11
187.821
 20
199.637
 21
199.268
  0
LINE
  8
0
 10
187.821
 11
186.958
 20
199.268
 21
198.9
  0
LINE
  8
0
 10
186.958
 11
186.823
 20
198.9
 21
198.843
  0
LINE
  8
0
 10
186.823
 11
185.906
 20
198.843
 21
198.649
  0
LINE
  8
0
 10
185.906
 11
185.62
 20
198.649
 21
198.589
  0
LINE
  8
0
 10
185.62
 11
184.703
 20
198.589
 21
198.395
  0
LINE
  8
0
 10
184.703
 11
183.766
 20
198.395
 21
198.386
  0
LINE
  8
0
 10
183.766
 11
183.62
 20
198.386
 21
198.385
  0
LINE
  8
0
 10
183.62
 11
182.682
 20
198.385
 21
198.375
  0
LINE
  8
0
 10
182.682
 11
182.536
 20
198.375
 21
198.374
  0
LINE
  8
0
 10
182.536
 11
182.05
 20
198.374
 21
198.464
  0
LINE
  8
0
 10
182.05
 11
181.615
 20
198.464
 21
198.545
  0
LINE
  8
0
 10
181.615
 11
181.472
 20
198.545
 21
198.572
  0
LINE
  8
0
 10
181.472
 11
180.549
 20
198.572
 21
198.745
  0
LINE
  8
0
 10
180.549
 11
180.405
 20
198.745
 21
198.772
  0
LINE
  8
0
 10
180.405
 11
179.537
 20
198.772
 21
199.121
  0
LINE
  8
0
 10
179.537
 11
179.401
 20
199.121
 21
199.176
  0
LINE
  8
0
 10
179.401
 11
179.265
 20
199.176
 21
199.23
  0
LINE
  8
0
 10
179.265
 11
178.395
 20
199.23
 21
199.58
  0
LINE
  8
0
 10
178.395
 11
177.61
 20
199.58
 21
200.092
  0
LINE
  8
0
 10
177.61
 11
177.488
 20
200.092
 21
200.171
  0
LINE
  8
0
 10
177.488
 11
176.703
 20
200.171
 21
200.685
  0
LINE
  8
0
 10
176.703
 11
176.58
 20
200.685
 21
200.765
  0
LINE
  8
0
 10
176.58
 11
176.476
 20
200.765
 21
200.867
  0
LINE
  8
0
 10
176.476
 11
175.804
 20
200.867
 21
201.522
  0
LINE
  8
0
 10
175.804
 11
175.135
 20
201.522
 21
202.178
  0
LINE
  8
0
 10
175.135
 11
175.03
 20
202.178
 21
202.28
  0
LINE
  8
0
 10
175.03
 11
174.502
 20
202.28
 21
203.054
  0
LINE
  8
0
 10
174.502
 11
174.42
 20
203.054
 21
203.175
  0
LINE
  8
0
 10
174.42
 11
174.337
 20
203.175
 21
203.295
  0
LINE
  8
0
 10
174.337
 11
173.807
 20
203.295
 21
204.069
  0
LINE
  8
0
 10
173.807
 11
173.712
 20
204.069
 21
204.292
  0
LINE
  8
0
 10
173.712
 11
173.439
 20
204.292
 21
204.93
  0
LINE
  8
0
 10
173.439
 11
173.381
 20
204.93
 21
205.065
  0
LINE
  8
0
 10
173.381
 11
173.324
 20
205.065
 21
205.199
  0
LINE
  8
0
 10
173.324
 11
172.956
 20
205.199
 21
206.06
  0
LINE
  8
0
 10
172.956
 11
172.926
 20
206.06
 21
206.203
  0
LINE
  8
0
 10
172.926
 11
172.734
 20
206.203
 21
207.122
  0
LINE
  8
0
 10
172.734
 11
172.704
 20
207.122
 21
207.265
  0
LINE
  8
0
 10
172.704
 11
172.51
 20
207.265
 21
208.182
  0
LINE
  8
0
 10
172.51
 11
172.499
 20
208.182
 21
218.42
  0
LINE
  8
0
 10
172.499
 11
172.498
 20
218.42
 21
220.016
  0
LINE
  8
0
 10
172.498
 11
172.496
 20
220.016
 21
221.612
  0
LINE
  8
0
 10
172.496
 11
172.493
 20
221.612
 21
224.705
  0
LINE
  8
0
 10
172.493
 11
172.493
 20
224.705
 21
224.763
  0
LINE
  8
0
 10
172.493
 11
172.487
 20
224.763
 21
231.849
  0
LINE
  8
0
 10
179.998
 11
180.209
 20
287.48
 21
289.626
  0
LINE
  8
0
 10
180.209
 11
180.835
 20
289.626
 21
291.69
  0
LINE
  8
0
 10
180.835
 11
181.798
 20
291.69
 21
293.491
  0
LINE
  8
0
 10
181.798
 11
181.812
 20
293.491
 21
293.516
  0
LINE
  8
0
 10
181.812
 11
181.857
 20
293.516
 21
293.597
  0
LINE
  8
0
 10
181.857
 11
181.869
 20
293.597
 21
293.612
  0
LINE
  8
0
 10
181.869
 11
181.963
 20
293.612
 21
293.726
  0
LINE
  8
0
 10
181.963
 11
181.982
 20
293.726
 21
293.75
  0
LINE
  8
0
 10
181.982
 11
182.008
 20
293.75
 21
293.782
  0
LINE
  8
0
 10
182.008
 11
182.136
 20
293.782
 21
293.937
  0
LINE
  8
0
 10
182.136
 11
182.168
 20
293.937
 21
293.976
  0
LINE
  8
0
 10
182.168
 11
182.324
 20
293.976
 21
294.167
  0
LINE
  8
0
 10
182.324
 11
182.502
 20
294.167
 21
294.383
  0
LINE
  8
0
 10
182.502
 11
182.539
 20
294.383
 21
294.428
  0
LINE
  8
0
 10
182.539
 11
182.731
 20
294.428
 21
294.662
  0
LINE
  8
0
 10
182.731
 11
182.77
 20
294.662
 21
294.71
  0
LINE
  8
0
 10
182.77
 11
182.968
 20
294.71
 21
294.951
  0
LINE
  8
0
 10
182.968
 11
183.009
 20
294.951
 21
295.001
  0
LINE
  8
0
 10
183.009
 11
183.203
 20
295.001
 21
295.238
  0
LINE
  8
0
 10
183.203
 11
183.22
 20
295.238
 21
295.258
  0
LINE
  8
0
 10
183.22
 11
183.25
 20
295.258
 21
295.283
  0
LINE
  8
0
 10
183.25
 11
183.488
 20
295.283
 21
295.479
  0
LINE
  8
0
 10
183.488
 11
183.537
 20
295.479
 21
295.519
  0
LINE
  8
0
 10
183.537
 11
183.749
 20
295.519
 21
295.692
  0
LINE
  8
0
 10
183.749
 11
183.792
 20
295.692
 21
295.728
  0
LINE
  8
0
 10
183.792
 11
184.887
 20
295.728
 21
296.626
  0
LINE
  8
0
 10
184.887
 11
186.789
 20
296.626
 21
297.643
  0
LINE
  8
0
 10
186.789
 11
188.852
 20
297.643
 21
298.269
  0
LINE
  8
0
 10
188.852
 11
190.998
 20
298.269
 21
298.48
  0
LINE
  8
0
 10
190.998
 11
193.144
 20
298.48
 21
298.269
  0
LINE
  8
0
 10
193.144
 11
195.208
 20
298.269
 21
297.643
  0
LINE
  8
0
 10
195.208
 11
197.109
 20
297.643
 21
296.626
  0
LINE
  8
0
 10
197.109
 11
198.776
 20
296.626
 21
295.258
  0
LINE
  8
0
 10
198.776
 11
200.144
 20
295.258
 21
293.591
  0
LINE
  8
0
 10
200.144
 11
201.161
 20
293.591
 21
291.69
  0
LINE
  8
0
 10
201.161
 11
201.787
 20
291.69
 21
289.626
  0
LINE
  8
0
 10
201.787
 11
201.998
 20
289.626
 21
287.48
  0
LINE
  8
0
 10
201.998
 11
201.896
 20
287.48
 21
286.443
  0
LINE
  8
0
 10
201.896
 11
201.894
 20
286.443
 21
286.421
  0
LINE
  8
0
 10
201.894
 11
201.883
 20
286.421
 21
286.311
  0
LINE
  8
0
 10
201.883
 11
201.881
 20
286.311
 21
286.286
  0
LINE
  8
0
 10
201.881
 11
201.869
 20
286.286
 21
286.165
  0
LINE
  8
0
 10
201.869
 11
201.866
 20
286.165
 21
286.139
  0
LINE
  8
0
 10
201.866
 11
201.853
 20
286.139
 21
286.012
  0
LINE
  8
0
 10
201.853
 11
201.851
 20
286.012
 21
285.985
  0
LINE
  8
0
 10
201.851
 11
201.838
 20
285.985
 21
285.858
  0
LINE
  8
0
 10
201.838
 11
201.836
 20
285.858
 21
285.832
  0
LINE
  8
0
 10
201.836
 11
201.824
 20
285.832
 21
285.71
  0
LINE
  8
0
 10
201.824
 11
201.821
 20
285.71
 21
285.686
  0
LINE
  8
0
 10
201.821
 11
201.81
 20
285.686
 21
285.574
  0
LINE
  8
0
 10
201.81
 11
201.801
 20
285.574
 21
285.477
  0
LINE
  8
0
 10
201.801
 11
201.799
 20
285.477
 21
285.457
  0
LINE
  8
0
 10
201.799
 11
201.791
 20
285.457
 21
285.378
  0
LINE
  8
0
 10
201.791
 11
201.788
 20
285.378
 21
285.35
  0
LINE
  8
0
 10
201.788
 11
201.787
 20
285.35
 21
285.334
  0
LINE
  8
0
 10
201.787
 11
201.773
 20
285.334
 21
285.289
  0
LINE
  8
0
 10
201.773
 11
201.759
 20
285.289
 21
285.244
  0
LINE
  8
0
 10
201.759
 11
201.161
 20
285.244
 21
283.271
  0
LINE
  8
0
 10
201.161
 11
200.144
 20
283.271
 21
281.369
  0
LINE
  8
0
 10
200.144
 11
200.1
 20
281.369
 21
281.315
  0
LINE
  8
0
 10
200.1
 11
199.696
 20
281.315
 21
280.822
  0
LINE
  8
0
 10
199.696
 11
198.776
 20
280.822
 21
279.702
  0
LINE
  8
0
 10
198.776
 11
197.109
 20
279.702
 21
278.334
  0
LINE
  8
0
 10
197.109
 11
195.208
 20
278.334
 21
277.317
  0
LINE
  8
0
 10
195.208
 11
193.144
 20
277.317
 21
276.691
  0
LINE
  8
0
 10
193.144
 11
190.998
 20
276.691
 21
276.48
  0
LINE
  8
0
 10
190.998
 11
188.852
 20
276.48
 21
276.691
  0
LINE
  8
0
 10
188.852
 11
186.789
 20
276.691
 21
277.317
  0
LINE
  8
0
 10
186.789
 11
184.887
 20
277.317
 21
278.334
  0
LINE
  8
0
 10
184.887
 11
183.22
 20
278.334
 21
279.702
  0
LINE
  8
0
 10
183.22
 11
181.852
 20
279.702
 21
281.369
  0
LINE
  8
0
 10
181.852
 11
181.197
 20
281.369
 21
282.593
  0
LINE
  8
0
 10
181.197
 11
180.937
 20
282.593
 21
283.08
  0
LINE
  8
0
 10
180.937
 11
180.93
 20
283.08
 21
283.093
  0
LINE
  8
0
 10
180.93
 11
180.835
 20
283.093
 21
283.271
  0
LINE
  8
0
 10
180.835
 11
180.209
 20
283.271
 21
285.334
  0
LINE
  8
0
 10
180.209
 11
179.998
 20
285.334
 21
287.48
  0
LINE
  8
0
 10
197.07
 11
197.076
 20
245.74
 21
245.78
  0
LINE
  8
0
 10
197.076
 11
197.148
 20
245.78
 21
246.292
  0
LINE
  8
0
 10
197.148
 11
197.154
 20
246.292
 21
246.332
  0
LINE
  8
0
 10
197.154
 11
197.167
 20
246.332
 21
246.369
  0
LINE
  8
0
 10
197.167
 11
197.253
 20
246.369
 21
246.606
  0
LINE
  8
0
 10
197.253
 11
197.266
 20
246.606
 21
246.643
  0
LINE
  8
0
 10
197.266
 11
197.352
 20
246.643
 21
246.88
  0
LINE
  8
0
 10
197.352
 11
197.372
 20
246.88
 21
246.912
  0
LINE
  8
0
 10
197.372
 11
197.502
 20
246.912
 21
247.116
  0
LINE
  8
0
 10
197.502
 11
197.633
 20
247.116
 21
247.319
  0
LINE
  8
0
 10
197.633
 11
197.653
 20
247.319
 21
247.35
  0
LINE
  8
0
 10
197.653
 11
197.679
 20
247.35
 21
247.375
  0
LINE
  8
0
 10
197.679
 11
197.846
 20
247.375
 21
247.53
  0
LINE
  8
0
 10
197.846
 11
197.872
 20
247.53
 21
247.555
  0
LINE
  8
0
 10
197.872
 11
198.038
 20
247.555
 21
247.71
  0
LINE
  8
0
 10
198.038
 11
198.068
 20
247.71
 21
247.726
  0
LINE
  8
0
 10
198.068
 11
198.261
 20
247.726
 21
247.826
  0
LINE
  8
0
 10
198.261
 11
198.291
 20
247.826
 21
247.842
  0
LINE
  8
0
 10
198.291
 11
198.483
 20
247.842
 21
247.94
  0
LINE
  8
0
 10
198.483
 11
198.515
 20
247.94
 21
247.946
  0
LINE
  8
0
 10
198.515
 11
198.722
 20
247.946
 21
247.982
  0
LINE
  8
0
 10
198.722
 11
198.754
 20
247.982
 21
247.988
  0
LINE
  8
0
 10
198.754
 11
198.96
 20
247.988
 21
248.026
  0
LINE
  8
0
 10
198.96
 11
198.992
 20
248.026
 21
248.022
  0
LINE
  8
0
 10
198.992
 11
199.198
 20
248.022
 21
247.992
  0
LINE
  8
0
 10
199.198
 11
199.231
 20
247.992
 21
247.988
  0
LINE
  8
0
 10
199.231
 11
199.438
 20
247.988
 21
247.958
  0
LINE
  8
0
 10
199.438
 11
199.632
 20
247.958
 21
247.867
  0
LINE
  8
0
 10
199.632
 11
199.662
 20
247.867
 21
247.852
  0
LINE
  8
0
 10
199.662
 11
199.858
 20
247.852
 21
247.761
  0
LINE
  8
0
 10
199.858
 11
199.888
 20
247.761
 21
247.746
  0
LINE
  8
0
 10
199.888
 11
199.915
 20
247.746
 21
247.723
  0
LINE
  8
0
 10
199.915
 11
200.085
 20
247.723
 21
247.572
  0
LINE
  8
0
 10
200.085
 11
200.255
 20
247.572
 21
247.423
  0
LINE
  8
0
 10
200.255
 11
200.282
 20
247.423
 21
247.4
  0
LINE
  8
0
 10
200.282
 11
200.303
 20
247.4
 21
247.369
  0
LINE
  8
0
 10
200.303
 11
200.438
 20
247.369
 21
247.17
  0
LINE
  8
0
 10
200.438
 11
200.573
 20
247.17
 21
246.973
  0
LINE
  8
0
 10
200.573
 11
200.594
 20
246.973
 21
246.942
  0
LINE
  8
0
 10
200.594
 11
200.685
 20
246.942
 21
246.709
  0
LINE
  8
0
 10
200.685
 11
200.699
 20
246.709
 21
246.672
  0
LINE
  8
0
 10
200.699
 11
200.791
 20
246.672
 21
246.439
  0
LINE
  8
0
 10
200.791
 11
200.805
 20
246.439
 21
246.402
  0
LINE
  8
0
 10
200.805
 11
200.848
 20
246.402
 21
246.146
  0
LINE
  8
0
 10
200.848
 11
200.854
 20
246.146
 21
246.106
  0
LINE
  8
0
 10
200.854
 11
200.896
 20
246.106
 21
245.852
  0
LINE
  8
0
 10
200.896
 11
200.902
 20
245.852
 21
245.812
  0
LINE
  8
0
 10
200.902
 11
200.893
 20
245.812
 21
236.901
  0
LINE
  8
0
 10
200.893
 11
200.891
 20
236.901
 21
235.512
  0
LINE
  8
0
 10
200.891
 11
200.89
 20
235.512
 21
234.123
  0
LINE
  8
0
 10
200.89
 11
200.889
 20
234.123
 21
233.008
  0
LINE
  8
0
 10
200.889
 11
200.88
 20
233.008
 21
225.212
  0
LINE
  8
0
 10
200.88
 11
200.819
 20
225.212
 21
224.963
  0
LINE
  8
0
 10
200.819
 11
200.81
 20
224.963
 21
224.924
  0
LINE
  8
0
 10
200.81
 11
200.747
 20
224.924
 21
224.675
  0
LINE
  8
0
 10
200.747
 11
200.738
 20
224.675
 21
224.636
  0
LINE
  8
0
 10
200.738
 11
200.63
 20
224.636
 21
224.415
  0
LINE
  8
0
 10
200.63
 11
200.613
 20
224.415
 21
224.38
  0
LINE
  8
0
 10
200.613
 11
200.504
 20
224.38
 21
224.159
  0
LINE
  8
0
 10
200.504
 11
200.486
 20
224.159
 21
224.124
  0
LINE
  8
0
 10
200.486
 11
200.337
 20
224.124
 21
223.943
  0
LINE
  8
0
 10
200.337
 11
200.314
 20
223.943
 21
223.914
  0
LINE
  8
0
 10
200.314
 11
200.164
 20
223.914
 21
223.734
  0
LINE
  8
0
 10
200.164
 11
200.141
 20
223.734
 21
223.706
  0
LINE
  8
0
 10
200.141
 11
199.96
 20
223.706
 21
223.576
  0
LINE
  8
0
 10
199.96
 11
199.931
 20
223.576
 21
223.556
  0
LINE
  8
0
 10
199.931
 11
199.75
 20
223.556
 21
223.428
  0
LINE
  8
0
 10
199.75
 11
199.722
 20
223.428
 21
223.408
  0
LINE
  8
0
 10
199.722
 11
199.521
 20
223.408
 21
223.339
  0
LINE
  8
0
 10
199.521
 11
199.49
 20
223.339
 21
223.328
  0
LINE
  8
0
 10
199.49
 11
199.289
 20
223.328
 21
223.261
  0
LINE
  8
0
 10
199.289
 11
199.258
 20
223.261
 21
223.25
  0
LINE
  8
0
 10
199.258
 11
199.05
 20
223.25
 21
223.245
  0
LINE
  8
0
 10
199.05
 11
199.018
 20
223.245
 21
223.244
  0
LINE
  8
0
 10
199.018
 11
198.81
 20
223.244
 21
223.241
  0
LINE
  8
0
 10
198.81
 11
198.778
 20
223.241
 21
223.24
  0
LINE
  8
0
 10
198.778
 11
198.574
 20
223.24
 21
223.301
  0
LINE
  8
0
 10
198.574
 11
198.542
 20
223.301
 21
223.31
  0
LINE
  8
0
 10
198.542
 11
198.511
 20
223.31
 21
223.32
  0
LINE
  8
0
 10
198.511
 11
198.309
 20
223.32
 21
223.38
  0
LINE
  8
0
 10
198.309
 11
198.28
 20
223.38
 21
223.399
  0
LINE
  8
0
 10
198.28
 11
198.096
 20
223.399
 21
223.522
  0
LINE
  8
0
 10
198.096
 11
198.067
 20
223.522
 21
223.541
  0
LINE
  8
0
 10
198.067
 11
197.883
 20
223.541
 21
223.662
  0
LINE
  8
0
 10
197.883
 11
197.859
 20
223.662
 21
223.69
  0
LINE
  8
0
 10
197.859
 11
197.706
 20
223.69
 21
223.866
  0
LINE
  8
0
 10
197.706
 11
197.682
 20
223.866
 21
223.894
  0
LINE
  8
0
 10
197.682
 11
197.528
 20
223.894
 21
224.068
  0
LINE
  8
0
 10
197.528
 11
197.51
 20
224.068
 21
224.102
  0
LINE
  8
0
 10
197.51
 11
197.395
 20
224.102
 21
224.32
  0
LINE
  8
0
 10
197.395
 11
197.378
 20
224.32
 21
224.354
  0
LINE
  8
0
 10
197.378
 11
197.264
 20
224.354
 21
224.57
  0
LINE
  8
0
 10
197.264
 11
197.253
 20
224.57
 21
224.609
  0
LINE
  8
0
 10
197.253
 11
197.186
 20
224.609
 21
224.856
  0
LINE
  8
0
 10
197.186
 11
197.175
 20
224.856
 21
224.895
  0
LINE
  8
0
 10
197.175
 11
197.109
 20
224.895
 21
225.14
  0
LINE
  8
0
 10
197.109
 11
197.106
 20
225.14
 21
226.529
  0
LINE
  8
0
 10
197.106
 11
197.091
 20
226.529
 21
234.52
  0
LINE
  8
0
 10
197.091
 11
197.09
 20
234.52
 21
235.44
  0
LINE
  8
0
 10
197.09
 11
197.087
 20
235.44
 21
236.829
  0
LINE
  8
0
 10
197.087
 11
197.07
 20
236.829
 21
245.74
  0
LINE
  8
0
 10
197.074
 11
197.08
 20
214.828
 21
214.868
  0
LINE
  8
0
 10
197.08
 11
197.122
 20
214.868
 21
215.122
  0
LINE
  8
0
 10
197.122
 11
197.128
 20
215.122
 21
215.162
  0
LINE
  8
0
 10
197.128
 11
197.171
 20
215.162
 21
215.416
  0
LINE
  8
0
 10
197.171
 11
197.185
 20
215.416
 21
215.453
  0
LINE
  8
0
 10
197.185
 11
197.275
 20
215.453
 21
215.688
  0
LINE
  8
0
 10
197.275
 11
197.29
 20
215.688
 21
215.725
  0
LINE
  8
0
 10
197.29
 11
197.381
 20
215.725
 21
215.958
  0
LINE
  8
0
 10
197.381
 11
197.517
 20
215.958
 21
216.156
  0
LINE
  8
0
 10
197.517
 11
197.538
 20
216.156
 21
216.186
  0
LINE
  8
0
 10
197.538
 11
197.559
 20
216.186
 21
216.217
  0
LINE
  8
0
 10
197.559
 11
197.693
 20
216.217
 21
216.416
  0
LINE
  8
0
 10
197.693
 11
197.719
 20
216.416
 21
216.44
  0
LINE
  8
0
 10
197.719
 11
197.89
 20
216.44
 21
216.59
  0
LINE
  8
0
 10
197.89
 11
197.916
 20
216.59
 21
216.614
  0
LINE
  8
0
 10
197.916
 11
198.085
 20
216.614
 21
216.764
  0
LINE
  8
0
 10
198.085
 11
198.115
 20
216.764
 21
216.779
  0
LINE
  8
0
 10
198.115
 11
198.31
 20
216.779
 21
216.87
  0
LINE
  8
0
 10
198.31
 11
198.341
 20
216.87
 21
216.885
  0
LINE
  8
0
 10
198.341
 11
198.536
 20
216.885
 21
216.978
  0
LINE
  8
0
 10
198.536
 11
198.568
 20
216.978
 21
216.983
  0
LINE
  8
0
 10
198.568
 11
198.774
 20
216.983
 21
217.012
  0
LINE
  8
0
 10
198.774
 11
198.807
 20
217.012
 21
217.017
  0
LINE
  8
0
 10
198.807
 11
199.013
 20
217.017
 21
217.046
  0
LINE
  8
0
 10
199.013
 11
199.045
 20
217.046
 21
217.041
  0
LINE
  8
0
 10
199.045
 11
199.251
 20
217.041
 21
217.004
  0
LINE
  8
0
 10
199.251
 11
199.283
 20
217.004
 21
216.999
  0
LINE
  8
0
 10
199.283
 11
199.49
 20
216.999
 21
216.962
  0
LINE
  8
0
 10
199.49
 11
199.682
 20
216.962
 21
216.864
  0
LINE
  8
0
 10
199.682
 11
199.712
 20
216.864
 21
216.848
  0
LINE
  8
0
 10
199.712
 11
199.906
 20
216.848
 21
216.75
  0
LINE
  8
0
 10
199.906
 11
199.936
 20
216.75
 21
216.734
  0
LINE
  8
0
 10
199.936
 11
200.102
 20
216.734
 21
216.579
  0
LINE
  8
0
 10
200.102
 11
200.128
 20
216.579
 21
216.554
  0
LINE
  8
0
 10
200.128
 11
200.296
 20
216.554
 21
216.399
  0
LINE
  8
0
 10
200.296
 11
200.322
 20
216.399
 21
216.374
  0
LINE
  8
0
 10
200.322
 11
200.452
 20
216.374
 21
216.172
  0
LINE
  8
0
 10
200.452
 11
200.472
 20
216.172
 21
216.14
  0
LINE
  8
0
 10
200.472
 11
200.602
 20
216.14
 21
215.938
  0
LINE
  8
0
 10
200.602
 11
200.622
 20
215.938
 21
215.906
  0
LINE
  8
0
 10
200.622
 11
200.636
 20
215.906
 21
215.869
  0
LINE
  8
0
 10
200.636
 11
200.723
 20
215.869
 21
215.632
  0
LINE
  8
0
 10
200.723
 11
200.809
 20
215.632
 21
215.395
  0
LINE
  8
0
 10
200.809
 11
200.822
 20
215.395
 21
215.358
  0
LINE
  8
0
 10
200.822
 11
200.858
 20
215.358
 21
215.102
  0
LINE
  8
0
 10
200.858
 11
200.864
 20
215.102
 21
215.062
  0
LINE
  8
0
 10
200.864
 11
200.9
 20
215.062
 21
214.806
  0
LINE
  8
0
 10
200.9
 11
200.906
 20
214.806
 21
214.766
  0
LINE
  8
0
 10
200.906
 11
200.896
 20
214.766
 21
209.144
  0
LINE
  8
0
 10
200.896
 11
200.89
 20
209.144
 21
205.856
  0
LINE
  8
0
 10
200.89
 11
200.888
 20
205.856
 21
204.466
  0
LINE
  8
0
 10
200.888
 11
200.886
 20
204.466
 21
203.077
  0
LINE
  8
0
 10
200.886
 11
200.871
 20
203.077
 21
194.166
  0
LINE
  8
0
 10
200.871
 11
200.86
 20
194.166
 21
194.128
  0
LINE
  8
0
 10
200.86
 11
200.792
 20
194.128
 21
193.88
  0
LINE
  8
0
 10
200.792
 11
200.782
 20
193.88
 21
193.842
  0
LINE
  8
0
 10
200.782
 11
200.715
 20
193.842
 21
193.596
  0
LINE
  8
0
 10
200.715
 11
200.698
 20
193.596
 21
193.562
  0
LINE
  8
0
 10
200.698
 11
200.584
 20
193.562
 21
193.344
  0
LINE
  8
0
 10
200.584
 11
200.566
 20
193.344
 21
193.31
  0
LINE
  8
0
 10
200.566
 11
200.453
 20
193.31
 21
193.092
  0
LINE
  8
0
 10
200.453
 11
200.299
 20
193.092
 21
192.916
  0
LINE
  8
0
 10
200.299
 11
200.275
 20
192.916
 21
192.888
  0
LINE
  8
0
 10
200.275
 11
200.122
 20
192.888
 21
192.714
  0
LINE
  8
0
 10
200.122
 11
200.098
 20
192.714
 21
192.686
  0
LINE
  8
0
 10
200.098
 11
200.069
 20
192.686
 21
192.667
  0
LINE
  8
0
 10
200.069
 11
199.885
 20
192.667
 21
192.544
  0
LINE
  8
0
 10
199.885
 11
199.701
 20
192.544
 21
192.421
  0
LINE
  8
0
 10
199.701
 11
199.672
 20
192.421
 21
192.402
  0
LINE
  8
0
 10
199.672
 11
199.47
 20
192.402
 21
192.342
  0
LINE
  8
0
 10
199.47
 11
199.439
 20
192.342
 21
192.332
  0
LINE
  8
0
 10
199.439
 11
199.236
 20
192.332
 21
192.27
  0
LINE
  8
0
 10
199.236
 11
199.205
 20
192.27
 21
192.26
  0
LINE
  8
0
 10
199.205
 11
198.997
 20
192.26
 21
192.264
  0
LINE
  8
0
 10
198.997
 11
198.965
 20
192.264
 21
192.264
  0
LINE
  8
0
 10
198.965
 11
198.756
 20
192.264
 21
192.268
  0
LINE
  8
0
 10
198.756
 11
198.723
 20
192.268
 21
192.268
  0
LINE
  8
0
 10
198.723
 11
198.523
 20
192.268
 21
192.336
  0
LINE
  8
0
 10
198.523
 11
198.491
 20
192.336
 21
192.346
  0
LINE
  8
0
 10
198.491
 11
198.46
 20
192.346
 21
192.357
  0
LINE
  8
0
 10
198.46
 11
198.259
 20
192.357
 21
192.426
  0
LINE
  8
0
 10
198.259
 11
198.078
 20
192.426
 21
192.554
  0
LINE
  8
0
 10
198.078
 11
198.05
 20
192.554
 21
192.574
  0
LINE
  8
0
 10
198.05
 11
197.868
 20
192.574
 21
192.702
  0
LINE
  8
0
 10
197.868
 11
197.84
 20
192.702
 21
192.722
  0
LINE
  8
0
 10
197.84
 11
197.691
 20
192.722
 21
192.902
  0
LINE
  8
0
 10
197.691
 11
197.667
 20
192.902
 21
192.93
  0
LINE
  8
0
 10
197.667
 11
197.644
 20
192.93
 21
192.959
  0
LINE
  8
0
 10
197.644
 11
197.495
 20
192.959
 21
193.14
  0
LINE
  8
0
 10
197.495
 11
197.477
 20
193.14
 21
193.175
  0
LINE
  8
0
 10
197.477
 11
197.368
 20
193.175
 21
193.396
  0
LINE
  8
0
 10
197.368
 11
197.351
 20
193.396
 21
193.431
  0
LINE
  8
0
 10
197.351
 11
197.242
 20
193.431
 21
193.652
  0
LINE
  8
0
 10
197.242
 11
197.232
 20
193.652
 21
193.691
  0
LINE
  8
0
 10
197.232
 11
197.17
 20
193.691
 21
193.94
  0
LINE
  8
0
 10
197.17
 11
197.107
 20
193.94
 21
194.188
  0
LINE
  8
0
 10
197.107
 11
197.098
 20
194.188
 21
194.226
  0
LINE
  8
0
 10
197.098
 11
197.096
 20
194.226
 21
195.616
  0
LINE
  8
0
 10
197.096
 11
197.086
 20
195.616
 21
204.526
  0
LINE
  8
0
 10
197.086
 11
197.085
 20
204.526
 21
205.916
  0
LINE
  8
0
 10
197.085
 11
197.078
 20
205.916
 21
211.236
  0
LINE
  8
0
 10
197.078
 11
197.078
 20
211.236
 21
211.254
  0
LINE
  8
0
 10
197.078
 11
197.074
 20
211.254
 21
214.828
  0
ENDSEC
  0
SECTION
  2
OBJECTS
  0
DICTIONARY
  0
ENDSEC
  0
EOF
