  0
SECTION
  2
BLOCKS
  0
ENDSEC
  0
SECTION
  2
ENTITIES
  0
LINE
  8
0
 10
-21.668
 11
-21.668
 20
246.421
 21
259.354
  0
LINE
  8
0
 10
-21.668
 11
-21.244
 20
259.354
 21
259.702
  0
LINE
  8
0
 10
-21.244
 11
-19.876
 20
259.702
 21
261.369
  0
LINE
  8
0
 10
-19.876
 11
-18.859
 20
261.369
 21
263.271
  0
LINE
  8
0
 10
-18.859
 11
-18.233
 20
263.271
 21
265.334
  0
LINE
  8
0
 10
-18.233
 11
-18.022
 20
265.334
 21
267.48
  0
LINE
  8
0
 10
-18.022
 11
-18.233
 20
267.48
 21
269.626
  0
LINE
  8
0
 10
-18.233
 11
-18.859
 20
269.626
 21
271.69
  0
LINE
  8
0
 10
-18.859
 11
-19.876
 20
271.69
 21
273.591
  0
LINE
  8
0
 10
-19.876
 11
-21.244
 20
273.591
 21
275.258
  0
LINE
  8
0
 10
-21.244
 11
-21.668
 20
275.258
 21
275.606
  0
LINE
  8
0
 10
-21.668
 11
-21.668
 20
275.606
 21
304.98
  0
LINE
  8
0
 10
-21.668
 11
-5.522
 20
304.98
 21
304.98
  0
LINE
  8
0
 10
-5.522
 11
-5.522
 20
304.98
 21
279.98
  0
LINE
  8
0
 10
-5.522
 11
-11.524
 20
279.98
 21
279.98
  0
LINE
  8
0
 10
-11.524
 11
-11.524
 20
279.98
 21
254.98
  0
LINE
  8
0
 10
-11.524
 11
-5.522
 20
254.98
 21
254.98
  0
LINE
  8
0
 10
-5.522
 11
-5.522
 20
254.98
 21
246.421
  0
LINE
  8
0
 10
-5.522
 11
-21.668
 20
246.421
 21
246.421
  0
LINE
  8
0
 10
5.498
 11
5.498
 20
254.98
 21
279.98
  0
LINE
  8
0
 10
5.498
 11
11.5
 20
279.98
 21
279.98
  0
LINE
  8
0
 10
11.5
 11
11.5
 20
279.98
 21
304.98
  0
LINE
  8
0
 10
11.5
 11
40.916
 20
304.98
 21
304.98
  0
LINE
  8
0
 10
40.916
 11
40.956
 20
304.98
 21
304.413
  0
LINE
  8
0
 10
40.956
 11
41.035
 20
304.413
 21
303.321
  0
LINE
  8
0
 10
41.035
 11
41.149
 20
303.321
 21
301.716
  0
LINE
  8
0
 10
41.149
 11
41.185
 20
301.716
 21
301.213
  0
LINE
  8
0
 10
41.185
 11
41.227
 20
301.213
 21
300.623
  0
LINE
  8
0
 10
41.227
 11
41.342
 20
300.623
 21
299.019
  0
LINE
  8
0
 10
41.342
 11
41.308
 20
299.019
 21
298.977
  0
LINE
  8
0
 10
41.308
 11
41.257
 20
298.977
 21
298.916
  0
LINE
  8
0
 10
41.257
 11
41.179
 20
298.916
 21
298.769
  0
LINE
  8
0
 10
41.179
 11
41.063
 20
298.769
 21
298.553
  0
LINE
  8
0
 10
41.063
 11
41.015
 20
298.553
 21
298.393
  0
LINE
  8
0
 10
41.015
 11
40.944
 20
298.393
 21
298.159
  0
LINE
  8
0
 10
40.944
 11
40.928
 20
298.159
 21
297.993
  0
LINE
  8
0
 10
40.928
 11
40.904
 20
297.993
 21
297.749
  0
LINE
  8
0
 10
40.904
 11
40.92
 20
297.749
 21
297.583
  0
LINE
  8
0
 10
40.92
 11
40.944
 20
297.583
 21
297.339
  0
LINE
  8
0
 10
40.944
 11
40.992
 20
297.339
 21
297.18
  0
LINE
  8
0
 10
40.992
 11
41.063
 20
297.18
 21
296.945
  0
LINE
  8
0
 10
41.063
 11
41.142
 20
296.945
 21
296.798
  0
LINE
  8
0
 10
41.142
 11
41.257
 20
296.798
 21
296.582
  0
LINE
  8
0
 10
41.257
 11
41.363
 20
296.582
 21
296.453
  0
LINE
  8
0
 10
41.363
 11
41.519
 20
296.453
 21
296.264
  0
LINE
  8
0
 10
41.519
 11
41.708
 20
296.264
 21
296.109
  0
LINE
  8
0
 10
41.708
 11
41.837
 20
296.109
 21
296.003
  0
LINE
  8
0
 10
41.837
 11
42.053
 20
296.003
 21
295.888
  0
LINE
  8
0
 10
42.053
 11
42.2
 20
295.888
 21
295.809
  0
LINE
  8
0
 10
42.2
 11
42.434
 20
295.809
 21
295.738
  0
LINE
  8
0
 10
42.434
 11
42.594
 20
295.738
 21
295.689
  0
LINE
  8
0
 10
42.594
 11
42.838
 20
295.689
 21
295.665
  0
LINE
  8
0
 10
42.838
 11
43.004
 20
295.665
 21
295.649
  0
LINE
  8
0
 10
43.004
 11
43.247
 20
295.649
 21
295.673
  0
LINE
  8
0
 10
43.247
 11
43.413
 20
295.673
 21
295.689
  0
LINE
  8
0
 10
43.413
 11
43.648
 20
295.689
 21
295.76
  0
LINE
  8
0
 10
43.648
 11
43.807
 20
295.76
 21
295.809
  0
LINE
  8
0
 10
43.807
 11
43.954
 20
295.809
 21
295.888
  0
LINE
  8
0
 10
43.954
 11
44.17
 20
295.888
 21
296.003
  0
LINE
  8
0
 10
44.17
 11
44.36
 20
296.003
 21
296.158
  0
LINE
  8
0
 10
44.36
 11
44.488
 20
296.158
 21
296.264
  0
LINE
  8
0
 10
44.488
 11
44.644
 20
296.264
 21
296.453
  0
LINE
  8
0
 10
44.644
 11
44.75
 20
296.453
 21
296.582
  0
LINE
  8
0
 10
44.75
 11
44.828
 20
296.582
 21
296.729
  0
LINE
  8
0
 10
44.828
 11
44.944
 20
296.729
 21
296.945
  0
LINE
  8
0
 10
44.944
 11
44.992
 20
296.945
 21
297.105
  0
LINE
  8
0
 10
44.992
 11
45.063
 20
297.105
 21
297.339
  0
LINE
  8
0
 10
45.063
 11
45.079
 20
297.339
 21
297.505
  0
LINE
  8
0
 10
45.079
 11
45.104
 20
297.505
 21
297.749
  0
LINE
  8
0
 10
45.104
 11
45.101
 20
297.749
 21
297.772
  0
LINE
  8
0
 10
45.101
 11
45.104
 20
297.772
 21
297.805
  0
LINE
  8
0
 10
45.104
 11
45.104
 20
297.805
 21
302.494
  0
LINE
  8
0
 10
45.104
 11
45.103
 20
302.494
 21
303.685
  0
LINE
  8
0
 10
45.103
 11
45.103
 20
303.685
 21
304.98
  0
LINE
  8
0
 10
45.103
 11
52.261
 20
304.98
 21
304.98
  0
LINE
  8
0
 10
52.261
 11
52.261
 20
304.98
 21
270.513
  0
LINE
  8
0
 10
52.261
 11
50.394
 20
270.513
 21
270.351
  0
LINE
  8
0
 10
50.394
 11
47.868
 20
270.351
 21
269.673
  0
LINE
  8
0
 10
47.868
 11
46.353
 20
269.673
 21
268.966
  0
LINE
  8
0
 10
46.353
 11
45.502
 20
268.966
 21
268.569
  0
LINE
  8
0
 10
45.502
 11
43.358
 20
268.569
 21
267.069
  0
LINE
  8
0
 10
43.358
 11
41.508
 20
267.069
 21
265.219
  0
LINE
  8
0
 10
41.508
 11
40.256
 20
265.219
 21
263.43
  0
LINE
  8
0
 10
40.256
 11
40.008
 20
263.43
 21
263.077
  0
LINE
  8
0
 10
40.008
 11
38.904
 20
263.077
 21
260.709
  0
LINE
  8
0
 10
38.904
 11
38.248
 20
260.709
 21
258.264
  0
LINE
  8
0
 10
38.248
 11
38.226
 20
258.264
 21
258.183
  0
LINE
  8
0
 10
38.226
 11
38
 20
258.183
 21
255.577
  0
LINE
  8
0
 10
38
 11
38
 20
255.577
 21
246.421
  0
LINE
  8
0
 10
38
 11
11.5
 20
246.421
 21
246.421
  0
LINE
  8
0
 10
11.5
 11
11.5
 20
246.421
 21
254.98
  0
LINE
  8
0
 10
11.5
 11
5.498
 20
254.98
 21
254.98
  0
LINE
  8
0
 10
17.998
 11
18.209
 20
287.48
 21
289.626
  0
LINE
  8
0
 10
18.209
 11
18.835
 20
289.626
 21
291.689
  0
LINE
  8
0
 10
18.835
 11
19.852
 20
291.689
 21
293.591
  0
LINE
  8
0
 10
19.852
 11
21.22
 20
293.591
 21
295.258
  0
LINE
  8
0
 10
21.22
 11
22.887
 20
295.258
 21
296.626
  0
LINE
  8
0
 10
22.887
 11
24.789
 20
296.626
 21
297.643
  0
LINE
  8
0
 10
24.789
 11
26.852
 20
297.643
 21
298.269
  0
LINE
  8
0
 10
26.852
 11
28.998
 20
298.269
 21
298.48
  0
LINE
  8
0
 10
28.998
 11
31.144
 20
298.48
 21
298.269
  0
LINE
  8
0
 10
31.144
 11
33.208
 20
298.269
 21
297.643
  0
LINE
  8
0
 10
33.208
 11
35.109
 20
297.643
 21
296.626
  0
LINE
  8
0
 10
35.109
 11
36.549
 20
296.626
 21
295.445
  0
LINE
  8
0
 10
36.549
 11
36.641
 20
295.445
 21
295.369
  0
LINE
  8
0
 10
36.641
 11
36.778
 20
295.369
 21
295.256
  0
LINE
  8
0
 10
36.778
 11
36.861
 20
295.256
 21
295.155
  0
LINE
  8
0
 10
36.861
 11
36.984
 20
295.155
 21
295.005
  0
LINE
  8
0
 10
36.984
 11
37.074
 20
295.005
 21
294.895
  0
LINE
  8
0
 10
37.074
 11
37.207
 20
294.895
 21
294.733
  0
LINE
  8
0
 10
37.207
 11
37.301
 20
294.733
 21
294.619
  0
LINE
  8
0
 10
37.301
 11
37.438
 20
294.619
 21
294.452
  0
LINE
  8
0
 10
37.438
 11
37.53
 20
294.452
 21
294.339
  0
LINE
  8
0
 10
37.53
 11
37.666
 20
294.339
 21
294.174
  0
LINE
  8
0
 10
37.666
 11
37.793
 20
294.174
 21
294.019
  0
LINE
  8
0
 10
37.793
 11
37.88
 20
294.019
 21
293.913
  0
LINE
  8
0
 10
37.88
 11
37.994
 20
293.913
 21
293.774
  0
LINE
  8
0
 10
37.994
 11
38.071
 20
293.774
 21
293.68
  0
LINE
  8
0
 10
38.071
 11
38.144
 20
293.68
 21
293.591
  0
LINE
  8
0
 10
38.144
 11
39.137
 20
293.591
 21
291.735
  0
LINE
  8
0
 10
39.137
 11
39.161
 20
291.735
 21
291.689
  0
LINE
  8
0
 10
39.161
 11
39.218
 20
291.689
 21
291.5
  0
LINE
  8
0
 10
39.218
 11
39.268
 20
291.5
 21
291.335
  0
LINE
  8
0
 10
39.268
 11
39.334
 20
291.335
 21
291.117
  0
LINE
  8
0
 10
39.334
 11
39.379
 20
291.117
 21
290.97
  0
LINE
  8
0
 10
39.379
 11
39.787
 20
290.97
 21
289.626
  0
LINE
  8
0
 10
39.787
 11
39.842
 20
289.626
 21
289.06
  0
LINE
  8
0
 10
39.842
 11
39.998
 20
289.06
 21
287.48
  0
LINE
  8
0
 10
39.998
 11
39.932
 20
287.48
 21
286.809
  0
LINE
  8
0
 10
39.932
 11
39.787
 20
286.809
 21
285.334
  0
LINE
  8
0
 10
39.787
 11
39.161
 20
285.334
 21
283.27
  0
LINE
  8
0
 10
39.161
 11
38.144
 20
283.27
 21
281.369
  0
LINE
  8
0
 10
38.144
 11
37.966
 20
281.369
 21
281.152
  0
LINE
  8
0
 10
37.966
 11
36.776
 20
281.152
 21
279.702
  0
LINE
  8
0
 10
36.776
 11
35.109
 20
279.702
 21
278.334
  0
LINE
  8
0
 10
35.109
 11
34.555
 20
278.334
 21
278.037
  0
LINE
  8
0
 10
34.555
 11
33.208
 20
278.037
 21
277.317
  0
LINE
  8
0
 10
33.208
 11
31.144
 20
277.317
 21
276.691
  0
LINE
  8
0
 10
31.144
 11
28.998
 20
276.691
 21
276.48
  0
LINE
  8
0
 10
28.998
 11
28.214
 20
276.48
 21
276.557
  0
LINE
  8
0
 10
28.214
 11
28.126
 20
276.557
 21
276.566
  0
LINE
  8
0
 10
28.126
 11
27.997
 20
276.566
 21
276.579
  0
LINE
  8
0
 10
27.997
 11
27.9
 20
276.579
 21
276.588
  0
LINE
  8
0
 10
27.9
 11
27.758
 20
276.588
 21
276.602
  0
LINE
  8
0
 10
27.758
 11
26.852
 20
276.602
 21
276.691
  0
LINE
  8
0
 10
26.852
 11
24.789
 20
276.691
 21
277.317
  0
LINE
  8
0
 10
24.789
 11
22.887
 20
277.317
 21
278.334
  0
LINE
  8
0
 10
22.887
 11
21.22
 20
278.334
 21
279.702
  0
LINE
  8
0
 10
21.22
 11
19.852
 20
279.702
 21
281.369
  0
LINE
  8
0
 10
19.852
 11
18.835
 20
281.369
 21
283.27
  0
LINE
  8
0
 10
18.835
 11
18.706
 20
283.27
 21
283.696
  0
LINE
  8
0
 10
18.706
 11
18.697
 20
283.696
 21
283.727
  0
LINE
  8
0
 10
18.697
 11
18.683
 20
283.727
 21
283.774
  0
LINE
  8
0
 10
18.683
 11
18.672
 20
283.774
 21
283.809
  0
LINE
  8
0
 10
18.672
 11
18.656
 20
283.809
 21
283.862
  0
LINE
  8
0
 10
18.656
 11
18.639
 20
283.862
 21
283.918
  0
LINE
  8
0
 10
18.639
 11
18.627
 20
283.918
 21
283.956
  0
LINE
  8
0
 10
18.627
 11
18.61
 20
283.956
 21
284.014
  0
LINE
  8
0
 10
18.61
 11
18.598
 20
284.014
 21
284.053
  0
LINE
  8
0
 10
18.598
 11
18.581
 20
284.053
 21
284.109
  0
LINE
  8
0
 10
18.581
 11
18.569
 20
284.109
 21
284.148
  0
LINE
  8
0
 10
18.569
 11
18.553
 20
284.148
 21
284.2
  0
LINE
  8
0
 10
18.553
 11
18.543
 20
284.2
 21
284.236
  0
LINE
  8
0
 10
18.543
 11
18.529
 20
284.236
 21
284.282
  0
LINE
  8
0
 10
18.529
 11
18.519
 20
284.282
 21
284.313
  0
LINE
  8
0
 10
18.519
 11
18.209
 20
284.313
 21
285.334
  0
LINE
  8
0
 10
18.209
 11
17.998
 20
285.334
 21
287.48
  0
ENDSEC
  0
SECTION
  2
OBJECTS
  0
DICTIONARY
  0
ENDSEC
  0
EOF
